<svg width="674" height="559" viewBox="0 0 674 559" fill="none" xmlns="http://www.w3.org/2000/svg">
<path d="M292.96 0.919983C336.47 0.919983 396.43 153.38 403.07 157.51C409.71 161.65 570.76 181.13 584.11 212.45C597.47 243.77 473.56 357.1 470.48 364.8C467.41 372.51 498.37 533.63 472.9 554.73C447.43 575.82 301.84 493.36 292.96 493.31C284.08 493.26 144.37 576.26 113.01 554.73C81.65 533.2 117.69 373.52 115.43 364.8C113.17 356.08 -12.36 253.92 1.8 212.45C15.96 170.97 177.07 161.8 182.85 157.51C188.63 153.22 249.46 0.919983 292.95 0.919983H292.96Z" fill="#FFBD39"/>
<path d="M292.96 19.85C333.5 19.85 386.67 167.41 392.86 171.27C399.05 175.13 551.89 187.83 564.34 217.02C576.79 246.22 458.56 349.11 455.71 356.3C452.84 363.48 484.43 516.39 460.68 536.05C436.95 555.71 301.24 476.13 292.96 476.08C284.68 476.03 154.46 556.12 125.23 536.05C95.9999 515.99 135.05 367.16 132.94 359.03C130.83 350.91 8.36996 255.69 21.57 217.03C34.77 178.37 190.39 175.28 195.78 171.28C201.17 167.27 252.41 19.86 292.96 19.86V19.85Z" fill="url(#paint0_linear_19_657)"/>
<path d="M57.0502 224.17C54.2402 196.68 144.42 180.5 148.4 212.66C152.38 244.82 60.9002 261.62 57.0502 224.17Z" fill="white"/>
<path d="M171.49 203.63C170.82 185.95 197.78 184.87 199.18 199.38C200.74 215.62 172.11 220.17 171.49 203.63Z" fill="white"/>
<g opacity="0.6">
<g opacity="0.6">
<path d="M211.7 383.1C211.7 400.98 195.99 415.49 176.62 415.49C157.25 415.49 141.54 400.99 141.54 383.1C141.54 365.21 157.25 350.72 176.62 350.72C195.99 350.72 211.7 365.22 211.7 383.1Z" fill="#FF5F82"/>
</g>
<g opacity="0.6">
<path d="M444.26 383.1C444.26 400.98 428.56 415.49 409.19 415.49C389.82 415.49 374.11 400.99 374.11 383.1C374.11 365.21 389.81 350.72 409.19 350.72C428.57 350.72 444.26 365.22 444.26 383.1Z" fill="#FF5F82"/>
</g>
</g>
<path d="M343.95 447.72C328.58 470.93 253.83 467.8 238.48 447.72C226.47 432.01 233.8 399.8 290.4 399.8C347 399.8 353.79 432.89 343.95 447.72Z" fill="#872A2A"/>
<path d="M429.73 319.17C438.7 326.76 425.35 367.57 389.65 367.57C353.95 367.57 341.28 327.26 348.69 319.17C355.11 312.18 362.97 344.38 388.77 344.38C414.57 344.38 422.14 312.76 429.73 319.17Z" fill="#541300"/>
<path d="M231.9 319.17C240.88 326.76 227.53 367.57 191.82 367.57C156.11 367.57 143.45 327.26 150.87 319.17C157.28 312.18 165.15 344.38 190.95 344.38C216.75 344.38 224.32 312.76 231.9 319.17Z" fill="#541300"/>
<path d="M430.19 221.89C433.91 224.14 455.53 218.97 457.26 221.62C458.99 224.28 432.45 253.96 429.99 257.17C427.94 259.85 428.47 268.35 431.12 269.94C434.81 272.16 471.86 272.44 475.31 270.59C479.56 268.32 478.58 258.4 476.24 257.87C473.12 257.16 447.05 261.46 445.99 258.81C444.92 256.15 469.87 229.6 472.79 226.68C475.71 223.76 475.71 212.09 471.99 210.23C468.28 208.37 430.41 207.91 428.95 209.45C427.5 210.99 426.47 219.65 430.19 221.91V221.89Z" fill="#24BDE0"/>
<path d="M489.86 161.73C495.01 164.86 524.97 157.69 527.35 161.37C529.74 165.04 492.98 206.16 489.57 210.6C486.73 214.31 487.46 226.08 491.13 228.28C496.25 231.35 547.57 231.74 552.34 229.17C558.22 226.02 556.86 212.29 553.63 211.55C549.31 210.56 513.2 216.52 511.72 212.84C510.25 209.16 544.8 172.38 548.85 168.34C552.9 164.3 552.89 148.13 547.75 145.55C542.6 142.98 490.15 142.34 488.14 144.47C486.13 146.6 484.71 158.59 489.86 161.72V161.73Z" fill="#24BDE0"/>
<path d="M575.67 189.97C583.22 194.56 627.17 184.05 630.67 189.43C634.17 194.82 580.26 255.13 575.26 261.65C571.08 267.1 572.16 284.36 577.55 287.59C585.05 292.1 660.32 292.67 667.33 288.91C675.95 284.28 673.95 264.14 669.22 263.06C662.89 261.61 609.9 270.35 607.74 264.96C605.58 259.56 656.27 205.62 662.2 199.69C668.13 193.76 668.13 170.04 660.58 166.26C653.04 162.48 576.08 161.55 573.14 164.68C570.19 167.81 568.1 185.4 575.65 189.98L575.67 189.97Z" fill="#24BDE0"/>
<defs>
<linearGradient id="paint0_linear_19_657" x1="157.37" y1="151.39" x2="477.38" y2="535.8" gradientUnits="userSpaceOnUse">
<stop offset="0.04" stop-color="#FFF466"/>
<stop offset="0.08" stop-color="#FFF466"/>
<stop offset="0.32" stop-color="#FFEB5F"/>
<stop offset="0.69" stop-color="#FFD54C"/>
<stop offset="0.86" stop-color="#FFC943"/>
</linearGradient>
</defs>
</svg>
