<svg width="585" height="559" viewBox="0 0 585 559" fill="none" xmlns="http://www.w3.org/2000/svg">
<path d="M292.27 0.839966C335.77 0.839966 395.74 153.3 402.37 157.43C409.01 161.57 570.06 181.05 583.42 212.37C596.78 243.7 472.86 357.02 469.78 364.73C466.72 372.44 497.67 533.56 472.2 554.65C446.73 575.73 301.13 493.28 292.25 493.23C283.37 493.18 143.66 576.17 112.31 554.65C80.95 533.12 116.99 373.44 114.73 364.73C112.47 356.01 -13.06 253.85 1.10004 212.37C15.25 170.89 176.36 161.72 182.15 157.43C187.93 153.13 248.76 0.839966 292.26 0.839966H292.27Z" fill="#FFBD39"/>
<path d="M292.26 19.77C332.8 19.77 385.97 167.33 392.16 171.19C398.35 175.05 551.19 187.75 563.64 216.95C576.09 246.15 457.87 349.04 455 356.22C452.14 363.4 483.72 516.32 459.98 535.97C436.24 555.63 300.53 476.04 292.25 476C283.98 475.95 153.75 556.04 124.53 535.97C95.3 515.91 134.35 367.08 132.24 358.95C130.13 350.83 7.67001 255.61 20.87 216.95C34.06 178.29 189.69 175.2 195.08 171.19C200.47 167.19 251.7 19.77 292.25 19.77H292.26Z" fill="url(#paint0_linear_19_947)"/>
<path d="M56.3701 224.1C53.5501 196.61 143.74 180.43 147.71 212.59C151.69 244.75 60.2201 261.55 56.3701 224.1Z" fill="white"/>
<path d="M170.81 203.56C170.13 185.88 197.1 184.8 198.5 199.31C200.07 215.55 171.44 220.1 170.81 203.56Z" fill="white"/>
<g opacity="0.6">
<g opacity="0.6">
<path d="M207.48 365.39C207.48 383.27 191.78 397.78 172.4 397.78C153.02 397.78 137.32 383.28 137.32 365.39C137.32 347.5 153.02 333.01 172.4 333.01C191.78 333.01 207.48 347.51 207.48 365.39Z" fill="#FF5F82"/>
</g>
<g opacity="0.6">
<path d="M447.1 365.39C447.1 383.27 431.39 397.78 412.02 397.78C392.65 397.78 376.95 383.28 376.95 365.39C376.95 347.5 392.65 333.01 412.02 333.01C431.39 333.01 447.1 347.51 447.1 365.39Z" fill="#FF5F82"/>
</g>
</g>
<path d="M414.74 281.59C461.06 284.57 448.5 331.55 411.28 330.3C374.06 329.05 368.42 278.6 414.74 281.59Z" fill="#541300"/>
<path d="M402.89 314.85C406.42 323.47 388.02 334.04 383.78 325.17C379.25 315.7 399.58 306.76 402.89 314.85Z" fill="white"/>
<path d="M433.49 288.95C415.67 276.64 369.26 277.7 342.24 306.83C334.02 315.41 335.95 321.28 347.32 315.41C358.69 309.53 392.19 300.02 410.98 306.83" fill="#541300"/>
<path d="M217.35 281.59C263.68 284.57 251.11 331.55 213.89 330.3C176.66 329.05 171.03 278.6 217.35 281.59Z" fill="#541300"/>
<path d="M202.52 314.85C206.04 323.47 187.65 334.04 183.41 325.17C178.88 315.7 199.21 306.76 202.52 314.85Z" fill="white"/>
<path d="M236.08 288.95C218.26 276.64 171.85 277.7 144.84 306.83C136.61 315.41 138.55 321.28 149.92 315.41C161.29 309.53 194.8 300.02 213.58 306.83" fill="#541300"/>
<path d="M377.82 356.56C387.9 355.27 389.99 384.57 383.38 397.93C376.76 411.29 291.26 429.67 255.24 424.25C245.73 422.83 246.03 414.14 255.74 414.36C293.91 415.23 353.28 394.32 362.58 386.14C374.43 375.72 370.29 357.51 377.82 356.55V356.56Z" fill="#872A2A"/>
<path d="M209.69 218.18C213.55 207.65 190.74 194.01 163.57 202.51C145.2 208.26 129.7 233.17 134.78 237.9C139.86 242.62 145.18 222.5 169.06 215.88C189.56 210.2 208.03 222.73 209.69 218.18Z" fill="#541300"/>
<path d="M374.74 218.18C370.88 207.65 393.69 194.01 420.86 202.51C439.23 208.26 454.73 233.17 449.65 237.9C444.57 242.62 439.25 222.5 415.37 215.88C394.87 210.2 376.4 222.73 374.73 218.18H374.74Z" fill="#541300"/>
<defs>
<linearGradient id="paint0_linear_19_947" x1="156.68" y1="151.32" x2="476.69" y2="535.73" gradientUnits="userSpaceOnUse">
<stop offset="0.04" stop-color="#FFF466"/>
<stop offset="0.08" stop-color="#FFF466"/>
<stop offset="0.32" stop-color="#FFEB5F"/>
<stop offset="0.69" stop-color="#FFD54C"/>
<stop offset="0.86" stop-color="#FFC943"/>
</linearGradient>
</defs>
</svg>
