<svg width="586" height="558" viewBox="0 0 586 558" fill="none" xmlns="http://www.w3.org/2000/svg">
<path d="M293.05 0C336.55 0 396.51 152.46 403.15 156.59C409.8 160.73 570.84 180.21 584.2 211.53C597.55 242.85 473.64 356.17 470.56 363.89C467.49 371.6 498.45 532.72 472.98 553.81C447.51 574.89 301.92 492.43 293.04 492.39C284.15 492.34 144.45 575.34 113.09 553.81C81.73 532.28 117.77 372.6 115.51 363.89C113.25 355.17 -12.28 253.01 1.87001 211.53C16.03 170.05 177.14 160.88 182.92 156.59C188.72 152.3 249.54 0 293.05 0Z" fill="#FFBD39"/>
<path d="M293.04 18.93C333.59 18.93 386.75 166.49 392.94 170.34C399.13 174.2 551.97 186.9 564.42 216.1C576.87 245.3 458.64 348.19 455.78 355.38C452.92 362.56 484.5 515.48 460.77 535.13C437.03 554.79 301.32 475.2 293.04 475.16C284.76 475.11 154.54 555.2 125.32 535.13C96.09 515.07 135.14 366.24 133.02 358.11C130.91 349.99 8.45988 254.77 21.6599 216.11C34.8499 177.45 190.47 174.36 195.87 170.35C201.25 166.34 252.49 18.94 293.04 18.94V18.93Z" fill="url(#paint0_linear_19_700)"/>
<path d="M57.14 223.25C54.32 195.76 144.51 179.58 148.49 211.75C152.47 243.91 60.99 260.71 57.14 223.25Z" fill="white"/>
<path d="M171.58 202.72C170.9 185.04 197.87 183.96 199.27 198.47C200.84 214.71 172.21 219.26 171.58 202.72Z" fill="white"/>
<g opacity="0.6">
<g opacity="0.6">
<path d="M208.25 361.02C208.25 378.9 192.55 393.41 173.17 393.41C153.79 393.41 138.1 378.91 138.1 361.02C138.1 343.13 153.8 328.64 173.17 328.64C192.54 328.64 208.25 343.14 208.25 361.02Z" fill="#FF5F82"/>
</g>
<g opacity="0.6">
<path d="M447.88 361.02C447.88 378.9 432.17 393.41 412.8 393.41C393.43 393.41 377.73 378.91 377.73 361.02C377.73 343.13 393.43 328.64 412.8 328.64C432.17 328.64 447.88 343.14 447.88 361.02Z" fill="#FF5F82"/>
</g>
</g>
<path d="M293.11 365.42C245.73 365.42 249.46 439.67 293.11 439.67C336.76 439.67 339.83 365.42 293.11 365.42Z" fill="#872A2A"/>
<path d="M244.33 261.41C229.54 255.35 152.41 329.7 164.16 340.89C175.92 352.07 262.97 269.05 244.33 261.41Z" fill="#541300"/>
<path d="M165.55 261.41C180.34 255.35 257.47 329.7 245.72 340.89C233.96 352.07 146.91 269.05 165.55 261.41Z" fill="#541300"/>
<path d="M420.42 261.41C405.63 255.35 328.5 329.7 340.25 340.89C352.02 352.07 439.06 269.05 420.42 261.41Z" fill="#541300"/>
<path d="M341.65 261.41C356.44 255.35 433.57 329.7 421.82 340.89C410.06 352.07 323.01 269.05 341.65 261.41Z" fill="#541300"/>
<path d="M228.5 199.5C232.4 191.37 215.17 178.68 192.76 183.4C177.6 186.6 163.25 205.37 166.97 209.54C170.68 213.71 176.48 200.17 196.12 196.7C212.98 193.73 226.82 203.01 228.5 199.5Z" fill="#541300"/>
<path d="M357.47 199.5C353.57 191.37 370.8 178.68 393.22 183.4C408.38 186.6 422.72 205.37 419.01 209.54C415.31 213.71 409.5 200.17 389.85 196.7C372.99 193.73 359.16 203.01 357.47 199.5Z" fill="#541300"/>
<defs>
<linearGradient id="paint0_linear_19_700" x1="157.45" y1="150.48" x2="477.47" y2="534.89" gradientUnits="userSpaceOnUse">
<stop offset="0.04" stop-color="#FFF466"/>
<stop offset="0.08" stop-color="#FFF466"/>
<stop offset="0.32" stop-color="#FFEB5F"/>
<stop offset="0.69" stop-color="#FFD54C"/>
<stop offset="0.86" stop-color="#FFC943"/>
</linearGradient>
</defs>
</svg>
