<svg width="587" height="559" viewBox="0 0 587 559" fill="none" xmlns="http://www.w3.org/2000/svg">
<path d="M293.54 0.919983C337.04 0.919983 397 153.38 403.64 157.51C410.28 161.65 571.33 181.13 584.69 212.45C598.05 243.77 474.13 357.1 471.06 364.8C467.99 372.51 498.95 533.63 473.48 554.73C448.01 575.82 302.42 493.36 293.54 493.31C284.66 493.26 144.95 576.26 113.59 554.73C82.23 533.2 118.27 373.52 116.01 364.8C113.75 356.08 -11.78 253.92 2.38001 212.45C16.53 170.97 177.64 161.8 183.42 157.51C189.2 153.22 250.03 0.919983 293.53 0.919983H293.54Z" fill="#FFBD39"/>
<path d="M293.53 19.85C334.08 19.85 387.25 167.41 393.43 171.27C399.62 175.13 552.46 187.83 564.91 217.02C577.36 246.22 459.13 349.11 456.27 356.3C453.41 363.48 484.99 516.39 461.26 536.05C437.52 555.71 301.81 476.13 293.53 476.08C285.26 476.03 155.04 556.12 125.81 536.05C96.58 515.99 135.63 367.16 133.52 359.03C131.41 350.91 8.95004 255.69 22.15 217.03C35.35 178.37 190.97 175.28 196.36 171.28C201.75 167.27 252.99 19.86 293.53 19.86V19.85Z" fill="url(#paint0_linear_19_768)"/>
<path d="M57.63 224.17C54.81 196.68 145 180.5 148.98 212.66C152.96 244.82 61.48 261.62 57.63 224.17Z" fill="white"/>
<path d="M172.07 203.63C171.39 185.95 198.35 184.87 199.76 199.38C201.33 215.62 172.7 220.17 172.07 203.63Z" fill="white"/>
<g opacity="0.6">
<g opacity="0.6">
<path d="M212.28 347.84C212.28 365.72 196.57 380.23 177.2 380.23C157.83 380.23 142.12 365.73 142.12 347.84C142.12 329.95 157.83 315.46 177.2 315.46C196.57 315.46 212.28 329.96 212.28 347.84Z" fill="#FF5F82"/>
</g>
<g opacity="0.6">
<path d="M444.84 347.84C444.84 365.72 429.13 380.23 409.76 380.23C390.39 380.23 374.68 365.73 374.68 347.84C374.68 329.95 390.39 315.46 409.76 315.46C429.13 315.46 444.84 329.96 444.84 347.84Z" fill="#FF5F82"/>
</g>
</g>
<path d="M192.73 270.24C197.37 266.74 388.99 266.54 393.95 270.24C403.6 277.44 398 359.52 295.43 359.52C192.86 359.52 183.21 277.44 192.74 270.24H192.73Z" fill="#872A2A"/>
<path d="M148.83 223.63C139.06 217.17 153.6 188.42 192.49 188.42C231.38 188.42 245.18 216.74 237.1 223.63C230.12 229.58 221.54 211.7 193.44 211.7C165.34 211.7 157.09 229.09 148.83 223.63Z" fill="#541300"/>
<path d="M350.75 223.63C340.98 217.17 355.52 188.42 394.41 188.42C433.3 188.42 447.09 216.74 439.02 223.63C432.03 229.58 423.46 211.7 395.36 211.7C367.26 211.7 359.01 229.09 350.75 223.63Z" fill="#541300"/>
<path d="M454.94 231.59C477.93 256.04 501.38 417.71 566.8 350.36C632.6 282.61 514.4 201.8 454.94 231.59Z" fill="#39D5FF"/>
<path d="M132.01 228.06C109.02 252.51 85.57 414.18 20.15 346.83C-45.65 279.09 72.55 198.27 132.01 228.06Z" fill="#39D5FF"/>
<defs>
<linearGradient id="paint0_linear_19_768" x1="157.94" y1="151.39" x2="477.96" y2="535.81" gradientUnits="userSpaceOnUse">
<stop offset="0.04" stop-color="#FFF466"/>
<stop offset="0.08" stop-color="#FFF466"/>
<stop offset="0.32" stop-color="#FFEB5F"/>
<stop offset="0.69" stop-color="#FFD54C"/>
<stop offset="0.86" stop-color="#FFC943"/>
</linearGradient>
</defs>
</svg>
