<svg width="585" height="559" viewBox="0 0 585 559" fill="none" xmlns="http://www.w3.org/2000/svg">
<path d="M292.27 0.919983C335.77 0.919983 395.73 153.38 402.37 157.51C409.01 161.65 570.06 181.13 583.42 212.45C596.77 243.77 472.86 357.1 469.78 364.8C466.71 372.51 497.67 533.63 472.2 554.73C446.73 575.82 301.14 493.35 292.26 493.31C283.38 493.26 143.67 576.26 112.31 554.73C80.95 533.2 116.99 373.52 114.73 364.8C112.47 356.08 -13.06 253.92 1.10004 212.45C15.25 170.97 176.36 161.8 182.15 157.51C187.94 153.21 248.76 0.919983 292.26 0.919983H292.27Z" fill="#FFBD39"/>
<path d="M292.26 19.85C332.8 19.85 385.97 167.41 392.16 171.27C398.35 175.13 551.19 187.83 563.64 217.03C576.09 246.23 457.86 349.12 455 356.31C452.14 363.49 483.72 516.41 459.99 536.06C436.25 555.72 300.55 476.14 292.26 476.09C283.99 476.04 153.76 556.13 124.54 536.06C95.3101 516 134.36 367.17 132.25 359.04C130.13 350.92 7.68009 255.7 20.8801 217.04C34.0801 178.38 189.7 175.29 195.09 171.28C200.48 167.27 251.72 19.86 292.26 19.86V19.85Z" fill="url(#paint0_linear_19_640)"/>
<path d="M56.3701 224.17C53.5501 196.68 143.74 180.5 147.71 212.66C151.69 244.82 60.2101 261.62 56.3701 224.17Z" fill="white"/>
<path d="M170.81 203.63C170.13 185.95 197.09 184.87 198.5 199.38C200.07 215.62 171.44 220.17 170.81 203.63Z" fill="white"/>
<g opacity="0.6">
<g opacity="0.6">
<path d="M207.49 301.99C207.49 319.87 191.78 334.38 172.41 334.38C153.04 334.38 137.33 319.88 137.33 301.99C137.33 284.1 153.04 269.61 172.41 269.61C191.78 269.61 207.49 284.11 207.49 301.99Z" fill="#FF5F82"/>
</g>
<g opacity="0.6">
<path d="M447.11 301.99C447.11 319.87 431.4 334.38 412.03 334.38C392.66 334.38 376.95 319.88 376.95 301.99C376.95 284.1 392.66 269.61 412.03 269.61C431.4 269.61 447.11 284.11 447.11 301.99Z" fill="#FF5F82"/>
</g>
</g>
<path d="M191.38 299.35C196.02 295.85 387.63 295.65 392.59 299.35C402.24 306.55 396.64 388.63 294.06 388.63C191.48 388.63 181.84 306.55 191.37 299.35H191.38Z" fill="#872A2A"/>
<path d="M153.12 249.03C144.15 241.45 157.49 200.63 193.2 200.63C228.91 200.63 241.57 240.94 234.16 249.03C227.75 256.02 219.88 223.82 194.08 223.82C168.28 223.82 160.71 255.44 153.12 249.03Z" fill="#541300"/>
<path d="M350.94 249.03C341.96 241.45 355.31 200.63 391.02 200.63C426.73 200.63 439.39 240.94 431.97 249.03C425.55 256.02 417.69 223.82 391.88 223.82C366.07 223.82 358.51 255.44 350.93 249.03H350.94Z" fill="#541300"/>
<defs>
<linearGradient id="paint0_linear_19_640" x1="156.68" y1="151.39" x2="476.69" y2="535.81" gradientUnits="userSpaceOnUse">
<stop offset="0.04" stop-color="#FFF466"/>
<stop offset="0.08" stop-color="#FFF466"/>
<stop offset="0.32" stop-color="#FFEB5F"/>
<stop offset="0.69" stop-color="#FFD54C"/>
<stop offset="0.86" stop-color="#FFC943"/>
</linearGradient>
</defs>
</svg>
