<svg width="585" height="558" viewBox="0 0 585 558" fill="none" xmlns="http://www.w3.org/2000/svg">
<path d="M292.3 0C335.8 0 395.76 152.46 402.4 156.59C409.04 160.73 570.09 180.21 583.45 211.53C596.81 242.85 472.89 356.17 469.82 363.89C466.75 371.6 497.71 532.72 472.24 553.81C446.77 574.89 301.18 492.44 292.3 492.39C283.42 492.34 143.71 575.34 112.36 553.81C81.0001 532.28 117.04 372.6 114.78 363.89C112.52 355.17 -13.0102 253.01 1.14985 211.53C15.3098 170.05 176.42 160.88 182.2 156.59C187.97 152.31 248.8 0 292.3 0Z" fill="#FFBD39"/>
<path d="M292.29 18.93C332.84 18.93 386.01 166.49 392.19 170.35C398.38 174.21 551.22 186.91 563.67 216.1C576.12 245.29 457.89 348.19 455.03 355.37C452.17 362.55 483.75 515.47 460.02 535.12C436.28 554.78 300.57 475.19 292.29 475.14C284.01 475.1 153.79 555.19 124.57 535.12C95.34 515.05 134.39 366.22 132.28 358.1C130.17 349.98 7.71989 254.75 20.9099 216.1C34.1099 177.44 189.73 174.35 195.12 170.35C200.51 166.34 251.75 18.93 292.29 18.93Z" fill="url(#paint0_linear_19_787)"/>
<path d="M59.8401 225.85C57.3801 198.33 147.77 183.32 151.33 215.54C154.89 247.76 63.2001 263.35 59.8401 225.85Z" fill="white"/>
<path d="M174.54 206.82C174.09 189.13 201.07 188.4 202.28 202.93C203.64 219.19 174.95 223.37 174.54 206.82Z" fill="white"/>
<g opacity="0.6">
<g opacity="0.6">
<path d="M208.26 311.65C208.26 329.54 192.55 344.04 173.18 344.04C153.81 344.04 138.1 329.54 138.1 311.65C138.1 293.76 153.81 279.27 173.18 279.27C192.55 279.27 208.26 293.76 208.26 311.65Z" fill="#FF5F82"/>
</g>
<g opacity="0.6">
<path d="M440.83 311.65C440.83 329.54 425.12 344.04 405.75 344.04C386.38 344.04 370.67 329.54 370.67 311.65C370.67 293.76 386.38 279.27 405.75 279.27C425.12 279.27 440.83 293.76 440.83 311.65Z" fill="#FF5F82"/>
</g>
</g>
<path opacity="0.5" d="M1.13983 211.54C10.6598 168.76 176.41 160.89 182.19 156.6C187.97 152.31 248.8 0 292.3 0C335.8 0 395.76 152.46 402.4 156.59C409.04 160.73 570.09 180.21 583.45 211.53C588.22 233.24 558.5 266.51 550.01 276.57C541.52 286.62 470.15 286.84 412.88 257.4C355.61 227.95 247.68 222.67 188.43 254.39C129.17 286.11 65.04 296.12 31.02 276.58C11.09 249.18 -2.66018 228.6 1.12982 211.54H1.13983Z" fill="#00FF00"/>
<path d="M202.92 248.33C249.24 251.31 236.68 298.29 199.45 297.05C162.22 295.8 156.59 245.35 202.92 248.33Z" fill="#541300"/>
<path d="M218.26 277.16C228.06 281.43 223.22 300.31 212.63 296.4C201.31 292.24 209.06 273.16 218.26 277.16Z" fill="white"/>
<path d="M237.16 266.96C205.96 257.76 168.02 266.74 156.66 270.69C145.29 274.64 144.21 265.33 152.44 259.57C179.46 239.98 216.55 240.01 236.63 251.34C256.19 262.38 246.3 269.66 237.17 266.96H237.16Z" fill="#541300"/>
<path d="M383.58 248.33C337.25 251.31 349.82 298.29 387.04 297.05C424.27 295.8 429.9 245.35 383.58 248.33Z" fill="#541300"/>
<path d="M369.33 278.9C359.6 283.14 364.41 301.87 374.92 297.99C386.15 293.86 378.46 274.93 369.33 278.9Z" fill="white"/>
<path d="M349.34 273.07C380.54 259.39 418.48 272.74 429.85 278.62C441.21 284.49 442.29 275.9 434.07 267.32C407.05 238.19 369.96 238.22 349.88 255.08C330.32 271.51 340.2 277.09 349.34 273.08V273.07Z" fill="#541300"/>
<path d="M341.23 413.72C336.51 418.68 317.04 409.14 292.3 409.16C267.32 409.17 247.29 418.64 242.58 413.72C237.87 408.8 251.51 366.78 291.88 366.78C332.25 366.78 345.94 408.75 341.22 413.72H341.23Z" fill="#872A2A"/>
<path d="M237.37 183.98C242.61 174.07 221.83 157.49 193.77 162.28C174.8 165.52 156.1 188.13 160.49 193.5C164.9 198.87 172.87 179.63 197.41 176.27C218.48 173.39 235.11 188.27 237.36 183.99L237.37 183.98Z" fill="#541300"/>
<path d="M346.11 184.1C340.84 174.2 361.57 157.56 389.65 162.27C408.62 165.45 427.4 188.01 423.01 193.38C418.63 198.76 410.6 179.54 386.04 176.26C364.96 173.44 348.38 188.38 346.11 184.1Z" fill="#541300"/>
<defs>
<linearGradient id="paint0_linear_19_787" x1="156.71" y1="150.48" x2="476.72" y2="534.89" gradientUnits="userSpaceOnUse">
<stop offset="0.05" stop-color="#FFF466"/>
<stop offset="0.28" stop-color="#FFED60"/>
<stop offset="0.62" stop-color="#FFDA51"/>
<stop offset="0.86" stop-color="#FFC943"/>
</linearGradient>
</defs>
</svg>
