<svg width="586" height="559" viewBox="0 0 586 559" fill="none" xmlns="http://www.w3.org/2000/svg">
<path d="M293.04 0.76001C336.54 0.76001 396.5 153.22 403.14 157.36C409.78 161.5 570.83 180.98 584.19 212.3C597.55 243.62 473.63 356.94 470.56 364.65C467.49 372.36 498.45 533.48 472.98 554.57C447.51 575.65 301.91 493.2 293.03 493.15C284.15 493.1 144.45 576.09 113.09 554.57C81.73 533.04 117.77 373.36 115.51 364.65C113.25 355.93 -12.2802 253.77 1.87983 212.3C16.0298 170.82 177.14 161.65 182.93 157.36C188.71 153.06 249.54 0.76001 293.04 0.76001Z" fill="#FFBD39"/>
<path d="M293.04 19.6899C333.58 19.6899 386.75 167.25 392.94 171.1C399.13 174.96 551.96 187.66 564.42 216.85C576.87 246.05 458.64 348.94 455.78 356.12C452.92 363.3 484.5 516.22 460.77 535.87C437.03 555.53 301.32 475.94 293.05 475.9C284.77 475.85 154.55 555.94 125.33 535.87C96.1001 515.81 135.14 366.98 133.04 358.85C130.93 350.73 8.4799 255.51 21.6699 216.85C34.8699 178.19 190.49 175.1 195.88 171.1C201.27 167.09 252.5 19.6899 293.05 19.6899H293.04Z" fill="url(#paint0_linear_19_869)"/>
<path d="M57.14 224.02C54.32 196.53 144.51 180.35 148.48 212.51C152.46 244.68 60.99 261.47 57.14 224.02Z" fill="white"/>
<path d="M171.58 203.48C170.9 185.79 197.87 184.72 199.26 199.23C200.83 215.47 172.2 220.02 171.58 203.48Z" fill="white"/>
<g opacity="0.6">
<g opacity="0.6">
<path d="M215.31 347.68C215.31 365.57 199.6 380.07 180.23 380.07C160.86 380.07 145.15 365.57 145.15 347.68C145.15 329.79 160.86 315.3 180.23 315.3C199.6 315.3 215.31 329.8 215.31 347.68Z" fill="#FF5F82"/>
</g>
<g opacity="0.6">
<path d="M447.87 347.68C447.87 365.57 432.17 380.07 412.8 380.07C393.43 380.07 377.73 365.57 377.73 347.68C377.73 329.79 393.43 315.3 412.8 315.3C432.17 315.3 447.87 329.8 447.87 347.68Z" fill="#FF5F82"/>
</g>
</g>
<path d="M357.65 309.7C348.15 301.67 362.28 277.63 400.03 277.63C437.78 277.63 451.18 301.14 443.34 309.7C436.55 317.09 428.24 298.42 400.95 298.42C373.66 298.42 365.66 316.48 357.65 309.7Z" fill="#541300"/>
<path d="M346.97 363.47C356.66 351.45 342.65 342.17 333.45 353.33C319.51 370.22 264.25 368.88 250.05 353.33C240.3 342.65 227.76 350.77 236.53 363.47C253.93 388.64 323.28 392.85 346.96 363.47H346.97Z" fill="#872A2A"/>
<path d="M137.8 143.02C137.8 143.02 61.8599 95.6101 28.8999 123.1C-4.0701 150.59 42.48 195.44 49.47 201.13C56.45 206.83 39.17 240.98 64.02 257.51C88.86 274.02 140.57 207.75 149.44 179.9" fill="#FF7676"/>
<path d="M177.54 128.7C177.54 128.7 205.79 43.7599 248.72 43.9099C291.64 44.0599 284.38 108.28 282.64 117.14C280.9 125.98 315.98 141.27 307.37 169.85C298.77 198.41 216.67 180.33 192.08 164.54" fill="#FF7676"/>
<path d="M132.15 139.72C119.67 155.46 137.03 192.6 174.93 178.94C211.3 165.83 198.45 125.28 179.38 122.7C160.31 120.13 140.51 129.18 132.15 139.72Z" fill="#FF7676"/>
<path d="M126.43 144.64C123.39 132.28 61.7899 104.68 43.1499 123.7C24.5199 142.75 46.4401 168.71 57.3301 174.62C63.4301 177.94 67.8801 182.02 65.8501 194C62.8301 211.71 72.5 237.21 86.47 236.68C106.82 235.93 143.97 192.97 134.68 167.14C131.25 162.22 107.95 193.29 97.1699 169.58C84.1699 140.98 128.84 154.45 126.43 144.64Z" fill="#FFA1A1"/>
<path d="M185.19 123.03C179.6 111.7 212.95 50.31 241.08 52.39C269.2 54.48 267.96 88.5 262.74 100.13C259.81 106.65 258.79 112.67 268.38 120.36C282.54 131.74 291.26 157.33 279.23 166.14C261.71 178.96 202.34 171.03 193.12 145.43C192.74 139.46 232.7 147.55 226.09 122.55C218.15 92.4202 189.64 132.01 185.19 123.03Z" fill="#FFA1A1"/>
<path d="M145.29 134.61C132.07 144.05 139.27 172.6 170.93 161.11C202.58 149.62 184.83 106.39 145.29 134.61Z" fill="#FFA1A1"/>
<path d="M424.65 288.6C438.36 284.83 443.27 277.31 448.21 271.35C453.14 265.39 459.4 287.9 437.97 298.36C454.68 299.93 462.67 288.57 465.35 290.03C470.73 292.96 453.01 314.76 438.01 310.99" fill="#541300"/>
<path d="M199.22 241.79C146.42 245.19 160.74 322.86 203.17 321.44C245.59 320.01 252.01 238.4 199.22 241.79Z" fill="#541300"/>
<path d="M217.54 278.34C206.31 277.34 202.75 298.57 215.46 300.53C228.18 302.5 233.49 279.74 217.54 278.34Z" fill="white"/>
<path d="M179.13 262.44C164.38 260.56 158.18 253.49 152.18 248.05C146.2 242.6 143.03 266.84 166.77 274.52C149.71 278.61 139.75 268.02 137.19 269.93C132.06 273.76 153.62 293.72 168.61 287.61" fill="#541300"/>
<defs>
<linearGradient id="paint0_linear_19_869" x1="157.45" y1="151.24" x2="477.47" y2="535.65" gradientUnits="userSpaceOnUse">
<stop offset="0.04" stop-color="#FFF466"/>
<stop offset="0.08" stop-color="#FFF466"/>
<stop offset="0.32" stop-color="#FFEB5F"/>
<stop offset="0.69" stop-color="#FFD54C"/>
<stop offset="0.86" stop-color="#FFC943"/>
</linearGradient>
</defs>
</svg>
