<svg width="585" height="559" viewBox="0 0 585 559" fill="none" xmlns="http://www.w3.org/2000/svg">
<path d="M292.46 0.839966C335.96 0.839966 395.92 153.3 402.56 157.43C409.2 161.57 570.25 181.05 583.61 212.37C596.97 243.7 473.05 357.02 469.98 364.73C466.91 372.44 497.87 533.56 472.4 554.65C446.93 575.73 301.34 493.28 292.46 493.23C283.58 493.18 143.87 576.17 112.52 554.65C81.16 533.12 117.2 373.44 114.94 364.73C112.67 356.01 -12.85 253.85 1.29996 212.37C15.46 170.89 176.57 161.72 182.35 157.43C188.13 153.13 248.95 0.839966 292.46 0.839966Z" fill="#FFBD39"/>
<path d="M292.46 19.77C333 19.77 386.17 167.33 392.36 171.19C398.55 175.05 551.38 187.75 563.84 216.95C576.29 246.15 458.06 349.04 455.2 356.22C452.33 363.4 483.92 516.32 460.18 535.97C436.45 555.63 300.74 476.04 292.46 476C284.18 475.95 153.96 556.04 124.74 535.97C95.51 515.91 134.56 367.08 132.45 358.95C130.34 350.83 7.89006 255.61 21.0901 216.95C34.2901 178.29 189.91 175.2 195.3 171.19C200.69 167.19 251.93 19.77 292.47 19.77H292.46Z" fill="url(#paint0_linear_19_972)"/>
<path d="M56.56 224.1C53.75 196.61 143.93 180.43 147.91 212.59C151.88 244.75 60.41 261.55 56.56 224.1Z" fill="white"/>
<path d="M171 203.56C170.32 185.88 197.29 184.8 198.69 199.31C200.26 215.55 171.63 220.1 171 203.56Z" fill="white"/>
<g opacity="0.6">
<g opacity="0.6">
<path d="M211.21 351.29C211.21 369.18 195.5 383.68 176.13 383.68C156.76 383.68 141.05 369.18 141.05 351.29C141.05 333.4 156.75 318.91 176.13 318.91C195.51 318.91 211.21 333.41 211.21 351.29Z" fill="#FF5F82"/>
</g>
<g opacity="0.6">
<path d="M450.83 351.29C450.83 369.18 435.13 383.68 415.75 383.68C396.37 383.68 380.67 369.18 380.67 351.29C380.67 333.4 396.38 318.91 415.75 318.91C435.12 318.91 450.83 333.41 450.83 351.29Z" fill="#FF5F82"/>
</g>
</g>
<path d="M350.86 371.97C360.55 359.95 346.54 350.67 337.34 361.83C323.41 378.72 268.14 377.38 253.95 361.83C244.19 351.15 231.65 359.27 240.43 371.97C257.83 397.14 327.18 401.35 350.86 371.97Z" fill="#872A2A"/>
<path d="M96.89 215.66C77.7 231.01 94.05 305.01 111.07 315.65C128.09 326.28 240.13 327 254.31 317.06C268.5 307.13 277.72 234.1 261.41 221.68C245.1 209.27 118.16 198.64 96.89 215.65V215.66Z" fill="#0F4E82"/>
<path d="M500.36 215.66C519.54 231.01 503.19 305.01 486.17 315.65C469.15 326.28 357.12 327 342.93 317.06C328.75 307.13 319.53 234.1 335.84 221.68C352.15 209.27 479.08 198.64 500.36 215.65V215.66Z" fill="#0F4E82"/>
<path d="M339.43 235.83H257.19V256.57H339.43V235.83Z" fill="#0F4E82"/>
<path d="M117.25 227.54C101.12 230.47 101.78 254.5 121.21 254.5C146.54 254.5 144.12 222.67 117.25 227.54Z" fill="#4BD0EF"/>
<path d="M356.95 231.06C340.82 233.99 341.48 258.01 360.91 258.01C386.24 258.01 383.82 226.18 356.95 231.06Z" fill="#4BD0EF"/>
<defs>
<linearGradient id="paint0_linear_19_972" x1="156.88" y1="151.32" x2="476.89" y2="535.73" gradientUnits="userSpaceOnUse">
<stop offset="0.04" stop-color="#FFF466"/>
<stop offset="0.08" stop-color="#FFF466"/>
<stop offset="0.32" stop-color="#FFEB5F"/>
<stop offset="0.69" stop-color="#FFD54C"/>
<stop offset="0.86" stop-color="#FFC943"/>
</linearGradient>
</defs>
</svg>
