<svg width="585" height="559" viewBox="0 0 585 559" fill="none" xmlns="http://www.w3.org/2000/svg">
<path d="M292.55 0.839966C336.05 0.839966 396.02 153.3 402.66 157.43C409.3 161.57 570.35 181.05 583.71 212.37C597.07 243.69 473.15 357.01 470.08 364.72C467.01 372.43 497.97 533.55 472.5 554.65C447.03 575.73 301.44 493.28 292.56 493.23C283.68 493.18 143.97 576.18 112.62 554.65C81.27 533.12 117.3 373.44 115.04 364.72C112.78 356.01 -12.7502 253.84 1.3998 212.37C15.5598 170.89 176.67 161.72 182.45 157.43C188.23 153.13 249.06 0.839966 292.55 0.839966Z" fill="#FFBD39"/>
<path d="M292.55 19.77C333.09 19.77 386.26 167.33 392.45 171.18C398.64 175.04 551.48 187.74 563.93 216.93C576.38 246.13 458.15 349.02 455.29 356.21C452.43 363.39 484.01 516.3 460.27 535.96C436.54 555.62 300.83 476.04 292.55 475.99C284.27 475.94 154.05 556.03 124.82 535.96C95.59 515.9 134.65 367.07 132.53 358.94C130.42 350.82 7.96989 255.59 21.1599 216.94C34.3499 178.28 189.98 175.19 195.37 171.19C200.76 167.18 252 19.78 292.54 19.78L292.55 19.77Z" fill="url(#paint0_linear_19_1051)"/>
<path d="M56.65 224.09C53.83 196.6 144.02 180.42 148 212.59C151.97 244.75 60.5 261.55 56.65 224.09Z" fill="white"/>
<path d="M171.09 203.55C170.42 185.87 197.38 184.79 198.78 199.3C200.34 215.54 171.71 220.09 171.09 203.55Z" fill="white"/>
<g opacity="0.6">
<g opacity="0.6">
<path d="M207.77 361.4C207.77 379.28 192.06 393.79 172.69 393.79C153.32 393.79 137.61 379.29 137.61 361.4C137.61 343.51 153.32 329.02 172.69 329.02C192.06 329.02 207.77 343.52 207.77 361.4Z" fill="#FF5F82"/>
</g>
<g opacity="0.6">
<path d="M447.39 361.4C447.39 379.28 431.69 393.79 412.32 393.79C392.95 393.79 377.24 379.29 377.24 361.4C377.24 343.51 392.94 329.02 412.32 329.02C431.7 329.02 447.39 343.52 447.39 361.4Z" fill="#FF5F82"/>
</g>
</g>
<path opacity="0.5" d="M1.40985 212.38C10.9298 169.6 176.68 161.73 182.46 157.44C188.24 153.14 249.07 0.849976 292.56 0.849976C336.05 0.849976 396.03 153.31 402.66 157.44C409.3 161.58 570.36 181.06 583.71 212.38C588.48 234.09 558.76 267.36 550.28 277.42C541.79 287.47 470.41 287.69 413.14 258.24C355.87 228.8 247.96 223.51 188.69 255.23C129.44 286.95 65.31 296.96 31.29 277.41C11.36 250 -2.39016 229.43 1.39984 212.37L1.40985 212.38Z" fill="#00FF00"/>
<path d="M200.05 244.43C149.01 248.34 162.86 330.77 203.86 329.13C244.88 327.48 251.08 240.51 200.05 244.43Z" fill="#541300"/>
<path d="M212.37 290.44C200.74 289.41 197.03 311.4 210.22 313.44C223.4 315.48 228.91 291.89 212.37 290.44Z" fill="white"/>
<path d="M384.95 244.43C435.98 248.34 422.14 330.77 381.13 329.13C340.13 327.48 333.92 240.51 384.95 244.43Z" fill="#541300"/>
<path d="M372.64 290.44C384.28 289.41 387.98 311.4 374.8 313.44C361.62 315.48 356.12 291.89 372.64 290.44Z" fill="white"/>
<path d="M238.52 178.7C243.31 193.32 212.85 235.05 176.66 221.08C170.81 218.75 191.25 211.81 208.88 200.52C223.51 191.15 237.26 174.89 238.51 178.71L238.52 178.7Z" fill="#541300"/>
<path d="M346.23 178.7C341.44 193.32 373.14 235.05 408.09 221.08C413.94 218.75 393.5 211.81 375.87 200.52C361.24 191.15 347.49 174.89 346.23 178.71V178.7Z" fill="#541300"/>
<path d="M353.71 421.36C350.85 423.52 323.69 411.07 293.01 411.08C262.01 411.1 234.26 423.55 231.33 421.36C225.49 417 242.41 367.34 292.5 367.34C342.59 367.34 359.48 417 353.72 421.36H353.71Z" fill="#872A2A"/>
<defs>
<linearGradient id="paint0_linear_19_1051" x1="156.96" y1="151.32" x2="476.98" y2="535.73" gradientUnits="userSpaceOnUse">
<stop offset="0.04" stop-color="#FFF466"/>
<stop offset="0.08" stop-color="#FFF466"/>
<stop offset="0.32" stop-color="#FFEB5F"/>
<stop offset="0.69" stop-color="#FFD54C"/>
<stop offset="0.86" stop-color="#FFC943"/>
</linearGradient>
</defs>
</svg>
