<svg width="718" height="559" viewBox="0 0 718 559" fill="none" xmlns="http://www.w3.org/2000/svg">
<path d="M292.79 0.919983C336.29 0.919983 396.25 153.38 402.89 157.51C409.53 161.65 570.58 181.13 583.94 212.45C597.3 243.77 473.38 357.1 470.3 364.8C467.23 372.51 498.2 533.63 472.72 554.73C447.25 575.82 301.66 493.36 292.77 493.31C283.89 493.26 144.18 576.26 112.83 554.73C81.47 533.2 117.51 373.52 115.24 364.8C112.98 356.08 -12.5499 253.92 1.61005 212.45C15.7701 170.97 176.88 161.8 182.66 157.51C188.44 153.22 249.27 0.919983 292.77 0.919983H292.79Z" fill="#FFBD39"/>
<path d="M292.79 19.85C333.33 19.85 386.5 167.41 392.69 171.27C398.88 175.13 551.71 187.83 564.17 217.02C576.62 246.22 458.39 349.11 455.53 356.3C452.66 363.48 484.25 516.39 460.51 536.05C436.77 555.71 301.07 476.13 292.79 476.08C284.52 476.03 154.29 556.12 125.07 536.05C95.84 515.99 134.89 367.16 132.78 359.03C130.67 350.91 8.2098 255.69 21.4098 217.03C34.6098 178.37 190.23 175.28 195.62 171.28C201.01 167.27 252.24 19.86 292.79 19.86V19.85Z" fill="url(#paint0_linear_19_585)"/>
<path d="M56.89 224.17C54.07 196.68 144.26 180.5 148.24 212.66C152.22 244.82 60.74 261.62 56.89 224.17Z" fill="white"/>
<path d="M171.33 203.63C170.65 185.95 197.61 184.87 199.01 199.38C200.58 215.62 171.95 220.17 171.33 203.63Z" fill="white"/>
<g opacity="0.6">
<g opacity="0.6">
<path d="M211.54 335.5C211.54 353.38 195.83 367.89 176.46 367.89C157.09 367.89 141.38 353.39 141.38 335.5C141.38 317.61 157.09 303.12 176.46 303.12C195.83 303.12 211.54 317.62 211.54 335.5Z" fill="#FF5F82"/>
</g>
<g opacity="0.6">
<path d="M444.1 335.5C444.1 353.38 428.39 367.89 409.02 367.89C389.65 367.89 373.94 353.39 373.94 335.5C373.94 317.61 389.65 303.12 409.02 303.12C428.39 303.12 444.1 317.62 444.1 335.5Z" fill="#FF5F82"/>
</g>
</g>
<path d="M355.61 277.69C346.12 269.66 360.24 245.62 398 245.62C435.76 245.62 449.16 269.13 441.31 277.69C434.53 285.09 426.21 266.41 398.93 266.41C371.65 266.41 363.64 284.46 355.62 277.69H355.61Z" fill="#541300"/>
<path d="M194.41 216.82C143.95 220.07 157.64 294.3 198.19 292.95C238.73 291.59 244.87 213.57 194.41 216.82Z" fill="#541300"/>
<path d="M282.26 304.85C285.17 296.54 343.69 309.22 341.64 324.95C339.6 340.68 316.28 342.3 317.3 348.44C318.33 354.58 342.61 354.67 341.64 370.38C340.71 385.47 287.38 399.05 284.3 393.33C280.15 385.6 315.7 379.94 316.04 372.76C316.42 364.8 291.52 357.36 290.47 346.8C289.41 336.24 317.41 329.41 316.72 323.96C316.04 318.5 279.86 311.68 282.25 304.85H282.26Z" fill="#872A2A"/>
<path d="M211.92 251.76C201.19 250.81 197.78 271.09 209.93 272.97C222.09 274.86 227.16 253.1 211.92 251.76Z" fill="white"/>
<path d="M442.86 332.11C390.08 231.3 323.05 329.84 401.42 418.86C514.66 421.37 557.93 324.08 442.86 332.11Z" fill="#F94661"/>
<path d="M556.5 288.68C473.6 267.27 494.78 354.4 584.01 355.58C642.56 293.63 610.09 220.4 556.5 288.68Z" fill="#F94661"/>
<path d="M683.29 366.48C656.29 313.98 622 368.65 662.1 414.12C720.03 412.25 742.15 358.93 683.29 366.48Z" fill="#F94661"/>
<defs>
<linearGradient id="paint0_linear_19_585" x1="157.2" y1="151.39" x2="477.22" y2="535.8" gradientUnits="userSpaceOnUse">
<stop offset="0.04" stop-color="#FFF466"/>
<stop offset="0.08" stop-color="#FFF466"/>
<stop offset="0.32" stop-color="#FFEB5F"/>
<stop offset="0.69" stop-color="#FFD54C"/>
<stop offset="0.86" stop-color="#FFC943"/>
</linearGradient>
</defs>
</svg>
