<svg width="585" height="558" viewBox="0 0 585 558" fill="none" xmlns="http://www.w3.org/2000/svg">
<path d="M292.27 0C335.78 0 395.74 152.46 402.38 156.6C409.03 160.74 570.07 180.22 583.43 211.54C596.79 242.86 472.87 356.18 469.8 363.9C466.73 371.61 497.68 532.73 472.22 553.82C446.75 574.9 301.16 492.44 292.27 492.4C283.39 492.35 143.68 575.35 112.33 553.82C80.97 532.29 117.01 372.61 114.75 363.9C112.49 355.18 -13.04 253.02 1.11 211.54C15.27 170.06 176.38 160.89 182.16 156.6C187.95 152.3 248.77 0 292.27 0Z" fill="#FFBD39"/>
<path d="M292.27 18.93C332.81 18.93 385.98 166.49 392.17 170.35C398.36 174.21 551.19 186.91 563.65 216.11C576.1 245.31 457.87 348.2 455.01 355.39C452.15 362.57 483.73 515.49 459.99 535.14C436.26 554.8 300.55 475.21 292.27 475.17C283.99 475.12 153.77 555.21 124.55 535.14C95.33 515.08 134.37 366.25 132.25 358.12C130.15 350 7.69003 254.78 20.89 216.12C34.08 177.46 189.7 174.37 195.1 170.36C200.49 166.35 251.73 18.94 292.27 18.94V18.93Z" fill="url(#paint0_linear_19_605)"/>
<path d="M56.3699 223.26C53.5499 195.77 143.74 179.59 147.72 211.76C151.7 243.92 60.2199 260.72 56.3699 223.26Z" fill="white"/>
<path d="M170.81 202.72C170.13 185.04 197.1 183.96 198.5 198.47C200.07 214.71 171.44 219.26 170.81 202.72Z" fill="white"/>
<g opacity="0.6">
<g opacity="0.6">
<path d="M207.49 346.92C207.49 364.8 191.79 379.31 172.41 379.31C153.03 379.31 137.33 364.8 137.33 346.92C137.33 329.04 153.03 314.54 172.41 314.54C191.79 314.54 207.49 329.04 207.49 346.92Z" fill="#FF5F82"/>
</g>
<g opacity="0.6">
<path d="M447.11 346.92C447.11 364.8 431.41 379.31 412.03 379.31C392.65 379.31 376.95 364.8 376.95 346.92C376.95 329.04 392.65 314.54 412.03 314.54C431.41 314.54 447.11 329.04 447.11 346.92Z" fill="#FF5F82"/>
</g>
</g>
<path d="M343.2 395.05C340.89 397.5 319 386.95 294.27 386.96C269.28 386.98 246.9 397.52 244.54 395.05C239.83 390.13 253.47 344.59 293.85 344.59C334.23 344.59 347.85 390.13 343.2 395.05Z" fill="#872A2A"/>
<path d="M402.42 242.15C398.66 233.39 330.16 266.94 331.48 284.72C332.8 302.5 395.36 323.4 403.29 314.05C411.22 304.7 361.88 292.93 361.44 282.96C361 272.98 407.7 254.48 402.41 242.15H402.42Z" fill="#541300"/>
<path d="M182.02 242.15C185.78 233.39 254.28 266.94 252.96 284.72C251.64 302.5 189.08 323.4 181.15 314.05C173.22 304.7 222.56 292.93 223 282.96C223.44 272.98 176.74 254.48 182.02 242.15Z" fill="#541300"/>
<defs>
<linearGradient id="paint0_linear_19_605" x1="156.69" y1="150.48" x2="476.7" y2="534.89" gradientUnits="userSpaceOnUse">
<stop offset="0.04" stop-color="#FFF466"/>
<stop offset="0.08" stop-color="#FFF466"/>
<stop offset="0.32" stop-color="#FFEB5F"/>
<stop offset="0.69" stop-color="#FFD54C"/>
<stop offset="0.86" stop-color="#FFC943"/>
</linearGradient>
</defs>
</svg>
