<svg width="585" height="558" viewBox="0 0 585 558" fill="none" xmlns="http://www.w3.org/2000/svg">
<path d="M292.55 0C336.05 0 396.01 152.46 402.65 156.59C409.29 160.73 570.34 180.21 583.7 211.53C597.06 242.85 473.14 356.17 470.07 363.88C467 371.59 497.96 532.72 472.49 553.81C447.02 574.89 301.42 492.44 292.54 492.39C283.66 492.34 143.95 575.34 112.59 553.81C81.23 532.28 117.27 372.6 115.01 363.88C112.75 355.16 -12.7802 253 1.37983 211.53C15.5298 170.05 176.64 160.88 182.42 156.59C188.23 152.3 249.06 0 292.55 0Z" fill="#FFBD39"/>
<path d="M292.55 18.93C333.09 18.93 386.27 166.49 392.45 170.35C398.64 174.21 551.48 186.91 563.93 216.1C576.38 245.3 458.15 348.19 455.29 355.38C452.43 362.56 484.01 515.47 460.28 535.13C436.54 554.79 300.83 475.2 292.55 475.16C284.28 475.11 154.05 555.2 124.83 535.13C95.6001 515.07 134.65 366.24 132.54 358.11C130.42 349.99 7.96989 254.77 21.1699 216.11C34.3699 177.45 189.99 174.36 195.38 170.36C200.77 166.35 252 18.94 292.55 18.94V18.93Z" fill="url(#paint0_linear_19_621)"/>
<path d="M56.65 223.25C53.83 195.76 144.02 179.58 147.99 211.75C151.97 243.91 60.49 260.71 56.65 223.25Z" fill="white"/>
<path d="M171.09 202.72C170.41 185.04 197.37 183.96 198.77 198.47C200.34 214.71 171.71 219.26 171.09 202.72Z" fill="white"/>
<g opacity="0.6">
<g opacity="0.6">
<path d="M207.77 346.92C207.77 364.8 192.06 379.31 172.69 379.31C153.32 379.31 137.61 364.81 137.61 346.92C137.61 329.03 153.32 314.54 172.69 314.54C192.06 314.54 207.77 329.04 207.77 346.92Z" fill="#FF5F82"/>
</g>
<g opacity="0.6">
<path d="M447.39 346.92C447.39 364.8 431.68 379.31 412.31 379.31C392.94 379.31 377.23 364.81 377.23 346.92C377.23 329.03 392.94 314.54 412.31 314.54C431.68 314.54 447.39 329.04 447.39 346.92Z" fill="#FF5F82"/>
</g>
</g>
<path d="M219.47 195.43C174.52 199.65 186.7 292.48 222.83 290.71C258.96 288.94 264.42 191.21 219.47 195.43Z" fill="#541300"/>
<path d="M235.07 237.24C225.51 236 222.48 258.81 233.3 261.25C244.13 263.69 248.65 238.99 235.07 237.24Z" fill="white"/>
<path d="M359.15 195.43C404.11 199.65 391.91 292.48 355.79 290.71C319.66 288.94 314.2 191.21 359.15 195.43Z" fill="#541300"/>
<path d="M343.55 237.24C353.11 236 356.15 258.81 345.32 261.25C334.49 263.69 329.97 238.99 343.55 237.24Z" fill="white"/>
<path d="M191.66 330.39C196.3 326.89 387.92 326.69 392.87 330.39C402.52 337.59 396.92 419.67 294.35 419.67C191.78 419.67 182.13 337.59 191.65 330.39H191.66Z" fill="#872A2A"/>
<defs>
<linearGradient id="paint0_linear_19_621" x1="156.96" y1="150.48" x2="476.98" y2="534.89" gradientUnits="userSpaceOnUse">
<stop offset="0.04" stop-color="#FFF466"/>
<stop offset="0.08" stop-color="#FFF466"/>
<stop offset="0.32" stop-color="#FFEB5F"/>
<stop offset="0.69" stop-color="#FFD54C"/>
<stop offset="0.86" stop-color="#FFC943"/>
</linearGradient>
</defs>
</svg>
