<svg width="585" height="558" viewBox="0 0 585 558" fill="none" xmlns="http://www.w3.org/2000/svg">
<path d="M292.79 0C336.29 0 396.25 152.46 402.9 156.6C409.54 160.74 570.59 180.22 583.95 211.54C597.31 242.86 473.39 356.18 470.32 363.89C467.25 371.6 498.21 532.73 472.74 553.81C447.27 574.89 301.68 492.44 292.8 492.39C283.92 492.35 144.21 575.34 112.85 553.81C81.49 532.28 117.53 372.6 115.27 363.89C113.01 355.17 -12.51 253.01 1.63999 211.54C15.8 170.06 176.91 160.89 182.69 156.6C188.46 152.31 249.28 0 292.79 0Z" fill="#FFBD39"/>
<path d="M292.78 18.94C333.32 18.94 386.49 166.5 392.68 170.36C398.87 174.22 551.7 186.92 564.16 216.11C576.61 245.31 458.38 348.21 455.52 355.39C452.66 362.57 484.24 515.49 460.5 535.14C436.76 554.8 301.05 475.21 292.78 475.17C284.5 475.12 154.28 555.21 125.05 535.14C95.83 515.08 134.87 366.24 132.76 358.12C130.65 350 8.19999 254.78 21.39 216.12C34.59 177.46 190.21 174.37 195.6 170.37C200.98 166.36 252.22 18.95 292.77 18.95L292.78 18.94Z" fill="url(#paint0_linear_19_724)"/>
<path d="M56.8799 223.25C54.0599 195.76 144.25 179.58 148.23 211.75C152.21 243.91 60.7299 260.71 56.8799 223.25Z" fill="white"/>
<path d="M171.32 202.72C170.64 185.04 197.61 183.96 199.01 198.47C200.58 214.71 171.95 219.26 171.32 202.72Z" fill="white"/>
<g opacity="0.6">
<g opacity="0.6">
<path d="M211.54 350.45C211.54 368.34 195.84 382.84 176.46 382.84C157.08 382.84 141.38 368.34 141.38 350.45C141.38 332.56 157.08 318.07 176.46 318.07C195.84 318.07 211.54 332.57 211.54 350.45Z" fill="#FF5F82"/>
</g>
<g opacity="0.6">
<path d="M451.16 350.45C451.16 368.34 435.45 382.84 416.08 382.84C396.71 382.84 381 368.34 381 350.45C381 332.56 396.71 318.07 416.08 318.07C435.45 318.07 451.16 332.57 451.16 350.45Z" fill="#FF5F82"/>
</g>
</g>
<path d="M337.83 382.91C345.26 370.4 334.52 360.74 327.47 372.36C313.79 394.89 277.44 393.01 263.56 372.36C256.09 361.24 246.48 369.69 253.21 382.91C269.12 414.19 317.1 417.83 337.83 382.91Z" fill="#872A2A"/>
<path d="M210.22 217.27C214.08 206.74 191.27 193.1 164.1 201.6C145.73 207.35 130.23 232.26 135.31 236.98C140.39 241.71 145.71 221.58 169.59 214.97C190.09 209.29 208.56 221.82 210.22 217.27Z" fill="#541300"/>
<path d="M375.28 217.27C371.42 206.74 394.23 193.1 421.4 201.6C439.77 207.35 455.28 232.26 450.2 236.98C445.12 241.71 439.8 221.58 415.91 214.97C395.42 209.29 376.94 221.82 375.28 217.27Z" fill="#541300"/>
<path d="M154.66 318.32C145.69 310.73 159.03 280.51 194.75 280.51C230.47 280.51 243.12 310.24 235.7 318.32C229.29 325.31 221.42 303.69 195.62 303.69C169.82 303.69 162.25 324.73 154.66 318.32Z" fill="#541300"/>
<path d="M352.48 318.32C343.51 310.73 356.86 280.51 392.57 280.51C428.28 280.51 440.94 310.24 433.53 318.32C427.11 325.31 419.25 303.69 393.45 303.69C367.65 303.69 360.08 324.73 352.49 318.32H352.48Z" fill="#541300"/>
<defs>
<linearGradient id="paint0_linear_19_724" x1="157.2" y1="150.48" x2="477.21" y2="534.89" gradientUnits="userSpaceOnUse">
<stop offset="0.04" stop-color="#FFF466"/>
<stop offset="0.08" stop-color="#FFF466"/>
<stop offset="0.32" stop-color="#FFEB5F"/>
<stop offset="0.69" stop-color="#FFD54C"/>
<stop offset="0.86" stop-color="#FFC943"/>
</linearGradient>
</defs>
</svg>
