<svg width="585" height="559" viewBox="0 0 585 559" fill="none" xmlns="http://www.w3.org/2000/svg">
<path d="M292.55 0.919983C336.05 0.919983 396.02 153.38 402.66 157.51C409.3 161.65 570.35 181.13 583.71 212.45C597.07 243.78 473.15 357.1 470.08 364.81C467.01 372.52 497.96 533.64 472.5 554.74C447.03 575.82 301.44 493.37 292.55 493.32C283.67 493.27 143.96 576.26 112.61 554.74C81.25 533.21 117.29 373.53 115.03 364.81C112.77 356.09 -12.7602 253.93 1.38979 212.45C15.5498 170.97 176.66 161.81 182.44 157.51C188.22 153.21 249.05 0.919983 292.54 0.919983H292.55Z" fill="#FFBD39"/>
<path d="M292.55 19.85C333.09 19.85 386.26 167.41 392.45 171.27C398.64 175.13 551.47 187.83 563.93 217.03C576.38 246.23 458.15 349.12 455.29 356.31C452.42 363.49 484.01 516.41 460.26 536.06C436.53 555.72 300.82 476.14 292.54 476.09C284.26 476.04 154.04 556.13 124.82 536.06C95.59 516 134.64 367.17 132.53 359.04C130.43 350.92 7.96981 255.69 21.1598 217.04C34.3598 178.38 189.98 175.29 195.37 171.28C200.76 167.27 252 19.86 292.54 19.86L292.55 19.85Z" fill="url(#paint0_linear_19_568)"/>
<path d="M56.65 224.17C53.84 196.68 144.02 180.5 148 212.66C151.97 244.82 60.5 261.62 56.65 224.17Z" fill="white"/>
<path d="M171.09 203.63C170.41 185.95 197.38 184.87 198.78 199.38C200.34 215.62 171.71 220.17 171.09 203.63Z" fill="white"/>
<g opacity="0.6">
<g opacity="0.6">
<path d="M207.77 319.61C207.77 337.5 192.06 352 172.69 352C153.32 352 137.61 337.5 137.61 319.61C137.61 301.72 153.32 287.23 172.69 287.23C192.06 287.23 207.77 301.73 207.77 319.61Z" fill="#FF5F82"/>
</g>
<g opacity="0.6">
<path d="M447.39 319.61C447.39 337.5 431.69 352 412.31 352C392.93 352 377.23 337.5 377.23 319.61C377.23 301.72 392.93 287.23 412.31 287.23C431.69 287.23 447.39 301.73 447.39 319.61Z" fill="#FF5F82"/>
</g>
</g>
<path d="M153.41 281.26C144.44 273.67 157.79 232.86 193.49 232.86C229.19 232.86 241.86 273.17 234.44 281.26C228.03 288.25 220.15 256.05 194.35 256.05C168.55 256.05 160.98 287.67 153.4 281.26H153.41Z" fill="#541300"/>
<path d="M351.22 281.26C342.25 273.67 355.6 232.86 391.3 232.86C427 232.86 439.67 273.17 432.26 281.26C425.84 288.25 417.97 256.05 392.18 256.05C366.39 256.05 358.81 287.67 351.22 281.26Z" fill="#541300"/>
<path d="M303.41 397.3C299.85 406.78 325.59 441.21 344.86 455.02C369.67 472.8 411.97 445.04 400.75 415.47C390.27 387.83 370.75 358.91 361.83 358.55C357.11 358.36 350.9 373.1 339.21 381.1C326.27 389.95 305.35 392.13 303.41 397.31V397.3Z" fill="#F982B3"/>
<path d="M366.1 364.28C370.26 349.95 352.84 345.92 348.54 358.54C336.16 394.79 261.05 392.12 248.55 359.03C242.47 342.97 227.53 350.61 231.06 363.83C245.23 416.97 349.53 421.33 366.11 364.28H366.1Z" fill="#872A2A"/>
<defs>
<linearGradient id="paint0_linear_19_568" x1="156.97" y1="151.39" x2="476.98" y2="535.8" gradientUnits="userSpaceOnUse">
<stop offset="0.04" stop-color="#FFF466"/>
<stop offset="0.08" stop-color="#FFF466"/>
<stop offset="0.32" stop-color="#FFEB5F"/>
<stop offset="0.69" stop-color="#FFD54C"/>
<stop offset="0.86" stop-color="#FFC943"/>
</linearGradient>
</defs>
</svg>
