<svg width="715" height="559" viewBox="0 0 715 559" fill="none" xmlns="http://www.w3.org/2000/svg">
<path d="M292.29 0.76001C335.79 0.76001 395.75 153.22 402.39 157.36C409.03 161.5 570.08 180.98 583.44 212.3C596.8 243.62 472.88 356.94 469.81 364.65C466.74 372.36 497.7 533.48 472.23 554.57C446.76 575.65 301.17 493.2 292.28 493.15C283.4 493.1 143.69 576.09 112.34 554.57C80.98 533.04 117.02 373.36 114.76 364.65C112.5 355.93 -13.02 253.77 1.12998 212.3C15.28 170.82 176.39 161.65 182.17 157.36C187.95 153.06 248.78 0.76001 292.28 0.76001H292.29Z" fill="#FFBD39"/>
<path d="M292.29 19.6899C332.84 19.6899 386.01 167.25 392.19 171.1C398.38 174.96 551.21 187.66 563.67 216.85C576.12 246.05 457.89 348.94 455.03 356.12C452.17 363.3 483.75 516.22 460.01 535.87C436.27 555.53 300.56 475.94 292.28 475.9C284.01 475.85 153.78 555.94 124.56 535.87C95.33 515.81 134.37 366.98 132.27 358.85C130.16 350.73 7.70004 255.51 20.9 216.85C34.1 178.19 189.72 175.1 195.11 171.1C200.5 167.09 251.73 19.6899 292.28 19.6899H292.29Z" fill="url(#paint0_linear_19_839)"/>
<path d="M56.39 224.02C53.57 196.53 143.76 180.35 147.74 212.51C151.72 244.68 60.24 261.47 56.39 224.02Z" fill="white"/>
<path d="M170.83 203.48C170.15 185.79 197.11 184.72 198.51 199.23C200.08 215.47 171.45 220.02 170.83 203.48Z" fill="white"/>
<g opacity="0.6">
<g opacity="0.6">
<path d="M207.51 347.68C207.51 365.57 191.8 380.07 172.43 380.07C153.06 380.07 137.35 365.57 137.35 347.68C137.35 329.79 153.06 315.3 172.43 315.3C191.8 315.3 207.51 329.8 207.51 347.68Z" fill="#FF5F82"/>
</g>
<g opacity="0.6">
<path d="M447.13 347.68C447.13 365.57 431.43 380.07 412.06 380.07C392.69 380.07 376.98 365.57 376.98 347.68C376.98 329.79 392.68 315.3 412.06 315.3C431.44 315.3 447.13 329.8 447.13 347.68Z" fill="#FF5F82"/>
</g>
</g>
<path d="M148.44 291.91C139.81 284.62 152.64 252.2 186.94 252.2C221.24 252.2 233.4 284.14 226.28 291.91C220.12 298.63 212.56 271.08 187.77 271.08C162.98 271.08 155.71 298.07 148.44 291.91Z" fill="#541300"/>
<path d="M359.61 291.91C350.99 284.62 363.81 252.2 398.11 252.2C432.41 252.2 444.57 284.14 437.45 291.91C431.29 298.63 423.73 271.08 398.95 271.08C374.17 271.08 366.89 298.07 359.61 291.91Z" fill="#541300"/>
<path d="M424.09 268.62C438.19 266.82 444.12 260.07 449.84 254.87C455.57 249.67 458.59 272.83 435.9 280.17C452.22 284.08 461.73 273.96 464.18 275.79C469.09 279.45 448.48 298.53 434.15 292.69" fill="#541300"/>
<path d="M161.76 268.62C147.66 266.82 141.73 260.07 136 254.87C130.28 249.67 127.25 272.83 149.94 280.17C133.63 284.08 124.11 273.96 121.66 275.79C116.75 279.45 137.36 298.53 151.68 292.69" fill="#541300"/>
<path d="M146.96 136.01C146.96 136.01 71.03 88.61 38.06 116.09C5.09 143.58 51.64 188.43 58.63 194.12C65.61 199.82 48.33 233.97 73.18 250.5C98.02 267.01 149.73 200.73 158.6 172.89" fill="#FF7676"/>
<path d="M186.7 121.69C186.7 121.69 214.95 36.7598 257.88 36.8998C300.81 37.0498 293.54 101.27 291.8 110.12C290.06 118.96 325.15 134.25 316.53 162.83C307.93 191.39 225.83 173.31 201.24 157.52" fill="#FF7676"/>
<path d="M141.31 132.7C128.83 148.44 146.18 185.58 184.08 171.92C220.45 158.81 207.61 118.26 188.53 115.68C169.46 113.11 149.66 122.15 141.3 132.7H141.31Z" fill="#FF7676"/>
<path d="M135.59 137.63C132.55 125.27 70.95 97.6699 52.31 116.69C33.68 135.74 55.6 161.7 66.49 167.61C72.59 170.93 77.04 175.01 75.01 186.99C71.99 204.7 81.66 230.2 95.63 229.67C115.98 228.91 153.13 185.96 143.83 160.13C140.41 155.21 117.1 186.28 106.32 162.57C93.32 133.97 137.99 147.45 135.58 137.64L135.59 137.63Z" fill="#FFA1A1"/>
<path d="M194.35 116.02C188.76 104.69 222.11 43.3 250.23 45.38C278.35 47.47 277.11 81.4902 271.89 93.1202C268.96 99.6402 267.94 105.66 277.53 113.35C291.7 124.73 300.42 150.32 288.38 159.13C270.86 171.96 211.49 164.02 202.28 138.42C201.89 132.45 241.85 140.54 235.25 115.54C227.31 85.4102 198.8 125 194.35 116.02Z" fill="#FFA1A1"/>
<path d="M154.45 127.6C141.23 137.03 148.42 165.59 180.09 154.1C211.74 142.61 194 99.39 154.45 127.6Z" fill="#FFA1A1"/>
<path d="M279.21 324.05C282.12 315.74 340.64 328.42 338.6 344.16C336.55 359.89 313.23 361.51 314.26 367.65C315.28 373.79 339.57 373.88 338.6 389.58C337.67 404.67 284.33 418.25 281.26 412.53C277.11 404.8 312.66 399.14 313 391.97C313.38 384.01 288.48 376.57 287.43 366.01C286.39 355.45 314.37 348.62 313.68 343.17C313 337.71 276.82 330.88 279.21 324.06V324.05Z" fill="#872A2A"/>
<path d="M439.81 351.31C387.04 250.5 320 349.04 398.38 438.06C511.62 440.57 554.88 343.28 439.81 351.31Z" fill="#F94661"/>
<path d="M560.52 314.93C477.62 293.52 498.79 380.66 588.03 381.83C646.58 319.88 614.11 246.65 560.52 314.93Z" fill="#F94661"/>
<path d="M680.25 385.67C653.24 333.17 618.97 387.85 659.06 433.31C716.99 431.44 739.12 378.12 680.25 385.67Z" fill="#F94661"/>
<defs>
<linearGradient id="paint0_linear_19_839" x1="156.71" y1="151.24" x2="476.72" y2="535.65" gradientUnits="userSpaceOnUse">
<stop offset="0.04" stop-color="#FFF466"/>
<stop offset="0.08" stop-color="#FFF466"/>
<stop offset="0.32" stop-color="#FFEB5F"/>
<stop offset="0.69" stop-color="#FFD54C"/>
<stop offset="0.86" stop-color="#FFC943"/>
</linearGradient>
</defs>
</svg>
