<svg width="585" height="559" viewBox="0 0 585 559" fill="none" xmlns="http://www.w3.org/2000/svg">
<path d="M292.27 0.76001C335.77 0.76001 395.74 153.22 402.37 157.36C409.01 161.5 570.07 180.98 583.42 212.3C596.78 243.62 472.86 356.94 469.79 364.65C466.72 372.36 497.68 533.48 472.21 554.57C446.74 575.65 301.15 493.2 292.26 493.15C283.38 493.1 143.67 576.09 112.32 554.57C80.9601 533.04 117 373.36 114.74 364.65C112.48 355.93 -13.0499 253.77 1.11005 212.3C15.2701 170.82 176.38 161.65 182.16 157.36C187.94 153.06 248.77 0.76001 292.27 0.76001Z" fill="#FFBD39"/>
<path d="M292.27 19.6899C332.82 19.6899 385.98 167.25 392.17 171.1C398.36 174.96 551.2 187.66 563.65 216.85C576.1 246.05 457.87 348.94 455.01 356.12C452.15 363.3 483.73 516.22 459.99 535.87C436.25 555.53 300.54 475.94 292.26 475.9C283.98 475.85 153.76 555.94 124.54 535.87C95.3101 515.81 134.36 366.98 132.25 358.85C130.14 350.73 7.6901 255.51 20.8801 216.85C34.0801 178.19 189.7 175.1 195.09 171.1C200.48 167.09 251.72 19.6899 292.26 19.6899H292.27Z" fill="url(#paint0_linear_19_1016)"/>
<path d="M59.8101 226.61C57.3501 199.09 147.74 184.08 151.31 216.3C154.86 248.52 63.1801 264.11 59.8101 226.61Z" fill="white"/>
<path d="M174.51 207.57C174.06 189.88 201.04 189.16 202.25 203.68C203.6 219.94 174.92 224.12 174.51 207.57Z" fill="white"/>
<g opacity="0.6">
<g opacity="0.6">
<path d="M208.23 344.15C208.23 362.03 192.52 376.54 173.15 376.54C153.78 376.54 138.07 362.04 138.07 344.15C138.07 326.26 153.77 311.77 173.15 311.77C192.53 311.77 208.23 326.27 208.23 344.15Z" fill="#FF5F82"/>
</g>
<g opacity="0.6">
<path d="M440.8 344.15C440.8 362.03 425.09 376.54 405.72 376.54C386.35 376.54 370.65 362.04 370.65 344.15C370.65 326.26 386.35 311.77 405.72 311.77C425.09 311.77 440.8 326.27 440.8 344.15Z" fill="#FF5F82"/>
</g>
</g>
<path d="M294.34 357.7C271.14 332.04 242.67 360.07 236.73 384.77C284.04 396.57 343.18 389.59 350.49 385.72C342.18 355.31 318.56 335.61 294.34 357.7Z" fill="#F4374E"/>
<path d="M246.78 383.15C265.63 450.55 332.36 437.25 340.44 384.53L246.78 383.15Z" fill="#F4374E"/>
<path d="M224.66 202.66C231.01 192.62 210.43 173.41 180.41 176.14C160.12 177.99 138.49 200.33 142.7 206.35C146.9 212.37 156.91 192.72 183.11 191.2C205.6 189.9 221.92 206.99 224.66 202.65V202.66Z" fill="#541300"/>
<path d="M356.2 202.66C349.85 192.62 370.42 173.41 400.44 176.14C420.74 177.99 442.36 200.33 438.15 206.35C433.95 212.37 423.94 192.72 397.74 191.2C375.26 189.9 358.93 206.99 356.19 202.65L356.2 202.66Z" fill="#541300"/>
<path d="M188.76 253.92C243.85 257.46 228.91 313.33 184.64 311.85C140.37 310.37 133.68 250.37 188.76 253.92Z" fill="#541300"/>
<path d="M208.09 258.28C177.8 244.33 133.18 264.16 127.27 283.99C126.11 294.02 160.88 278.18 179.54 275.88" fill="#541300"/>
<path d="M207 284.01C218.66 289.09 212.91 315.73 200.3 311.08C186.85 306.13 196.06 279.25 207 284.01Z" fill="white"/>
<path d="M392.11 253.92C337.02 257.46 351.96 313.33 396.23 311.85C440.5 310.37 447.19 250.37 392.11 253.92Z" fill="#541300"/>
<path d="M372.77 258.28C401.62 244.33 447.68 264.16 453.59 283.99C454.75 294.02 419.98 278.18 401.32 275.88" fill="#541300"/>
<path d="M373.86 284.01C362.2 289.09 367.96 315.73 380.56 311.08C394.01 306.13 384.8 279.25 373.86 284.01Z" fill="white"/>
<path d="M138.29 125.78C138.29 125.78 57.8701 75.5798 22.9601 104.69C-11.9599 133.81 37.3501 181.3 44.7401 187.33C52.1301 193.36 33.8301 229.53 60.1501 247.04C86.4701 264.52 141.22 194.34 150.61 164.84" fill="#FF7676"/>
<path d="M180.37 110.61C180.37 110.61 210.29 20.65 255.76 20.81C301.22 20.97 293.53 88.9901 291.68 98.3701C289.84 107.73 326.99 123.92 317.87 154.19C308.77 184.44 221.82 165.29 195.78 148.57" fill="#FF7676"/>
<path d="M132.31 122.29C119.09 138.96 137.47 178.29 177.61 163.82C216.13 149.94 202.53 106.99 182.33 104.25C162.13 101.53 141.16 111.1 132.31 122.29Z" fill="#FF7676"/>
<path d="M126.25 127.49C123.03 114.4 57.79 85.1702 38.05 105.31C18.33 125.49 41.54 152.98 53.07 159.24C59.53 162.76 64.25 167.07 62.1 179.76C58.91 198.51 69.1401 225.52 83.9401 224.97C105.49 224.17 144.84 178.67 134.99 151.33C131.36 146.11 106.68 179.02 95.2601 153.91C81.4901 123.62 128.8 137.89 126.25 127.5V127.49Z" fill="#FFA1A1"/>
<path d="M188.48 104.61C182.54 92.6102 217.87 27.5901 247.65 29.8001C277.44 32.0101 276.12 68.0502 270.6 80.3502C267.5 87.2602 266.41 93.6401 276.57 101.79C291.58 113.83 300.8 140.94 288.06 150.27C269.51 163.85 206.63 155.44 196.86 128.33C196.46 122.01 238.78 130.57 231.78 104.1C223.37 72.1902 193.18 114.13 188.48 104.61Z" fill="#FFA1A1"/>
<path d="M146.22 116.88C132.22 126.88 139.84 157.11 173.37 144.94C206.89 132.78 188.1 86.99 146.22 116.88Z" fill="#FFA1A1"/>
<defs>
<linearGradient id="paint0_linear_19_1016" x1="156.68" y1="151.24" x2="476.7" y2="535.65" gradientUnits="userSpaceOnUse">
<stop offset="0.05" stop-color="#FFF466"/>
<stop offset="0.28" stop-color="#FFED60"/>
<stop offset="0.62" stop-color="#FFDA51"/>
<stop offset="0.86" stop-color="#FFC943"/>
</linearGradient>
</defs>
</svg>
