<svg width="585" height="559" viewBox="0 0 585 559" fill="none" xmlns="http://www.w3.org/2000/svg">
<path d="M292.82 0.839966C336.32 0.839966 396.29 153.3 402.92 157.44C409.56 161.58 570.62 181.06 583.97 212.38C597.33 243.7 473.41 357.02 470.34 364.73C467.27 372.44 498.23 533.56 472.76 554.65C447.29 575.73 301.7 493.28 292.82 493.23C283.94 493.19 144.23 576.18 112.87 554.65C81.5201 533.12 117.55 373.44 115.29 364.73C113.03 356.01 -12.5001 253.85 1.65986 212.38C15.8199 170.9 176.93 161.73 182.71 157.44C188.49 153.14 249.32 0.839966 292.81 0.839966H292.82Z" fill="#FFBD39"/>
<path d="M292.82 19.78C333.36 19.78 386.53 167.34 392.72 171.19C398.91 175.05 551.75 187.75 564.2 216.94C576.65 246.14 458.42 349.03 455.56 356.22C452.7 363.4 484.28 516.31 460.54 535.97C436.8 555.63 301.09 476.04 292.82 476C284.54 475.95 154.32 556.04 125.09 535.97C95.86 515.91 134.91 367.08 132.8 358.95C130.7 350.83 8.23983 255.61 21.4298 216.95C34.6298 178.29 190.25 175.2 195.64 171.2C201.03 167.19 252.27 19.79 292.82 19.79V19.78Z" fill="url(#paint0_linear_19_1074)"/>
<path d="M56.92 224.09C54.1 196.6 144.29 180.42 148.27 212.59C152.24 244.75 60.77 261.55 56.92 224.09Z" fill="white"/>
<path d="M171.36 203.56C170.68 185.88 197.65 184.8 199.05 199.31C200.62 215.55 171.99 220.1 171.36 203.56Z" fill="white"/>
<g opacity="0.6">
<g opacity="0.6">
<path d="M205.73 354.82C205.73 372.7 190.03 387.21 170.65 387.21C151.27 387.21 135.58 372.71 135.58 354.82C135.58 336.93 151.28 322.44 170.65 322.44C190.02 322.44 205.73 336.94 205.73 354.82Z" fill="#FF5F82"/>
</g>
<g opacity="0.6">
<path d="M445.35 354.82C445.35 372.7 429.64 387.21 410.27 387.21C390.9 387.21 375.19 372.71 375.19 354.82C375.19 336.93 390.89 322.44 410.27 322.44C429.65 322.44 445.35 336.94 445.35 354.82Z" fill="#FF5F82"/>
</g>
</g>
<path opacity="0.5" d="M1.67994 212.38C11.1999 169.6 176.95 161.73 182.73 157.44C188.51 153.14 249.34 0.839966 292.83 0.839966C336.32 0.839966 396.3 153.3 402.93 157.44C409.57 161.58 570.63 181.06 583.98 212.38C588.75 234.08 559.03 267.36 550.54 277.42C542.05 287.48 470.68 287.69 413.41 258.25C356.14 228.8 248.22 223.52 188.96 255.24C129.7 286.96 65.5701 296.97 31.5501 277.42C11.6201 250.01 -2.13007 229.44 1.66993 212.38H1.67994Z" fill="#FF7543"/>
<path opacity="0.8" d="M28.06 211.7C26.69 184.58 178.35 174.8 182.73 171.55C188.51 167.26 249.34 14.96 292.83 14.96C336.32 14.96 392.77 156.83 399.41 160.97C404.64 164.23 575.59 190.56 568.87 225.77C560.79 268.08 426.15 222.73 293.85 219.05C156.8 215.24 31.56 280.95 28.06 211.7Z" fill="#FF6845"/>
<path d="M202.48 262.04C151.45 265.95 165.29 348.38 206.3 346.74C247.31 345.1 253.51 258.12 202.48 262.04Z" fill="#541300"/>
<path d="M214.79 308.05C203.16 307.02 199.46 329.01 212.64 331.05C225.82 333.09 231.33 309.5 214.79 308.05Z" fill="white"/>
<path d="M387.38 262.04C438.41 265.95 424.57 348.38 383.56 346.74C342.55 345.1 336.34 258.12 387.38 262.04Z" fill="#541300"/>
<path d="M375.06 308.05C386.7 307.02 390.4 329.01 377.22 331.05C364.04 333.09 358.54 309.5 375.06 308.05Z" fill="white"/>
<path d="M178.24 207.71C192.94 197.75 241.96 225.14 244.89 262.83C244.17 270.07 230.89 253.01 212.77 237.04C197.73 223.8 174.4 210.32 178.25 207.71H178.24Z" fill="#541300"/>
<path d="M406.87 207.71C392.17 197.75 343.15 225.14 340.22 262.83C340.95 270.07 354.22 253.01 372.36 237.04C387.39 223.8 410.71 210.32 406.87 207.71Z" fill="#541300"/>
<path d="M348.98 417.76C346.45 420.21 322.47 406.13 295.37 406.15C268 406.17 243.48 420.24 240.89 417.76C235.73 412.84 250.67 356.71 294.91 356.71C339.15 356.71 354.07 412.83 348.98 417.76Z" fill="#872A2A"/>
<defs>
<linearGradient id="paint0_linear_19_1074" x1="157.23" y1="151.32" x2="477.25" y2="535.73" gradientUnits="userSpaceOnUse">
<stop offset="0.04" stop-color="#FFF466"/>
<stop offset="0.08" stop-color="#FFF466"/>
<stop offset="0.32" stop-color="#FFEB5F"/>
<stop offset="0.69" stop-color="#FFD54C"/>
<stop offset="0.86" stop-color="#FFC943"/>
</linearGradient>
</defs>
</svg>
