<svg width="574" height="582" viewBox="0 0 574 582" fill="none" xmlns="http://www.w3.org/2000/svg">
<path d="M332.06 0.709926C374.62 9.70993 401.79 171.26 407.43 176.68C413.07 182.11 566.62 234.45 573.22 267.86C579.81 301.27 435.15 386.53 430.55 393.44C425.96 400.34 422.94 564.39 393.67 579.77C364.39 595.14 238.99 484.37 230.3 482.48C221.62 480.6 67.78 532.93 41.55 505.39C15.32 477.84 83.57 329.06 83.17 320.06C82.75 311.07 -18.9501 185.16 3.47992 147.51C25.8999 109.85 185.43 134.17 191.98 131.17C198.52 128.16 289.51 -8.27007 332.07 0.709926H332.06Z" fill="#FFBD39"/>
<path d="M328.14 19.24C367.81 27.62 389.33 182.97 394.59 188.03C399.85 193.09 546.76 237.1 552.91 268.24C559.06 299.38 422.12 375.61 417.83 382.05C413.55 388.49 412.85 544.63 385.55 558.95C358.26 573.28 241.94 467.37 233.85 465.61C225.76 463.85 81.7999 515.3 57.3499 489.62C32.8999 463.95 101.86 326.41 101.47 318.02C101.08 309.63 0.959929 191.16 21.8499 156.06C42.7599 120.96 195.66 150.11 201.76 147.3C207.86 144.49 288.45 10.86 328.12 19.24H328.14Z" fill="url(#paint0_linear_19_992)"/>
<path d="M55.11 170.39C58.03 142.91 149.61 145.71 146.86 178.01C144.11 210.3 51.14 207.83 55.11 170.39Z" fill="white"/>
<path d="M171.33 173.95C174.32 156.51 200.92 161.03 199.3 175.52C197.48 191.73 168.52 190.27 171.33 173.95Z" fill="white"/>
<g opacity="0.6">
<g opacity="0.6">
<path d="M150.19 280.82C146.49 298.32 128.13 309.26 109.18 305.26C90.2201 301.26 77.8601 283.82 81.5501 266.33C85.2501 248.83 103.61 237.89 122.57 241.89C141.52 245.89 153.89 263.33 150.2 280.82H150.19Z" fill="#FF5F82"/>
</g>
<g opacity="0.6">
<path d="M453.65 344.93C449.95 362.42 431.59 373.36 412.63 369.36C393.68 365.36 381.31 347.92 385 330.43C388.7 312.93 407.06 301.99 426.01 306C444.96 310 457.33 327.43 453.64 344.93H453.65Z" fill="#FF5F82"/>
</g>
</g>
<path d="M141.4 221.69C134.2 212.41 153.5 185.6 188.44 192.98C223.37 200.36 229.62 232.06 220.7 238.44C212.98 243.96 209.75 221.18 184.5 215.84C159.26 210.51 147.5 229.53 141.4 221.69Z" fill="#541300"/>
<path d="M334.96 262.57C327.75 253.3 347.06 226.48 381.99 233.86C416.93 241.24 423.17 272.94 414.25 279.32C406.53 284.83 403.3 262.05 378.05 256.72C352.81 251.39 341.05 270.41 334.96 262.56V262.57Z" fill="#541300"/>
<path d="M377.61 400.4C396.3 391.44 418.04 325.22 401.17 314.92C373.57 298.1 161.78 255.97 142.47 260.28C123.16 264.59 116.33 331.92 129.44 347.98C148.8 371.69 339.67 418.6 377.61 400.4Z" fill="#917971"/>
<path d="M373.28 393.29C390.84 386.08 410.06 330.21 393.78 321.07C355.19 299.42 178.95 263.18 146.75 268.89C128.5 272.14 123.48 329.29 136.29 343.23C160.81 369.93 330.08 411.03 373.28 393.29Z" fill="white"/>
<path d="M270.076 283.946L248.337 386.661L257.073 388.51L278.812 285.795L270.076 283.946Z" fill="#917971"/>
<path d="M220.675 273.419L198.99 376.145L207.727 377.99L229.413 275.264L220.675 273.419Z" fill="#917971"/>
<path d="M171.367 262.963L151.367 357.459L160.103 359.308L180.103 264.812L171.367 262.963Z" fill="#917971"/>
<path d="M357.25 401.43L347.74 403.2L368.58 304.59L377.31 306.44L357.25 401.43Z" fill="#917971"/>
<path d="M126.546 302.627L124.695 311.364L398.216 369.303L400.067 360.567L126.546 302.627Z" fill="#917971"/>
<path d="M306.3 398.75L297.56 396.9L319.27 294.18L328 296.02L306.3 398.75Z" fill="#917971"/>
<defs>
<linearGradient id="paint0_linear_19_992" x1="168.286" y1="119.926" x2="401.92" y2="562.185" gradientUnits="userSpaceOnUse">
<stop offset="0.04" stop-color="#FFF466"/>
<stop offset="0.08" stop-color="#FFF466"/>
<stop offset="0.32" stop-color="#FFEB5F"/>
<stop offset="0.69" stop-color="#FFD54C"/>
<stop offset="0.86" stop-color="#FFC943"/>
</linearGradient>
</defs>
</svg>
