<svg width="585" height="559" viewBox="0 0 585 559" fill="none" xmlns="http://www.w3.org/2000/svg">
<path d="M292.29 0.839966C335.79 0.839966 395.76 153.3 402.4 157.43C409.04 161.57 570.1 181.05 583.45 212.37C596.81 243.7 472.89 357.02 469.82 364.73C466.75 372.44 497.7 533.56 472.23 554.65C446.76 575.73 301.17 493.28 292.29 493.23C283.41 493.18 143.7 576.17 112.35 554.65C81 533.12 117.03 373.44 114.77 364.73C112.51 356.01 -13.0202 253.85 1.13984 212.37C15.2998 170.89 176.41 161.72 182.19 157.43C187.97 153.13 248.79 0.839966 292.29 0.839966Z" fill="#FFBD39"/>
<path d="M292.29 19.77C332.84 19.77 385.99 167.33 392.19 171.19C398.38 175.05 551.22 187.75 563.67 216.95C576.11 246.15 457.89 349.04 455.03 356.22C452.17 363.4 483.75 516.32 460.01 535.97C436.27 555.63 300.57 476.04 292.29 476C284.01 475.95 153.79 556.04 124.56 535.97C95.34 515.91 134.38 367.08 132.27 358.95C130.16 350.83 7.70988 255.61 20.8999 216.95C34.0999 178.29 189.72 175.2 195.11 171.19C200.5 167.19 251.74 19.77 292.29 19.77Z" fill="url(#paint0_linear_19_922)"/>
<path d="M56.3799 224.1C53.5599 196.61 143.75 180.43 147.73 212.59C151.7 244.75 60.2299 261.55 56.3799 224.1Z" fill="white"/>
<path d="M170.82 203.56C170.14 185.88 197.11 184.8 198.51 199.31C200.08 215.55 171.45 220.1 170.82 203.56Z" fill="white"/>
<g opacity="0.6">
<g opacity="0.6">
<path d="M207.5 354.82C207.5 372.7 191.79 387.21 172.42 387.21C153.05 387.21 137.34 372.71 137.34 354.82C137.34 336.93 153.05 322.44 172.42 322.44C191.79 322.44 207.5 336.94 207.5 354.82Z" fill="#FF5F82"/>
</g>
<g opacity="0.6">
<path d="M447.12 354.82C447.12 372.7 431.42 387.21 412.04 387.21C392.66 387.21 376.96 372.71 376.96 354.82C376.96 336.93 392.67 322.44 412.04 322.44C431.41 322.44 447.12 336.94 447.12 354.82Z" fill="#FF5F82"/>
</g>
</g>
<path d="M417.62 270.33C463.94 273.31 451.38 320.29 414.15 319.04C376.92 317.79 371.29 267.34 417.62 270.33Z" fill="#541300"/>
<path d="M405.76 303.59C409.29 312.21 390.89 322.78 386.65 313.91C382.13 304.43 402.46 295.5 405.76 303.59Z" fill="white"/>
<path d="M436.36 277.69C418.54 265.38 372.13 266.44 345.11 295.57C336.89 304.15 338.83 310.02 350.19 304.15C361.56 298.28 395.06 288.76 413.85 295.57" fill="#541300"/>
<path d="M220.22 270.33C266.55 273.31 253.98 320.29 216.76 319.04C179.53 317.79 173.9 267.34 220.22 270.33Z" fill="#541300"/>
<path d="M205.39 303.59C208.91 312.21 190.52 322.78 186.28 313.91C181.75 304.43 202.08 295.5 205.39 303.59Z" fill="white"/>
<path d="M238.96 277.69C221.14 265.38 174.73 266.44 147.71 295.57C139.48 304.15 141.42 310.02 152.79 304.15C164.16 298.28 197.66 288.76 216.44 295.57" fill="#541300"/>
<path d="M209.71 204.72C213.57 194.19 190.76 180.55 163.59 189.05C145.22 194.8 129.71 219.71 134.79 224.44C139.87 229.16 145.2 209.04 169.08 202.42C189.58 196.74 208.05 209.27 209.71 204.73V204.72Z" fill="#541300"/>
<path d="M374.76 204.72C370.9 194.19 393.71 180.55 420.88 189.05C439.25 194.8 454.76 219.71 449.68 224.44C444.6 229.16 439.28 209.04 415.39 202.42C394.89 196.74 376.43 209.27 374.76 204.73V204.72Z" fill="#541300"/>
<path d="M344.42 407.5C342.11 409.95 320.23 399.4 295.5 399.41C270.52 399.43 248.14 409.97 245.78 407.5C241.07 402.57 254.71 357.04 295.08 357.04C335.45 357.04 349.07 402.58 344.42 407.5Z" fill="#872A2A"/>
<defs>
<linearGradient id="paint0_linear_19_922" x1="156.7" y1="151.32" x2="476.71" y2="535.73" gradientUnits="userSpaceOnUse">
<stop offset="0.04" stop-color="#FFF466"/>
<stop offset="0.08" stop-color="#FFF466"/>
<stop offset="0.32" stop-color="#FFEB5F"/>
<stop offset="0.69" stop-color="#FFD54C"/>
<stop offset="0.86" stop-color="#FFC943"/>
</linearGradient>
</defs>
</svg>
