<svg width="585" height="559" viewBox="0 0 585 559" fill="none" xmlns="http://www.w3.org/2000/svg">
<path d="M292.56 0.76001C336.05 0.76001 396.02 153.22 402.66 157.36C409.3 161.5 570.35 180.98 583.71 212.3C597.06 243.62 473.15 356.94 470.08 364.65C467.01 372.36 497.98 533.48 472.5 554.57C447.03 575.65 301.44 493.2 292.56 493.15C283.68 493.1 143.97 576.09 112.61 554.57C81.2501 533.04 117.29 373.36 115.03 364.65C112.77 355.93 -12.7602 253.77 1.39985 212.3C15.5498 170.82 176.66 161.65 182.44 157.36C188.22 153.06 249.05 0.76001 292.55 0.76001H292.56Z" fill="#FFBD39"/>
<path d="M292.55 19.6899C333.09 19.6899 386.26 167.25 392.45 171.1C398.64 174.96 551.48 187.66 563.93 216.85C576.38 246.05 458.15 348.94 455.29 356.12C452.43 363.3 484.01 516.22 460.28 535.87C436.54 555.53 300.84 475.94 292.55 475.9C284.28 475.85 154.05 555.94 124.83 535.87C95.6001 515.81 134.65 366.98 132.54 358.85C130.42 350.73 7.96989 255.51 21.1699 216.85C34.3699 178.19 189.99 175.1 195.38 171.1C200.77 167.09 252.01 19.6899 292.55 19.6899Z" fill="url(#paint0_linear_19_1097)"/>
<path d="M56.65 224.02C53.83 196.53 144.02 180.35 147.99 212.51C151.97 244.68 60.49 261.47 56.65 224.02Z" fill="white"/>
<path d="M171.09 203.48C170.41 185.79 197.37 184.72 198.78 199.23C200.35 215.47 171.72 220.02 171.09 203.48Z" fill="white"/>
<g opacity="0.6">
<g opacity="0.6">
<path d="M211.3 347.69C211.3 365.57 195.59 380.08 176.22 380.08C156.85 380.08 141.14 365.58 141.14 347.69C141.14 329.8 156.85 315.31 176.22 315.31C195.59 315.31 211.3 329.81 211.3 347.69Z" fill="#FF5F82"/>
</g>
<g opacity="0.6">
<path d="M440.33 347.69C440.33 365.57 424.63 380.08 405.26 380.08C385.89 380.08 370.18 365.58 370.18 347.69C370.18 329.8 385.88 315.31 405.26 315.31C424.64 315.31 440.33 329.81 440.33 347.69Z" fill="#FF5F82"/>
</g>
</g>
<path d="M148.76 299.59C140.14 292.3 152.97 259.87 187.27 259.87C221.57 259.87 233.73 291.81 226.61 299.59C220.45 306.31 212.88 278.76 188.1 278.76C163.32 278.76 156.04 305.75 148.76 299.59Z" fill="#541300"/>
<path d="M359.94 299.59C351.32 292.3 364.15 259.87 398.44 259.87C432.73 259.87 444.91 291.81 437.78 299.59C431.62 306.31 424.06 278.76 399.27 278.76C374.48 278.76 367.21 305.75 359.93 299.59H359.94Z" fill="#541300"/>
<path d="M424.42 276.3C438.52 274.5 444.45 267.75 450.17 262.55C455.9 257.35 458.92 280.51 436.23 287.85C452.55 291.76 462.06 281.64 464.51 283.47C469.42 287.13 448.8 306.21 434.48 300.36" fill="#541300"/>
<path d="M162.09 276.3C147.99 274.5 142.07 267.75 136.34 262.55C130.61 257.35 127.59 280.51 150.28 287.85C133.96 291.76 124.44 281.64 122 283.47C117.09 287.13 137.7 306.21 152.02 300.36" fill="#541300"/>
<path d="M136.92 143.13C136.92 143.13 60.99 95.7298 28.01 123.21C-4.96 150.7 41.6001 195.55 48.5801 201.24C55.5701 206.94 38.2899 241.09 63.1399 257.62C87.9799 274.13 139.69 207.86 148.56 180.01" fill="#FF7676"/>
<path d="M176.67 128.81C176.67 128.81 204.92 43.87 247.84 44.02C290.76 44.17 283.5 108.39 281.77 117.24C280.03 126.08 315.11 141.37 306.5 169.95C297.9 198.51 215.8 180.43 191.21 164.64" fill="#FF7676"/>
<path d="M131.28 139.83C118.79 155.57 136.15 192.71 174.05 179.04C210.42 165.93 197.57 125.38 178.5 122.8C159.43 120.23 139.63 129.27 131.28 139.82V139.83Z" fill="#FF7676"/>
<path d="M125.56 144.75C122.52 132.39 60.92 104.79 42.28 123.81C23.65 142.86 45.57 168.82 56.45 174.73C62.55 178.05 67.01 182.13 64.98 194.11C61.96 211.82 71.6301 237.32 85.6001 236.79C105.94 236.04 143.1 193.08 133.8 167.25C130.38 162.33 107.08 193.4 96.29 169.69C83.29 141.09 127.97 154.56 125.56 144.75Z" fill="#FFA1A1"/>
<path d="M184.32 123.14C178.72 111.81 212.07 50.4201 240.19 52.5001C268.32 54.5901 267.08 88.6101 261.86 100.24C258.93 106.76 257.91 112.78 267.49 120.47C281.66 131.85 290.37 157.44 278.35 166.25C260.83 179.07 201.45 171.14 192.24 145.54C191.85 139.57 231.81 147.66 225.21 122.66C217.26 92.53 188.76 132.12 184.32 123.14Z" fill="#FFA1A1"/>
<path d="M144.42 134.72C131.2 144.16 138.4 172.71 170.05 161.22C201.71 149.74 183.96 106.51 144.42 134.72Z" fill="#FFA1A1"/>
<path d="M209.58 352.44C216.79 347 363.64 347 370.93 352.44C378.23 357.88 352.86 419.92 290.29 419.92C227.72 419.92 202.38 357.88 209.58 352.44Z" fill="#872A2A"/>
<path d="M255.2 388.18C246.57 394.04 248.27 432.84 255.08 456.3C263.43 485.09 319.85 486.21 325.63 456.3C331.42 426.39 334.47 393.47 325.7 388.18C316.93 382.89 264.17 382.1 255.2 388.18Z" fill="#F982B3"/>
<defs>
<linearGradient id="paint0_linear_19_1097" x1="156.96" y1="151.24" x2="476.98" y2="535.65" gradientUnits="userSpaceOnUse">
<stop offset="0.04" stop-color="#FFF466"/>
<stop offset="0.08" stop-color="#FFF466"/>
<stop offset="0.32" stop-color="#FFEB5F"/>
<stop offset="0.69" stop-color="#FFD54C"/>
<stop offset="0.86" stop-color="#FFC943"/>
</linearGradient>
</defs>
</svg>
