<svg width="585" height="559" viewBox="0 0 585 559" fill="none" xmlns="http://www.w3.org/2000/svg">
<path d="M292.78 0.919983C336.28 0.919983 396.25 153.38 402.89 157.51C409.54 161.65 570.58 181.13 583.94 212.45C597.3 243.78 473.38 357.1 470.31 364.81C467.24 372.52 498.2 533.65 472.73 554.73C447.26 575.81 301.66 493.36 292.78 493.31C283.9 493.26 144.19 576.26 112.84 554.73C81.49 533.2 117.52 373.52 115.26 364.81C113 356.09 -12.53 253.93 1.62001 212.45C15.78 170.97 176.89 161.81 182.67 157.51C188.45 153.22 249.28 0.919983 292.77 0.919983H292.78Z" fill="#FFBD39"/>
<path d="M292.78 19.85C333.32 19.85 386.49 167.41 392.68 171.27C398.87 175.13 551.71 187.83 564.16 217.03C576.61 246.23 458.38 349.12 455.52 356.31C452.66 363.49 484.24 516.41 460.5 536.06C436.76 555.72 301.06 476.13 292.78 476.09C284.5 476.04 154.28 556.13 125.05 536.06C95.82 516 134.87 367.17 132.76 359.04C130.65 350.92 8.19999 255.7 21.39 217.04C34.59 178.38 190.21 175.29 195.6 171.28C200.99 167.27 252.23 19.86 292.77 19.86L292.78 19.85Z" fill="url(#paint0_linear_19_678)"/>
<path d="M56.8799 224.17C54.0599 196.68 144.25 180.5 148.23 212.66C152.2 244.82 60.7299 261.62 56.8799 224.17Z" fill="white"/>
<path d="M171.32 203.64C170.65 185.95 197.61 184.88 199.02 199.39C200.58 215.63 171.95 220.18 171.32 203.64Z" fill="white"/>
<g opacity="0.6">
<g opacity="0.6">
<path d="M197.68 358.79C197.68 376.67 181.97 391.18 162.6 391.18C143.23 391.18 127.52 376.68 127.52 358.79C127.52 340.9 143.23 326.41 162.6 326.41C181.97 326.41 197.68 340.91 197.68 358.79Z" fill="#FF5F82"/>
</g>
<g opacity="0.6">
<path d="M430.25 358.79C430.25 376.67 414.54 391.18 395.17 391.18C375.8 391.18 360.09 376.68 360.09 358.79C360.09 340.9 375.8 326.41 395.17 326.41C414.54 326.41 430.25 340.91 430.25 358.79Z" fill="#FF5F82"/>
</g>
</g>
<path d="M212.31 225.54C167.36 229.76 179.55 322.59 215.68 320.82C251.8 319.05 257.27 221.32 212.31 225.54Z" fill="#541300"/>
<path d="M227.91 267.36C218.34 266.12 215.31 288.93 226.14 291.37C236.97 293.81 241.48 269.11 227.91 267.36Z" fill="white"/>
<path d="M373.15 225.54C418.11 229.76 405.91 322.59 369.79 320.82C333.66 319.05 328.2 221.32 373.15 225.54Z" fill="#541300"/>
<path d="M357.55 267.36C367.11 266.12 370.15 288.93 359.32 291.37C348.49 293.81 343.97 269.11 357.55 267.36Z" fill="white"/>
<path d="M245.66 175.57C249.76 167.01 231.64 153.67 208.06 158.63C192.12 161.99 177.03 181.74 180.93 186.13C184.84 190.52 190.95 176.27 211.61 172.63C229.34 169.5 243.9 179.27 245.67 175.58L245.66 175.57Z" fill="#541300"/>
<path d="M339.8 175.57C335.7 167.01 353.81 153.67 377.4 158.63C393.34 161.99 408.43 181.74 404.53 186.13C400.63 190.52 394.51 176.27 373.86 172.63C356.12 169.5 341.57 179.27 339.8 175.58V175.57Z" fill="#541300"/>
<path d="M340.75 417.45C331.24 424.63 254.34 424.61 244.76 417.45C238.16 412.53 236.12 388.15 292.72 388.15C349.32 388.15 347.25 412.52 340.74 417.45H340.75Z" fill="#872A2A"/>
<defs>
<linearGradient id="paint0_linear_19_678" x1="157.19" y1="151.39" x2="477.21" y2="535.8" gradientUnits="userSpaceOnUse">
<stop offset="0.04" stop-color="#FFF466"/>
<stop offset="0.08" stop-color="#FFF466"/>
<stop offset="0.32" stop-color="#FFEB5F"/>
<stop offset="0.69" stop-color="#FFD54C"/>
<stop offset="0.86" stop-color="#FFC943"/>
</linearGradient>
</defs>
</svg>
