<svg width="585" height="559" viewBox="0 0 585 559" fill="none" xmlns="http://www.w3.org/2000/svg">
<path d="M292.78 0.76001C336.27 0.76001 396.24 153.22 402.88 157.36C409.52 161.5 570.57 180.98 583.93 212.3C597.28 243.62 473.36 356.94 470.3 364.65C467.23 372.36 498.19 533.48 472.72 554.57C447.25 575.65 301.66 493.2 292.78 493.15C283.9 493.1 144.19 576.09 112.83 554.57C81.4699 533.04 117.51 373.36 115.25 364.65C112.99 355.93 -12.5401 253.77 1.61994 212.3C15.7699 170.82 176.88 161.65 182.66 157.36C188.44 153.06 249.28 0.76001 292.77 0.76001H292.78Z" fill="#FFBD39"/>
<path d="M292.77 19.7C333.32 19.7 386.49 167.26 392.67 171.11C398.86 174.97 551.7 187.67 564.15 216.87C576.6 246.06 458.37 348.96 455.51 356.14C452.65 363.32 484.23 516.23 460.5 535.89C436.76 555.55 301.06 475.96 292.77 475.92C284.5 475.87 154.27 555.96 125.05 535.89C95.8201 515.83 134.87 367 132.76 358.87C130.65 350.75 8.19003 255.53 21.39 216.87C34.59 178.21 190.21 175.12 195.6 171.11C200.99 167.1 252.23 19.7 292.77 19.7Z" fill="url(#paint0_linear_19_812)"/>
<path d="M56.8799 224.02C54.0599 196.53 144.25 180.35 148.23 212.51C152.21 244.67 60.7299 261.47 56.8799 224.02Z" fill="white"/>
<path d="M171.32 203.48C170.64 185.79 197.6 184.72 199 199.23C200.57 215.47 171.94 220.02 171.32 203.48Z" fill="white"/>
<g opacity="0.6">
<g opacity="0.6">
<path d="M208 347.7C208 365.58 192.29 380.09 172.92 380.09C153.55 380.09 137.84 365.59 137.84 347.7C137.84 329.81 153.55 315.32 172.92 315.32C192.29 315.32 208 329.82 208 347.7Z" fill="#FF5F82"/>
</g>
<g opacity="0.6">
<path d="M447.62 347.7C447.62 365.58 431.92 380.09 412.55 380.09C393.18 380.09 377.47 365.59 377.47 347.7C377.47 329.81 393.17 315.32 412.55 315.32C431.93 315.32 447.62 329.82 447.62 347.7Z" fill="#FF5F82"/>
</g>
</g>
<path d="M148.99 299.6C140.37 292.31 153.2 259.88 187.5 259.88C221.8 259.88 233.97 291.83 226.84 299.6C220.68 306.32 213.11 278.77 188.33 278.77C163.55 278.77 156.27 305.76 148.99 299.6Z" fill="#541300"/>
<path d="M360.17 299.6C351.55 292.31 364.37 259.88 398.68 259.88C432.99 259.88 445.15 291.83 438.02 299.6C431.86 306.32 424.3 278.77 399.51 278.77C374.72 278.77 367.46 305.76 360.17 299.6Z" fill="#541300"/>
<path d="M257.6 346.42C263.71 341.5 331.95 341.5 338.14 346.42C344.34 351.34 333.88 411.04 298.8 411.04C263.72 411.04 251.49 351.35 257.6 346.42Z" fill="#872A2A"/>
<path d="M298.9 380.85C295.89 381.11 283.35 369.21 275.24 374.86C267.13 380.51 282.36 405.3 299.35 404.85C316.35 404.41 327.85 380.02 320.72 374.86C313.6 369.7 304.62 380.36 298.9 380.85Z" fill="#F982B3"/>
<path d="M424.65 276.3C438.75 274.5 444.67 267.75 450.4 262.55C456.13 257.35 459.15 280.51 436.46 287.85C452.77 291.76 462.29 281.64 464.74 283.47C469.65 287.13 449.03 306.21 434.71 300.36" fill="#541300"/>
<path d="M162.32 276.3C148.22 274.5 142.3 267.75 136.57 262.55C130.84 257.35 127.82 280.51 150.51 287.85C134.19 291.76 124.67 281.64 122.23 283.47C117.32 287.13 137.93 306.21 152.26 300.36" fill="#541300"/>
<path d="M137.15 143.13C137.15 143.13 61.22 95.7298 28.25 123.21C-4.71999 150.7 41.84 195.55 48.82 201.24C55.8 206.94 38.53 241.09 63.37 257.62C88.21 274.13 139.92 207.86 148.79 180.01" fill="#FF7676"/>
<path d="M176.9 128.81C176.9 128.81 205.15 43.87 248.07 44.02C291 44.17 283.73 108.39 282 117.24C280.26 126.08 315.34 141.37 306.73 169.95C298.13 198.51 216.03 180.43 191.44 164.64" fill="#FF7676"/>
<path d="M131.51 139.83C119.02 155.57 136.38 192.71 174.28 179.04C210.65 165.93 197.8 125.38 178.72 122.8C159.65 120.23 139.86 129.28 131.5 139.82L131.51 139.83Z" fill="#FF7676"/>
<path d="M125.79 144.75C122.75 132.39 61.15 104.79 42.51 123.81C23.88 142.86 45.8 168.82 56.68 174.73C62.78 178.05 67.2399 182.13 65.2099 194.11C62.1899 211.82 71.8599 237.32 85.8299 236.79C106.17 236.04 143.33 193.08 134.03 167.25C130.61 162.33 107.31 193.4 96.52 169.69C83.52 141.09 128.2 154.56 125.79 144.75Z" fill="#FFA1A1"/>
<path d="M184.55 123.14C178.95 111.81 212.3 50.4201 240.43 52.5001C268.56 54.5901 267.32 88.6101 262.1 100.24C259.17 106.76 258.15 112.78 267.73 120.47C281.9 131.85 290.62 157.44 278.59 166.25C261.07 179.07 201.69 171.14 192.48 145.53C192.09 139.56 232.06 147.65 225.45 122.65C217.5 92.52 189.01 132.11 184.56 123.13L184.55 123.14Z" fill="#FFA1A1"/>
<path d="M144.65 134.73C131.43 144.17 138.63 172.72 170.28 161.23C201.94 149.74 184.19 106.51 144.65 134.73Z" fill="#FFA1A1"/>
<defs>
<linearGradient id="paint0_linear_19_812" x1="157.19" y1="151.24" x2="477.21" y2="535.65" gradientUnits="userSpaceOnUse">
<stop offset="0.04" stop-color="#FFF466"/>
<stop offset="0.08" stop-color="#FFF466"/>
<stop offset="0.32" stop-color="#FFEB5F"/>
<stop offset="0.69" stop-color="#FFD54C"/>
<stop offset="0.86" stop-color="#FFC943"/>
</linearGradient>
</defs>
</svg>
