<svg width="585" height="559" viewBox="0 0 585 559" fill="none" xmlns="http://www.w3.org/2000/svg">
<path d="M292.3 0.76001C335.8 0.76001 395.76 153.22 402.41 157.36C409.06 161.5 570.1 180.98 583.46 212.3C596.82 243.62 472.9 356.94 469.83 364.65C466.76 372.36 497.71 533.48 472.25 554.57C446.78 575.65 301.19 493.2 292.31 493.15C283.43 493.1 143.72 576.09 112.36 554.57C81.0001 533.04 117.04 373.36 114.78 364.65C112.52 355.93 -13.0102 253.77 1.14985 212.3C15.3098 170.82 176.42 161.65 182.2 157.36C187.98 153.06 248.8 0.76001 292.3 0.76001Z" fill="#FFBD39"/>
<path d="M292.3 19.7C332.84 19.7 386.01 167.26 392.2 171.11C398.39 174.97 551.22 187.67 563.68 216.87C576.13 246.06 457.9 348.96 455.04 356.14C452.17 363.32 483.76 516.23 460.02 535.89C436.28 555.55 300.58 475.96 292.3 475.92C284.02 475.87 153.8 555.96 124.57 535.89C95.34 515.83 134.39 367 132.28 358.87C130.17 350.75 7.7098 255.53 20.9098 216.87C34.1098 178.21 189.73 175.12 195.12 171.11C200.51 167.1 251.75 19.7 292.3 19.7Z" fill="url(#paint0_linear_19_896)"/>
<path d="M56.4 224.02C53.59 196.53 143.77 180.35 147.75 212.51C151.72 244.67 60.25 261.47 56.4 224.02Z" fill="white"/>
<path d="M170.84 203.48C170.17 185.79 197.13 184.72 198.53 199.23C200.09 215.47 171.46 220.02 170.84 203.48Z" fill="white"/>
<g opacity="0.6">
<g opacity="0.6">
<path d="M214.57 347.68C214.57 365.56 198.86 380.07 179.49 380.07C160.12 380.07 144.41 365.57 144.41 347.68C144.41 329.79 160.12 315.3 179.49 315.3C198.86 315.3 214.57 329.8 214.57 347.68Z" fill="#FF5F82"/>
</g>
<g opacity="0.6">
<path d="M447.14 347.68C447.14 365.56 431.43 380.07 412.06 380.07C392.69 380.07 376.98 365.57 376.98 347.68C376.98 329.79 392.69 315.3 412.06 315.3C431.43 315.3 447.14 329.8 447.14 347.68Z" fill="#FF5F82"/>
</g>
</g>
<path d="M323.92 347.59C330.94 335.57 320.8 326.29 314.15 337.45C304.08 354.34 264.11 353 253.85 337.45C246.79 326.77 237.73 334.89 244.07 347.59C256.66 372.76 306.79 376.97 323.92 347.59Z" fill="#872A2A"/>
<path d="M137.04 148.3C137.04 148.3 61.0999 100.9 28.1299 128.38C-4.84013 155.86 41.7199 200.72 48.6999 206.41C55.6799 212.11 38.41 246.26 63.25 262.79C88.1 279.29 139.8 213.03 148.67 185.18" fill="#FF7676"/>
<path d="M176.78 133.98C176.78 133.98 205.03 49.0399 247.96 49.1899C290.89 49.3399 283.62 113.56 281.88 122.41C280.14 131.25 315.22 146.54 306.61 175.12C298.01 203.68 215.92 185.6 191.33 169.81" fill="#FF7676"/>
<path d="M131.39 145C118.91 160.74 136.27 197.88 174.16 184.21C210.53 171.11 197.69 130.55 178.62 127.97C159.55 125.4 139.75 134.44 131.39 144.99V145Z" fill="#FF7676"/>
<path d="M125.67 149.92C122.63 137.56 61.0299 109.95 42.3899 128.98C23.7699 148.04 45.6901 173.99 56.5701 179.9C62.6701 183.22 67.1201 187.3 65.0901 199.28C62.0801 216.99 71.75 242.49 85.71 241.96C106.06 241.2 143.21 198.25 133.92 172.42C130.49 167.5 107.19 198.57 96.4 174.85C83.41 146.25 128.07 159.72 125.67 149.92Z" fill="#FFA1A1"/>
<path d="M184.43 128.31C178.83 116.98 212.18 55.59 240.3 57.67C268.43 59.76 267.18 93.78 261.97 105.41C259.04 111.93 258.01 117.95 267.6 125.64C281.77 137.02 290.48 162.61 278.46 171.42C260.94 184.24 201.56 176.31 192.35 150.71C191.96 144.74 231.93 152.83 225.32 127.83C217.38 97.7002 188.87 137.29 184.43 128.31Z" fill="#FFA1A1"/>
<path d="M144.53 139.89C131.3 149.33 138.51 177.88 170.16 166.39C201.81 154.91 184.07 111.68 144.53 139.89Z" fill="#FFA1A1"/>
<path d="M349.85 286.77C340.36 278.74 354.48 251.17 392.24 251.17C430 251.17 443.39 278.21 435.54 286.77C428.76 294.17 420.44 271.96 393.16 271.96C365.88 271.96 357.87 293.55 349.85 286.77Z" fill="#541300"/>
<path d="M416.86 265.67C430.57 261.9 435.48 254.38 440.41 248.42C445.35 242.46 451.61 264.97 430.18 275.43C446.89 277 454.89 265.64 457.56 267.1C462.94 270.03 445.22 291.83 430.21 288.06" fill="#541300"/>
<path d="M226.37 286.77C235.86 278.74 221.74 251.17 183.99 251.17C146.24 251.17 132.84 278.21 140.68 286.77C147.47 294.17 155.78 271.96 183.07 271.96C210.36 271.96 218.36 293.55 226.38 286.77H226.37Z" fill="#541300"/>
<path d="M159.36 265.67C145.65 261.9 140.74 254.38 135.81 248.42C130.88 242.46 124.62 264.97 146.04 275.43C129.34 277 121.34 265.64 118.67 267.1C113.29 270.03 131.01 291.83 146.01 288.06" fill="#541300"/>
<defs>
<linearGradient id="paint0_linear_19_896" x1="156.71" y1="151.24" x2="476.72" y2="535.65" gradientUnits="userSpaceOnUse">
<stop offset="0.04" stop-color="#FFF466"/>
<stop offset="0.08" stop-color="#FFF466"/>
<stop offset="0.32" stop-color="#FFEB5F"/>
<stop offset="0.69" stop-color="#FFD54C"/>
<stop offset="0.86" stop-color="#FFC943"/>
</linearGradient>
</defs>
</svg>
