<svg width="585" height="558" viewBox="0 0 585 558" fill="none" xmlns="http://www.w3.org/2000/svg">
<path d="M292.53 0C336.03 0 395.99 152.46 402.64 156.6C409.28 160.74 570.33 180.22 583.69 211.54C597.05 242.86 473.13 356.19 470.06 363.9C466.99 371.61 497.95 532.73 472.48 553.83C447.01 574.91 301.42 492.45 292.54 492.41C283.66 492.36 143.95 575.36 112.59 553.83C81.23 532.3 117.27 372.62 115.01 363.9C112.75 355.18 -12.78 253.02 1.37001 211.54C15.53 170.06 176.64 160.89 182.42 156.6C188.2 152.3 249.03 0 292.53 0Z" fill="#FFBD39"/>
<path d="M292.52 18.93C333.07 18.93 386.23 166.49 392.42 170.35C398.61 174.21 551.45 186.91 563.9 216.11C576.35 245.31 458.12 348.2 455.26 355.39C452.4 362.57 483.98 515.49 460.24 535.14C436.5 554.8 300.8 475.22 292.51 475.17C284.23 475.12 154.01 555.22 124.79 535.14C95.56 515.08 134.61 366.25 132.5 358.12C130.39 350 7.94004 254.77 21.14 216.11C34.34 177.45 189.95 174.36 195.35 170.35C200.74 166.35 251.98 18.93 292.52 18.93Z" fill="url(#paint0_linear_19_742)"/>
<path d="M56.62 223.25C53.81 195.76 143.99 179.58 147.97 211.74C151.95 243.91 60.47 260.7 56.62 223.25Z" fill="white"/>
<path d="M171.06 202.72C170.39 185.04 197.35 183.96 198.75 198.47C200.32 214.71 171.69 219.26 171.06 202.72Z" fill="white"/>
<g opacity="0.6">
<g opacity="0.6">
<path d="M201.35 336.34C201.35 354.22 185.64 368.73 166.27 368.73C146.9 368.73 131.19 354.22 131.19 336.34C131.19 318.46 146.9 303.96 166.27 303.96C185.64 303.96 201.35 318.46 201.35 336.34Z" fill="#FF5F82"/>
</g>
<g opacity="0.6">
<path d="M440.97 336.34C440.97 354.22 425.27 368.73 405.89 368.73C386.51 368.73 370.81 354.22 370.81 336.34C370.81 318.46 386.51 303.96 405.89 303.96C425.27 303.96 440.97 318.46 440.97 336.34Z" fill="#FF5F82"/>
</g>
</g>
<path d="M249.2 141C253.99 155.62 223.53 197.35 187.35 183.38C181.5 181.05 201.94 174.11 219.57 162.82C234.2 153.45 247.95 137.19 249.21 141.01L249.2 141Z" fill="#541300"/>
<path d="M339.27 163.88C334.48 178.5 366.18 220.23 401.13 206.26C406.98 203.93 386.54 196.99 368.91 185.69C354.29 176.32 340.53 160.06 339.28 163.88H339.27Z" fill="#541300"/>
<path d="M341.8 382.26C337.08 387.22 317.6 377.68 292.87 377.7C267.89 377.72 247.86 387.19 243.15 382.26C238.44 377.33 252.08 335.32 292.46 335.32C332.84 335.32 346.52 377.29 341.8 382.26Z" fill="#872A2A"/>
<path d="M207.05 235C259.07 238.35 244.96 291.1 203.16 289.7C161.36 288.3 155.04 231.65 207.05 235Z" fill="#541300"/>
<path d="M225.31 239.12C196.7 225.95 154.57 244.67 149 263.39C147.91 272.86 180.74 257.91 198.36 255.73" fill="#541300"/>
<path d="M224.28 263.42C235.29 268.21 229.86 293.37 217.96 288.98C205.25 284.31 213.95 258.93 224.28 263.42Z" fill="white"/>
<path d="M377.9 235C325.88 238.35 339.99 291.1 381.79 289.7C423.59 288.3 429.91 231.65 377.9 235Z" fill="#541300"/>
<path d="M359.65 239.12C386.89 225.95 430.38 244.67 435.96 263.39C437.05 272.86 404.22 257.91 386.6 255.73" fill="#541300"/>
<path d="M360.67 263.42C349.66 268.21 355.09 293.37 366.99 288.98C379.7 284.31 371 258.93 360.67 263.42Z" fill="white"/>
<defs>
<linearGradient id="paint0_linear_19_742" x1="156.94" y1="150.47" x2="476.95" y2="534.89" gradientUnits="userSpaceOnUse">
<stop offset="0.04" stop-color="#FFF466"/>
<stop offset="0.08" stop-color="#FFF466"/>
<stop offset="0.32" stop-color="#FFEB5F"/>
<stop offset="0.69" stop-color="#FFD54C"/>
<stop offset="0.86" stop-color="#FFC943"/>
</linearGradient>
</defs>
</svg>
