<svg width="984" height="642" viewBox="0 0 984 642" fill="none" xmlns="http://www.w3.org/2000/svg">
<path d="M403.172 133.226C403.172 133.226 319.704 66.4397 275.774 159.94C275.774 159.94 133.695 192.724 224.625 347.545C224.625 347.545 173.169 406.437 233.458 442.751C233.458 442.751 210.851 461.268 214.638 479.483C214.638 479.483 188.224 455.614 165.898 489.032C165.898 489.032 126.054 484.175 126.117 513.291H868.717C868.717 513.291 868.589 482.203 819.741 494.345C819.741 494.345 808.586 452.873 776.594 461.578C776.594 461.578 812.161 432.3 776.168 419.55C776.168 419.55 837.998 379.114 802.142 319.008C802.142 319.008 868.717 213.365 744.836 199.876C744.836 199.876 726.229 102.258 629.898 142.33C629.898 142.33 604.821 80.4013 531.858 112.176C531.858 112.176 461.011 47.6191 403.172 133.226Z" fill="white"/>
<mask id="mask0_503_4285" style="mask-type:luminance" maskUnits="userSpaceOnUse" x="125" y="88" width="742" height="423">
<path d="M401.831 132.239C401.831 132.239 318.431 65.6821 274.536 158.861C274.536 158.861 132.571 191.533 223.428 345.82C223.428 345.82 172.014 404.513 232.254 440.702C232.254 440.702 209.665 459.155 213.45 477.308C213.45 477.308 187.057 453.521 164.749 486.825C164.749 486.825 124.937 481.984 125 511H867C867 511 866.872 480.018 818.064 492.119C818.064 492.119 806.917 450.789 774.952 459.464C774.952 459.464 810.49 430.287 774.526 417.58C774.526 417.58 836.306 377.283 800.479 317.384C800.479 317.384 867 212.104 743.219 198.661C743.219 198.661 724.627 101.378 628.374 141.312C628.374 141.312 603.318 79.5957 530.413 111.262C530.415 111.264 459.623 46.9261 401.831 132.239Z" fill="white"/>
</mask>
<g mask="url(#mask0_503_4285)">
<path d="M213.484 360.287C213.484 360.287 236.27 415.402 319.555 391.805C319.555 391.805 321.683 458.967 394.441 437.184C394.441 437.184 445.96 458.967 491.596 408.141C491.596 408.141 520.796 450.098 561.194 441.825C561.194 441.825 614.842 475.303 656.486 415.402C656.486 415.402 682.304 460.417 728.414 439C728.414 439 797.737 468.099 799.11 392.741L853.345 451.151L867 529.757L484.396 566.643H158.661L33.7322 511.001L134.055 415.402L213.484 360.287Z" fill="#D9EDEC"/>
</g>
<mask id="mask1_503_4285" style="mask-type:luminance" maskUnits="userSpaceOnUse" x="125" y="88" width="742" height="423">
<path d="M401.831 132.239C401.831 132.239 318.431 65.6821 274.536 158.861C274.536 158.861 132.571 191.533 223.428 345.82C223.428 345.82 172.014 404.513 232.254 440.702C232.254 440.702 209.665 459.155 213.45 477.308C213.45 477.308 187.057 453.521 164.749 486.825C164.749 486.825 124.937 481.984 125 511H867C867 511 866.872 480.018 818.064 492.119C818.064 492.119 806.917 450.789 774.952 459.464C774.952 459.464 810.49 430.287 774.526 417.58C774.526 417.58 836.306 377.283 800.479 317.384C800.479 317.384 867 212.104 743.219 198.661C743.219 198.661 724.627 101.378 628.374 141.312C628.374 141.312 603.318 79.5957 530.413 111.262C530.415 111.264 459.623 46.9261 401.831 132.239Z" fill="white"/>
</mask>
<g mask="url(#mask1_503_4285)">
<path d="M138.144 490.322C138.144 490.322 190.841 526.127 224.914 481.983C224.914 481.983 258.984 500.714 279.806 455.334C279.806 455.334 323.342 513.419 385.431 473.486C385.431 473.486 469.679 510.998 491.598 458.965C491.598 458.965 540.482 510.998 603.32 466.226C603.32 466.226 652.699 529.757 751.13 481.983C751.13 481.983 802.237 510.998 855.656 493.128L893.094 510.998L879.844 527.94L433.461 591.701L96.1977 566.642L77.2703 518.867L138.144 490.322Z" fill="#BDD1CF"/>
</g>
<mask id="mask2_503_4285" style="mask-type:luminance" maskUnits="userSpaceOnUse" x="125" y="88" width="742" height="423">
<path d="M401.831 132.239C401.831 132.239 318.431 65.6821 274.536 158.861C274.536 158.861 132.571 191.533 223.428 345.82C223.428 345.82 172.014 404.513 232.254 440.702C232.254 440.702 209.665 459.155 213.45 477.308C213.45 477.308 187.057 453.521 164.749 486.825C164.749 486.825 124.937 481.984 125 511H867C867 511 866.872 480.018 818.064 492.119C818.064 492.119 806.917 450.789 774.952 459.464C774.952 459.464 810.49 430.287 774.526 417.58C774.526 417.58 836.306 377.283 800.479 317.384C800.479 317.384 867 212.104 743.219 198.661C743.219 198.661 724.627 101.378 628.374 141.312C628.374 141.312 603.318 79.5957 530.413 111.262C530.415 111.264 459.623 46.9261 401.831 132.239Z" fill="white"/>
</mask>
<g mask="url(#mask2_503_4285)">
<path d="M197.656 298.641C197.656 298.641 232.606 356.726 323.971 329.498C323.971 329.498 356.98 360.357 407.925 317.702C407.925 317.702 393.211 387.585 317.972 345.836C317.972 345.836 205.227 393.029 197.656 298.641Z" fill="#D9EDEC"/>
</g>
<mask id="mask3_503_4285" style="mask-type:luminance" maskUnits="userSpaceOnUse" x="125" y="88" width="742" height="423">
<path d="M401.831 132.239C401.831 132.239 318.431 65.6821 274.536 158.861C274.536 158.861 132.571 191.533 223.428 345.82C223.428 345.82 172.014 404.513 232.254 440.702C232.254 440.702 209.665 459.155 213.45 477.308C213.45 477.308 187.057 453.521 164.749 486.825C164.749 486.825 124.937 481.984 125 511H867C867 511 866.872 480.018 818.064 492.119C818.064 492.119 806.917 450.789 774.952 459.464C774.952 459.464 810.49 430.287 774.526 417.58C774.526 417.58 836.306 377.283 800.479 317.384C800.479 317.384 867 212.104 743.219 198.661C743.219 198.661 724.627 101.378 628.374 141.312C628.374 141.312 603.318 79.5957 530.413 111.262C530.415 111.264 459.623 46.9261 401.831 132.239Z" fill="white"/>
</mask>
<g mask="url(#mask3_503_4285)">
<path d="M562.734 289.422C562.734 289.422 635.409 320.279 674.456 269.457C674.456 269.457 690.708 320.281 756.016 291.239C756.016 291.239 796.44 317.388 822.266 280.349C822.266 280.349 810.908 359.95 699.514 316.652C699.514 316.652 594.704 356.584 562.734 289.422Z" fill="#D9EDEC"/>
</g>
<mask id="mask4_503_4285" style="mask-type:luminance" maskUnits="userSpaceOnUse" x="125" y="88" width="742" height="423">
<path d="M401.831 132.239C401.831 132.239 318.431 65.6821 274.536 158.861C274.536 158.861 132.571 191.533 223.428 345.82C223.428 345.82 172.014 404.513 232.254 440.702C232.254 440.702 209.665 459.155 213.45 477.308C213.45 477.308 187.057 453.521 164.749 486.825C164.749 486.825 124.937 481.984 125 511H867C867 511 866.872 480.018 818.064 492.119C818.064 492.119 806.917 450.789 774.952 459.464C774.952 459.464 810.49 430.287 774.526 417.58C774.526 417.58 836.306 377.283 800.479 317.384C800.479 317.384 867 212.104 743.219 198.661C743.219 198.661 724.627 101.378 628.374 141.312C628.374 141.312 603.318 79.5957 530.413 111.262C530.415 111.264 459.623 46.9261 401.831 132.239Z" fill="white"/>
</mask>
<g mask="url(#mask4_503_4285)">
<path d="M521.84 348.244C521.84 348.244 546.691 379.101 619.57 359.134C619.57 359.134 568.912 417.219 521.84 348.244Z" fill="#D9EDEC"/>
</g>
<mask id="mask5_503_4285" style="mask-type:luminance" maskUnits="userSpaceOnUse" x="125" y="88" width="742" height="423">
<path d="M401.831 132.239C401.831 132.239 318.431 65.6821 274.536 158.861C274.536 158.861 132.571 191.533 223.428 345.82C223.428 345.82 172.014 404.513 232.254 440.702C232.254 440.702 209.665 459.155 213.45 477.308C213.45 477.308 187.057 453.521 164.749 486.825C164.749 486.825 124.937 481.984 125 511H867C867 511 866.872 480.018 818.064 492.119C818.064 492.119 806.917 450.789 774.952 459.464C774.952 459.464 810.49 430.287 774.526 417.58C774.526 417.58 836.306 377.283 800.479 317.384C800.479 317.384 867 212.104 743.219 198.661C743.219 198.661 724.627 101.378 628.374 141.312C628.374 141.312 603.318 79.5957 530.413 111.262C530.415 111.264 459.623 46.9261 401.831 132.239Z" fill="white"/>
</mask>
<g mask="url(#mask5_503_4285)">
<path d="M371.539 209.44C371.539 209.44 396.39 240.298 469.269 220.33C469.269 220.33 418.609 278.415 371.539 209.44Z" fill="#D9EDEC"/>
</g>
<path d="M37.6758 547.628C38.8337 547.043 40.7275 547.043 41.8833 547.628L44.6624 549.032C45.8204 549.615 46.5865 549.08 46.3636 547.842L45.8333 544.868C45.6104 543.628 46.197 541.897 47.1341 541.02L49.3829 538.912C50.318 538.036 50.0258 537.169 48.7315 536.987L45.6277 536.555C44.3334 536.374 42.801 535.304 42.2231 534.176L40.8336 531.469C40.2557 530.343 39.3077 530.343 38.7298 531.469L37.3403 534.176C36.7624 535.304 35.23 536.374 33.9357 536.555L30.8298 536.987C29.5355 537.169 29.2433 538.036 30.1805 538.912L32.4293 541.02C33.3643 541.897 33.9508 543.628 33.7301 544.868L33.1998 547.842C32.979 549.082 33.7452 549.617 34.901 549.032L37.6758 547.628Z" fill="#FFD168"/>
<path d="M197.382 67.9292C198.54 67.3444 200.434 67.3444 201.59 67.9292L204.369 69.3339C205.527 69.9166 206.293 69.3817 206.07 68.1435L205.54 65.1698C205.317 63.9295 205.903 62.1981 206.84 61.322L209.087 59.2139C210.022 58.3378 209.73 57.47 208.436 57.289L205.33 56.8561C204.035 56.6751 202.503 55.6055 201.925 54.4775L200.536 51.7702C199.958 50.6443 199.01 50.6443 198.432 51.7702L197.042 54.4775C196.464 55.6055 194.932 56.6751 193.638 56.8561L190.532 57.289C189.237 57.47 188.945 58.3378 189.882 59.2139L192.131 61.322C193.066 62.1981 193.653 63.9295 193.432 65.1698L192.902 68.1435C192.681 69.3838 193.447 69.9186 194.603 69.3339L197.382 67.9292Z" fill="#FFD168"/>
<path d="M215.707 639.375C216.865 638.79 218.759 638.79 219.914 639.375L222.693 640.779C223.851 641.362 224.618 640.827 224.395 639.589L223.864 636.615C223.641 635.375 224.228 633.644 225.165 632.768L227.414 630.659C228.349 629.783 228.057 628.916 226.762 628.735L223.659 628.302C222.364 628.121 220.832 627.051 220.254 625.923L218.865 623.216C218.287 622.09 217.339 622.09 216.761 623.216L215.371 625.923C214.793 627.051 213.261 628.121 211.967 628.302L208.861 628.735C207.566 628.916 207.274 629.783 208.211 630.659L210.46 632.768C211.395 633.644 211.982 635.375 211.761 636.615L211.231 639.589C211.01 640.829 211.776 641.364 212.932 640.779L215.707 639.375Z" fill="#FFD168"/>
<path d="M867.665 426.896C868.821 426.311 870.715 426.311 871.871 426.896L874.648 428.301C875.806 428.883 876.572 428.348 876.351 427.11L875.821 424.137C875.598 422.896 876.184 421.165 877.119 420.289L879.368 418.181C880.303 417.305 880.011 416.437 878.717 416.256L875.609 415.823C874.314 415.642 872.784 414.572 872.206 413.444L870.815 410.737C870.237 409.611 869.291 409.611 868.711 410.737L867.321 413.444C866.743 414.572 865.211 415.642 863.919 415.823L860.811 416.256C859.516 416.437 859.226 417.305 860.159 418.181L862.408 420.289C863.343 421.165 863.93 422.896 863.709 424.137L863.179 427.11C862.958 428.351 863.724 428.885 864.88 428.301L867.665 426.896Z" fill="#FFD168"/>
<path d="M705.907 76.4056C707.063 75.8209 708.957 75.8209 710.113 76.4056L712.89 77.8103C714.047 78.393 714.814 77.8582 714.593 76.62L714.063 73.6462C713.842 72.4059 714.426 70.6745 715.363 69.7984L717.612 67.6904C718.547 66.8142 718.255 65.9465 716.961 65.7654L713.853 65.3326C712.558 65.1515 711.028 64.0819 710.45 62.954L709.061 60.2487C708.483 59.1228 707.537 59.1228 706.957 60.2487L705.567 62.956C704.987 64.084 703.457 65.1536 702.165 65.3347L699.057 65.7675C697.763 65.9486 697.473 66.8163 698.405 67.6924L700.654 69.8005C701.589 70.6766 702.176 72.408 701.955 73.6483L701.425 76.622C701.204 77.8623 701.97 78.3971 703.126 77.8124L705.907 76.4056Z" fill="#FFD168"/>
<path d="M127.795 299.423C128.951 298.839 130.845 298.839 132 299.423L134.777 300.828C135.935 301.411 136.702 300.876 136.481 299.638L135.95 296.664C135.728 295.424 136.314 293.692 137.249 292.816L139.498 290.708C140.433 289.832 140.141 288.964 138.846 288.783L135.738 288.35C134.444 288.169 132.914 287.1 132.336 285.972L130.944 283.264C130.366 282.138 129.421 282.138 128.84 283.264L127.451 285.972C126.871 287.1 125.341 288.169 124.048 288.35L120.94 288.783C119.646 288.964 119.356 289.832 120.289 290.708L122.538 292.816C123.473 293.692 124.059 295.424 123.839 296.664L123.308 299.638C123.087 300.878 123.854 301.413 125.009 300.828L127.795 299.423Z" fill="#FFD168"/>
<path d="M963.256 351.072C965.214 350.083 968.42 350.083 970.379 351.072L975.082 353.448C977.038 354.439 978.337 353.532 977.963 351.436L977.064 346.402C976.69 344.304 977.679 341.372 979.266 339.886L983.071 336.322C984.657 334.836 984.161 333.371 981.971 333.067L976.712 332.33C974.521 332.026 971.928 330.212 970.95 328.306L968.597 323.723C967.619 321.815 966.017 321.815 965.037 323.723L962.684 328.306C961.706 330.212 959.113 332.024 956.923 332.33L951.663 333.067C949.473 333.371 948.979 334.838 950.561 336.322L954.369 339.886C955.951 341.372 956.942 344.304 956.57 346.402L955.672 351.436C955.297 353.532 956.596 354.437 958.552 353.448L963.256 351.072Z" fill="#FFD168"/>
<path d="M702.621 629.78C704.58 628.789 707.785 628.789 709.744 629.78L714.447 632.156C716.404 633.147 717.702 632.24 717.328 630.144L716.43 625.11C716.055 623.012 717.044 620.08 718.631 618.594L722.436 615.03C724.02 613.544 723.527 612.079 721.336 611.773L716.077 611.038C713.886 610.732 711.293 608.92 710.315 607.014L707.963 602.431C706.984 600.523 705.383 600.523 704.402 602.431L702.049 607.014C701.071 608.92 698.478 610.732 696.288 611.038L691.028 611.773C688.838 612.079 688.344 613.544 689.927 615.03L693.734 618.594C695.316 620.08 696.307 623.012 695.935 625.11L695.037 630.144C694.662 632.24 695.961 633.145 697.918 632.156L702.621 629.78Z" fill="#FFD168"/>
<path d="M963.256 562.27C965.214 561.28 968.42 561.28 970.379 562.27L975.082 564.647C977.038 565.637 978.337 564.73 977.963 562.634L977.064 557.6C976.69 555.503 977.679 552.57 979.266 551.085L983.071 547.52C984.657 546.034 984.161 544.569 981.971 544.265L976.712 543.529C974.521 543.225 971.928 541.41 970.95 539.504L968.597 534.921C967.619 533.013 966.017 533.013 965.037 534.921L962.684 539.504C961.706 541.41 959.113 543.223 956.923 543.529L951.663 544.265C949.473 544.569 948.979 546.036 950.561 547.52L954.369 551.085C955.951 552.57 956.942 555.503 956.57 557.6L955.672 562.634C955.297 564.73 956.596 565.635 958.552 564.647L963.256 562.27Z" fill="#FFD168"/>
<path d="M444.659 28.7798C446.618 27.7893 449.824 27.7893 451.782 28.7798L456.486 31.1564C458.442 32.1469 459.741 31.2396 459.366 29.144L458.468 24.1101C458.094 22.0124 459.083 19.0803 460.669 17.5944L464.474 14.0296C466.061 12.5438 465.565 11.0788 463.375 10.7749L458.115 10.0383C455.925 9.73445 453.332 7.9198 452.354 6.01359L450.001 1.43121C449.023 -0.477072 447.421 -0.477072 446.441 1.43121L444.088 6.01359C443.11 7.9198 440.517 9.73237 438.326 10.0383L433.067 10.7749C430.877 11.0788 430.383 12.5438 431.965 14.0296L435.775 17.5944C437.357 19.0803 438.348 22.0124 437.976 24.1101L437.078 29.144C436.703 31.2396 438.002 32.1448 439.958 31.1564L444.659 28.7798Z" fill="#FFD168"/>
<path d="M13.6208 196.52C15.5796 195.53 18.785 195.53 20.7438 196.52L25.447 198.897C27.4036 199.887 28.7023 198.98 28.3278 196.884L27.4296 191.85C27.0552 189.753 28.0443 186.82 29.6308 185.335L33.4358 181.77C35.0201 180.284 34.5266 178.819 32.3363 178.515L27.0768 177.779C24.8865 177.475 22.2935 175.66 21.3152 173.754L18.9625 169.171C17.9842 167.263 16.3826 167.263 15.4021 169.171L13.0494 173.754C12.0711 175.66 9.47816 177.473 7.2878 177.779L2.02833 178.515C-0.162035 178.819 -0.655513 180.286 0.926656 181.77L4.73381 185.335C6.31598 186.82 7.30727 189.753 6.935 191.85L6.03678 196.884C5.66234 198.98 6.96097 199.885 8.91758 198.897L13.6208 196.52Z" fill="#FFD168"/>
<path d="M917.471 230.199C921.6 230.195 926.896 232.858 929.245 236.126L934.881 243.967C937.225 247.232 940.181 246.814 941.45 243.034L944.493 233.968C945.766 230.193 950.04 226.172 953.997 225.036L963.494 222.308C967.446 221.171 967.948 218.337 964.602 216.01L956.575 210.423C953.233 208.096 950.577 202.944 950.677 198.975L950.91 189.451C951.012 185.482 948.358 184.148 945.023 186.487L937.019 192.102C933.684 194.441 927.766 195.275 923.873 193.962L914.525 190.803C910.631 189.486 908.495 191.496 909.776 195.267L912.852 204.324C914.14 208.098 913.135 213.765 910.631 216.92L904.618 224.493C902.114 227.65 903.439 230.222 907.568 230.218L917.471 230.199Z" fill="#FFD168"/>
<path d="M781.22 120.176C781.22 120.176 838.561 121.549 895.504 177.701" stroke="#FFD168" stroke-width="3.00733" stroke-miterlimit="10" stroke-linecap="round" stroke-linejoin="round"/>
<path d="M770.616 145.794C770.616 145.794 827.955 147.168 884.9 203.32" stroke="#FFD168" stroke-width="3.00733" stroke-miterlimit="10" stroke-linecap="round" stroke-linejoin="round"/>
<path d="M808.252 99.8545C808.252 99.8545 865.12 107.069 915.543 168.713" stroke="#FFD168" stroke-width="3.00733" stroke-miterlimit="10" stroke-linecap="round" stroke-linejoin="round"/>
<path d="M51.4547 444.056C49.1258 443.916 46.0459 445.242 44.6066 447.006L41.1501 451.237C39.7108 453 38.0593 452.667 37.4814 450.496L36.0897 445.283C35.5075 443.115 33.2436 440.707 31.0554 439.937L25.8002 438.085C23.6142 437.313 23.4324 435.698 25.402 434.498L30.1268 431.613C32.0943 430.412 33.776 427.597 33.8626 425.358L34.0725 419.982C34.1591 417.743 35.7001 417.077 37.4966 418.509L41.8059 421.937C43.6023 423.366 46.9073 424.032 49.1497 423.42L54.5303 421.949C56.7726 421.335 57.9046 422.54 57.0475 424.623L54.9892 429.626C54.1299 431.709 54.4914 434.937 55.7878 436.797L58.9067 441.263C60.2054 443.125 59.3656 444.53 57.0389 444.391L51.4547 444.056Z" fill="#FFD168"/>
<path d="M132.184 386.57C132.184 386.57 99.8201 385.444 65.718 415.2" stroke="#FFD168" stroke-width="3.00733" stroke-miterlimit="10" stroke-linecap="round" stroke-linejoin="round"/>
<path d="M137.24 401.36C137.24 401.36 104.878 400.232 70.7759 429.988" stroke="#FFD168" stroke-width="3.00733" stroke-miterlimit="10" stroke-linecap="round" stroke-linejoin="round"/>
<path d="M117.679 374.221C117.679 374.221 85.3751 376.402 54.7468 409.469" stroke="#FFD168" stroke-width="3.00733" stroke-miterlimit="10" stroke-linecap="round" stroke-linejoin="round"/>
</svg>
