<svg width="396" height="257" viewBox="0 0 396 257" fill="none" xmlns="http://www.w3.org/2000/svg">
<path d="M162.252 53.4138C162.252 53.4138 128.661 26.6376 110.982 64.124C110.982 64.124 53.8034 77.2681 90.3973 139.34C90.3973 139.34 69.6893 162.951 93.952 177.51C93.952 177.51 84.8541 184.934 86.3784 192.237C86.3784 192.237 75.7483 182.667 66.7635 196.066C66.7635 196.066 50.7287 194.119 50.7539 205.792H349.605C349.605 205.792 349.554 193.328 329.895 198.196C329.895 198.196 325.406 181.569 312.531 185.059C312.531 185.059 326.845 173.32 312.359 168.208C312.359 168.208 337.242 151.997 322.813 127.899C322.813 127.899 349.605 85.5438 299.75 80.1357C299.75 80.1357 292.262 40.9981 253.495 57.064C253.495 57.064 243.403 32.2351 214.04 44.9745C214.04 44.9745 185.528 19.0919 162.252 53.4138Z" fill="white"/>
<mask id="mask0_596_12001" style="mask-type:luminance" maskUnits="userSpaceOnUse" x="50" y="34" width="299" height="171">
<path d="M161.477 52.4943C161.477 52.4943 127.961 25.8122 110.321 63.167C110.321 63.167 53.2693 76.2649 89.7822 138.118C89.7822 138.118 69.1201 161.647 93.329 176.155C93.329 176.155 84.2512 183.553 85.7722 190.83C85.7722 190.83 75.1656 181.294 66.2008 194.645C66.2008 194.645 50.2014 192.705 50.2266 204.337H348.416C348.416 204.337 348.365 191.917 328.75 196.768C328.75 196.768 324.271 180.199 311.424 183.677C311.424 183.677 325.706 171.98 311.253 166.886C311.253 166.886 336.081 150.731 321.683 126.718C321.683 126.718 348.416 84.5115 298.672 79.1224C298.672 79.1224 291.2 40.1223 252.519 56.1317C252.519 56.1317 242.449 31.3901 213.151 44.0847C213.152 44.0855 184.702 18.293 161.477 52.4943Z" fill="white"/>
</mask>
<g mask="url(#mask0_596_12001)">
<path d="M85.7863 143.917C85.7863 143.917 94.9432 166.012 128.413 156.552C128.413 156.552 129.269 183.477 158.508 174.744C158.508 174.744 179.212 183.477 197.552 163.101C197.552 163.101 209.286 179.921 225.521 176.605C225.521 176.605 247.081 190.026 263.817 166.012C263.817 166.012 274.192 184.058 292.722 175.473C292.722 175.473 320.581 187.138 321.133 156.927L342.929 180.344L348.416 211.856L194.658 226.644H63.7545L13.5488 204.337L53.8658 166.012L85.7863 143.917Z" fill="#D9EDEC"/>
</g>
<mask id="mask1_596_12001" style="mask-type:luminance" maskUnits="userSpaceOnUse" x="50" y="34" width="299" height="171">
<path d="M161.477 52.4943C161.477 52.4943 127.961 25.8122 110.321 63.167C110.321 63.167 53.2693 76.2649 89.7822 138.118C89.7822 138.118 69.1201 161.647 93.329 176.155C93.329 176.155 84.2512 183.553 85.7722 190.83C85.7722 190.83 75.1656 181.294 66.2008 194.645C66.2008 194.645 50.2014 192.705 50.2266 204.337H348.416C348.416 204.337 348.365 191.917 328.75 196.768C328.75 196.768 324.271 180.199 311.424 183.677C311.424 183.677 325.706 171.98 311.253 166.886C311.253 166.886 336.081 150.731 321.683 126.718C321.683 126.718 348.416 84.5115 298.672 79.1224C298.672 79.1224 291.2 40.1223 252.519 56.1317C252.519 56.1317 242.449 31.3901 213.151 44.0847C213.152 44.0855 184.702 18.293 161.477 52.4943Z" fill="white"/>
</mask>
<g mask="url(#mask1_596_12001)">
<path d="M55.5085 196.047C55.5085 196.047 76.686 210.401 90.3788 192.704C90.3788 192.704 104.071 200.213 112.438 182.02C112.438 182.02 129.934 205.306 154.886 189.297C154.886 189.297 188.743 204.336 197.552 183.476C197.552 183.476 217.197 204.336 242.45 186.387C242.45 186.387 262.294 211.856 301.851 192.704C301.851 192.704 322.389 204.336 343.857 197.171L358.902 204.336L353.577 211.127L174.188 236.689L38.6513 226.643L31.0449 207.49L55.5085 196.047Z" fill="#BDD1CF"/>
</g>
<mask id="mask2_596_12001" style="mask-type:luminance" maskUnits="userSpaceOnUse" x="50" y="34" width="299" height="171">
<path d="M161.477 52.4943C161.477 52.4943 127.961 25.8122 110.321 63.167C110.321 63.167 53.2693 76.2649 89.7822 138.118C89.7822 138.118 69.1201 161.647 93.329 176.155C93.329 176.155 84.2512 183.553 85.7722 190.83C85.7722 190.83 75.1656 181.294 66.2008 194.645C66.2008 194.645 50.2014 192.705 50.2266 204.337H348.416C348.416 204.337 348.365 191.917 328.75 196.768C328.75 196.768 324.271 180.199 311.424 183.677C311.424 183.677 325.706 171.98 311.253 166.886C311.253 166.886 336.081 150.731 321.683 126.718C321.683 126.718 348.416 84.5115 298.672 79.1224C298.672 79.1224 291.2 40.1223 252.519 56.1317C252.519 56.1317 242.449 31.3901 213.151 44.0847C213.152 44.0855 184.702 18.293 161.477 52.4943Z" fill="white"/>
</mask>
<g mask="url(#mask2_596_12001)">
<path d="M79.4258 119.203C79.4258 119.203 93.4714 142.489 130.189 131.574C130.189 131.574 143.454 143.945 163.927 126.845C163.927 126.845 158.014 154.86 127.778 138.123C127.778 138.123 82.4685 157.043 79.4258 119.203Z" fill="#D9EDEC"/>
</g>
<mask id="mask3_596_12001" style="mask-type:luminance" maskUnits="userSpaceOnUse" x="50" y="34" width="299" height="171">
<path d="M161.477 52.4943C161.477 52.4943 127.961 25.8122 110.321 63.167C110.321 63.167 53.2693 76.2649 89.7822 138.118C89.7822 138.118 69.1201 161.647 93.329 176.155C93.329 176.155 84.2512 183.553 85.7722 190.83C85.7722 190.83 75.1656 181.294 66.2008 194.645C66.2008 194.645 50.2014 192.705 50.2266 204.337H348.416C348.416 204.337 348.365 191.917 328.75 196.768C328.75 196.768 324.271 180.199 311.424 183.677C311.424 183.677 325.706 171.98 311.253 166.886C311.253 166.886 336.081 150.731 321.683 126.718C321.683 126.718 348.416 84.5115 298.672 79.1224C298.672 79.1224 291.2 40.1223 252.519 56.1317C252.519 56.1317 242.449 31.3901 213.151 44.0847C213.152 44.0855 184.702 18.293 161.477 52.4943Z" fill="white"/>
</mask>
<g mask="url(#mask3_596_12001)">
<path d="M226.141 115.508C226.141 115.508 255.347 127.878 271.039 107.504C271.039 107.504 277.57 127.879 303.815 116.236C303.815 116.236 320.061 126.719 330.439 111.87C330.439 111.87 325.875 143.782 281.109 126.424C281.109 126.424 238.989 142.433 226.141 115.508Z" fill="#D9EDEC"/>
</g>
<mask id="mask4_596_12001" style="mask-type:luminance" maskUnits="userSpaceOnUse" x="50" y="34" width="299" height="171">
<path d="M161.477 52.4943C161.477 52.4943 127.961 25.8122 110.321 63.167C110.321 63.167 53.2693 76.2649 89.7822 138.118C89.7822 138.118 69.1201 161.647 93.329 176.155C93.329 176.155 84.2512 183.553 85.7722 190.83C85.7722 190.83 75.1656 181.294 66.2008 194.645C66.2008 194.645 50.2014 192.705 50.2266 204.337H348.416C348.416 204.337 348.365 191.917 328.75 196.768C328.75 196.768 324.271 180.199 311.424 183.677C311.424 183.677 325.706 171.98 311.253 166.886C311.253 166.886 336.081 150.731 321.683 126.718C321.683 126.718 348.416 84.5115 298.672 79.1224C298.672 79.1224 291.2 40.1223 252.519 56.1317C252.519 56.1317 242.449 31.3901 213.151 44.0847C213.152 44.0855 184.702 18.293 161.477 52.4943Z" fill="white"/>
</mask>
<g mask="url(#mask4_596_12001)">
<path d="M209.706 139.089C209.706 139.089 219.693 151.459 248.981 143.455C248.981 143.455 228.623 166.74 209.706 139.089Z" fill="#D9EDEC"/>
</g>
<mask id="mask5_596_12001" style="mask-type:luminance" maskUnits="userSpaceOnUse" x="50" y="34" width="299" height="171">
<path d="M161.477 52.4943C161.477 52.4943 127.961 25.8122 110.321 63.167C110.321 63.167 53.2693 76.2649 89.7822 138.118C89.7822 138.118 69.1201 161.647 93.329 176.155C93.329 176.155 84.2512 183.553 85.7722 190.83C85.7722 190.83 75.1656 181.294 66.2008 194.645C66.2008 194.645 50.2014 192.705 50.2266 204.337H348.416C348.416 204.337 348.365 191.917 328.75 196.768C328.75 196.768 324.271 180.199 311.424 183.677C311.424 183.677 325.706 171.98 311.253 166.886C311.253 166.886 336.081 150.731 321.683 126.718C321.683 126.718 348.416 84.5115 298.672 79.1224C298.672 79.1224 291.2 40.1223 252.519 56.1317C252.519 56.1317 242.449 31.3901 213.151 44.0847C213.152 44.0855 184.702 18.293 161.477 52.4943Z" fill="white"/>
</mask>
<g mask="url(#mask5_596_12001)">
<path d="M149.305 83.4438C149.305 83.4438 159.292 95.8143 188.58 87.8095C188.58 87.8095 168.221 111.095 149.305 83.4438Z" fill="#D9EDEC"/>
</g>
<path d="M15.1623 219.558C15.6284 219.324 16.3906 219.324 16.8557 219.558L17.9742 220.121C18.4402 220.355 18.7486 220.14 18.6588 219.644L18.4454 218.452C18.3557 217.954 18.5918 217.26 18.9689 216.909L19.874 216.064C20.2503 215.713 20.1327 215.365 19.6118 215.292L18.3627 215.119C17.8418 215.046 17.225 214.617 16.9925 214.165L16.4332 213.079C16.2007 212.628 15.8191 212.628 15.5866 213.079L15.0273 214.165C14.7947 214.617 14.178 215.046 13.6571 215.119L12.4071 215.292C11.8862 215.365 11.7686 215.713 12.1458 216.064L13.0509 216.909C13.4272 217.26 13.6632 217.954 13.5744 218.452L13.361 219.644C13.2721 220.141 13.5805 220.356 14.0456 220.121L15.1623 219.558Z" fill="#FFD168"/>
<path d="M79.4346 27.2346C79.9006 27.0001 80.6628 27.0001 81.128 27.2346L82.2464 27.7978C82.7124 28.0314 83.0208 27.8169 82.9311 27.3205L82.7177 26.1283C82.628 25.631 82.864 24.9368 83.2412 24.5856L84.1454 23.7404C84.5217 23.3892 84.4041 23.0412 83.8832 22.9687L82.6332 22.7951C82.1123 22.7225 81.4956 22.2937 81.263 21.8415L80.7038 20.756C80.4712 20.3046 80.0896 20.3046 79.8571 20.756L79.2978 21.8415C79.0653 22.2937 78.4485 22.7225 77.9276 22.7951L76.6776 22.9687C76.1567 23.0412 76.0391 23.3892 76.4163 23.7404L77.3214 24.5856C77.6977 24.9368 77.9337 25.631 77.8449 26.1283L77.6315 27.3205C77.5426 27.8178 77.851 28.0322 78.3161 27.7978L79.4346 27.2346Z" fill="#FFD168"/>
<path d="M86.8088 256.342C87.2748 256.107 88.037 256.107 88.5022 256.342L89.6207 256.905C90.0867 257.139 90.395 256.924 90.3053 256.428L90.0919 255.235C90.0022 254.738 90.2382 254.044 90.6154 253.693L91.5205 252.848C91.8968 252.496 91.7792 252.148 91.2583 252.076L90.0092 251.902C89.4882 251.83 88.8715 251.401 88.639 250.949L88.0797 249.863C87.8471 249.412 87.4656 249.412 87.233 249.863L86.6738 250.949C86.4412 251.401 85.8245 251.83 85.3036 251.902L84.0536 252.076C83.5327 252.148 83.4151 252.496 83.7923 252.848L84.6973 253.693C85.0736 254.044 85.3097 254.738 85.2209 255.235L85.0074 256.428C84.9186 256.925 85.227 257.139 85.6921 256.905L86.8088 256.342Z" fill="#FFD168"/>
<path d="M349.183 171.154C349.648 170.919 350.411 170.919 350.876 171.154L351.993 171.717C352.459 171.95 352.768 171.736 352.679 171.239L352.465 170.047C352.376 169.55 352.612 168.856 352.988 168.505L353.893 167.659C354.269 167.308 354.152 166.96 353.631 166.888L352.38 166.714C351.859 166.641 351.243 166.213 351.011 165.76L350.451 164.675C350.218 164.224 349.837 164.224 349.604 164.675L349.045 165.76C348.812 166.213 348.195 166.641 347.675 166.714L346.425 166.888C345.904 166.96 345.787 167.308 346.162 167.659L347.067 168.505C347.444 168.856 347.68 169.55 347.591 170.047L347.377 171.239C347.289 171.737 347.597 171.951 348.062 171.717L349.183 171.154Z" fill="#FFD168"/>
<path d="M284.085 30.6332C284.55 30.3987 285.312 30.3987 285.777 30.6332L286.895 31.1963C287.361 31.4299 287.669 31.2155 287.58 30.7191L287.367 29.5268C287.278 29.0296 287.513 28.3354 287.891 27.9842L288.796 27.139C289.172 26.7877 289.054 26.4398 288.533 26.3672L287.283 26.1937C286.762 26.1211 286.146 25.6923 285.913 25.24L285.354 24.1554C285.121 23.7041 284.741 23.7041 284.507 24.1554L283.948 25.2409C283.715 25.6931 283.099 26.1219 282.579 26.1945L281.328 26.3681C280.807 26.4407 280.69 26.7886 281.066 27.1398L281.971 27.985C282.347 28.3362 282.583 29.0304 282.494 29.5277L282.281 30.7199C282.192 31.2172 282.5 31.4316 282.965 31.1972L284.085 30.6332Z" fill="#FFD168"/>
<path d="M51.4293 120.047C51.8945 119.812 52.6567 119.812 53.1218 120.047L54.2394 120.61C54.7054 120.843 55.0138 120.629 54.9249 120.133L54.7115 118.94C54.6218 118.443 54.8579 117.749 55.2342 117.398L56.1392 116.552C56.5155 116.201 56.3979 115.853 55.877 115.781L54.6262 115.607C54.1053 115.535 53.4894 115.106 53.2568 114.653L52.6967 113.568C52.4642 113.117 52.0835 113.117 51.85 113.568L51.2908 114.653C51.0574 115.106 50.4415 115.535 49.9215 115.607L48.6706 115.781C48.1497 115.853 48.033 116.201 48.4084 116.552L49.3135 117.398C49.6898 117.749 49.9258 118.443 49.837 118.94L49.6236 120.133C49.5347 120.63 49.8431 120.844 50.3082 120.61L51.4293 120.047Z" fill="#FFD168"/>
<path d="M387.652 140.753C388.441 140.357 389.731 140.357 390.519 140.753L392.412 141.706C393.199 142.103 393.722 141.74 393.571 140.899L393.21 138.881C393.059 138.04 393.457 136.865 394.095 136.269L395.627 134.84C396.265 134.244 396.066 133.657 395.184 133.535L393.068 133.239C392.186 133.118 391.143 132.39 390.749 131.626L389.802 129.789C389.408 129.024 388.764 129.024 388.369 129.789L387.422 131.626C387.029 132.39 385.985 133.117 385.104 133.239L382.987 133.535C382.106 133.657 381.907 134.245 382.544 134.84L384.076 136.269C384.713 136.865 385.112 138.04 384.962 138.881L384.6 140.899C384.45 141.74 384.972 142.103 385.76 141.706L387.652 140.753Z" fill="#FFD168"/>
<path d="M282.762 252.495C283.55 252.098 284.84 252.098 285.628 252.495L287.521 253.448C288.309 253.845 288.831 253.481 288.68 252.641L288.319 250.623C288.168 249.782 288.566 248.606 289.205 248.01L290.736 246.581C291.374 245.985 291.175 245.398 290.294 245.275L288.177 244.981C287.296 244.858 286.252 244.132 285.858 243.367L284.912 241.53C284.518 240.765 283.873 240.765 283.479 241.53L282.532 243.367C282.138 244.132 281.095 244.858 280.213 244.981L278.097 245.275C277.215 245.398 277.016 245.985 277.653 246.581L279.185 248.01C279.822 248.606 280.221 249.782 280.071 250.623L279.71 252.641C279.559 253.481 280.082 253.844 280.869 253.448L282.762 252.495Z" fill="#FFD168"/>
<path d="M387.652 225.428C388.441 225.031 389.731 225.031 390.519 225.428L392.412 226.381C393.199 226.778 393.722 226.415 393.571 225.574L393.21 223.556C393.059 222.715 393.457 221.54 394.095 220.944L395.627 219.515C396.265 218.919 396.066 218.332 395.184 218.21L393.068 217.915C392.186 217.793 391.143 217.065 390.749 216.301L389.802 214.464C389.408 213.699 388.764 213.699 388.369 214.464L387.422 216.301C387.029 217.065 385.985 217.792 385.104 217.915L382.987 218.21C382.106 218.332 381.907 218.92 382.544 219.515L384.076 220.944C384.713 221.54 385.112 222.715 384.962 223.556L384.6 225.574C384.45 226.415 384.972 226.778 385.76 226.381L387.652 225.428Z" fill="#FFD168"/>
<path d="M250.482 219.539C251.27 219.141 252.56 219.141 253.348 219.539L255.241 220.491C256.028 220.889 256.551 220.525 256.4 219.685L256.039 217.666C255.888 216.825 256.286 215.65 256.925 215.054L258.456 213.625C259.094 213.029 258.895 212.442 258.013 212.32L255.897 212.025C255.015 211.903 253.972 211.175 253.578 210.411L252.631 208.574C252.238 207.809 251.593 207.809 251.198 208.574L250.252 210.411C249.858 211.175 248.814 211.902 247.933 212.025L245.816 212.32C244.935 212.442 244.736 213.03 245.373 213.625L246.905 215.054C247.542 215.65 247.941 216.825 247.791 217.666L247.429 219.685C247.279 220.525 247.801 220.888 248.589 220.491L250.482 219.539Z" fill="#FFD168"/>
<path d="M139.482 231.539C140.27 231.141 141.56 231.141 142.348 231.539L144.241 232.491C145.028 232.889 145.551 232.525 145.4 231.685L145.039 229.666C144.888 228.825 145.286 227.65 145.925 227.054L147.456 225.625C148.094 225.029 147.895 224.442 147.013 224.32L144.897 224.025C144.015 223.903 142.972 223.175 142.578 222.411L141.631 220.574C141.238 219.809 140.593 219.809 140.198 220.574L139.252 222.411C138.858 223.175 137.814 223.902 136.933 224.025L134.816 224.32C133.935 224.442 133.736 225.03 134.373 225.625L135.905 227.054C136.542 227.65 136.941 228.825 136.791 229.666L136.429 231.685C136.279 232.525 136.801 232.888 137.589 232.491L139.482 231.539Z" fill="#FFD168"/>
<path d="M178.947 11.5386C179.736 11.1414 181.026 11.1414 181.814 11.5386L183.707 12.4914C184.494 12.8885 185.017 12.5248 184.866 11.6846L184.505 9.66634C184.354 8.82533 184.752 7.64976 185.39 7.05405L186.922 5.62485C187.56 5.02913 187.361 4.44176 186.479 4.31995L184.363 4.0246C183.481 3.90279 182.438 3.17525 182.044 2.411L181.097 0.573811C180.703 -0.19127 180.059 -0.19127 179.664 0.573811L178.717 2.411C178.324 3.17525 177.28 3.90196 176.399 4.0246L174.282 4.31995C173.401 4.44176 173.202 5.02913 173.839 5.62485L175.372 7.05405C176.008 7.64976 176.407 8.82533 176.258 9.66634L175.896 11.6846C175.745 12.5248 176.268 12.8877 177.055 12.4914L178.947 11.5386Z" fill="#FFD168"/>
<path d="M5.48154 78.79C6.26982 78.3929 7.55982 78.3929 8.34811 78.79L10.2409 79.7428C11.0283 80.14 11.5509 79.7762 11.4002 78.9361L11.0387 76.9178C10.888 76.0768 11.2861 74.9012 11.9246 74.3055L13.4559 72.8763C14.0935 72.2806 13.8949 71.6932 13.0134 71.5714L10.8968 71.2761C10.0153 71.1543 8.97177 70.4267 8.57806 69.6625L7.63125 67.8253C7.23754 67.0602 6.59298 67.0602 6.1984 67.8253L5.25159 69.6625C4.85788 70.4267 3.81438 71.1534 2.93289 71.2761L0.816278 71.5714C-0.0652091 71.6932 -0.263804 72.2814 0.372922 72.8763L1.90507 74.3055C2.5418 74.9012 2.94073 76.0768 2.79091 76.9178L2.42943 78.9361C2.27875 79.7762 2.80137 80.1392 3.58878 79.7428L5.48154 78.79Z" fill="#FFD168"/>
<path d="M369.227 92.2931C370.889 92.2915 373.02 93.3594 373.965 94.6693L376.234 97.813C377.177 99.1221 378.367 98.9544 378.877 97.4393L380.102 93.8041C380.614 92.2906 382.334 90.6787 383.926 90.2231L387.749 89.1293C389.339 88.6738 389.541 87.5374 388.195 86.6047L384.964 84.3645C383.619 83.4317 382.55 81.3659 382.59 79.7748L382.684 75.9561C382.725 74.365 381.657 73.8302 380.315 74.768L377.094 77.019C375.752 77.9568 373.37 78.2914 371.803 77.7649L368.041 76.4984C366.474 75.9703 365.615 76.7763 366.13 78.2881L367.368 81.9191C367.886 83.4325 367.482 85.7044 366.474 86.9693L364.055 90.0054C363.047 91.2711 363.58 92.3023 365.242 92.3006L369.227 92.2931Z" fill="#FFD168"/>
<path d="M314.394 48.1816C314.394 48.1816 337.47 48.7323 360.386 71.245" stroke="#FFD168" stroke-miterlimit="10" stroke-linecap="round" stroke-linejoin="round"/>
<path d="M310.126 58.4521C310.126 58.4521 333.201 59.0028 356.118 81.5155" stroke="#FFD168" stroke-miterlimit="10" stroke-linecap="round" stroke-linejoin="round"/>
<path d="M325.273 40.0337C325.273 40.0337 348.159 42.9263 368.451 67.6408" stroke="#FFD168" stroke-miterlimit="10" stroke-linecap="round" stroke-linejoin="round"/>
<path d="M20.7066 178.033C19.7693 177.977 18.5299 178.509 17.9506 179.216L16.5596 180.912C15.9803 181.619 15.3157 181.486 15.0832 180.615L14.5231 178.525C14.2888 177.656 13.3777 176.691 12.4971 176.382L10.3822 175.639C9.50246 175.33 9.42929 174.682 10.2219 174.201L12.1234 173.045C12.9152 172.563 13.592 171.434 13.6268 170.537L13.7113 168.382C13.7461 167.484 14.3663 167.217 15.0893 167.791L16.8235 169.165C17.5465 169.738 18.8765 170.005 19.7789 169.76L21.9443 169.17C22.8467 168.924 23.3023 169.407 22.9573 170.242L22.129 172.248C21.7832 173.083 21.9286 174.377 22.4504 175.123L23.7055 176.913C24.2282 177.66 23.8902 178.223 22.9538 178.167L20.7066 178.033Z" fill="#FFD168"/>
<path d="M53.1949 154.985C53.1949 154.985 40.1703 154.534 26.4463 166.464" stroke="#FFD168" stroke-miterlimit="10" stroke-linecap="round" stroke-linejoin="round"/>
<path d="M55.2301 160.915C55.2301 160.915 42.2064 160.463 28.4824 172.393" stroke="#FFD168" stroke-miterlimit="10" stroke-linecap="round" stroke-linejoin="round"/>
<path d="M47.3574 150.035C47.3574 150.035 34.3573 150.909 22.0312 164.167" stroke="#FFD168" stroke-miterlimit="10" stroke-linecap="round" stroke-linejoin="round"/>
</svg>
