<svg width="768" height="520" viewBox="0 0 768 520" fill="none" xmlns="http://www.w3.org/2000/svg">
<path d="M314.672 103.892C314.672 103.892 249.526 51.8111 215.239 124.724C215.239 124.724 104.348 150.289 175.318 271.021C175.318 271.021 135.157 316.947 182.212 345.265C182.212 345.265 164.567 359.704 167.523 373.909C167.523 373.909 146.908 355.295 129.483 381.356C129.483 381.356 98.3847 377.568 98.4337 400.273H678.024C678.024 400.273 677.924 376.03 639.799 385.499C639.799 385.499 631.092 353.158 606.123 359.946C606.123 359.946 633.883 337.115 605.79 327.172C605.79 327.172 654.048 295.639 626.063 248.768C626.063 248.768 678.024 166.386 581.336 155.867C581.336 155.867 566.813 79.7429 491.629 110.992C491.629 110.992 472.057 62.6985 415.109 87.4771C415.109 87.4771 359.814 37.1345 314.672 103.892Z" fill="white"/>
<mask id="mask0_584_6524" style="mask-type:luminance" maskUnits="userSpaceOnUse" x="97" y="68" width="579" height="329">
<path d="M313.018 102.408C313.018 102.408 247.939 50.6416 213.686 123.114C213.686 123.114 102.908 148.526 173.806 268.527C173.806 268.527 133.686 314.177 180.693 342.324C180.693 342.324 163.066 356.676 166.02 370.795C166.02 370.795 145.425 352.294 128.017 378.197C128.017 378.197 96.9511 374.432 97.0001 397H676C676 397 675.9 372.903 637.814 382.315C637.814 382.315 629.116 350.169 604.172 356.917C604.172 356.917 631.904 334.223 603.84 324.34C603.84 324.34 652.048 292.998 624.092 246.409C624.092 246.409 676 164.525 579.411 154.069C579.411 154.069 564.903 78.4048 489.795 109.465C489.795 109.465 470.243 61.4633 413.353 86.0924C413.355 86.094 358.114 36.0536 313.018 102.408Z" fill="white"/>
</mask>
<g mask="url(#mask0_584_6524)">
<path d="M166.046 279.778C166.046 279.778 183.826 322.645 248.816 304.292C248.816 304.292 250.476 356.53 307.251 339.587C307.251 339.587 347.452 356.53 383.063 316.998C383.063 316.998 405.848 349.631 437.372 343.197C437.372 343.197 479.235 369.235 511.731 322.645C511.731 322.645 531.877 357.657 567.857 341C567.857 341 621.952 363.632 623.024 305.02L665.344 350.45L676 411.588L377.445 440.277H123.267L25.7812 397L104.065 322.645L166.046 279.778Z" fill="#D9EDEC"/>
</g>
<mask id="mask1_584_6524" style="mask-type:luminance" maskUnits="userSpaceOnUse" x="97" y="68" width="579" height="329">
<path d="M313.018 102.408C313.018 102.408 247.939 50.6416 213.686 123.114C213.686 123.114 102.908 148.526 173.806 268.527C173.806 268.527 133.686 314.177 180.693 342.324C180.693 342.324 163.066 356.676 166.02 370.795C166.02 370.795 145.425 352.294 128.017 378.197C128.017 378.197 96.9511 374.432 97.0001 397H676C676 397 675.9 372.903 637.814 382.315C637.814 382.315 629.116 350.169 604.172 356.917C604.172 356.917 631.904 334.223 603.84 324.34C603.84 324.34 652.048 292.998 624.092 246.409C624.092 246.409 676 164.525 579.411 154.069C579.411 154.069 564.903 78.4048 489.795 109.465C489.795 109.465 470.243 61.4633 413.353 86.0924C413.355 86.094 358.114 36.0536 313.018 102.408Z" fill="white"/>
</mask>
<g mask="url(#mask1_584_6524)">
<path d="M107.258 380.917C107.258 380.917 148.379 408.766 174.967 374.431C174.967 374.431 201.552 389 217.8 353.704C217.8 353.704 251.772 398.881 300.222 367.823C300.222 367.823 365.963 396.999 383.066 356.528C383.066 356.528 421.212 396.999 470.246 362.175C470.246 362.175 508.778 411.588 585.585 374.431C585.585 374.431 625.466 396.999 667.15 383.099L696.363 396.999L686.024 410.175L337.701 459.767L74.5264 440.277L59.7568 403.118L107.258 380.917Z" fill="#BDD1CF"/>
</g>
<mask id="mask2_584_6524" style="mask-type:luminance" maskUnits="userSpaceOnUse" x="97" y="68" width="579" height="329">
<path d="M313.018 102.408C313.018 102.408 247.939 50.6416 213.686 123.114C213.686 123.114 102.908 148.526 173.806 268.527C173.806 268.527 133.686 314.177 180.693 342.324C180.693 342.324 163.066 356.676 166.02 370.795C166.02 370.795 145.425 352.294 128.017 378.197C128.017 378.197 96.9511 374.432 97.0001 397H676C676 397 675.9 372.903 637.814 382.315C637.814 382.315 629.116 350.169 604.172 356.917C604.172 356.917 631.904 334.223 603.84 324.34C603.84 324.34 652.048 292.998 624.092 246.409C624.092 246.409 676 164.525 579.411 154.069C579.411 154.069 564.903 78.4048 489.795 109.465C489.795 109.465 470.243 61.4633 413.353 86.0924C413.355 86.094 358.114 36.0536 313.018 102.408Z" fill="white"/>
</mask>
<g mask="url(#mask2_584_6524)">
<path d="M153.694 231.832C153.694 231.832 180.967 277.009 252.261 255.832C252.261 255.832 278.018 279.834 317.772 246.657C317.772 246.657 306.29 301.011 247.58 268.539C247.58 268.539 159.602 305.245 153.694 231.832Z" fill="#D9EDEC"/>
</g>
<mask id="mask3_584_6524" style="mask-type:luminance" maskUnits="userSpaceOnUse" x="97" y="68" width="579" height="329">
<path d="M313.018 102.408C313.018 102.408 247.939 50.6416 213.686 123.114C213.686 123.114 102.908 148.526 173.806 268.527C173.806 268.527 133.686 314.177 180.693 342.324C180.693 342.324 163.066 356.676 166.02 370.795C166.02 370.795 145.425 352.294 128.017 378.197C128.017 378.197 96.9511 374.432 97.0001 397H676C676 397 675.9 372.903 637.814 382.315C637.814 382.315 629.116 350.169 604.172 356.917C604.172 356.917 631.904 334.223 603.84 324.34C603.84 324.34 652.048 292.998 624.092 246.409C624.092 246.409 676 164.525 579.411 154.069C579.411 154.069 564.903 78.4048 489.795 109.465C489.795 109.465 470.243 61.4633 413.353 86.0924C413.355 86.094 358.114 36.0536 313.018 102.408Z" fill="white"/>
</mask>
<g mask="url(#mask3_584_6524)">
<path d="M438.573 224.661C438.573 224.661 495.284 248.661 525.753 209.133C525.753 209.133 538.435 248.663 589.396 226.074C589.396 226.074 620.939 246.413 641.092 217.604C641.092 217.604 632.229 279.517 545.306 245.84C545.306 245.84 463.52 276.899 438.573 224.661Z" fill="#D9EDEC"/>
</g>
<mask id="mask4_584_6524" style="mask-type:luminance" maskUnits="userSpaceOnUse" x="97" y="68" width="579" height="329">
<path d="M313.018 102.408C313.018 102.408 247.939 50.6416 213.686 123.114C213.686 123.114 102.908 148.526 173.806 268.527C173.806 268.527 133.686 314.177 180.693 342.324C180.693 342.324 163.066 356.676 166.02 370.795C166.02 370.795 145.425 352.294 128.017 378.197C128.017 378.197 96.9511 374.432 97.0001 397H676C676 397 675.9 372.903 637.814 382.315C637.814 382.315 629.116 350.169 604.172 356.917C604.172 356.917 631.904 334.223 603.84 324.34C603.84 324.34 652.048 292.998 624.092 246.409C624.092 246.409 676 164.525 579.411 154.069C579.411 154.069 564.903 78.4048 489.795 109.465C489.795 109.465 470.243 61.4633 413.353 86.0924C413.355 86.094 358.114 36.0536 313.018 102.408Z" fill="white"/>
</mask>
<g mask="url(#mask4_584_6524)">
<path d="M406.664 270.413C406.664 270.413 426.056 294.413 482.925 278.882C482.925 278.882 443.395 324.06 406.664 270.413Z" fill="#D9EDEC"/>
</g>
<mask id="mask5_584_6524" style="mask-type:luminance" maskUnits="userSpaceOnUse" x="97" y="68" width="579" height="329">
<path d="M313.018 102.408C313.018 102.408 247.939 50.6416 213.686 123.114C213.686 123.114 102.908 148.526 173.806 268.527C173.806 268.527 133.686 314.177 180.693 342.324C180.693 342.324 163.066 356.676 166.02 370.795C166.02 370.795 145.425 352.294 128.017 378.197C128.017 378.197 96.9511 374.432 97.0001 397H676C676 397 675.9 372.903 637.814 382.315C637.814 382.315 629.116 350.169 604.172 356.917C604.172 356.917 631.904 334.223 603.84 324.34C603.84 324.34 652.048 292.998 624.092 246.409C624.092 246.409 676 164.525 579.411 154.069C579.411 154.069 564.903 78.4048 489.795 109.465C489.795 109.465 470.243 61.4633 413.353 86.0924C413.355 86.094 358.114 36.0536 313.018 102.408Z" fill="white"/>
</mask>
<g mask="url(#mask5_584_6524)">
<path d="M289.38 162.453C289.38 162.453 308.772 186.453 365.641 170.923C365.641 170.923 326.11 216.1 289.38 162.453Z" fill="#D9EDEC"/>
</g>
<path d="M29.4065 427.049C30.3103 426.593 31.7884 426.593 32.6905 427.049L34.8595 428.144C35.7633 428.598 36.3613 428.181 36.1873 427.216L35.7734 424.897C35.5994 423.93 36.0572 422.579 36.7886 421.896L38.5438 420.252C39.2736 419.569 39.0455 418.892 38.0353 418.751L35.6129 418.414C34.6027 418.272 33.4067 417.438 32.9557 416.559L31.8712 414.448C31.4201 413.57 30.6802 413.57 30.2292 414.448L29.1447 416.559C28.6936 417.438 27.4976 418.272 26.4874 418.414L24.0633 418.751C23.0531 418.892 22.8251 419.569 23.5565 420.252L25.3117 421.896C26.0414 422.579 26.4992 423.93 26.3269 424.897L25.9131 427.216C25.7408 428.183 26.3388 428.6 27.2408 428.144L29.4065 427.049Z" fill="#FFD168"/>
<path d="M154.053 52.9724C154.957 52.5164 156.435 52.5164 157.337 52.9724L159.506 54.0678C160.41 54.5222 161.008 54.1051 160.834 53.1396L160.42 50.8206C160.246 49.8534 160.704 48.5032 161.436 47.82L163.189 46.1761C163.919 45.4929 163.691 44.8162 162.681 44.675L160.256 44.3375C159.246 44.1963 158.05 43.3622 157.599 42.4826L156.515 40.3713C156.064 39.4934 155.324 39.4934 154.873 40.3713L153.788 42.4826C153.337 43.3622 152.141 44.1963 151.131 44.3375L148.707 44.675C147.697 44.8162 147.469 45.4929 148.2 46.1761L149.955 47.82C150.685 48.5032 151.143 49.8534 150.97 50.8206L150.557 53.1396C150.384 54.1068 150.982 54.5238 151.884 54.0678L154.053 52.9724Z" fill="#FFD168"/>
<path d="M168.358 498.595C169.261 498.139 170.74 498.139 171.642 498.595L173.811 499.69C174.714 500.145 175.312 499.727 175.138 498.762L174.725 496.443C174.551 495.476 175.008 494.126 175.74 493.442L177.495 491.798C178.225 491.115 177.997 490.439 176.986 490.297L174.564 489.96C173.554 489.819 172.358 488.984 171.907 488.105L170.822 485.994C170.371 485.116 169.631 485.116 169.18 485.994L168.096 488.105C167.645 488.984 166.449 489.819 165.439 489.96L163.014 490.297C162.004 490.439 161.776 491.115 162.508 491.798L164.263 493.442C164.993 494.126 165.45 495.476 165.278 496.443L164.864 498.762C164.692 499.729 165.29 500.146 166.192 499.69L168.358 498.595Z" fill="#FFD168"/>
<path d="M677.203 332.9C678.105 332.444 679.583 332.444 680.485 332.9L682.653 333.996C683.556 334.45 684.154 334.033 683.982 333.067L683.568 330.748C683.394 329.781 683.852 328.431 684.582 327.748L686.337 326.104C687.067 325.421 686.839 324.744 685.828 324.603L683.403 324.265C682.392 324.124 681.198 323.29 680.747 322.41L679.661 320.299C679.21 319.421 678.472 319.421 678.019 320.299L676.934 322.41C676.483 323.29 675.287 324.124 674.279 324.265L671.853 324.603C670.843 324.744 670.616 325.421 671.345 326.104L673.1 327.748C673.829 328.431 674.287 329.781 674.115 330.748L673.701 333.067C673.529 334.034 674.127 334.452 675.029 333.996L677.203 332.9Z" fill="#FFD168"/>
<path d="M550.952 59.5826C551.854 59.1266 553.332 59.1266 554.234 59.5826L556.401 60.678C557.305 61.1324 557.903 60.7153 557.731 59.7498L557.317 57.4308C557.144 56.4636 557.6 55.1134 558.332 54.4302L560.087 52.7863C560.817 52.1031 560.589 51.4264 559.579 51.2852L557.153 50.9477C556.143 50.8065 554.948 49.9724 554.497 49.0928L553.413 46.9832C552.962 46.1052 552.224 46.1052 551.771 46.9832L550.686 49.0944C550.234 49.974 549.039 50.8081 548.031 50.9493L545.605 51.2868C544.595 51.428 544.368 52.1047 545.096 52.7879L546.852 54.4318C547.581 55.115 548.039 56.4652 547.867 57.4324L547.453 59.7514C547.281 60.7186 547.879 61.1356 548.781 60.6796L550.952 59.5826Z" fill="#FFD168"/>
<path d="M99.742 233.496C100.644 233.04 102.122 233.04 103.024 233.496L105.192 234.591C106.095 235.046 106.693 234.629 106.521 233.663L106.107 231.344C105.933 230.377 106.391 229.027 107.121 228.343L108.876 226.7C109.606 226.016 109.378 225.34 108.367 225.198L105.942 224.861C104.931 224.72 103.737 223.886 103.286 223.006L102.2 220.895C101.749 220.017 101.011 220.017 100.558 220.895L99.4734 223.006C99.0207 223.886 97.8263 224.72 96.8178 224.861L94.392 225.198C93.3819 225.34 93.1555 226.016 93.8836 226.7L95.6387 228.343C96.3685 229.027 96.8263 230.377 96.654 231.344L96.2401 233.663C96.0678 234.63 96.6658 235.047 97.5679 234.591L99.742 233.496Z" fill="#FFD168"/>
<path d="M751.81 273.772C753.338 273.001 755.84 273.001 757.369 273.772L761.04 275.625C762.567 276.398 763.58 275.69 763.288 274.056L762.587 270.131C762.295 268.495 763.067 266.208 764.305 265.05L767.275 262.27C768.513 261.111 768.126 259.968 766.417 259.732L762.312 259.157C760.602 258.92 758.578 257.505 757.815 256.019L755.979 252.445C755.215 250.957 753.965 250.957 753.2 252.445L751.364 256.019C750.6 257.505 748.576 258.919 746.867 259.157L742.762 259.732C741.052 259.968 740.667 261.113 741.902 262.27L744.873 265.05C746.108 266.208 746.882 268.495 746.591 270.131L745.89 274.056C745.598 275.69 746.612 276.396 748.139 275.625L751.81 273.772Z" fill="#FFD168"/>
<path d="M548.388 491.113C549.916 490.34 552.418 490.34 553.947 491.113L557.618 492.966C559.145 493.738 560.159 493.031 559.866 491.397L559.165 487.471C558.873 485.835 559.645 483.549 560.883 482.39L563.853 479.61C565.09 478.452 564.704 477.309 562.995 477.071L558.89 476.498C557.18 476.259 555.157 474.846 554.393 473.359L552.557 469.786C551.793 468.298 550.543 468.298 549.778 469.786L547.942 473.359C547.178 474.846 545.154 476.259 543.445 476.498L539.34 477.071C537.63 477.309 537.245 478.452 538.48 479.61L541.452 482.39C542.686 483.549 543.46 485.835 543.17 487.471L542.468 491.397C542.176 493.031 543.19 493.737 544.717 492.966L548.388 491.113Z" fill="#FFD168"/>
<path d="M751.81 438.467C753.338 437.694 755.84 437.694 757.369 438.467L761.04 440.32C762.567 441.093 763.58 440.385 763.288 438.751L762.587 434.825C762.295 433.19 763.067 430.903 764.305 429.744L767.275 426.964C768.513 425.806 768.126 424.663 766.417 424.426L762.312 423.852C760.602 423.615 758.578 422.2 757.815 420.713L755.979 417.14C755.215 415.652 753.965 415.652 753.2 417.14L751.364 420.713C750.6 422.2 748.576 423.613 746.867 423.852L742.762 424.426C741.052 424.663 740.667 425.807 741.902 426.964L744.873 429.744C746.108 430.903 746.882 433.19 746.591 434.825L745.89 438.751C745.598 440.385 746.612 441.091 748.139 440.32L751.81 438.467Z" fill="#FFD168"/>
<path d="M347.05 22.443C348.579 21.6705 351.08 21.6705 352.609 22.443L356.28 24.2962C357.807 25.0687 358.821 24.3611 358.528 22.727L357.827 18.8014C357.535 17.1656 358.307 14.8791 359.545 13.7204L362.515 10.9405C363.753 9.78186 363.367 8.6394 361.657 8.40247L357.552 7.82801C355.843 7.59108 353.819 6.17598 353.055 4.68949L351.219 1.11608C350.455 -0.372028 349.205 -0.372028 348.44 1.11608L346.604 4.68949C345.84 6.17598 343.817 7.58945 342.107 7.82801L338.002 8.40247C336.292 8.6394 335.907 9.78186 337.142 10.9405L340.115 13.7204C341.35 14.8791 342.124 17.1656 341.833 18.8014L341.132 22.727C340.84 24.3611 341.854 25.0671 343.381 24.2962L347.05 22.443Z" fill="#FFD168"/>
<path d="M10.6309 153.25C12.1597 152.477 14.6615 152.477 16.1903 153.25L19.8611 155.103C21.3882 155.875 22.4018 155.168 22.1095 153.534L21.4085 149.608C21.1162 147.972 21.8882 145.686 23.1265 144.527L26.0962 141.747C27.3328 140.589 26.9476 139.446 25.2381 139.209L21.1331 138.635C19.4236 138.398 17.3998 136.983 16.6363 135.496L14.8 131.923C14.0365 130.435 12.7864 130.435 12.0211 131.923L10.1849 135.496C9.42134 136.983 7.39759 138.396 5.68803 138.635L1.58308 139.209C-0.126466 139.446 -0.51162 140.59 0.723243 141.747L3.69468 144.527C4.92955 145.686 5.70324 147.972 5.41268 149.608L4.71163 153.534C4.41939 155.168 5.43295 155.874 6.96006 155.103L10.6309 153.25Z" fill="#FFD168"/>
<path d="M716.073 179.513C719.297 179.509 723.43 181.587 725.263 184.134L729.662 190.249C731.491 192.795 733.799 192.469 734.789 189.522L737.164 182.452C738.157 179.508 741.494 176.373 744.582 175.486L751.994 173.359C755.079 172.473 755.471 170.263 752.859 168.448L746.594 164.091C743.985 162.277 741.913 158.259 741.99 155.164L742.173 147.737C742.252 144.642 740.181 143.602 737.578 145.426L731.331 149.804C728.728 151.628 724.109 152.279 721.07 151.255L713.774 148.791C710.735 147.764 709.068 149.332 710.068 152.272L712.468 159.335C713.474 162.278 712.69 166.697 710.735 169.158L706.042 175.063C704.088 177.525 705.122 179.531 708.345 179.527L716.073 179.513Z" fill="#FFD168"/>
<path d="M609.731 93.7148C609.731 93.7148 654.486 94.7859 698.929 138.574" stroke="#FFD168" stroke-width="2.34719" stroke-miterlimit="10" stroke-linecap="round" stroke-linejoin="round"/>
<path d="M601.455 113.692C601.455 113.692 646.207 114.763 690.652 158.552" stroke="#FFD168" stroke-width="2.34719" stroke-miterlimit="10" stroke-linecap="round" stroke-linejoin="round"/>
<path d="M630.83 77.8687C630.83 77.8687 675.214 83.4949 714.569 131.566" stroke="#FFD168" stroke-width="2.34719" stroke-miterlimit="10" stroke-linecap="round" stroke-linejoin="round"/>
<path d="M40.1565 346.282C38.3388 346.173 35.935 347.207 34.8116 348.583L32.1138 351.883C30.9905 353.257 29.7016 352.997 29.2505 351.305L28.1643 347.24C27.7099 345.549 25.9429 343.671 24.235 343.071L20.1335 341.626C18.4273 341.024 18.2854 339.765 19.8226 338.829L23.5103 336.579C25.0459 335.643 26.3585 333.447 26.426 331.701L26.5899 327.51C26.6575 325.763 27.8602 325.244 29.2623 326.361L32.6257 329.033C34.0278 330.148 36.6073 330.668 38.3574 330.19L42.557 329.043C44.3071 328.564 45.1906 329.504 44.5216 331.128L42.9151 335.03C42.2444 336.654 42.5266 339.171 43.5384 340.622L45.9727 344.104C46.9863 345.557 46.3308 346.652 44.5148 346.543L40.1565 346.282Z" fill="#FFD168"/>
<path d="M103.166 301.454C103.166 301.454 77.9063 300.576 51.29 323.78" stroke="#FFD168" stroke-width="2.34719" stroke-miterlimit="10" stroke-linecap="round" stroke-linejoin="round"/>
<path d="M107.111 312.988C107.111 312.988 81.8526 312.108 55.2363 335.313" stroke="#FFD168" stroke-width="2.34719" stroke-miterlimit="10" stroke-linecap="round" stroke-linejoin="round"/>
<path d="M91.844 291.824C91.844 291.824 66.6315 293.525 42.7266 319.311" stroke="#FFD168" stroke-width="2.34719" stroke-miterlimit="10" stroke-linecap="round" stroke-linejoin="round"/>
</svg>
