<svg   viewBox="0 0 40 100" xmlns="http://www.w3.org/2000/svg">
    <symbol id="bold" fill="currentColor" viewBox="0 -960 960 960">
        <path d="M272-200v-560h221q65 0 120 40t55 111q0 51-23 78.5T602-491q25 11 55.5 41t30.5 90q0 89-65 124.5T501-200H272Zm121-112h104q48 0 58.5-24.5T566-372q0-11-10.5-35.5T494-432H393v120Zm0-228h93q33 0 48-17t15-38q0-24-17-39t-44-15h-95v109Z"/>
    </symbol>
    <symbol id="italic" fill="currentColor" viewBox="0 -960 960 960">
        <path d="M200-200v-100h160l120-360H320v-100h400v100H580L460-300h140v100H200Z"/>
    </symbol>
        
    <symbol id="underlined" fill="currentColor" viewBox="0 -960 960 960">
        <path d="M200-120v-80h560v80H200Zm280-160q-101 0-157-63t-56-167v-330h103v336q0 56 28 91t82 35q54 0 82-35t28-91v-336h103v330q0 104-56 167t-157 63Z"/>
    </symbol>
    <symbol id="code" fill="currentColor" viewBox="0 -960 960 960">
        <path d="M320-240 80-480l240-240 57 57-184 184 183 183-56 56Zm320 0-57-57 184-184-183-183 56-56 240 240-240 240Z"/>
    </symbol>
    <symbol id="quote" fill="currentColor" viewBox="0 -960 960 960">
        <path d="M120-80v-800l60 60 60-60 60 60 60-60 60 60 60-60 60 60 60-60 60 60 60-60 60 60 60-60v800l-60-60-60 60-60-60-60 60-60-60-60 60-60-60-60 60-60-60-60 60-60-60-60 60Zm120-200h480v-80H240v80Zm0-160h480v-80H240v80Zm0-160h480v-80H240v80Zm-40 404h560v-568H200v568Zm0-568v568-568Z"/>
    </symbol>
    <symbol id="title" fill="currentColor" viewBox="0 -960 960 960">
        <path d="M420-160v-520H200v-120h560v120H540v520H420Z"/>
    </symbol>
    <symbol id="list-numbered" fill="currentColor" viewBox="0 -960 960 960">
        <path d="M120-80v-60h100v-30h-60v-60h60v-30H120v-60h120q17 0 28.5 11.5T280-280v40q0 17-11.5 28.5T240-200q17 0 28.5 11.5T280-160v40q0 17-11.5 28.5T240-80H120Zm0-280v-110q0-17 11.5-28.5T160-510h60v-30H120v-60h120q17 0 28.5 11.5T280-560v70q0 17-11.5 28.5T240-450h-60v30h100v60H120Zm60-280v-180h-60v-60h120v240h-60Zm180 440v-80h480v80H360Zm0-240v-80h480v80H360Zm0-240v-80h480v80H360Z"/>
    </symbol>
    <symbol id="list-bulleted" fill="currentColor" viewBox="0 -960 960 960">
        <path d="M360-200v-80h480v80H360Zm0-240v-80h480v80H360Zm0-240v-80h480v80H360ZM200-160q-33 0-56.5-23.5T120-240q0-33 23.5-56.5T200-320q33 0 56.5 23.5T280-240q0 33-23.5 56.5T200-160Zm0-240q-33 0-56.5-23.5T120-480q0-33 23.5-56.5T200-560q33 0 56.5 23.5T280-480q0 33-23.5 56.5T200-400Zm0-240q-33 0-56.5-23.5T120-720q0-33 23.5-56.5T200-800q33 0 56.5 23.5T280-720q0 33-23.5 56.5T200-640Z"/>
    </symbol>
    <symbol id="align-left" fill="currentColor" viewBox="0 -960 960 960">
        <path d="M120-120v-80h720v80H120Zm0-160v-80h480v80H120Zm0-160v-80h720v80H120Zm0-160v-80h480v80H120Zm0-160v-80h720v80H120Z"/>
    </symbol>            
    <symbol id="align-center" fill="currentColor" viewBox="0 -960 960 960">
        <path d="M120-120v-80h720v80H120Zm160-160v-80h400v80H280ZM120-440v-80h720v80H120Zm160-160v-80h400v80H280ZM120-760v-80h720v80H120Z"/>
    </symbol>
    <symbol id="align-right" fill="currentColor" viewBox="0 -960 960 960">
        <path d="M120-760v-80h720v80H120Zm240 160v-80h480v80H360ZM120-440v-80h720v80H120Zm240 160v-80h480v80H360ZM120-120v-80h720v80H120Z"/>
    </symbol>
    <symbol id="align-justify" fill="currentColor" viewBox="0 -960 960 960">
        <path d="M120-120v-80h720v80H120Zm0-160v-80h720v80H120Zm0-160v-80h720v80H120Zm0-160v-80h720v80H120Zm0-160v-80h720v80H120Z"/>
    </symbol>
    <symbol id="strike" fill="currentColor" viewBox="0 -960 960 960">
        <path d="M486-160q-76 0-135-45t-85-123l88-38q14 48 48.5 79t85.5 31q42 0 76-20t34-64q0-18-7-33t-19-27h112q5 14 7.5 28.5T694-340q0 86-61.5 133T486-160ZM80-480v-80h800v80H80Zm402-326q66 0 115.5 32.5T674-674l-88 39q-9-29-33.5-52T484-710q-41 0-68 18.5T386-640h-96q2-69 54.5-117.5T482-806Z"/>
    </symbol>
    <symbol id="" fill="currentColor" viewBox="0 -960 960 960">
        
    </symbol>                    
</svg>