<svg width="100" height="100" viewBox="0 0 100 100" fill="none" xmlns="http://www.w3.org/2000/svg">
<path d="M50.0081 0C57.4513 0 67.7109 27.3532 68.8487 28.0959C69.9849 28.8387 97.5417 32.3336 99.8277 37.9528C102.114 43.572 80.9101 63.903 80.3848 65.2862C79.8595 66.6695 85.157 95.5782 80.7989 99.3602C76.4408 103.142 51.5293 88.3497 50.0098 88.3407C48.4904 88.3335 24.585 103.223 19.2191 99.3602C13.8532 95.4974 20.0199 66.8489 19.6332 65.2862C19.2465 63.7218 -2.23089 45.393 0.190277 37.9528C2.61315 30.5108 30.1802 28.8656 31.1692 28.0959C32.1565 27.3262 42.5633 0 50.0081 0Z" fill="#FFBD39"/>
<path d="M50.0052 3.39795C56.9419 3.39795 66.0397 29.872 67.0988 30.5645C68.158 31.257 94.3083 33.5356 96.4403 38.7726C98.5706 44.0114 78.3406 62.4729 77.8512 63.7611C77.3618 65.0493 82.7654 92.485 78.7033 96.0104C74.6412 99.5377 51.4203 85.2583 50.0052 85.2511C48.5885 85.2421 26.3069 99.6112 21.3054 96.0104C16.3057 92.4114 22.9857 65.7077 22.6247 64.2509C22.2636 62.7941 1.31155 45.7105 3.56845 38.7744C5.82707 31.8383 32.4548 31.284 33.377 30.5663C34.2976 29.8469 43.0651 3.39974 50.0035 3.39974L50.0052 3.39795Z" fill="url(#paint0_linear_2435_26052)"/>
<path d="M9.64389 40.0536C9.16137 35.1216 24.5935 32.2187 25.2745 37.9904C25.9555 43.7603 10.3027 46.7744 9.64389 40.0536Z" fill="white"/>
<path d="M29.2248 36.3704C29.1085 33.1984 33.7232 33.0047 33.9628 35.6079C34.2314 38.5216 29.3326 39.3379 29.2248 36.3704Z" fill="white"/>
<g opacity="0.6">
<g opacity="0.6">
<path d="M36.1064 62.875C36.1064 66.0847 33.4201 68.6862 30.104 68.6862C26.7879 68.6862 24.1016 66.0847 24.1016 62.875C24.1016 59.6654 26.7879 57.0657 30.104 57.0657C33.4201 57.0657 36.1064 59.6671 36.1064 62.875Z" fill="#FF5F82"/>
</g>
<g opacity="0.6">
<path d="M77.1064 62.875C77.1064 66.0847 74.4183 68.6862 71.104 68.6862C67.7896 68.6862 65.1016 66.0847 65.1016 62.875C65.1016 59.6654 67.7896 57.0657 71.104 57.0657C74.4183 57.0657 77.1064 59.6671 77.1064 62.875Z" fill="#FF5F82"/>
</g>
</g>
<path d="M57.7126 68.6987C58.9839 66.4542 57.1462 64.7211 55.9399 66.8059C53.5991 70.848 47.3794 70.5107 45.0044 66.8059C43.7263 64.8108 42.0819 66.3268 43.2335 68.6987C45.9558 74.3107 54.1655 74.9637 57.7126 68.6987Z" fill="#872A2A"/>
<path d="M35.8793 38.9808C36.5398 37.0916 32.6368 34.6444 27.9878 36.1694C24.8446 37.201 22.1924 41.6702 23.0617 42.517C23.9309 43.3656 24.8412 39.754 28.9272 38.5681C32.4349 37.5491 35.5952 39.7971 35.8793 38.9808Z" fill="#541300"/>
<path d="M64.124 38.9808C63.4635 37.0916 67.3665 34.6444 72.0155 36.1694C75.1587 37.201 77.8126 41.6702 76.9433 42.517C76.0741 43.3656 75.1638 39.754 71.0761 38.5681C67.5701 37.5491 64.408 39.7971 64.124 38.9808Z" fill="#541300"/>
<path d="M26.3729 57.1105C24.8381 55.7487 27.1206 50.3269 33.2326 50.3269C39.3445 50.3269 41.509 55.6608 40.2394 57.1105C39.1426 58.3646 37.796 54.4857 33.3814 54.4857C28.9669 54.4857 27.6716 58.2605 26.3729 57.1105Z" fill="#541300"/>
<path d="M60.2204 57.1105C58.6855 55.7487 60.9698 50.3269 67.0801 50.3269C73.1903 50.3269 75.3565 55.6608 74.0886 57.1105C72.9901 58.3646 71.6452 54.4857 67.2306 54.4857C62.8161 54.4857 61.5208 58.2605 60.2221 57.1105H60.2204Z" fill="#541300"/>
<defs>
<linearGradient id="paint0_linear_2435_26052" x1="26.8065" y1="26.9978" x2="84.6525" y2="93.2684" gradientUnits="userSpaceOnUse">
<stop offset="0.04" stop-color="#FFF466"/>
<stop offset="0.08" stop-color="#FFF466"/>
<stop offset="0.32" stop-color="#FFEB5F"/>
<stop offset="0.69" stop-color="#FFD54C"/>
<stop offset="0.86" stop-color="#FFC943"/>
</linearGradient>
</defs>
</svg>
