<svg width="134" height="33" viewBox="0 0 134 33" fill="none" xmlns="http://www.w3.org/2000/svg">
<path d="M69.438 3.69459C70.0866 2.5903 70.8201 1.71885 73.8576 1.54762C77.0201 1.36929 81.6537 1.94519 84.5714 2.46892C85.213 -0.363328 89.9572 1.73245 89.8971 3.48882C93.9808 4.39592 101.04 5.40198 106.465 4.60536C105.947 6.57792 103.717 7.18102 101.819 7.31648C97.6622 7.61313 93.1127 6.58564 89.6996 5.95241C88.4553 14.741 88.0738 19.2467 83.1622 26.8783C82.8292 27.3957 81.9729 27.95 81.3532 27.872C80.4165 27.7539 79.5668 26.6802 79.7796 25.8382C81.6158 18.573 83.5339 11.5773 84.1646 5.01996C79.3816 3.69471 75.4208 3.69459 69.438 3.69459ZM120.285 25.5899C120.338 28.3331 122.854 30.4465 126.496 30.5974C130.097 30.7466 133.543 28.0617 133.144 24.2778C132.74 20.4446 129.082 20.6387 128.015 22.2251C130.495 22.6479 131.862 24.2005 131.614 26.1512C131.409 27.7581 129.909 29.0761 128.234 29.1753C124.157 29.4168 123.707 26.3672 123.982 24.9643C124.271 23.4888 123.95 22.0305 122.344 21.5033C124.869 20.5834 127.122 19.36 127.889 17.1653C128.159 13.8855 123.102 14.2342 122.14 16.2675C126.025 16.1992 120.195 20.7887 118.708 21.6127C120.256 17.1546 121.365 13.0089 122.196 8.94327C122.52 7.36106 122.397 6.38526 120.84 6.14727C119.601 5.95767 118.812 6.17802 118.431 7.66212C117.496 11.3024 116.675 15.0723 115.706 19.1074C114.993 20.849 113.367 23.084 111.992 24.0369C110.533 25.0481 109.519 24.7548 109.866 22.2099C110.53 17.3314 111.812 11.9207 113.033 7.15774C113.399 5.73194 113.587 5.13019 112.489 3.83557C112.026 3.28967 111.447 2.80085 110.957 2.3413C109.748 1.42379 109.169 1.11049 108.714 2.64113C107.486 6.7756 106.451 15.3041 105.829 18.8904C104.552 22.3014 102.548 25.1266 100.83 26.6539C99.7485 27.6148 98.7408 27.5996 99.4948 25.2666C100.114 23.3506 100.597 21.7026 101.181 19.7691C100.563 18.4625 98.9151 18.7104 97.7147 18.9067C96.6791 21.6307 95.916 23.2546 94.4431 25.3813C92.4931 28.1974 91.4689 26.4093 92.1601 24.3066C92.8313 22.265 93.8499 20.303 95.6166 18.8777C96.7509 17.9624 98.1653 17.7192 99.5641 17.6258C99.2705 15.4525 96.685 14.8416 94.718 15.5913C91.2602 16.9097 88.4759 20.9423 88.0921 24.1805C87.8583 26.1531 88.9474 27.705 91.0263 28.1572C93.4393 28.6815 95.0458 26.2724 96.0037 24.5249C95.5828 26.6455 96.6369 28.2789 98.11 28.5927C101.014 29.2108 104.445 25.1296 105.841 21.6361C105.902 24.1826 106.323 26.3927 109.353 26.3935C110.846 26.3939 113.318 25.7551 115.038 22.7032C114.766 23.6608 114.245 25.5872 114.068 26.565C113.838 27.8349 114.393 27.9402 114.964 27.903C115.632 27.8595 116.372 27.5142 116.624 27.008C117.208 25.8398 117.949 24.1508 118.31 22.7748C119.553 22.8508 120.249 23.6747 120.285 25.5899Z" fill="#313C8E"/>
<path d="M19.7445 4.81245C18.7865 7.62498 13.6464 7.51915 14.7756 4.84564C15.4481 5.56803 17.4778 5.88048 17.4495 4.55817C17.4215 3.2475 15.3768 3.254 14.3182 3.33814C11.5989 3.55432 8.18427 4.78464 7.52788 6.59785C6.87918 8.39012 9.99025 9.27296 13.8845 11.4289C18.869 14.1882 22.6246 17.9168 20.3055 23.2722C18.3608 27.7623 11.8501 31.0534 6.34872 30.5314C0.0924065 30.3431 -1.99666 23.1174 2.47185 19.9476C5.70577 17.6532 8.759 19.428 8.25171 21.2515C5.00332 20.7371 1.91707 21.3196 1.33351 23.6194C0.607506 26.4809 3.11338 28.4127 6.29919 28.374C12.3468 28.3003 20.803 20.1732 11.4937 14.0451C8.43254 12.0301 0.0248361 8.98574 5.06769 4.38327C7.16175 2.26043 10.6273 0.62347 13.6308 0.12632C17.4614 -0.50752 20.9496 1.27311 19.7444 4.81232L19.7445 4.81245Z" fill="#313C8E"/>
<path d="M26.8965 2.43652C31.0682 3.93165 29.8816 7.46216 29.1748 10.5449C32.014 10.8218 38.3682 10.756 37.9789 14.0182C34.6349 12.4496 30.3679 12.3988 28.8028 12.2063C28.3212 14.1952 26.7 20.1321 26.0355 23.4332C25.0115 28.5222 29.3629 22.0156 29.751 21.0721C30.8134 18.752 32.6124 16.5894 35.1376 15.6433C37.1767 14.8779 40.3314 15.5699 40.0468 17.6642C38.1591 17.5038 37.3108 17.8123 35.8568 19.238C34.2991 20.7651 32.8128 23.1424 32.4255 24.9167C32.179 26.0467 32.252 27.0401 32.7817 27.1754C34.2716 27.5563 36.2732 22.9603 36.8298 21.8763C37.3332 20.8958 37.8345 19.9138 38.3049 18.9225C39.5558 18.6199 41.0958 18.5491 41.8221 19.7849C41.1539 21.7034 40.56 23.8318 39.9702 25.8712C39.4258 27.7532 40.1419 27.527 40.9771 26.866C42.8644 25.3721 44.8562 20.6688 46.0381 16.7271C43.4658 15.3699 42.2681 11.54 44.363 9.33515C46.414 7.17666 48.6865 8.17513 48.5764 10.8303C48.5254 12.0572 48.0735 14.7589 47.646 15.8003C48.2702 16.2829 49.5688 15.4198 50.1707 15.1808C52.6559 14.194 54.9697 15.6345 53.74 18.1512C52.211 21.2806 50.4338 23.3894 50.5231 26.8351C50.5765 28.8901 51.8594 30.413 53.8189 28.3676C56.1389 26.0089 57.3965 22.9676 58.4288 19.9396C59.266 20.7151 58.7875 21.8112 58.4883 22.6704C57.5026 25.3366 54.2587 31.4705 50.5406 30.7425C43.6192 29.801 47.8894 20.7848 48.938 17.2975C48.1984 17.3844 47.8864 17.4931 47.1938 17.2486C45.4852 22.3322 43.2301 28.9801 38.9049 28.5349C37.1699 28.3563 36.117 26.9353 36.5263 24.1906C36.2123 25.4724 34.6679 28.3452 31.9569 28.1644C30.2772 28.0525 28.6512 26.7944 28.5273 24.7698C27.2369 25.9791 25.9735 27.5166 23.9638 26.9765C22.4668 26.5742 21.0791 25.1125 21.7992 22.6586L24.3497 11.8608C22.3738 11.6544 16.782 11.4233 16.9459 9.06446C19.1601 9.70969 21.6802 10.1236 24.8677 10.1327L26.8965 2.43652ZM45.3981 11.9201C44.8902 13.4817 45.7196 14.429 46.4332 15.2352C46.6859 14.3883 46.7926 13.3377 46.8294 12.3305C46.8955 10.5165 45.8521 10.5242 45.3981 11.9201Z" fill="#313C8E"/>
<path d="M82.9639 30.7239L81.3865 33.0002C72.6443 29.6129 62.1965 30.1563 50.4316 32.5693C56.2191 29.3033 71.5377 25.9932 82.9639 30.7239Z" fill="#313C8E"/>
<path fill-rule="evenodd" clip-rule="evenodd" d="M66.9898 0.476562L63.3746 11.195L51.6064 11.1733L61.1405 17.7761L57.4824 28.4812L66.9898 21.8434L76.4972 28.4812L72.8392 17.7761L82.3732 11.1733L70.605 11.195L66.9898 0.476562Z" fill="#E31E25"/>
</svg>
