<svg width="40" height="40" viewBox="0 0 40 40" fill="none" xmlns="http://www.w3.org/2000/svg">
<path d="M33.3333 29.9998C33.7581 30.0003 34.1667 30.163 34.4756 30.4546C34.7845 30.7462 34.9704 31.1448 34.9953 31.5688C35.0202 31.9929 34.8822 32.4105 34.6096 32.7362C34.3369 33.062 33.9502 33.2713 33.5283 33.3215L33.3333 33.3332H6.66667C6.24187 33.3327 5.83328 33.17 5.52439 32.8784C5.21549 32.5868 5.02961 32.1882 5.00471 31.7642C4.97982 31.3401 5.11779 30.9225 5.39044 30.5968C5.66309 30.271 6.04984 30.0617 6.47167 30.0115L6.66667 29.9998H33.3333ZM33.3333 18.3332C33.7754 18.3332 34.1993 18.5088 34.5118 18.8213C34.8244 19.1339 35 19.5578 35 19.9998C35 20.4419 34.8244 20.8658 34.5118 21.1783C34.1993 21.4909 33.7754 21.6665 33.3333 21.6665H6.66667C6.22464 21.6665 5.80072 21.4909 5.48816 21.1783C5.17559 20.8658 5 20.4419 5 19.9998C5 19.5578 5.17559 19.1339 5.48816 18.8213C5.80072 18.5088 6.22464 18.3332 6.66667 18.3332H33.3333ZM33.3333 6.6665C33.7754 6.6665 34.1993 6.8421 34.5118 7.15466C34.8244 7.46722 35 7.89114 35 8.33317C35 8.7752 34.8244 9.19912 34.5118 9.51168C34.1993 9.82424 33.7754 9.99984 33.3333 9.99984H6.66667C6.22464 9.99984 5.80072 9.82424 5.48816 9.51168C5.17559 9.19912 5 8.7752 5 8.33317C5 7.89114 5.17559 7.46722 5.48816 7.15466C5.80072 6.8421 6.22464 6.6665 6.66667 6.6665H33.3333Z" fill="#151515"/>
</svg>
