<svg width="30" height="28" viewBox="0 0 30 28" fill="none" xmlns="http://www.w3.org/2000/svg">
<path d="M28.3333 24.0001C28.7581 24.0006 29.1667 24.1632 29.4756 24.4548C29.7845 24.7464 29.9704 25.145 29.9953 25.5691C30.0202 25.9931 29.8822 26.4107 29.6096 26.7365C29.3369 27.0622 28.9502 27.2716 28.5283 27.3217L28.3333 27.3334H1.66667C1.24187 27.3329 0.83328 27.1703 0.524386 26.8787C0.215493 26.5871 0.0296083 26.1885 0.00471314 25.7644C-0.0201821 25.3404 0.117791 24.9228 0.390441 24.597C0.663092 24.2713 1.04984 24.0619 1.47167 24.0117L1.66667 24.0001H28.3333ZM28.3333 12.3334C28.7754 12.3334 29.1993 12.509 29.5118 12.8216C29.8244 13.1341 30 13.5581 30 14.0001C30 14.4421 29.8244 14.866 29.5118 15.1786C29.1993 15.4912 28.7754 15.6667 28.3333 15.6667H1.66667C1.22464 15.6667 0.800716 15.4912 0.488155 15.1786C0.175595 14.866 0 14.4421 0 14.0001C0 13.5581 0.175595 13.1341 0.488155 12.8216C0.800716 12.509 1.22464 12.3334 1.66667 12.3334H28.3333ZM28.3333 0.666748C28.7754 0.666748 29.1993 0.842343 29.5118 1.1549C29.8244 1.46746 30 1.89139 30 2.33341C30 2.77544 29.8244 3.19937 29.5118 3.51193C29.1993 3.82449 28.7754 4.00008 28.3333 4.00008H1.66667C1.22464 4.00008 0.800716 3.82449 0.488155 3.51193C0.175595 3.19937 0 2.77544 0 2.33341C0 1.89139 0.175595 1.46746 0.488155 1.1549C0.800716 0.842343 1.22464 0.666748 1.66667 0.666748H28.3333Z" fill="#151515"/>
</svg>
