<svg   viewBox="0 0 40 100" xmlns="http://www.w3.org/2000/svg">
    <symbol id="hot" fill="currentColor" viewBox="0 0 17 18">
 <path d="M0.456446 3.52146V17.25C1.48401 17.25 2.27252 14.9519 3.2436 14.7601C4.24441 14.5626 5.85164 16.381 6.77244 16.0001C7.70933 15.6125 7.55524 13.1886 8.38785 12.6321C9.22689 12.0714 11.4121 13.1369 12.1235 12.4272C12.835 11.7172 11.7673 9.53656 12.3292 8.69926C12.8865 7.86839 15.3155 8.02216 15.7042 7.08721C16.0859 6.16833 14.2636 4.56419 14.4616 3.56571C14.6558 2.58627 17.0059 1.79298 16.9557 0.751482C16.9552 0.750988 16.9547 0.750494 16.9542 0.75H1.88087C0.0813598 0.75 0.456385 1.875 0.456446 3.52146Z" fill="#EA6439"/>
 <path d="M3.83793 7.58493L4.35105 7.0671L6.56821 9.30463L6.05509 9.82245L3.83793 7.58493ZM5.04787 10.8389L4.53475 11.3568L2.31759 9.11923L2.83071 8.60141L5.04787 10.8389ZM5.18407 8.86671L4.10082 9.9599L3.66689 9.52199L4.75014 8.4288L5.18407 8.86671ZM8.20769 7.7268C8.03243 7.90367 7.84133 8.03899 7.6344 8.13275C7.42957 8.22438 7.22053 8.27339 7.00726 8.27979C6.7961 8.28405 6.59022 8.24676 6.38962 8.16791C6.19113 8.08693 6.00954 7.96334 5.84483 7.79712C5.68013 7.6309 5.55766 7.44764 5.47742 7.24733C5.39929 7.04489 5.36339 6.83605 5.36973 6.62082C5.37606 6.40559 5.42463 6.19463 5.51543 5.98792C5.60622 5.78122 5.7382 5.5905 5.91135 5.41576C6.08661 5.23889 6.2756 5.1057 6.47831 5.0162C6.68313 4.92457 6.89112 4.87662 7.10228 4.87236C7.31555 4.86597 7.52248 4.90219 7.72308 4.98104C7.92157 5.05775 8.10423 5.18028 8.27104 5.34863C8.43574 5.51485 8.55821 5.70024 8.63845 5.90482C8.71658 6.10726 8.75248 6.31609 8.74615 6.53132C8.73981 6.74229 8.69124 6.95112 8.60045 7.15783C8.51176 7.3624 8.38084 7.55206 8.20769 7.7268ZM7.76743 7.28888C7.86667 7.18873 7.94058 7.08005 7.98914 6.96284C8.03982 6.84351 8.06516 6.71991 8.06516 6.59206C8.06516 6.4642 8.03877 6.33953 7.98598 6.21807C7.9353 6.09447 7.85717 5.9794 7.75159 5.87285C7.64601 5.7663 7.53199 5.68746 7.40951 5.63631C7.28915 5.58304 7.16563 5.5564 7.03893 5.5564C6.91435 5.55427 6.79293 5.57878 6.67468 5.62992C6.55644 5.68106 6.44769 5.75671 6.34845 5.85687C6.2492 5.95702 6.17424 6.06677 6.12356 6.1861C6.075 6.30331 6.05071 6.42584 6.05071 6.5537C6.05071 6.68156 6.07605 6.80728 6.12673 6.93088C6.17952 7.05235 6.2587 7.16635 6.36428 7.2729C6.46775 7.37732 6.58072 7.45723 6.70319 7.51264C6.82566 7.56378 6.94919 7.59042 7.07377 7.59255C7.20047 7.59255 7.32294 7.56698 7.44119 7.51583C7.55944 7.46469 7.66818 7.38904 7.76743 7.28888ZM10.1936 5.64595L8.39452 3.83036L7.68503 4.54637L7.26693 4.12444L9.19903 2.1746L9.61712 2.59653L8.90763 3.31254L10.7067 5.12813L10.1936 5.64595Z" fill="white"/>
    </symbol>
    <symbol id="new" fill="currentColor" viewBox="0 0 17 18">
 <path d="M0.206324 3.52146V17.25C1.23389 17.25 2.0224 14.9519 2.99348 14.7601C3.99428 14.5626 5.60152 16.381 6.52231 16.0001C7.45921 15.6125 7.30512 13.1886 8.13773 12.6321C8.97677 12.0714 11.162 13.1369 11.8734 12.4272C12.5849 11.7172 11.5172 9.53656 12.079 8.69926C12.6364 7.86839 15.0654 8.02216 15.454 7.08721C15.8358 6.16833 14.0135 4.56419 14.2114 3.56571C14.4057 2.58627 16.7558 1.79298 16.7055 0.751482C16.705 0.750988 16.7045 0.750494 16.704 0.75H1.63075C-0.168762 0.75 0.206263 1.875 0.206324 3.52146Z" fill="#EA6439"/>
 <path d="M3.75228 12.3499L1.53512 10.1124L1.95955 9.68407L4.86403 9.97495L4.65815 10.1827L3.0618 8.5717L3.56858 8.06027L5.78574 10.2978L5.36448 10.7229L2.45683 10.4352L2.66271 10.2275L4.25906 11.8385L3.75228 12.3499ZM5.45828 7.95601L6.52569 6.8788L6.92478 7.28156L5.85737 8.35876L5.45828 7.95601ZM6.4085 8.83823L7.61526 7.62038L8.02702 8.03592L6.31031 9.7684L4.09315 7.53088L5.76869 5.83995L6.18044 6.25549L5.01485 7.43179L6.4085 8.83823ZM8.93648 7.11811L5.99399 5.61258L6.52611 5.07557L9.12019 6.42128L8.85413 6.68979L7.54917 4.04312L8.02428 3.56365L10.6215 4.90616L10.365 5.16507L9.04734 2.53119L9.53828 2.03574L11.0301 5.00525L10.479 5.56143L8.19531 4.38833L8.34101 4.2413L9.4876 6.56193L8.93648 7.11811Z" fill="white"/>
    </symbol>
</svg>