<svg width="100" height="100" viewBox="0 0 100 100" fill="none" xmlns="http://www.w3.org/2000/svg">
<path d="M50.0081 0C57.4513 0 67.7109 27.3532 68.8487 28.0959C69.9849 28.8387 97.5417 32.3336 99.8277 37.9528C102.114 43.572 80.9101 63.903 80.3848 65.2862C79.8595 66.6695 85.157 95.5782 80.7989 99.3602C76.4408 103.142 51.5293 88.3497 50.0098 88.3407C48.4904 88.3335 24.585 103.223 19.2191 99.3602C13.8532 95.4974 20.0199 66.8489 19.6332 65.2862C19.2465 63.7218 -2.23089 45.393 0.190277 37.9528C2.61315 30.5108 30.1802 28.8656 31.1692 28.0959C32.1565 27.3262 42.5633 0 50.0081 0Z" fill="#FFBD39"/>
<path d="M50.0062 3.39807C56.9429 3.39807 66.0407 29.8721 67.0998 30.5646C68.159 31.2572 94.3093 33.5357 96.4413 38.7727C98.5716 44.0116 78.3415 62.4731 77.8522 63.7612C77.3628 65.0494 82.7664 92.4851 78.7043 96.0106C74.6422 99.5378 51.4213 85.2584 50.0062 85.2512C48.5894 85.2422 26.3079 99.6114 21.3064 96.0106C16.3067 92.4115 22.9867 65.7079 22.6256 64.251C22.2646 62.7942 1.31253 45.7106 3.56943 38.7745C5.82805 31.8385 32.4557 31.2841 33.378 30.5664C34.2986 29.847 43.0661 3.39987 50.0045 3.39987L50.0062 3.39807Z" fill="url(#paint0_linear_340_11412)"/>
<path d="M9.64194 40.0538C9.15942 35.1217 24.5916 32.2188 25.2726 37.9905C25.9536 43.7604 10.3007 46.7745 9.64194 40.0538Z" fill="white"/>
<path d="M29.2238 36.3704C29.1075 33.1984 33.7223 33.0047 33.9618 35.6079C34.2304 38.5216 29.3316 39.3379 29.2238 36.3704Z" fill="white"/>
<g opacity="0.6">
<g opacity="0.6">
<path d="M36.1064 62.8749C36.1064 66.0846 33.4201 68.6861 30.104 68.6861C26.7879 68.6861 24.1016 66.0846 24.1016 62.8749C24.1016 59.6652 26.7879 57.0656 30.104 57.0656C33.4201 57.0656 36.1064 59.667 36.1064 62.8749Z" fill="#FF5F82"/>
</g>
<g opacity="0.6">
<path d="M77.1064 62.8749C77.1064 66.0846 74.4183 68.6861 71.104 68.6861C67.7896 68.6861 65.1016 66.0846 65.1016 62.8749C65.1016 59.6652 67.7896 57.0656 71.104 57.0656C74.4183 57.0656 77.1064 59.667 77.1064 62.8749Z" fill="#FF5F82"/>
</g>
</g>
<path d="M57.7145 68.6987C58.9858 66.4542 57.1481 64.7211 55.9418 66.8059C53.6011 70.848 47.3814 70.5107 45.0064 66.8059C43.7282 64.8108 42.0839 66.3268 43.2354 68.6987C45.9577 74.3107 54.1675 74.9637 57.7145 68.6987Z" fill="#872A2A"/>
<path d="M35.8793 38.9809C36.5398 37.0917 32.6368 34.6445 27.9878 36.1695C24.8446 37.2011 22.1924 41.6703 23.0617 42.5171C23.9309 43.3657 24.8412 39.7542 28.9272 38.5682C32.4349 37.5492 35.5952 39.7972 35.8793 38.9809Z" fill="#541300"/>
<path d="M64.1222 38.9809C63.4617 37.0917 67.3646 34.6445 72.0136 36.1695C75.1569 37.2011 77.8107 41.6703 76.9415 42.5171C76.0723 43.3657 75.162 39.7542 71.0742 38.5682C67.5683 37.5492 64.4062 39.7972 64.1222 38.9809Z" fill="#541300"/>
<path d="M26.3729 57.1105C24.8381 55.7487 27.1206 50.3269 33.2326 50.3269C39.3445 50.3269 41.509 55.6608 40.2394 57.1105C39.1426 58.3646 37.796 54.4857 33.3814 54.4857C28.9669 54.4857 27.6716 58.2605 26.3729 57.1105Z" fill="#541300"/>
<path d="M60.2213 57.1105C58.6865 55.7487 60.9708 50.3269 67.081 50.3269C73.1913 50.3269 75.3575 55.6608 74.0896 57.1105C72.9911 58.3646 71.6462 54.4857 67.2316 54.4857C62.817 54.4857 61.5218 58.2605 60.2231 57.1105H60.2213Z" fill="#541300"/>
<defs>
<linearGradient id="paint0_linear_340_11412" x1="26.8075" y1="26.9979" x2="84.6535" y2="93.2685" gradientUnits="userSpaceOnUse">
<stop offset="0.04" stop-color="#FFF466"/>
<stop offset="0.08" stop-color="#FFF466"/>
<stop offset="0.32" stop-color="#FFEB5F"/>
<stop offset="0.69" stop-color="#FFD54C"/>
<stop offset="0.86" stop-color="#FFC943"/>
</linearGradient>
</defs>
</svg>
