<svg   viewBox="0 0 40 100" xmlns="http://www.w3.org/2000/svg">
    <symbol id="arrow" fill="currentColor" viewBox="0 0 8 12">
        <path d="M1.70492 0L0.294922 1.41L4.87492 6L0.294922 10.59L1.70492 12L7.70492 6L1.70492 0Z"/>
    </symbol>
    <symbol id="phone" fill="currentColor" viewBox="0 0 16 16">
        <path d="M3.65387 1.32849C3.40343 1.00649 2.92745 0.976861 2.639 1.26531L1.60508 2.29923C1.1216 2.78271 0.94387 3.46766 1.1551 4.06847C2.00338 6.48124 3.39215 8.74671 5.32272 10.6773C7.25329 12.6078 9.51876 13.9966 11.9315 14.8449C12.5323 15.0561 13.2173 14.8784 13.7008 14.3949L14.7347 13.361C15.0231 13.0726 14.9935 12.5966 14.6715 12.3461L12.3653 10.5524C12.2008 10.4245 11.9866 10.3793 11.7845 10.4298L9.59541 10.9771C9.00082 11.1257 8.37183 10.9515 7.93845 10.5181L5.48187 8.06155C5.04849 7.62817 4.87427 6.99919 5.02292 6.40459L5.57019 4.21553C5.62073 4.01336 5.57552 3.79918 5.44758 3.63468L3.65387 1.32849ZM1.88477 0.511076C2.62689 -0.231039 3.8515 -0.154797 4.49583 0.673634L6.28954 2.97983C6.6187 3.40304 6.73502 3.95409 6.60498 4.47423L6.05772 6.66329C5.99994 6.8944 6.06766 7.13888 6.2361 7.30732L8.69268 9.7639C8.86113 9.93235 9.1056 10.0001 9.33671 9.94229L11.5258 9.39502C12.0459 9.26499 12.597 9.3813 13.0202 9.71047L15.3264 11.5042C16.1548 12.1485 16.231 13.3731 15.4889 14.1152L14.455 15.1492C13.7153 15.8889 12.6089 16.2137 11.5778 15.8512C9.01754 14.9511 6.61438 13.4774 4.56849 11.4315C2.5226 9.38562 1.04895 6.98246 0.148838 4.42225C-0.213682 3.39112 0.11113 2.28472 0.85085 1.545L1.88477 0.511076Z"/>
    </symbol>
    <symbol id="star" fill="currentColor" viewBox="0 0 16 15">
        <path d="M8 0.5L9.79611 6.02786H15.6085L10.9062 9.44427L12.7023 14.9721L8 11.5557L3.29772 14.9721L5.09383 9.44427L0.391548 6.02786H6.20389L8 0.5Z"/>
    </symbol>
    <symbol id="check" fill="currentColor" viewBox="0 0 20 16">
        <path d="M17.2889 0.946922C17.7947 0.434359 18.6148 0.434359 19.1206 0.946922C19.6203 1.4532 19.6264 2.27018 19.139 2.78408L8.79043 15.017C8.78048 15.0296 8.76985 15.0417 8.75858 15.0531C8.25275 15.5656 7.43264 15.5656 6.92682 15.0531L0.629372 8.6718C0.123543 8.15923 0.123543 7.3282 0.629372 6.81564C1.1352 6.30308 1.95531 6.30308 2.46114 6.81564L7.80367 12.2293L17.2545 0.986183C17.2652 0.972411 17.2766 0.959301 17.2889 0.946922Z"/>
    </symbol>
    <symbol id="menu" fill="currentColor" viewBox="0 0 30 28">
        <path d="M28.3333 24.0001C28.7581 24.0006 29.1667 24.1632 29.4756 24.4548C29.7845 24.7464 29.9704 25.145 29.9953 25.5691C30.0202 25.9931 29.8822 26.4107 29.6096 26.7365C29.3369 27.0622 28.9502 27.2716 28.5283 27.3217L28.3333 27.3334H1.66667C1.24187 27.3329 0.83328 27.1703 0.524386 26.8787C0.215493 26.5871 0.0296083 26.1885 0.00471314 25.7644C-0.0201821 25.3404 0.117791 24.9228 0.390441 24.597C0.663092 24.2713 1.04984 24.0619 1.47167 24.0117L1.66667 24.0001H28.3333ZM28.3333 12.3334C28.7754 12.3334 29.1993 12.509 29.5118 12.8216C29.8244 13.1341 30 13.5581 30 14.0001C30 14.4421 29.8244 14.866 29.5118 15.1786C29.1993 15.4912 28.7754 15.6667 28.3333 15.6667H1.66667C1.22464 15.6667 0.800716 15.4912 0.488155 15.1786C0.175595 14.866 0 14.4421 0 14.0001C0 13.5581 0.175595 13.1341 0.488155 12.8216C0.800716 12.509 1.22464 12.3334 1.66667 12.3334H28.3333ZM28.3333 0.666748C28.7754 0.666748 29.1993 0.842343 29.5118 1.1549C29.8244 1.46746 30 1.89139 30 2.33341C30 2.77544 29.8244 3.19937 29.5118 3.51193C29.1993 3.82449 28.7754 4.00008 28.3333 4.00008H1.66667C1.22464 4.00008 0.800716 3.82449 0.488155 3.51193C0.175595 3.19937 0 2.77544 0 2.33341C0 1.89139 0.175595 1.46746 0.488155 1.1549C0.800716 0.842343 1.22464 0.666748 1.66667 0.666748H28.3333Z"/>
    </symbol>
</svg>