<svg   viewBox="0 0 40 100" xmlns="http://www.w3.org/2000/svg">
    <symbol id="arrow" fill="currentColor" viewBox="0 0 8 12">
        <path d="M1.70492 0L0.294922 1.41L4.87492 6L0.294922 10.59L1.70492 12L7.70492 6L1.70492 0Z"/>
    </symbol>
    <symbol id="phone" fill="currentColor" viewBox="0 0 16 16">
        <path d="M3.65387 1.32849C3.40343 1.00649 2.92745 0.976861 2.639 1.26531L1.60508 2.29923C1.1216 2.78271 0.94387 3.46766 1.1551 4.06847C2.00338 6.48124 3.39215 8.74671 5.32272 10.6773C7.25329 12.6078 9.51876 13.9966 11.9315 14.8449C12.5323 15.0561 13.2173 14.8784 13.7008 14.3949L14.7347 13.361C15.0231 13.0726 14.9935 12.5966 14.6715 12.3461L12.3653 10.5524C12.2008 10.4245 11.9866 10.3793 11.7845 10.4298L9.59541 10.9771C9.00082 11.1257 8.37183 10.9515 7.93845 10.5181L5.48187 8.06155C5.04849 7.62817 4.87427 6.99919 5.02292 6.40459L5.57019 4.21553C5.62073 4.01336 5.57552 3.79918 5.44758 3.63468L3.65387 1.32849ZM1.88477 0.511076C2.62689 -0.231039 3.8515 -0.154797 4.49583 0.673634L6.28954 2.97983C6.6187 3.40304 6.73502 3.95409 6.60498 4.47423L6.05772 6.66329C5.99994 6.8944 6.06766 7.13888 6.2361 7.30732L8.69268 9.7639C8.86113 9.93235 9.1056 10.0001 9.33671 9.94229L11.5258 9.39502C12.0459 9.26499 12.597 9.3813 13.0202 9.71047L15.3264 11.5042C16.1548 12.1485 16.231 13.3731 15.4889 14.1152L14.455 15.1492C13.7153 15.8889 12.6089 16.2137 11.5778 15.8512C9.01754 14.9511 6.61438 13.4774 4.56849 11.4315C2.5226 9.38562 1.04895 6.98246 0.148838 4.42225C-0.213682 3.39112 0.11113 2.28472 0.85085 1.545L1.88477 0.511076Z"/>
    </symbol>
    <symbol id="star" fill="currentColor" viewBox="0 0 16 15">
        <path d="M8 0.5L9.79611 6.02786H15.6085L10.9062 9.44427L12.7023 14.9721L8 11.5557L3.29772 14.9721L5.09383 9.44427L0.391548 6.02786H6.20389L8 0.5Z"/>
    </symbol>
    <symbol id="starR" fill="currentColor" viewBox="0 0 26 26">
    <path d="M12.1731 22.1838C12.6816 21.8769 13.3182 21.8769 13.8267 22.1838L19.0565 25.3404C20.2683 26.0717 21.7631 24.9853 21.4415 23.607L20.0535 17.6584C19.9185 17.08 20.1151 16.4744 20.564 16.0855L25.1867 12.0809C26.2565 11.1541 25.6847 9.39688 24.2743 9.27727L18.1914 8.76136C17.6001 8.71121 17.0851 8.33788 16.8535 7.79148L14.473 2.17528C13.9217 0.874474 12.0781 0.874478 11.5268 2.17529L9.14633 7.79148C8.91473 8.33788 8.39974 8.71121 7.8084 8.76136L1.72548 9.27727C0.315167 9.39688 -0.256717 11.1541 0.813074 12.0809L5.43583 16.0855C5.88477 16.4744 6.08132 17.08 5.94636 17.6584L4.55836 23.607C4.23675 24.9853 5.73155 26.0717 6.94329 25.3404L12.1731 22.1838Z"/>
    </symbol>
    <symbol id="check" fill="currentColor" viewBox="0 0 20 16">
        <path d="M17.2889 0.946922C17.7947 0.434359 18.6148 0.434359 19.1206 0.946922C19.6203 1.4532 19.6264 2.27018 19.139 2.78408L8.79043 15.017C8.78048 15.0296 8.76985 15.0417 8.75858 15.0531C8.25275 15.5656 7.43264 15.5656 6.92682 15.0531L0.629372 8.6718C0.123543 8.15923 0.123543 7.3282 0.629372 6.81564C1.1352 6.30308 1.95531 6.30308 2.46114 6.81564L7.80367 12.2293L17.2545 0.986183C17.2652 0.972411 17.2766 0.959301 17.2889 0.946922Z"/>
    </symbol>
    <symbol id="menu" fill="currentColor" viewBox="0 0 40 40">
         <path d="M33.3333 29.9998C33.7581 30.0003 34.1667 30.163 34.4756 30.4546C34.7845 30.7462 34.9704 31.1448 34.9953 31.5688C35.0202 31.9929 34.8822 32.4105 34.6096 32.7362C34.3369 33.062 33.9502 33.2713 33.5283 33.3215L33.3333 33.3332H6.66667C6.24187 33.3327 5.83328 33.17 5.52439 32.8784C5.21549 32.5868 5.02961 32.1882 5.00471 31.7642C4.97982 31.3401 5.11779 30.9225 5.39044 30.5968C5.66309 30.271 6.04984 30.0617 6.47167 30.0115L6.66667 29.9998H33.3333ZM33.3333 18.3332C33.7754 18.3332 34.1993 18.5088 34.5118 18.8213C34.8244 19.1339 35 19.5578 35 19.9998C35 20.4419 34.8244 20.8658 34.5118 21.1783C34.1993 21.4909 33.7754 21.6665 33.3333 21.6665H6.66667C6.22464 21.6665 5.80072 21.4909 5.48816 21.1783C5.17559 20.8658 5 20.4419 5 19.9998C5 19.5578 5.17559 19.1339 5.48816 18.8213C5.80072 18.5088 6.22464 18.3332 6.66667 18.3332H33.3333ZM33.3333 6.6665C33.7754 6.6665 34.1993 6.8421 34.5118 7.15466C34.8244 7.46722 35 7.89114 35 8.33317C35 8.7752 34.8244 9.19912 34.5118 9.51168C34.1993 9.82424 33.7754 9.99984 33.3333 9.99984H6.66667C6.22464 9.99984 5.80072 9.82424 5.48816 9.51168C5.17559 9.19912 5 8.7752 5 8.33317C5 7.89114 5.17559 7.46722 5.48816 7.15466C5.80072 6.8421 6.22464 6.6665 6.66667 6.6665H33.3333Z"/>
    </symbol>
    <symbol id='plus' stroke="currentColor" viewBox="0 0 10 10" >
        <path d="M5 1.09961V8.59961"  stroke-width="0.833333" stroke-linecap="round" stroke-linejoin="round"/>
        <path d="M1.25 4.84961H8.75"  stroke-width="0.833333" stroke-linecap="round" stroke-linejoin="round"/>
    </symbol>
    <symbol id='chevronUp'  viewBox="0 0 16 16" >
   <path d="M7.646 4.646a.5.5 0 0 1 .708 0l6 6a.5.5 0 0 1-.708.708L8 5.707l-5.646 5.647a.5.5 0 0 1-.708-.708l6-6z"/>
   </symbol>
<symbol id="menu2" fill="currentColor" viewBox="0 0 30 3">
  <path d="M28.3333 0C28.7754 0 29.1993 0.158036 29.5118 0.43934C29.8244 0.720645 30 1.10218 30 1.5C30 1.89782 29.8244 2.27936 29.5118 2.56066C29.1993 2.84196 28.7754 3 28.3333 3H1.66667C1.22464 3 0.800716 2.84196 0.488155 2.56066C0.175595 2.27936 0 1.89782 0 1.5C0 1.10218 0.175595 0.720645 0.488155 0.43934C0.800716 0.158036 1.22464 0 1.66667 0H28.3333Z" />
</symbol>
</svg>