<svg   viewBox="0 0 40 100" xmlns="http://www.w3.org/2000/svg">
    <symbol id="telegram" fill="currentColor" viewBox="0 0 32 32">
        <path d="M32 16C32 24.8366 24.8366 32 16 32C7.16344 32 0 24.8366 0 16C0 7.16344 7.16344 0 16 0C24.8366 0 32 7.16344 32 16ZM16.5734 11.812C15.0172 12.4593 11.9069 13.799 7.2426 15.8312C6.48519 16.1324 6.08842 16.427 6.05231 16.7151C5.99126 17.2021 6.60103 17.3938 7.43138 17.6549C7.54433 17.6904 7.66136 17.7272 7.78133 17.7662C8.59826 18.0318 9.69718 18.3424 10.2685 18.3548C10.7867 18.366 11.3651 18.1523 12.0036 17.7138C16.3616 14.7721 18.6113 13.2852 18.7525 13.2531C18.8521 13.2305 18.9902 13.202 19.0838 13.2852C19.1773 13.3684 19.1681 13.5258 19.1582 13.5681C19.0978 13.8256 16.7042 16.0509 15.4656 17.2024C15.0794 17.5614 14.8055 17.8161 14.7495 17.8742C14.6241 18.0045 14.4962 18.1278 14.3734 18.2462C13.6144 18.9778 13.0453 19.5265 14.4049 20.4224C15.0583 20.853 15.5811 21.209 16.1027 21.5642C16.6723 21.9522 17.2405 22.3391 17.9756 22.8209C18.1628 22.9437 18.3417 23.0712 18.5159 23.1954C19.1788 23.668 19.7744 24.0926 20.5102 24.0249C20.9377 23.9855 21.3794 23.5835 21.6036 22.3845C22.1337 19.5509 23.1756 13.4113 23.4164 10.8814C23.4375 10.6597 23.4109 10.376 23.3896 10.2515C23.3683 10.127 23.3238 9.94956 23.1619 9.81821C22.9702 9.66266 22.6743 9.62986 22.5419 9.63219C21.9401 9.64279 21.0168 9.96384 16.5734 11.812Z"/>
    </symbol>
    <symbol id="facebook" fill="currentColor" viewBox="0 0 32 32">
        <path d="M32.9999 17.0969C32.9999 8.20603 25.8361 0.998535 16.999 0.998535C8.16191 0.998535 0.998047 8.20603 0.998047 17.0969C0.998047 25.1321 6.84936 31.7921 14.4988 32.9998V21.7504H10.4361V17.0969H14.4988V13.5503C14.4988 9.5156 16.8877 7.28698 20.5426 7.28698C22.2933 7.28698 24.1244 7.6014 24.1244 7.6014V11.5631H22.1067C20.119 11.5631 19.4991 12.804 19.4991 14.0771V17.0969H23.9369L23.2275 21.7504H19.4991V32.9998C27.1486 31.7921 32.9999 25.1321 32.9999 17.0969Z" fill="#26262B"/>
    </symbol>
    <symbol id="instagram" fill="currentColor" viewBox="0 0 32 32">
        <path d="M16.0015 0C11.6561 0 11.1108 0.0190005 9.4041 0.096668C7.70075 0.174669 6.53807 0.444338 5.52072 0.840009C4.46838 1.24868 3.5757 1.79535 2.68636 2.68503C1.79635 3.57437 1.24968 4.46705 0.839675 5.51906C0.443004 6.53673 0.173002 7.69975 0.0963342 9.40243C0.0200001 11.1091 0 11.6548 0 16.0002C0 20.3455 0.0193338 20.8892 0.096668 22.5959C0.175002 24.2993 0.444671 25.4619 0.840009 26.4793C1.24901 27.5316 1.79569 28.4243 2.68536 29.3136C3.57437 30.2036 4.46705 30.7517 5.51872 31.1603C6.53673 31.556 7.69975 31.8257 9.40276 31.9037C11.1094 31.9813 11.6545 32.0003 15.9995 32.0003C20.3452 32.0003 20.8889 31.9813 22.5956 31.9037C24.2989 31.8257 25.4629 31.556 26.4809 31.1603C27.533 30.7517 28.4243 30.2036 29.3133 29.3136C30.2033 28.4243 30.75 27.5316 31.16 26.4796C31.5533 25.4619 31.8233 24.2989 31.9033 22.5962C31.98 20.8896 32 20.3455 32 16.0002C32 11.6548 31.98 11.1094 31.9033 9.40276C31.8233 7.69941 31.5533 6.53673 31.16 5.51939C30.75 4.46705 30.2033 3.57437 29.3133 2.68503C28.4233 1.79502 27.5333 1.24835 26.4799 0.840009C25.4599 0.444338 24.2966 0.174669 22.5932 0.096668C20.8866 0.0190005 20.3432 0 15.9965 0H16.0015ZM14.5662 2.88336C14.9922 2.8827 15.4675 2.88336 16.0015 2.88336C20.2735 2.88336 20.7799 2.8987 22.4669 2.97536C24.0269 3.0467 24.8736 3.30737 25.4376 3.52637C26.1843 3.81637 26.7166 4.16304 27.2763 4.72305C27.8363 5.28305 28.183 5.81639 28.4736 6.56307C28.6926 7.12641 28.9536 7.97308 29.0246 9.5331C29.1013 11.2198 29.118 11.7265 29.118 15.9965C29.118 20.2665 29.1013 20.7732 29.0246 22.4599C28.9533 24.0199 28.6926 24.8666 28.4736 25.4299C28.1836 26.1766 27.8363 26.7083 27.2763 27.268C26.7163 27.828 26.1846 28.1746 25.4376 28.4646C24.8743 28.6846 24.0269 28.9446 22.4669 29.016C20.7802 29.0926 20.2735 29.1093 16.0015 29.1093C11.7291 29.1093 11.2228 29.0926 9.5361 29.016C7.97608 28.944 7.12941 28.6833 6.56507 28.4643C5.81839 28.1743 5.28505 27.8276 4.72505 27.2676C4.16504 26.7076 3.81837 26.1756 3.5277 25.4286C3.3087 24.8653 3.0477 24.0186 2.9767 22.4586C2.90003 20.7719 2.8847 20.2652 2.8847 15.9925C2.8847 11.7198 2.90003 11.2158 2.9767 9.5291C3.04803 7.96908 3.3087 7.12241 3.5277 6.5584C3.81771 5.81173 4.16504 5.27839 4.72505 4.71838C5.28505 4.15838 5.81839 3.81171 6.56507 3.52104C7.12907 3.30103 7.97608 3.04103 9.5361 2.96936C11.0121 2.9027 11.5841 2.8827 14.5662 2.87936V2.88336ZM24.5423 5.54006C23.4822 5.54006 22.6222 6.39907 22.6222 7.45941C22.6222 8.51942 23.4822 9.37943 24.5423 9.37943C25.6023 9.37943 26.4623 8.51942 26.4623 7.45941C26.4623 6.3994 25.6023 5.54006 24.5423 5.54006ZM16.0015 7.78341C11.4638 7.78341 7.78475 11.4625 7.78475 16.0002C7.78475 20.5379 11.4638 24.2153 16.0015 24.2153C20.5392 24.2153 24.2169 20.5379 24.2169 16.0002C24.2169 11.4625 20.5392 7.78341 16.0015 7.78341ZM16.0015 10.6668C18.9469 10.6668 21.3349 13.0545 21.3349 16.0002C21.3349 18.9455 18.9469 21.3336 16.0015 21.3336C13.0558 21.3336 10.6681 18.9455 10.6681 16.0002C10.6681 13.0545 13.0558 10.6668 16.0015 10.6668Z"/>
    </symbol>
    <symbol id="viber" fill="currentColor" viewBox="0 0 28 31">
        <path d="M26.6598 7.41996C26.1598 5.63496 25.1698 4.22496 23.7198 3.22746C21.8898 1.96496 19.7848 1.51996 17.9673 1.24746C15.4523 0.872458 13.1748 0.819958 11.0023 1.08496C8.96734 1.33496 7.43484 1.73246 6.03734 2.37496C3.29734 3.63496 1.65234 5.67246 1.14984 8.42996C0.904844 9.76996 0.739843 10.98 0.644844 12.135C0.424844 14.805 0.624844 17.1675 1.25484 19.3575C1.86984 21.4925 2.94234 23.0175 4.53484 24.02C4.93984 24.275 5.45984 24.46 5.96234 24.6375C6.24734 24.7375 6.52484 24.835 6.75234 24.9425C6.96234 25.04 6.96234 25.0575 6.95984 25.2325C6.94234 26.75 6.95984 29.725 6.95984 29.725L6.96484 30.36H8.10484L8.28984 30.18C8.41234 30.065 11.2373 27.335 12.2448 26.235L12.3823 26.0825C12.5548 25.8825 12.5548 25.8825 12.7323 25.88C14.0923 25.8525 15.4823 25.8 16.8623 25.725C18.5348 25.635 20.4723 25.4725 22.2973 24.7125C23.9673 24.015 25.1873 22.9075 25.9198 21.4225C26.6848 19.8725 27.1373 18.195 27.3073 16.2925C27.6073 12.9475 27.3948 10.045 26.6598 7.41996ZM20.6448 20.4275C20.2248 21.11 19.5998 21.585 18.8623 21.8925C18.3223 22.1175 17.7723 22.07 17.2398 21.845C12.7823 19.9575 9.28484 16.985 6.97484 12.71C6.49734 11.83 6.16734 10.87 5.78734 9.93996C5.70984 9.74996 5.71484 9.52496 5.67984 9.31496C5.71234 7.81246 6.86484 6.96496 8.02984 6.70996C8.47484 6.60996 8.86984 6.76746 9.19984 7.08496C10.1148 7.95496 10.8373 8.96746 11.3823 10.1025C11.6198 10.6 11.5123 11.04 11.1073 11.41C11.0223 11.4875 10.9348 11.5575 10.8423 11.6275C9.91734 12.3225 9.78234 12.85 10.2748 13.8975C11.1148 15.68 12.5098 16.8775 14.3123 17.62C14.7873 17.815 15.2348 17.7175 15.5973 17.3325C15.6473 17.2825 15.7023 17.2325 15.7373 17.1725C16.4473 15.9875 17.4798 16.105 18.4323 16.78C19.0573 17.225 19.6648 17.695 20.2823 18.1475C21.2248 18.84 21.2173 19.49 20.6448 20.4275ZM14.7323 8.59996C14.5223 8.59996 14.3123 8.61746 14.1048 8.65246C13.7548 8.70996 13.4273 8.47496 13.3673 8.12496C13.3098 7.77746 13.5448 7.44746 13.8948 7.38996C14.1698 7.34246 14.4523 7.31996 14.7323 7.31996C17.5048 7.31996 19.7598 9.57496 19.7598 12.3475C19.7598 12.63 19.7373 12.9125 19.6898 13.185C19.6373 13.4975 19.3673 13.72 19.0598 13.72C19.0248 13.72 18.9898 13.7175 18.9523 13.71C18.6048 13.6525 18.3698 13.3225 18.4273 12.975C18.4623 12.77 18.4798 12.56 18.4798 12.3475C18.4798 10.2825 16.7973 8.59996 14.7323 8.59996ZM17.8398 12.44C17.8398 12.7925 17.5523 13.08 17.1998 13.08C16.8473 13.08 16.5598 12.7925 16.5598 12.44C16.5598 11.3825 15.6973 10.52 14.6398 10.52C14.2873 10.52 13.9998 10.2325 13.9998 9.87996C13.9998 9.52746 14.2873 9.23996 14.6398 9.23996C16.4048 9.23996 17.8398 10.675 17.8398 12.44ZM21.4948 13.8625C21.4273 14.16 21.1623 14.36 20.8698 14.36C20.8223 14.36 20.7748 14.355 20.7273 14.345C20.3823 14.265 20.1673 13.9225 20.2448 13.5775C20.3373 13.17 20.3848 12.7475 20.3848 12.3225C20.3848 9.21246 17.8523 6.67996 14.7423 6.67996C14.3173 6.67996 13.8948 6.72746 13.4873 6.81996C13.1423 6.89996 12.7998 6.68246 12.7223 6.33746C12.6423 5.99246 12.8598 5.64996 13.2048 5.57246C13.7048 5.45746 14.2223 5.39996 14.7423 5.39996C18.5598 5.39996 21.6648 8.50496 21.6648 12.3225C21.6648 12.8425 21.6073 13.36 21.4948 13.8625Z"/>
    </symbol>
</svg>