<svg   viewBox="0 0 1000 40" xmlns="http://www.w3.org/2000/svg">
<symbol id="01" viewBox="0 0 42 40"  >
<path d="M20.7232 0.10083C23.7825 0.10083 27.9985 10.8207 28.4653 11.1118C28.9329 11.4029 40.256 12.7725 41.1954 14.9747C42.1348 17.1769 33.4217 25.1447 33.2058 25.6875C32.9899 26.2296 35.1661 37.5584 33.376 39.0413C31.5851 40.5235 21.3483 34.7255 20.7232 34.7227C20.0988 34.7192 10.2755 40.5551 8.07119 39.0413C5.86619 37.5275 8.40025 26.3 8.24135 25.6875C8.08244 25.0744 -0.743886 17.8913 0.251036 14.9747C1.24666 12.0582 12.5747 11.4134 12.9811 11.1118C13.3882 10.8094 17.6646 0.10083 20.7232 0.10083Z" fill="#FFBD39"/>
<path d="M20.7231 1.43188C23.5736 1.43188 27.3121 11.8072 27.7474 12.0786C28.1826 12.35 38.9285 13.243 39.8045 15.2961C40.6799 17.3492 32.3669 24.5837 32.1658 25.0892C31.9647 25.5941 34.1852 36.3462 32.516 37.7279C30.8474 39.1102 21.3053 33.5141 20.7231 33.5112C20.141 33.5077 10.9849 39.1391 8.93033 37.7279C6.8758 36.3174 9.6208 25.8528 9.47174 25.2812C9.32408 24.7102 0.713614 18.0151 1.64174 15.2968C2.56916 12.5785 13.5112 12.3613 13.8909 12.0793C14.2699 11.7973 17.8727 1.43259 20.7231 1.43259V1.43188Z" fill="url(#paint0_linear_19_605)"/>
<path d="M4.13639 15.7988C3.93811 13.8659 10.2796 12.7283 10.5594 14.9902C10.8393 17.2515 4.40709 18.4327 4.13639 15.7988Z" fill="white"/>
<path d="M12.183 14.3546C12.1352 13.1115 14.0315 13.0355 14.13 14.0558C14.2404 15.1976 12.2273 15.5176 12.183 14.3546Z" fill="white"/>
<g opacity="0.6">
<g opacity="0.6">
<path d="M14.7617 24.4935C14.7617 25.7507 13.6578 26.7709 12.2952 26.7709C10.9325 26.7709 9.82861 25.7507 9.82861 24.4935C9.82861 23.2363 10.9325 22.2168 12.2952 22.2168C13.6578 22.2168 14.7617 23.2363 14.7617 24.4935Z" fill="#FF5F82"/>
</g>
<g opacity="0.6">
<path d="M31.6099 24.4935C31.6099 25.7507 30.506 26.7709 29.1433 26.7709C27.7807 26.7709 26.6768 25.7507 26.6768 24.4935C26.6768 23.2363 27.7807 22.2168 29.1433 22.2168C30.506 22.2168 31.6099 23.2363 31.6099 24.4935Z" fill="#FF5F82"/>
</g>
</g>
<path d="M24.3043 27.8778C24.1419 28.0501 22.6027 27.3083 20.8639 27.309C19.1068 27.3104 17.5332 28.0515 17.3672 27.8778C17.0361 27.5319 17.9951 24.3298 20.8344 24.3298C23.6736 24.3298 24.6312 27.5319 24.3043 27.8778Z" fill="#872A2A"/>
<path d="M28.4683 17.1271C28.2039 16.5112 23.3875 18.8702 23.4803 20.1203C23.5731 21.3705 27.9719 22.84 28.5295 22.1826C29.087 21.5252 25.6178 20.6976 25.5869 19.9966C25.556 19.2948 28.8395 17.9941 28.4676 17.1271H28.4683Z" fill="#541300"/>
<path d="M12.9714 17.1271C13.2358 16.5112 18.0522 18.8702 17.9594 20.1203C17.8666 21.3705 13.4678 22.84 12.9103 22.1826C12.3527 21.5252 15.8219 20.6976 15.8528 19.9966C15.8838 19.2948 12.6002 17.9941 12.9714 17.1271Z" fill="#541300"/>
<defs>
<linearGradient id="paint0_linear_19_605" x1="11.1902" y1="10.6815" x2="33.6909" y2="37.7103" gradientUnits="userSpaceOnUse">
<stop offset="0.04" stop-color="#FFF466"/>
<stop offset="0.08" stop-color="#FFF466"/>
<stop offset="0.32" stop-color="#FFEB5F"/>
<stop offset="0.69" stop-color="#FFD54C"/>
<stop offset="0.86" stop-color="#FFC943"/>
</linearGradient>
</defs>
</symbol>

<symbol id="02" viewBox="0 0 42 40"  >
<path d="M21.3824 0.10083C24.441 0.10083 28.6569 10.8207 29.1245 11.1118C29.5914 11.4029 40.9152 12.7725 41.8546 14.9747C42.794 17.1769 34.0808 25.1454 33.865 25.6875C33.6491 26.2296 35.826 37.5584 34.0351 39.042C32.2443 40.5242 22.0075 34.7262 21.3831 34.7234C20.7587 34.7199 10.9354 40.5558 8.73037 39.042C6.52537 37.5282 9.05943 26.3007 8.90053 25.6875C8.74162 25.0744 -0.0847061 17.8913 0.910216 14.9747C1.90584 12.0582 13.2339 11.4134 13.6403 11.1118C14.0467 10.8094 18.3238 0.10083 21.3824 0.10083Z" fill="#FFBD39"/>
<path d="M21.3814 1.43188C24.2325 1.43188 27.9703 11.8072 28.4056 12.0786C28.8408 12.35 39.5874 13.243 40.4628 15.2961C41.3381 17.3492 33.0251 24.5837 32.824 25.0892C32.6229 25.5941 34.8434 36.3462 33.1742 37.7279C31.5049 39.1102 21.9635 33.5148 21.3806 33.5112C20.7985 33.5077 11.6424 39.1398 9.58783 37.7279C7.5326 36.3174 10.2783 25.8528 10.1299 25.2812C9.98159 24.7102 1.37182 18.0144 2.29995 15.2961C3.22807 12.5778 14.1694 12.3606 14.5491 12.0786C14.9281 11.7973 18.5309 1.43188 21.3814 1.43188Z" fill="url(#paint0_linear_19_742)"/>
<path d="M4.79505 15.798C4.59747 13.8651 10.9382 12.7275 11.2181 14.9887C11.4979 17.2507 5.06575 18.4312 4.79505 15.798Z" fill="white"/>
<path d="M12.8417 14.3546C12.7946 13.1115 14.6902 13.0355 14.7886 14.0558C14.899 15.1976 12.886 15.5176 12.8417 14.3546Z" fill="white"/>
<g opacity="0.6">
<g opacity="0.6">
<path d="M14.9712 23.7496C14.9712 25.0068 13.8666 26.027 12.5046 26.027C11.1427 26.027 10.0381 25.0068 10.0381 23.7496C10.0381 22.4924 11.1427 21.4729 12.5046 21.4729C13.8666 21.4729 14.9712 22.4924 14.9712 23.7496Z" fill="#FF5F82"/>
</g>
<g opacity="0.6">
<path d="M31.8193 23.7496C31.8193 25.0068 30.7154 26.027 29.3528 26.027C27.9901 26.027 26.8862 25.0068 26.8862 23.7496C26.8862 22.4924 27.9901 21.4729 29.3528 21.4729C30.7154 21.4729 31.8193 22.4924 31.8193 23.7496Z" fill="#FF5F82"/>
</g>
</g>
<path d="M18.3356 10.0148C18.6724 11.0427 16.5307 13.9769 13.9868 12.9946C13.5755 12.8308 15.0127 12.3428 16.2523 11.549C17.2809 10.8902 18.2477 9.74688 18.3363 10.0155L18.3356 10.0148Z" fill="#541300"/>
<path d="M24.6686 11.6236C24.3318 12.6516 26.5607 15.5857 29.0181 14.6035C29.4295 14.4396 27.9923 13.9517 26.7527 13.1571C25.7247 12.4983 24.7572 11.355 24.6693 11.6236H24.6686Z" fill="#541300"/>
<path d="M24.8465 26.9784C24.5147 27.3272 23.145 26.6564 21.4061 26.6578C19.6497 26.6592 18.2414 27.3251 17.9102 26.9784C17.579 26.6318 18.5381 23.678 21.3773 23.678C24.2165 23.678 25.1784 26.629 24.8465 26.9784Z" fill="#872A2A"/>
<path d="M15.3719 16.6241C19.0296 16.8596 18.0375 20.5686 15.0984 20.4702C12.1593 20.3717 11.715 16.3885 15.3719 16.6241Z" fill="#541300"/>
<path d="M16.656 16.9137C14.6443 15.9877 11.6821 17.304 11.2904 18.6202C11.2138 19.2861 13.5222 18.2349 14.7611 18.0816" fill="#541300"/>
<path d="M16.5835 18.6222C17.3577 18.959 16.9759 20.7281 16.1392 20.4194C15.2455 20.0911 15.8572 18.3065 16.5835 18.6222Z" fill="white"/>
<path d="M27.3849 16.6241C23.7272 16.8596 24.7193 20.5686 27.6584 20.4702C30.5975 20.3717 31.0418 16.3885 27.3849 16.6241Z" fill="#541300"/>
<path d="M26.1016 16.9137C28.0169 15.9877 31.0748 17.304 31.4671 18.6202C31.5437 19.2861 29.2354 18.2349 27.9965 18.0816" fill="#541300"/>
<path d="M26.1732 18.6225C25.399 18.9593 25.7808 20.7283 26.6175 20.4197C27.5112 20.0913 26.8995 18.3068 26.1732 18.6225Z" fill="white"/>
<defs>
<linearGradient id="paint0_linear_19_742" x1="11.8484" y1="10.6808" x2="34.3491" y2="37.7103" gradientUnits="userSpaceOnUse">
<stop offset="0.04" stop-color="#FFF466"/>
<stop offset="0.08" stop-color="#FFF466"/>
<stop offset="0.32" stop-color="#FFEB5F"/>
<stop offset="0.69" stop-color="#FFD54C"/>
<stop offset="0.86" stop-color="#FFC943"/>
</linearGradient>
</defs>
</symbol>

<symbol id="03" viewBox="0 0 42 40" >
<path d="M21.0414 0.10083C24.1 0.10083 28.3159 10.8207 28.7835 11.1118C29.2504 11.4029 40.5742 12.7725 41.5135 14.9747C42.4529 17.1769 33.7398 25.1447 33.5239 25.6868C33.3081 26.2289 35.485 37.5584 33.6941 39.0406C31.9032 40.5228 21.6664 34.7255 21.0421 34.722C20.4177 34.7192 10.5943 40.5544 8.38934 39.0406C6.18434 37.5268 8.7184 26.2993 8.5595 25.6868C8.40059 25.0737 -0.425032 17.8906 0.569889 14.9747C1.56551 12.0582 12.8936 11.4134 13.3 11.1118C13.7057 10.8101 17.9821 0.10083 21.0414 0.10083Z" fill="#FFBD39"/>
<path d="M21.0411 1.43262C23.8916 1.43262 27.6301 11.8079 28.0653 12.0793C28.5006 12.3507 39.2464 13.2437 40.1225 15.2961C40.9979 17.3492 32.6849 24.5844 32.4838 25.0892C32.2827 25.5941 34.5032 36.3463 32.8339 37.7279C31.1647 39.1103 21.6226 33.5141 21.0411 33.5113C20.4589 33.5078 11.3029 39.1391 9.24762 37.7279C7.19309 36.3174 9.93809 25.8521 9.78973 25.2812C9.64137 24.7103 1.0316 18.0151 1.95902 15.2968C2.88715 12.5785 13.8292 12.3613 14.2082 12.08C14.5864 11.7981 18.1893 1.43332 21.0404 1.43332L21.0411 1.43262Z" fill="url(#paint0_linear_19_724)"/>
<path d="M4.45426 15.7981C4.25598 13.8652 10.5975 12.7275 10.8773 14.9895C11.1571 17.2507 4.72496 18.432 4.45426 15.7981Z" fill="white"/>
<path d="M12.5004 14.3546C12.4526 13.1115 14.3489 13.0355 14.4474 14.0558C14.5577 15.1976 12.5447 15.5176 12.5004 14.3546Z" fill="white"/>
<g opacity="0.6">
<g opacity="0.6">
<path d="M15.3286 24.7418C15.3286 25.9997 14.2247 27.0192 12.8621 27.0192C11.4994 27.0192 10.3955 25.9997 10.3955 24.7418C10.3955 23.4839 11.4994 22.4651 12.8621 22.4651C14.2247 22.4651 15.3286 23.4846 15.3286 24.7418Z" fill="#FF5F82"/>
</g>
<g opacity="0.6">
<path d="M32.1773 24.7418C32.1773 25.9997 31.0727 27.0192 29.7107 27.0192C28.3487 27.0192 27.2441 25.9997 27.2441 24.7418C27.2441 23.4839 28.3487 22.4651 29.7107 22.4651C31.0727 22.4651 32.1773 23.4846 32.1773 24.7418Z" fill="#FF5F82"/>
</g>
</g>
<path d="M24.2081 27.024C24.7306 26.1444 23.9754 25.4652 23.4797 26.2822C22.5178 27.8664 19.962 27.7342 18.986 26.2822C18.4608 25.5004 17.7851 26.0945 18.2583 27.024C19.377 29.2234 22.7506 29.4794 24.2081 27.024Z" fill="#872A2A"/>
<path d="M15.2357 15.3775C15.5071 14.6371 13.9033 13.678 11.9929 14.2757C10.7012 14.68 9.61139 16.4315 9.96858 16.7634C10.3258 17.0959 10.6998 15.6805 12.3789 15.2158C13.8203 14.8164 15.119 15.6974 15.2357 15.3775Z" fill="#541300"/>
<path d="M26.8411 15.3775C26.5697 14.6371 28.1735 13.678 30.0839 14.2757C31.3756 14.68 32.4661 16.4315 32.1089 16.7634C31.7517 17.0959 31.3777 15.6805 29.6979 15.2158C28.2572 14.8164 26.9578 15.6974 26.8411 15.3775Z" fill="#541300"/>
<path d="M11.3293 22.4825C10.6986 21.9488 11.6366 19.824 14.1481 19.824C16.6597 19.824 17.5491 21.9144 17.0274 22.4825C16.5767 22.974 16.0234 21.4538 14.2093 21.4538C12.3952 21.4538 11.863 22.9332 11.3293 22.4825Z" fill="#541300"/>
<path d="M25.2384 22.4825C24.6077 21.9488 25.5464 19.824 28.0572 19.824C30.5681 19.824 31.4583 21.9144 30.9372 22.4825C30.4858 22.974 29.9332 21.4538 28.1191 21.4538C26.3051 21.4538 25.7728 22.9332 25.2391 22.4825H25.2384Z" fill="#541300"/>
<defs>
<linearGradient id="paint0_linear_19_724" x1="11.5082" y1="10.6815" x2="34.0089" y2="37.7103" gradientUnits="userSpaceOnUse">
<stop offset="0.04" stop-color="#FFF466"/>
<stop offset="0.08" stop-color="#FFF466"/>
<stop offset="0.32" stop-color="#FFEB5F"/>
<stop offset="0.69" stop-color="#FFD54C"/>
<stop offset="0.86" stop-color="#FFC943"/>
</linearGradient>
</defs>
</symbol>

<symbol id="04" viewBox="0 0 42 40" >
<path d="M20.7002 0.10083C23.7588 0.10083 27.9747 10.8207 28.4416 11.1111C28.9092 11.4022 40.2323 12.7718 41.1717 14.974C42.1104 17.1762 33.3979 25.144 33.1814 25.6868C32.9655 26.2289 35.1424 37.5577 33.3515 39.0406C31.5607 40.5228 21.3239 34.7248 20.6995 34.722C20.0744 34.7185 10.2518 40.5544 8.04678 39.0406C5.84178 37.5268 8.37583 26.2993 8.21693 25.6868C8.05802 25.0737 -0.7683 17.8906 0.226622 14.974C1.22225 12.0575 12.5503 11.4127 12.9567 11.1111C13.3645 10.8094 17.6409 0.10083 20.7002 0.10083Z" fill="#FFBD39"/>
<path d="M20.6992 1.43188C23.5504 1.43188 27.2882 11.8072 27.7234 12.0779C28.1587 12.3493 38.9052 13.2423 39.7806 15.2954C40.656 17.3485 32.343 24.583 32.1419 25.0885C31.9408 25.5934 34.1613 36.3455 32.4927 37.7272C30.8235 39.1095 21.2814 33.5134 20.6992 33.5105C20.117 33.507 10.961 39.1383 8.90642 37.7272C6.85119 36.3167 9.59689 25.8521 9.44782 25.2805C9.29947 24.7095 0.689694 18.0144 1.61782 15.2961C2.54524 12.5778 13.4873 12.3606 13.867 12.0786C14.2453 11.7966 17.8481 1.43259 20.6992 1.43259V1.43188Z" fill="url(#paint0_linear_19_700)"/>
<path d="M4.11295 15.7981C3.91467 13.8652 10.2562 12.7275 10.536 14.9895C10.8158 17.2507 4.38366 18.432 4.11295 15.7981Z" fill="white"/>
<path d="M12.1591 14.3546C12.1113 13.1115 14.0076 13.0355 14.106 14.0558C14.2164 15.1976 12.2034 15.5176 12.1591 14.3546Z" fill="white"/>
<g opacity="0.6">
<g opacity="0.6">
<path d="M14.7376 25.485C14.7376 26.7422 13.6337 27.7624 12.271 27.7624C10.9084 27.7624 9.80518 26.7429 9.80518 25.485C9.80518 24.2271 10.9091 23.2083 12.271 23.2083C13.633 23.2083 14.7376 24.2278 14.7376 25.485Z" fill="#FF5F82"/>
</g>
<g opacity="0.6">
<path d="M31.5862 25.485C31.5862 26.7422 30.4816 27.7624 29.1197 27.7624C27.7577 27.7624 26.6538 26.7429 26.6538 25.485C26.6538 24.2271 27.7577 23.2083 29.1197 23.2083C30.4816 23.2083 31.5862 24.2278 31.5862 25.485Z" fill="#FF5F82"/>
</g>
</g>
<path d="M20.7039 25.7944C17.3725 25.7944 17.6348 31.0151 20.7039 31.0151C23.7731 31.0151 23.9889 25.7944 20.7039 25.7944Z" fill="#872A2A"/>
<path d="M17.2745 18.4812C16.2346 18.0551 10.8114 23.2828 11.6375 24.0696C12.4644 24.8557 18.5851 19.0184 17.2745 18.4812Z" fill="#541300"/>
<path d="M11.735 18.4812C12.7749 18.0551 18.1981 23.2828 17.372 24.0696C16.5451 24.8557 10.4244 19.0184 11.735 18.4812Z" fill="#541300"/>
<path d="M29.6558 18.4812C28.6159 18.0551 23.1927 23.2828 24.0189 24.0696C24.8465 24.8557 30.9664 19.0184 29.6558 18.4812Z" fill="#541300"/>
<path d="M24.1173 18.4812C25.1573 18.0551 30.5805 23.2828 29.7543 24.0696C28.9274 24.8557 22.8067 19.0184 24.1173 18.4812Z" fill="#541300"/>
<path d="M16.1611 14.128C16.4353 13.5564 15.2239 12.6641 13.6481 12.996C12.5822 13.221 11.5732 14.5408 11.8348 14.834C12.0956 15.1272 12.5035 14.1751 13.8844 13.9312C15.0699 13.7223 16.043 14.3748 16.1611 14.128Z" fill="#541300"/>
<path d="M25.2293 14.128C24.9551 13.5564 26.1666 12.6641 27.743 12.996C28.8089 13.221 29.8172 14.5408 29.5564 14.834C29.2962 15.1272 28.8877 14.1751 27.506 13.9312C26.3206 13.7223 25.3481 14.3748 25.2293 14.128Z" fill="#541300"/>
<defs>
<linearGradient id="paint0_linear_19_700" x1="11.1656" y1="10.6815" x2="33.6669" y2="37.7103" gradientUnits="userSpaceOnUse">
<stop offset="0.04" stop-color="#FFF466"/>
<stop offset="0.08" stop-color="#FFF466"/>
<stop offset="0.32" stop-color="#FFEB5F"/>
<stop offset="0.69" stop-color="#FFD54C"/>
<stop offset="0.86" stop-color="#FFC943"/>
</linearGradient>
</defs>
</symbol>

<symbol id="05" viewBox="0 0 42 40" >
<path d="M21.3584 0.10083C24.417 0.10083 28.6329 10.8207 29.0998 11.1111C29.5666 11.4022 40.8905 12.7718 41.8299 14.974C42.7692 17.1762 34.0561 25.144 33.8403 25.6868C33.6244 26.2289 35.8013 37.5577 34.0104 39.0406C32.2195 40.5228 21.9828 34.7255 21.3584 34.722C20.734 34.7185 10.9106 40.5544 8.70635 39.0406C6.50135 37.5268 9.03541 26.2993 8.8765 25.6868C8.7176 25.0737 -0.10874 17.8906 0.886885 14.974C1.88251 12.0575 13.2106 11.4127 13.617 11.1111C14.0227 10.8101 18.2998 0.10083 21.3584 0.10083Z" fill="#FFBD39"/>
<path d="M21.3578 1.43188C24.209 1.43188 27.9475 11.8072 28.382 12.0786C28.8173 12.35 39.5638 13.243 40.4392 15.2954C41.3146 17.3478 33.0016 24.583 32.8005 25.0878C32.5994 25.5927 34.8198 36.3448 33.1513 37.7265C31.4821 39.1088 21.94 33.5127 21.3578 33.5091C20.7756 33.5063 11.6195 39.1376 9.56501 37.7265C7.50978 36.3153 10.2555 25.8507 10.1071 25.2798C9.95876 24.7088 1.34899 18.013 2.27641 15.2954C3.20453 12.5771 14.1466 12.3598 14.5256 12.0786C14.9045 11.7966 18.5073 1.43188 21.3578 1.43188Z" fill="url(#paint0_linear_19_787)"/>
<path d="M5.01372 15.9808C4.84075 14.0458 11.1963 12.9904 11.4466 15.2559C11.6969 17.5214 5.24997 18.6175 5.01372 15.9808Z" fill="white"/>
<path d="M13.0785 14.6428C13.0469 13.399 14.9439 13.3476 15.029 14.3693C15.1246 15.5125 13.1073 15.8065 13.0785 14.6428Z" fill="white"/>
<g opacity="0.6">
<g opacity="0.6">
<path d="M15.4492 22.0138C15.4492 23.2717 14.3446 24.2912 12.9827 24.2912C11.6207 24.2912 10.5161 23.2717 10.5161 22.0138C10.5161 20.7559 11.6207 19.7371 12.9827 19.7371C14.3446 19.7371 15.4492 20.7559 15.4492 22.0138Z" fill="#FF5F82"/>
</g>
<g opacity="0.6">
<path d="M31.8018 22.0138C31.8018 23.2717 30.6972 24.2912 29.3352 24.2912C27.9733 24.2912 26.8687 23.2717 26.8687 22.0138C26.8687 20.7559 27.9733 19.7371 29.3352 19.7371C30.6972 19.7371 31.8018 20.7559 31.8018 22.0138Z" fill="#FF5F82"/>
</g>
</g>
<path opacity="0.5" d="M0.886262 14.9747C1.55564 11.9668 13.2099 11.4134 13.6163 11.1118C14.0227 10.8101 18.2999 0.10083 21.3585 0.10083C24.417 0.10083 28.633 10.8207 29.0999 11.1111C29.5667 11.4022 40.8906 12.7718 41.8299 14.974C42.1653 16.5005 40.0756 18.8398 39.4787 19.5472C38.8817 20.2538 33.8635 20.2693 29.8367 18.1993C25.8099 16.1286 18.2211 15.7573 14.0551 17.9876C9.88837 20.2179 5.37924 20.9218 2.98721 19.5479C1.58588 17.6213 0.619074 16.1743 0.885558 14.9747H0.886262Z" fill="#00FF00"/>
<path d="M15.0736 17.5617C18.3305 17.7712 17.4474 21.0745 14.8297 20.9873C12.2119 20.8994 11.8161 17.3521 15.0736 17.5617Z" fill="#541300"/>
<path d="M16.1524 19.5888C16.8414 19.889 16.5011 21.2165 15.7565 20.9416C14.9606 20.6491 15.5055 19.3076 16.1524 19.5888Z" fill="white"/>
<path d="M17.4813 18.8716C15.2875 18.2248 12.6199 18.8562 11.8211 19.1339C11.0217 19.4116 10.9457 18.757 11.5244 18.352C13.4242 16.9746 16.0321 16.9767 17.444 17.7734C18.8193 18.5496 18.1239 19.0615 17.482 18.8716H17.4813Z" fill="#541300"/>
<path d="M27.7766 17.5614C24.5191 17.7709 25.4029 21.0742 28.0199 20.987C30.6377 20.8991 31.0335 17.3519 27.7766 17.5614Z" fill="#541300"/>
<path d="M26.775 19.7108C26.0908 20.009 26.429 21.3259 27.168 21.0531C27.9576 20.7627 27.4169 19.4317 26.775 19.7108Z" fill="white"/>
<path d="M25.3691 19.301C27.5628 18.3392 30.2305 19.2778 31.0299 19.6913C31.8287 20.104 31.9046 19.5 31.3267 18.8967C29.4268 16.8485 26.8189 16.8507 25.407 18.0361C24.0317 19.1914 24.7264 19.5837 25.3691 19.3017V19.301Z" fill="#541300"/>
<path d="M24.7987 29.1906C24.4668 29.5394 23.0978 28.8686 21.3583 28.87C19.6019 28.8707 18.1935 29.5365 17.8624 29.1906C17.5312 28.8447 18.4902 25.8901 21.3288 25.8901C24.1673 25.8901 25.1299 28.8412 24.798 29.1906H24.7987Z" fill="#872A2A"/>
<path d="M17.4961 13.037C17.8645 12.3402 16.4034 11.1744 14.4304 11.5112C13.0966 11.739 11.7818 13.3287 12.0904 13.7063C12.4005 14.0839 12.9609 12.7311 14.6864 12.4948C16.1678 12.2923 17.3371 13.3386 17.4954 13.0377L17.4961 13.037Z" fill="#541300"/>
<path d="M25.1418 13.0453C24.7712 12.3492 26.2288 11.1792 28.2032 11.5104C29.537 11.734 30.8575 13.3203 30.5488 13.6978C30.2408 14.0761 29.6762 12.7247 27.9493 12.4941C26.4671 12.2958 25.3014 13.3463 25.1418 13.0453Z" fill="#541300"/>
<defs>
<linearGradient id="paint0_linear_19_787" x1="11.8248" y1="10.6815" x2="34.3255" y2="37.7103" gradientUnits="userSpaceOnUse">
<stop offset="0.05" stop-color="#FFF466"/>
<stop offset="0.28" stop-color="#FFED60"/>
<stop offset="0.62" stop-color="#FFDA51"/>
<stop offset="0.86" stop-color="#FFC943"/>
</linearGradient>
</defs>
</symbol>

<symbol id="06" viewBox="0 0 42 40" >
<path d="M21.0165 0.10083C24.0751 0.10083 28.291 10.8207 28.7579 11.1111C29.2248 11.4022 40.5486 12.7718 41.488 14.974C42.4274 17.1762 33.7143 25.144 33.4984 25.6861C33.2825 26.2282 35.4594 37.5577 33.6685 39.0406C31.8777 40.5228 21.6402 34.7255 21.0158 34.722C20.3914 34.7185 10.5681 40.5544 8.36309 39.0406C6.15809 37.5268 8.69215 26.2993 8.53324 25.6861C8.37433 25.073 -0.452002 17.8899 0.543623 14.974C1.53854 12.0575 12.8666 11.4127 13.273 11.1111C13.6815 10.8094 17.9586 0.10083 21.0165 0.10083Z" fill="#FFBD39"/>
<path d="M21.0166 1.43188C23.8671 1.43188 27.6063 11.8072 28.0408 12.0786C28.4761 12.35 39.2226 13.243 40.098 15.2954C40.9734 17.3485 32.6604 24.583 32.4593 25.0885C32.2582 25.5934 34.4786 36.3448 32.8101 37.7272C31.1409 39.1095 21.5988 33.5134 21.0166 33.5105C20.4351 33.507 11.2783 39.1383 9.2238 37.7272C7.16857 36.3167 9.91427 25.8521 9.76591 25.2805C9.61685 24.7095 1.00708 18.0144 1.9352 15.2961C2.86333 12.5778 13.8054 12.3606 14.1843 12.0793C14.5633 11.7973 18.1654 1.43259 21.0166 1.43259V1.43188Z" fill="url(#paint0_linear_19_621)"/>
<path d="M4.42985 15.7981C4.23157 13.8652 10.5731 12.7275 10.8522 14.9895C11.132 17.2507 4.69985 18.432 4.42985 15.7981Z" fill="white"/>
<path d="M12.4765 14.3546C12.4287 13.1115 14.3243 13.0355 14.4227 14.0558C14.5331 15.1976 12.5201 15.5176 12.4765 14.3546Z" fill="white"/>
<g opacity="0.6">
<g opacity="0.6">
<path d="M15.0557 24.4938C15.0557 25.7509 13.9511 26.7712 12.5891 26.7712C11.2272 26.7712 10.1226 25.7516 10.1226 24.4938C10.1226 23.2359 11.2272 22.217 12.5891 22.217C13.9511 22.217 15.0557 23.2366 15.0557 24.4938Z" fill="#FF5F82"/>
</g>
<g opacity="0.6">
<path d="M31.9043 24.4938C31.9043 25.7509 30.7997 26.7712 29.4378 26.7712C28.0758 26.7712 26.9712 25.7516 26.9712 24.4938C26.9712 23.2359 28.0758 22.217 29.4378 22.217C30.7997 22.217 31.9043 23.2366 31.9043 24.4938Z" fill="#FF5F82"/>
</g>
</g>
<path d="M15.878 13.8421C12.7174 14.1388 13.5738 20.6659 16.1142 20.5415C18.6546 20.417 19.0385 13.5454 15.878 13.8421Z" fill="#541300"/>
<path d="M16.9751 16.782C16.3029 16.6948 16.0899 18.2986 16.8507 18.4702C17.6121 18.6418 17.9299 16.905 16.9751 16.782Z" fill="white"/>
<path d="M25.6992 13.8421C28.8604 14.1388 28.0026 20.6659 25.463 20.5415C22.9226 20.417 22.5387 13.5454 25.6992 13.8421Z" fill="#541300"/>
<path d="M24.6026 16.7817C25.2748 16.6946 25.4885 18.2984 24.7271 18.4699C23.9656 18.6415 23.6478 16.9048 24.6026 16.7817Z" fill="white"/>
<path d="M13.9227 23.3315C14.2489 23.0854 27.7222 23.0713 28.0703 23.3315C28.7488 23.8377 28.355 29.609 21.1431 29.609C13.9311 29.609 13.2526 23.8377 13.922 23.3315H13.9227Z" fill="#872A2A"/>
<defs>
<linearGradient id="paint0_linear_19_621" x1="11.4829" y1="10.6815" x2="33.9843" y2="37.7103" gradientUnits="userSpaceOnUse">
<stop offset="0.04" stop-color="#FFF466"/>
<stop offset="0.08" stop-color="#FFF466"/>
<stop offset="0.32" stop-color="#FFEB5F"/>
<stop offset="0.69" stop-color="#FFD54C"/>
<stop offset="0.86" stop-color="#FFC943"/>
</linearGradient>
</defs>
</symbol>

<symbol id="07" viewBox="0 0 42 40" >
<path d="M20.7231 0.212402C23.7816 0.212402 27.9976 10.9322 28.4645 11.2226C28.9313 11.5137 40.2552 12.8834 41.1945 15.0856C42.1332 17.2878 33.4208 25.2563 33.2042 25.7977C32.9884 26.3398 35.1652 37.6686 33.3744 39.1522C31.5835 40.635 21.3467 34.8364 20.7224 34.8336C20.098 34.83 10.2746 40.666 8.06962 39.1522C5.86462 37.6383 8.39868 26.4108 8.23977 25.7977C8.08087 25.1846 -0.745459 18.0015 0.250166 15.0856C1.24509 12.169 12.5731 11.5243 12.9802 11.2226C13.3874 10.9203 17.6638 0.212402 20.7224 0.212402H20.7231Z" fill="#FFBD39"/>
<path d="M20.7222 1.54346C23.5726 1.54346 27.3112 11.9188 27.7464 12.1902C28.1816 12.4616 38.9282 13.3545 39.8036 15.4077C40.679 17.4608 32.3659 24.6952 32.1648 25.2008C31.9637 25.7056 34.1842 36.4578 32.5157 37.8395C30.8465 39.2218 21.3051 33.6263 20.7222 33.6228C20.1407 33.6193 10.9839 39.2506 8.92936 37.8395C6.87413 36.429 9.61983 25.9644 9.47147 25.3927C9.32241 24.8218 0.712643 18.1267 1.64077 15.4084C2.56889 12.6901 13.5109 12.4728 13.8899 12.1909C14.2689 11.9089 17.8717 1.54416 20.7222 1.54416V1.54346Z" fill="url(#paint0_linear_19_640)"/>
<path d="M4.13639 15.9096C3.93811 13.9767 10.2796 12.839 10.5587 15.1003C10.8386 17.3615 4.40639 18.5428 4.13639 15.9096Z" fill="white"/>
<path d="M12.183 14.4654C12.1352 13.2223 14.0308 13.1464 14.13 14.1666C14.2404 15.3085 12.2273 15.6284 12.183 14.4654Z" fill="white"/>
<g opacity="0.6">
<g opacity="0.6">
<path d="M14.7622 21.3815C14.7622 22.6386 13.6576 23.6589 12.2957 23.6589C10.9337 23.6589 9.8291 22.6393 9.8291 21.3815C9.8291 20.1236 10.9337 19.1047 12.2957 19.1047C13.6576 19.1047 14.7622 20.1243 14.7622 21.3815Z" fill="#FF5F82"/>
</g>
<g opacity="0.6">
<path d="M31.6104 21.3815C31.6104 22.6386 30.5058 23.6589 29.1438 23.6589C27.7819 23.6589 26.6772 22.6393 26.6772 21.3815C26.6772 20.1236 27.7819 19.1047 29.1438 19.1047C30.5058 19.1047 31.6104 20.1243 31.6104 21.3815Z" fill="#FF5F82"/>
</g>
</g>
<path d="M13.6296 21.1957C13.9558 20.9496 27.4284 20.9356 27.7772 21.1957C28.4557 21.702 28.0619 27.4732 20.8493 27.4732C13.6366 27.4732 12.9588 21.702 13.6289 21.1957H13.6296Z" fill="#872A2A"/>
<path d="M10.9392 17.6578C10.3085 17.1248 11.2464 14.2546 13.7573 14.2546C16.2682 14.2546 17.1583 17.0889 16.6373 17.6578C16.1866 18.1492 15.6332 15.8852 13.8192 15.8852C12.0051 15.8852 11.4728 18.1085 10.9392 17.6578Z" fill="#541300"/>
<path d="M24.8486 17.6578C24.2172 17.1248 25.1559 14.2546 27.6667 14.2546C30.1776 14.2546 31.0678 17.0889 30.546 17.6578C30.0946 18.1492 29.542 15.8852 27.7272 15.8852C25.9125 15.8852 25.3809 18.1085 24.8479 17.6578H24.8486Z" fill="#541300"/>
<defs>
<linearGradient id="paint0_linear_19_640" x1="11.1892" y1="10.7924" x2="33.6899" y2="37.8219" gradientUnits="userSpaceOnUse">
<stop offset="0.04" stop-color="#FFF466"/>
<stop offset="0.08" stop-color="#FFF466"/>
<stop offset="0.32" stop-color="#FFEB5F"/>
<stop offset="0.69" stop-color="#FFD54C"/>
<stop offset="0.86" stop-color="#FFC943"/>
</linearGradient>
</defs>
</symbol>

<symbol id="08" viewBox="0 0 42 40"  >
<path d="M21.3825 0.212402C24.4411 0.212402 28.657 10.9322 29.1239 11.2226C29.5908 11.5137 40.9146 12.8834 41.854 15.0856C42.7934 17.2878 34.0802 25.2563 33.8644 25.7977C33.6485 26.3398 35.8254 37.6686 34.0345 39.1522C32.2437 40.635 22.0069 34.8371 21.3825 34.8336C20.7581 34.83 10.9348 40.666 8.72978 39.1522C6.52478 37.6383 9.05884 26.4108 8.89993 25.7977C8.74102 25.1846 -0.0853026 18.0015 0.910322 15.0856C1.90524 12.169 13.2333 11.5243 13.6397 11.2226C14.0461 10.921 18.3232 0.212402 21.3818 0.212402H21.3825Z" fill="#FFBD39"/>
<path d="M21.3818 1.54346C24.233 1.54346 27.9715 11.9188 28.4061 12.1902C28.8413 12.4616 39.5878 13.3545 40.4632 15.407C41.3386 17.4601 33.0256 24.6945 32.8245 25.2001C32.6234 25.7049 34.8439 36.4564 33.1753 37.8388C31.5061 39.2211 21.964 33.6256 21.3818 33.6221C20.8003 33.6186 11.6443 39.2499 9.58902 37.8388C7.53379 36.4283 10.2795 25.9637 10.1311 25.392C9.98277 24.8211 1.37231 18.126 2.30043 15.4077C3.22856 12.6894 14.1706 12.4721 14.5496 12.1909C14.9285 11.9089 18.5314 1.54416 21.3818 1.54416V1.54346Z" fill="url(#paint0_linear_19_768)"/>
<path d="M4.79508 15.9098C4.5968 13.9769 10.9383 12.8393 11.2181 15.1005C11.498 17.3618 5.06578 18.543 4.79508 15.9098Z" fill="white"/>
<path d="M12.8417 14.4654C12.7939 13.2223 14.6895 13.1464 14.7887 14.1666C14.8991 15.3085 12.886 15.6284 12.8417 14.4654Z" fill="white"/>
<g opacity="0.6">
<g opacity="0.6">
<path d="M15.6695 24.6053C15.6695 25.8625 14.5648 26.8828 13.2029 26.8828C11.8409 26.8828 10.7363 25.8632 10.7363 24.6053C10.7363 23.3474 11.8409 22.3286 13.2029 22.3286C14.5648 22.3286 15.6695 23.3481 15.6695 24.6053Z" fill="#FF5F82"/>
</g>
<g opacity="0.6">
<path d="M32.021 24.6053C32.021 25.8625 30.9164 26.8828 29.5544 26.8828C28.1925 26.8828 27.0879 25.8632 27.0879 24.6053C27.0879 23.3474 28.1925 22.3286 29.5544 22.3286C30.9164 22.3286 32.021 23.3481 32.021 24.6053Z" fill="#FF5F82"/>
</g>
</g>
<path d="M14.2946 19.1489C14.6209 18.9028 28.0942 18.8887 28.4429 19.1489C29.1214 19.6551 28.7277 25.4264 21.5157 25.4264C14.3038 25.4264 13.6253 19.6551 14.2953 19.1489H14.2946Z" fill="#872A2A"/>
<path d="M11.208 15.8717C10.5211 15.4175 11.5434 13.396 14.2779 13.396C17.0123 13.396 17.9826 15.3872 17.4145 15.8717C16.9237 16.2901 16.3204 15.0329 14.3447 15.0329C12.3689 15.0329 11.7888 16.2556 11.208 15.8717Z" fill="#541300"/>
<path d="M25.4053 15.8717C24.7183 15.4175 25.7407 13.396 28.4751 13.396C31.2096 13.396 32.1792 15.3872 31.6118 15.8717C31.1203 16.2901 30.5177 15.0329 28.5419 15.0329C26.5661 15.0329 25.9861 16.2556 25.4053 15.8717Z" fill="#541300"/>
<path d="M32.7314 16.4313C34.3479 18.1505 35.9968 29.5179 40.5966 24.7824C45.2232 20.0187 36.9122 14.3367 32.7314 16.4313Z" fill="#39D5FF"/>
<path d="M10.0254 16.1833C8.4089 17.9024 6.76008 29.2698 2.16023 24.5343C-2.46633 19.7713 5.84461 14.0886 10.0254 16.1833Z" fill="#39D5FF"/>
<defs>
<linearGradient id="paint0_linear_19_768" x1="11.8482" y1="10.7924" x2="34.3496" y2="37.8219" gradientUnits="userSpaceOnUse">
<stop offset="0.04" stop-color="#FFF466"/>
<stop offset="0.08" stop-color="#FFF466"/>
<stop offset="0.32" stop-color="#FFEB5F"/>
<stop offset="0.69" stop-color="#FFD54C"/>
<stop offset="0.86" stop-color="#FFC943"/>
</linearGradient>
</defs>
</symbol>

<symbol id="09" viewBox="0 0 42 40" >
<path d="M21.0406 0.212402C24.0992 0.212402 28.3158 10.9322 28.7827 11.2226C29.2503 11.5137 40.5734 12.8834 41.5128 15.0856C42.4522 17.2885 33.739 25.2563 33.5232 25.7984C33.3073 26.3405 35.4842 37.67 33.6933 39.1522C31.9025 40.6343 21.665 34.8371 21.0406 34.8336C20.4162 34.83 10.5929 40.666 8.38857 39.1522C6.18427 37.6383 8.71764 26.4108 8.55873 25.7984C8.39982 25.1853 -0.426503 18.0022 0.568419 15.0856C1.56404 12.169 12.8921 11.525 13.2985 11.2226C13.7049 10.921 17.982 0.212402 21.0399 0.212402H21.0406Z" fill="#FFBD39"/>
<path d="M21.0406 1.54346C23.8911 1.54346 27.6296 11.9188 28.0649 12.1902C28.5001 12.4616 39.2467 13.3545 40.122 15.4077C40.9974 17.4608 32.6844 24.6952 32.4833 25.2008C32.2822 25.7056 34.5027 36.4578 32.8335 37.8395C31.1642 39.2218 21.6228 33.6256 21.0406 33.6228C20.4585 33.6193 11.3024 39.2506 9.24713 37.8395C7.1919 36.429 9.9376 25.9644 9.78924 25.3927C9.64088 24.8218 1.03111 18.1267 1.95854 15.4084C2.88666 12.6901 13.8287 12.4728 14.2077 12.1909C14.5867 11.9089 18.1895 1.54416 21.0399 1.54416L21.0406 1.54346Z" fill="url(#paint0_linear_19_678)"/>
<path d="M4.45377 15.9098C4.25549 13.9769 10.597 12.8393 10.8768 15.1005C11.156 17.3618 4.72448 18.543 4.45377 15.9098Z" fill="white"/>
<path d="M12.5004 14.4662C12.4533 13.2223 14.3489 13.1471 14.448 14.1673C14.5577 15.3092 12.5447 15.6291 12.5004 14.4662Z" fill="white"/>
<g opacity="0.6">
<g opacity="0.6">
<path d="M14.3535 25.3751C14.3535 26.6323 13.2489 27.6525 11.887 27.6525C10.525 27.6525 9.42041 26.633 9.42041 25.3751C9.42041 24.1172 10.525 23.0984 11.887 23.0984C13.2489 23.0984 14.3535 24.1179 14.3535 25.3751Z" fill="#FF5F82"/>
</g>
<g opacity="0.6">
<path d="M30.7061 25.3749C30.7061 26.632 29.6015 27.6523 28.2395 27.6523C26.8776 27.6523 25.7729 26.6328 25.7729 25.3749C25.7729 24.117 26.8776 23.0981 28.2395 23.0981C29.6015 23.0981 30.7061 24.1177 30.7061 25.3749Z" fill="#FF5F82"/>
</g>
</g>
<path d="M15.3826 16.0059C12.222 16.3026 13.0791 22.8297 15.6195 22.7053C18.1592 22.5808 18.5438 15.7092 15.3826 16.0059Z" fill="#541300"/>
<path d="M16.479 18.9463C15.8062 18.8591 15.5931 20.4629 16.3546 20.6345C17.1161 20.8061 17.4332 19.0693 16.479 18.9463Z" fill="white"/>
<path d="M26.6914 16.0059C29.8526 16.3026 28.9948 22.8297 26.4551 22.7053C23.9148 22.5808 23.5308 15.7092 26.6914 16.0059Z" fill="#541300"/>
<path d="M25.5943 18.9463C26.2665 18.8591 26.4802 20.4629 25.7188 20.6345C24.9573 20.8061 24.6395 19.0693 25.5943 18.9463Z" fill="white"/>
<path d="M17.7274 12.4925C18.0157 11.8906 16.7416 10.9526 15.0836 11.3014C13.9629 11.5376 12.9018 12.9263 13.1761 13.235C13.451 13.5437 13.8806 12.5417 15.3332 12.2858C16.5799 12.0657 17.6036 12.7526 17.7281 12.4932L17.7274 12.4925Z" fill="#541300"/>
<path d="M24.3466 12.4925C24.0583 11.8906 25.3316 10.9526 26.9903 11.3014C28.1111 11.5376 29.1721 12.9263 28.8979 13.235C28.6237 13.5437 28.1933 12.5417 26.7414 12.2858C25.494 12.0657 24.471 12.7526 24.3466 12.4932V12.4925Z" fill="#541300"/>
<path d="M24.4134 29.4996C23.7448 30.0044 18.3377 30.003 17.6641 29.4996C17.2001 29.1537 17.0566 27.4395 21.0363 27.4395C25.016 27.4395 24.8705 29.153 24.4127 29.4996H24.4134Z" fill="#872A2A"/>
<defs>
<linearGradient id="paint0_linear_19_678" x1="11.507" y1="10.7924" x2="34.0084" y2="37.8212" gradientUnits="userSpaceOnUse">
<stop offset="0.04" stop-color="#FFF466"/>
<stop offset="0.08" stop-color="#FFF466"/>
<stop offset="0.32" stop-color="#FFEB5F"/>
<stop offset="0.69" stop-color="#FFD54C"/>
<stop offset="0.86" stop-color="#FFC943"/>
</linearGradient>
</defs>
</symbol>

<symbol id="10" viewBox="0 0 48 40"  >
<path d="M20.6003 0.212402C23.6596 0.212402 27.8755 10.9322 28.3424 11.2226C28.8093 11.5137 40.1331 12.8834 41.0718 15.0856C42.0111 17.2878 33.2987 25.2563 33.0821 25.7977C32.8663 26.3398 35.0432 37.6686 33.2523 39.1522C31.4614 40.635 21.2246 34.8371 20.6003 34.8336C19.9759 34.83 10.1525 40.666 7.94754 39.1522C5.74254 37.6383 8.2766 26.4108 8.1177 25.7977C7.95879 25.1846 -0.867529 18.0015 0.128096 15.0856C1.12372 12.169 12.4518 11.5243 12.8582 11.2226C13.2646 10.921 17.5417 0.212402 20.5996 0.212402H20.6003Z" fill="#FFBD39"/>
<path d="M20.6003 1.54346C23.4508 1.54346 27.1893 11.9188 27.6245 12.1902C28.0598 12.4616 38.8063 13.3545 39.6817 15.407C40.5571 17.4601 32.2441 24.6945 32.0437 25.2001C31.8419 25.7049 34.063 36.4564 32.3931 37.8388C30.7246 39.2211 21.1825 33.6256 20.6003 33.6221C20.0181 33.6186 10.862 39.2499 8.80679 37.8388C6.75156 36.4283 9.49726 25.9637 9.3489 25.392C9.20054 24.8211 0.590079 18.126 1.5182 15.4077C2.44633 12.6894 13.3884 12.4721 13.7673 12.1909C14.1463 11.9089 17.7491 1.54416 20.6003 1.54416V1.54346Z" fill="url(#paint0_linear_19_657)"/>
<path d="M4.01282 15.9096C3.81525 13.9767 10.156 12.839 10.4359 15.1003C10.7157 17.3615 4.28353 18.5428 4.01282 15.9096Z" fill="white"/>
<path d="M12.0595 14.4654C12.0123 13.2223 13.908 13.1464 14.0064 14.1666C14.1161 15.3085 12.1031 15.6284 12.0595 14.4654Z" fill="white"/>
<g opacity="0.6">
<g opacity="0.6">
<path d="M14.8872 27.0846C14.8872 28.3418 13.7826 29.362 12.4207 29.362C11.0587 29.362 9.9541 28.3425 9.9541 27.0846C9.9541 25.8267 11.0587 24.8079 12.4207 24.8079C13.7826 24.8079 14.8872 25.8274 14.8872 27.0846Z" fill="#FF5F82"/>
</g>
<g opacity="0.6">
<path d="M31.2391 27.0846C31.2391 28.3418 30.1351 29.362 28.7732 29.362C27.4112 29.362 26.3066 28.3425 26.3066 27.0846C26.3066 25.8267 27.4105 24.8079 28.7732 24.8079C30.1358 24.8079 31.2391 25.8274 31.2391 27.0846Z" fill="#FF5F82"/>
</g>
</g>
<path d="M24.1856 31.6279C23.1049 33.2599 17.849 33.0398 16.7697 31.6279C15.9253 30.5233 16.4407 28.2585 20.4204 28.2585C24.4001 28.2585 24.8775 30.5852 24.1856 31.6279Z" fill="#872A2A"/>
<path d="M30.217 22.5891C30.8477 23.1228 29.9091 25.9922 27.3989 25.9922C24.8887 25.9922 23.9979 23.1579 24.5189 22.5891C24.9703 22.0976 25.523 24.3617 27.337 24.3617C29.1511 24.3617 29.6834 22.1384 30.217 22.5891Z" fill="#541300"/>
<path d="M16.307 22.5891C16.9384 23.1228 15.9998 25.9922 13.4889 25.9922C10.978 25.9922 10.0879 23.1579 10.6096 22.5891C11.0603 22.0976 11.6137 24.3617 13.4277 24.3617C15.2418 24.3617 15.774 22.1384 16.307 22.5891Z" fill="#541300"/>
<path d="M30.2493 15.7492C30.5109 15.9074 32.031 15.5439 32.1527 15.7302C32.2743 15.9172 30.4082 18.0041 30.2352 18.2298C30.0911 18.4182 30.1284 19.0159 30.3147 19.1277C30.5742 19.2838 33.1792 19.3035 33.4218 19.1734C33.7206 19.0138 33.6517 18.3163 33.4872 18.279C33.2678 18.2291 31.4348 18.5315 31.3602 18.3451C31.285 18.1581 33.0393 16.2913 33.2446 16.086C33.4499 15.8807 33.4499 15.0601 33.1884 14.9293C32.9275 14.7986 30.2648 14.7662 30.1621 14.8745C30.0602 14.9828 29.9877 15.5917 30.2493 15.7506V15.7492Z" fill="#24BDE0"/>
<path d="M34.4451 11.5192C34.8073 11.7393 36.9138 11.2352 37.0812 11.4939C37.2492 11.752 34.6645 14.6432 34.4248 14.9554C34.2251 15.2163 34.2764 16.0438 34.5344 16.1985C34.8944 16.4144 38.5029 16.4418 38.8383 16.2611C39.2517 16.0396 39.1561 15.0742 38.929 15.0222C38.6252 14.9526 36.0862 15.3717 35.9822 15.1129C35.8788 14.8542 38.3081 12.2681 38.5929 11.984C38.8776 11.6999 38.8769 10.563 38.5155 10.3816C38.1534 10.2009 34.4655 10.1559 34.3242 10.3056C34.1829 10.4554 34.083 11.2984 34.4451 11.5185V11.5192Z" fill="#24BDE0"/>
<path d="M40.4784 13.5048C41.0093 13.8275 44.0995 13.0885 44.3456 13.4668C44.5917 13.8458 40.8012 18.0864 40.4496 18.5448C40.1557 18.928 40.2316 20.1416 40.6106 20.3687C41.138 20.6858 46.4304 20.7259 46.9233 20.4615C47.5294 20.136 47.3887 18.7199 47.0562 18.6439C46.6111 18.542 42.8852 19.1565 42.7334 18.7775C42.5815 18.3978 46.1456 14.6052 46.5626 14.1882C46.9795 13.7713 46.9795 12.1035 46.4487 11.8377C45.9185 11.5719 40.5073 11.5065 40.3005 11.7266C40.0931 11.9467 39.9462 13.1835 40.477 13.5055L40.4784 13.5048Z" fill="#24BDE0"/>
<defs>
<linearGradient id="paint0_linear_19_657" x1="11.0666" y1="10.7924" x2="33.5673" y2="37.8212" gradientUnits="userSpaceOnUse">
<stop offset="0.04" stop-color="#FFF466"/>
<stop offset="0.08" stop-color="#FFF466"/>
<stop offset="0.32" stop-color="#FFEB5F"/>
<stop offset="0.69" stop-color="#FFD54C"/>
<stop offset="0.86" stop-color="#FFC943"/>
</linearGradient>
</defs>
</symbol>

<symbol id="11" viewBox="0 0 51 40" >
<path d="M20.6818 0.212402C23.7404 0.212402 27.9563 10.9322 28.4232 11.2226C28.89 11.5137 40.2139 12.8834 41.1532 15.0856C42.0926 17.2878 33.3795 25.2563 33.1629 25.7977C32.9471 26.3398 35.1246 37.6686 33.3331 39.1522C31.5422 40.635 21.3054 34.8371 20.6804 34.8336C20.056 34.83 10.2326 40.666 8.02833 39.1522C5.82333 37.6383 8.35738 26.4108 8.19777 25.7977C8.03887 25.1846 -0.787451 18.0015 0.208174 15.0856C1.2038 12.169 12.5318 11.5243 12.9382 11.2226C13.3446 10.921 17.6218 0.212402 20.6804 0.212402H20.6818Z" fill="#FFBD39"/>
<path d="M20.6821 1.54346C23.5326 1.54346 27.2711 11.9188 27.7063 12.1902C28.1416 12.4616 38.8874 13.3545 39.7635 15.407C40.6389 17.4601 32.3259 24.6945 32.1248 25.2001C31.923 25.7049 34.1442 36.4564 32.4749 37.8388C30.8057 39.2211 21.2643 33.6256 20.6821 33.6221C20.1006 33.6186 10.9439 39.2499 8.88933 37.8388C6.83409 36.4283 9.57979 25.9637 9.43143 25.392C9.28307 24.8211 0.672598 18.126 1.60072 15.4077C2.52885 12.6894 13.4709 12.4721 13.8499 12.1909C14.2289 11.9089 17.831 1.54416 20.6821 1.54416V1.54346Z" fill="url(#paint0_linear_19_585)"/>
<path d="M4.09537 15.9098C3.89709 13.9769 10.2386 12.8393 10.5184 15.1005C10.7983 17.3618 4.36608 18.543 4.09537 15.9098Z" fill="white"/>
<path d="M12.1415 14.4654C12.0937 13.2223 13.9893 13.1464 14.0878 14.1666C14.1981 15.3085 12.1851 15.6284 12.1415 14.4654Z" fill="white"/>
<g opacity="0.6">
<g opacity="0.6">
<path d="M14.9688 23.7377C14.9688 24.9948 13.8642 26.0151 12.5022 26.0151C11.1403 26.0151 10.0356 24.9955 10.0356 23.7377C10.0356 22.4798 11.1403 21.4609 12.5022 21.4609C13.8642 21.4609 14.9688 22.4805 14.9688 23.7377Z" fill="#FF5F82"/>
</g>
<g opacity="0.6">
<path d="M31.3208 23.7377C31.3208 24.9948 30.2162 26.0151 28.8543 26.0151C27.4923 26.0151 26.3877 24.9955 26.3877 23.7377C26.3877 22.4798 27.4923 21.4609 28.8543 21.4609C30.2162 21.4609 31.3208 22.4805 31.3208 23.7377Z" fill="#FF5F82"/>
</g>
</g>
<path d="M25.0986 19.6729C24.4313 19.1083 25.4241 17.418 28.0791 17.418C30.7341 17.418 31.6763 19.071 31.1244 19.6729C30.6477 20.1932 30.0626 18.8798 28.1445 18.8798C26.2264 18.8798 25.6632 20.1489 25.0993 19.6729H25.0986Z" fill="#541300"/>
<path d="M13.7642 15.3929C10.2162 15.6214 11.1788 20.8407 14.03 20.7458C16.8804 20.6502 17.3122 15.1644 13.7642 15.3929Z" fill="#541300"/>
<path d="M19.9413 21.5825C20.1459 20.9982 24.2606 21.8898 24.1164 22.9958C23.973 24.1018 22.3333 24.2157 22.405 24.6474C22.4775 25.0791 24.1846 25.0855 24.1164 26.1901C24.051 27.2511 20.3013 28.2059 20.0847 27.8037C19.7929 27.2602 22.2925 26.8623 22.3165 26.3574C22.3432 25.7977 20.5924 25.2746 20.5186 24.5321C20.444 23.7896 22.4128 23.3094 22.3643 22.9262C22.3164 22.5423 19.7725 22.0627 19.9406 21.5825H19.9413Z" fill="#872A2A"/>
<path d="M14.9955 17.8497C14.241 17.7829 14.0013 19.2088 14.8556 19.341C15.7106 19.4739 16.0671 17.9439 14.9955 17.8497Z" fill="white"/>
<path d="M31.2333 23.4992C27.5222 16.411 22.8091 23.3396 28.3195 29.5988C36.2817 29.7753 39.3241 22.9346 31.2333 23.4992Z" fill="#F94661"/>
<path d="M39.2238 20.4455C33.3949 18.9402 34.8842 25.0665 41.1581 25.1495C45.2749 20.7936 42.9919 15.6446 39.2238 20.4455Z" fill="#F94661"/>
<path d="M48.1387 25.9159C46.2403 22.2245 43.8293 26.0685 46.6488 29.2656C50.722 29.1341 52.2773 25.3851 48.1387 25.9159Z" fill="#F94661"/>
<defs>
<linearGradient id="paint0_linear_19_585" x1="11.1485" y1="10.7924" x2="33.6499" y2="37.8212" gradientUnits="userSpaceOnUse">
<stop offset="0.04" stop-color="#FFF466"/>
<stop offset="0.08" stop-color="#FFF466"/>
<stop offset="0.32" stop-color="#FFEB5F"/>
<stop offset="0.69" stop-color="#FFD54C"/>
<stop offset="0.86" stop-color="#FFC943"/>
</linearGradient>
</defs>
</symbol>

<symbol id="12" viewBox="0 0 42 40" >
<path d="M21.0167 0.212402C24.0753 0.212402 28.2919 10.9322 28.7588 11.2226C29.2257 11.5137 40.5495 12.8834 41.4889 15.0856C42.4282 17.2885 33.7151 25.2563 33.4993 25.7984C33.2834 26.3405 35.4596 37.6693 33.6694 39.1529C31.8786 40.635 21.6418 34.8378 21.0167 34.8343C20.3923 34.8307 10.569 40.666 8.36466 39.1529C6.15966 37.639 8.69372 26.4115 8.53481 25.7984C8.37591 25.1853 -0.450429 18.0022 0.544493 15.0856C1.54012 12.169 12.8682 11.525 13.2746 11.2226C13.681 10.9203 17.9581 0.212402 21.016 0.212402H21.0167Z" fill="#FFBD39"/>
<path d="M21.0167 1.54346C23.8672 1.54346 27.6057 11.9188 28.0409 12.1902C28.4762 12.4616 39.222 13.3545 40.0981 15.4077C40.9735 17.4608 32.6605 24.6952 32.4594 25.2008C32.2576 25.7056 34.4787 36.4578 32.8088 37.8395C31.1403 39.2218 21.5982 33.6263 21.016 33.6228C20.4338 33.6193 11.2777 39.2506 9.22321 37.8395C7.16797 36.429 9.91367 25.9644 9.76531 25.3927C9.61766 24.8218 1.00718 18.1259 1.93461 15.4084C2.86273 12.6901 13.8048 12.4728 14.1838 12.1909C14.5627 11.9089 18.1655 1.54416 21.016 1.54416L21.0167 1.54346Z" fill="url(#paint0_linear_19_568)"/>
<path d="M4.42982 15.9096C4.23224 13.9767 10.573 12.839 10.8529 15.1003C11.132 17.3615 4.70052 18.5428 4.42982 15.9096Z" fill="white"/>
<path d="M12.477 14.4654C12.4292 13.2223 14.3255 13.1464 14.4239 14.1666C14.5336 15.3085 12.5206 15.6284 12.477 14.4654Z" fill="white"/>
<g opacity="0.6">
<g opacity="0.6">
<path d="M15.0557 22.6202C15.0557 23.8781 13.9511 24.8976 12.5891 24.8976C11.2272 24.8976 10.1226 23.8781 10.1226 22.6202C10.1226 21.3623 11.2272 20.3435 12.5891 20.3435C13.9511 20.3435 15.0557 21.363 15.0557 22.6202Z" fill="#FF5F82"/>
</g>
<g opacity="0.6">
<path d="M31.9038 22.6202C31.9038 23.8781 30.7999 24.8976 29.4373 24.8976C28.0746 24.8976 26.9707 23.8781 26.9707 22.6202C26.9707 21.3623 28.0746 20.3435 29.4373 20.3435C30.7999 20.3435 31.9038 21.363 31.9038 22.6202Z" fill="#FF5F82"/>
</g>
</g>
<path d="M11.2335 19.9239C10.6028 19.3902 11.5415 16.5208 14.0517 16.5208C16.5618 16.5208 17.4527 19.355 16.931 19.9239C16.4803 20.4154 15.9262 18.1513 14.1121 18.1513C12.2981 18.1513 11.7658 20.3746 11.2328 19.9239H11.2335Z" fill="#541300"/>
<path d="M25.1422 19.9239C24.5115 19.3902 25.4502 16.5208 27.9604 16.5208C30.4705 16.5208 31.3614 19.355 30.8404 19.9239C30.389 20.4154 29.8356 18.1513 28.0222 18.1513C26.2089 18.1513 25.6759 20.3746 25.1422 19.9239Z" fill="#541300"/>
<path d="M21.7802 28.0829C21.5299 28.7495 23.3398 31.1703 24.6947 32.1413C26.4392 33.3915 29.4134 31.4396 28.6245 29.3605C27.8876 27.417 26.5151 25.3836 25.8879 25.3583C25.556 25.3449 25.1194 26.3813 24.2974 26.9438C23.3876 27.5661 21.9166 27.7194 21.7802 28.0836V28.0829Z" fill="#F982B3"/>
<path d="M26.1882 25.7612C26.4807 24.7537 25.2559 24.4703 24.9535 25.3576C24.0831 27.9065 18.8019 27.7187 17.923 25.3921C17.4955 24.2629 16.445 24.8001 16.6932 25.7296C17.6896 29.466 25.0231 29.7726 26.1889 25.7612H26.1882Z" fill="#872A2A"/>
<defs>
<linearGradient id="paint0_linear_19_568" x1="11.4837" y1="10.7924" x2="33.9844" y2="37.8212" gradientUnits="userSpaceOnUse">
<stop offset="0.04" stop-color="#FFF466"/>
<stop offset="0.08" stop-color="#FFF466"/>
<stop offset="0.32" stop-color="#FFEB5F"/>
<stop offset="0.69" stop-color="#FFD54C"/>
<stop offset="0.86" stop-color="#FFC943"/>
</linearGradient>
</defs>
</symbol>

<symbol id="13" viewBox="0 0 42 40" >
<path d="M20.7231 0.72998C23.7816 0.72998 27.9983 11.4498 28.4645 11.7402C28.9313 12.0313 40.2552 13.401 41.1945 15.6032C42.1339 17.8061 33.4208 25.7739 33.2042 26.316C32.9891 26.8581 35.1652 38.1868 33.3744 39.6697C31.5835 41.1519 21.346 35.3547 20.7216 35.3511C20.0973 35.3476 10.2739 41.1829 8.06962 39.6697C5.86462 38.1559 8.39868 26.9284 8.23977 26.316C8.08087 25.7029 -0.745459 18.5197 0.250166 15.6032C1.24509 12.6866 12.5731 12.0419 12.9802 11.7402C13.3866 11.4379 17.6638 0.72998 20.7223 0.72998H20.7231Z" fill="#FFBD39"/>
<path d="M20.7224 2.06104C23.5728 2.06104 27.3114 12.4363 27.7466 12.7077C28.1818 12.9791 38.9284 13.8721 39.8038 15.9252C40.6792 17.9784 32.3668 25.2128 32.165 25.7177C31.9639 26.2225 34.1844 36.9747 32.5152 38.3563C30.846 39.7387 21.3039 34.1425 20.7217 34.1397C20.1402 34.1362 10.9834 39.7675 8.92887 38.3563C6.87363 36.9459 9.61934 26.4813 9.47098 25.9096C9.32262 25.3387 0.712149 18.6435 1.64027 15.9252C2.5677 13.207 13.5104 12.9897 13.8894 12.7077C14.2684 12.4265 17.8705 2.06104 20.7217 2.06104H20.7224Z" fill="url(#paint0_linear_19_947)"/>
<path d="M4.13639 16.4279C3.93811 14.495 10.2796 13.3573 10.5587 15.6186C10.8386 17.8798 4.40709 19.0611 4.13639 16.4279Z" fill="white"/>
<path d="M12.183 14.9837C12.1352 13.7406 14.0315 13.6647 14.13 14.6849C14.2404 15.8268 12.2273 16.1467 12.183 14.9837Z" fill="white"/>
<g opacity="0.6">
<g opacity="0.6">
<path d="M14.7617 26.3624C14.7617 27.6196 13.6578 28.6398 12.2952 28.6398C10.9325 28.6398 9.82861 27.6203 9.82861 26.3624C9.82861 25.1045 10.9325 24.0857 12.2952 24.0857C13.6578 24.0857 14.7617 25.1052 14.7617 26.3624Z" fill="#FF5F82"/>
</g>
<g opacity="0.6">
<path d="M31.6097 26.3624C31.6097 27.6196 30.5051 28.6398 29.1431 28.6398C27.7812 28.6398 26.6772 27.6203 26.6772 26.3624C26.6772 25.1045 27.7812 24.0857 29.1431 24.0857C30.5051 24.0857 31.6097 25.1052 31.6097 26.3624Z" fill="#FF5F82"/>
</g>
</g>
<path d="M29.3345 20.4702C32.5914 20.6797 31.7082 23.983 29.0912 23.8951C26.4742 23.8072 26.0776 20.2599 29.3345 20.4702Z" fill="#541300"/>
<path d="M28.5011 22.8089C28.7493 23.415 27.4555 24.1582 27.1574 23.5345C26.8389 22.8687 28.2683 22.2401 28.5011 22.8089Z" fill="white"/>
<path d="M30.6528 20.9876C29.3998 20.1221 26.1366 20.1966 24.2368 22.2448C23.6588 22.8481 23.7945 23.2608 24.594 22.8481C25.3934 22.4346 27.7489 21.766 29.07 22.2448" fill="#541300"/>
<path d="M15.4554 20.4702C18.7129 20.6797 17.8291 23.983 15.2121 23.8951C12.5943 23.8072 12.1985 20.2599 15.4554 20.4702Z" fill="#541300"/>
<path d="M14.4122 22.8087C14.6597 23.4148 13.3666 24.158 13.0685 23.5343C12.75 22.8684 14.1795 22.2398 14.4122 22.8087Z" fill="white"/>
<path d="M16.772 20.9876C15.519 20.1221 12.2558 20.1966 10.3567 22.2448C9.77802 22.8481 9.91443 23.2608 10.7139 22.8481C11.5133 22.4346 13.8695 21.766 15.19 22.2448" fill="#541300"/>
<path d="M26.7387 25.7417C27.4474 25.651 27.5944 27.7111 27.1296 28.6505C26.6642 29.5899 20.6524 30.8822 18.1198 30.5011C17.4511 30.4013 17.4722 29.7903 18.1549 29.8057C20.8388 29.8669 25.0132 28.3967 25.6671 27.8215C26.5003 27.0889 26.2092 25.8085 26.7387 25.741V25.7417Z" fill="#872A2A"/>
<path d="M14.9168 16.0118C15.1882 15.2714 13.5844 14.3123 11.674 14.91C10.3824 15.3143 9.29254 17.0658 9.64973 17.3983C10.0069 17.7302 10.381 16.3155 12.06 15.8501C13.5014 15.4507 14.8001 16.3317 14.9168 16.0118Z" fill="#541300"/>
<path d="M26.5218 16.0118C26.2504 15.2714 27.8542 14.3123 29.7646 14.91C31.0562 15.3143 32.1461 17.0658 31.7889 17.3983C31.4317 17.7302 31.0576 16.3155 29.3786 15.8501C27.9372 15.4507 26.6385 16.3317 26.5211 16.0118H26.5218Z" fill="#541300"/>
<defs>
<linearGradient id="paint0_linear_19_947" x1="11.1894" y1="11.3106" x2="33.6901" y2="38.3395" gradientUnits="userSpaceOnUse">
<stop offset="0.04" stop-color="#FFF466"/>
<stop offset="0.08" stop-color="#FFF466"/>
<stop offset="0.32" stop-color="#FFEB5F"/>
<stop offset="0.69" stop-color="#FFD54C"/>
<stop offset="0.86" stop-color="#FFC943"/>
</linearGradient>
</defs>
</symbol>

<symbol id="14" viewBox="0 0 42 40">
<path d="M21.0963 0.730225C24.1549 0.730225 28.3708 11.4501 28.8377 11.7405C29.3046 12.0316 40.6284 13.4012 41.5678 15.6034C42.5071 17.8063 33.794 25.7741 33.5781 26.3162C33.3623 26.8583 35.5392 38.1871 33.7483 39.67C31.9574 41.1522 21.7206 35.3549 21.0963 35.3514C20.4719 35.3479 10.6485 41.1831 8.44425 39.67C6.23925 38.1561 8.77331 26.9286 8.6144 26.3162C8.45479 25.7031 -0.370833 18.52 0.624088 15.6034C1.61971 12.6869 12.9478 12.0421 13.3542 11.7405C13.7606 11.4381 18.037 0.730225 21.0963 0.730225Z" fill="#FFBD39"/>
<path d="M21.096 2.06128C23.9464 2.06128 27.685 12.4366 28.1202 12.708C28.5554 12.9794 39.3013 13.8724 40.1774 15.9255C41.0528 17.9786 32.7397 25.2131 32.5386 25.7179C32.3368 26.2227 34.558 36.9749 32.8888 38.3566C31.2203 39.7389 21.6782 34.1427 21.096 34.1399C20.5138 34.1364 11.3577 39.7677 9.30317 38.3566C7.24793 36.9461 9.99364 26.4815 9.84528 25.9099C9.69692 25.3389 1.08715 18.6438 2.01528 15.9255C2.9434 13.2072 13.8854 12.9899 14.2644 12.708C14.6434 12.4267 18.2462 2.06128 21.0967 2.06128H21.096Z" fill="url(#paint0_linear_19_972)"/>
<path d="M4.50941 16.4281C4.31183 14.4952 10.6526 13.3576 10.9324 15.6188C11.2116 17.8801 4.78011 19.0613 4.50941 16.4281Z" fill="white"/>
<path d="M12.5561 14.984C12.5083 13.7409 14.4046 13.6649 14.503 14.6851C14.6134 15.827 12.6004 16.1469 12.5561 14.984Z" fill="white"/>
<g opacity="0.6">
<g opacity="0.6">
<path d="M15.3833 25.3712C15.3833 26.6291 14.2787 27.6486 12.9168 27.6486C11.5548 27.6486 10.4502 26.6291 10.4502 25.3712C10.4502 24.1133 11.5541 23.0945 12.9168 23.0945C14.2794 23.0945 15.3833 24.114 15.3833 25.3712Z" fill="#FF5F82"/>
</g>
<g opacity="0.6">
<path d="M32.2319 25.3712C32.2319 26.6291 31.128 27.6486 29.7654 27.6486C28.4027 27.6486 27.2988 26.6291 27.2988 25.3712C27.2988 24.1133 28.4034 23.0945 29.7654 23.0945C31.1273 23.0945 32.2319 24.114 32.2319 25.3712Z" fill="#FF5F82"/>
</g>
</g>
<path d="M25.2025 26.8251C25.8838 25.98 24.8987 25.3275 24.2519 26.1121C23.2724 27.2997 19.3863 27.2055 18.3885 26.1121C17.7023 25.3612 16.8205 25.9321 17.4379 26.8251C18.6613 28.5949 23.5375 28.8909 25.2025 26.8251Z" fill="#872A2A"/>
<path d="M7.34531 15.8346C5.99601 16.9139 7.14562 22.1171 8.34234 22.8652C9.53906 23.6126 17.4169 23.6632 18.4139 22.9643C19.4116 22.2661 20.0599 17.1312 18.9131 16.2579C17.7663 15.3853 8.84085 14.6379 7.34531 15.8339V15.8346Z" fill="#0F4E82"/>
<path d="M35.7145 15.8346C37.0631 16.9139 35.9135 22.1171 34.7168 22.8652C33.5201 23.6126 25.643 23.6632 24.6452 22.9643C23.6482 22.2661 22.9999 17.1312 24.1467 16.2579C25.2935 15.3853 34.2183 14.6379 35.7145 15.8339V15.8346Z" fill="#0F4E82"/>
<path d="M24.3987 17.2529H18.6162V18.7112H24.3987V17.2529Z" fill="#0F4E82"/>
<path d="M8.77697 16.6699C7.64283 16.8759 7.68924 18.5655 9.05541 18.5655C10.8364 18.5655 10.6663 16.3275 8.77697 16.6699Z" fill="#4BD0EF"/>
<path d="M25.6305 16.9174C24.4963 17.1234 24.5428 18.8123 25.9089 18.8123C27.6899 18.8123 27.5198 16.5742 25.6305 16.9174Z" fill="#4BD0EF"/>
<defs>
<linearGradient id="paint0_linear_19_972" x1="11.563" y1="11.3109" x2="34.0637" y2="38.3397" gradientUnits="userSpaceOnUse">
<stop offset="0.04" stop-color="#FFF466"/>
<stop offset="0.08" stop-color="#FFF466"/>
<stop offset="0.32" stop-color="#FFEB5F"/>
<stop offset="0.69" stop-color="#FFD54C"/>
<stop offset="0.86" stop-color="#FFC943"/>
</linearGradient>
</defs>
</symbol>

<symbol id="15" viewBox="0 0 42 41">
<path d="M24.2635 0.103824C27.256 0.736636 29.1664 12.0956 29.563 12.4767C29.9596 12.8585 40.756 16.5387 41.2201 18.8878C41.6835 21.2369 31.5121 27.2318 31.1886 27.7176C30.8659 28.2028 30.6535 39.7376 28.5955 40.819C26.5367 41.8997 17.7196 34.1112 17.1085 33.9783C16.4982 33.8461 5.68136 37.5255 3.83706 35.5891C1.99277 33.652 6.79159 23.1909 6.76347 22.5581C6.73394 21.926 -0.416848 13.073 1.16026 10.4257C2.73667 7.77773 13.9536 9.48773 14.4142 9.2768C14.874 9.06515 21.2717 -0.527582 24.2642 0.103824H24.2635Z" fill="#FFBD39"/>
<path d="M23.9881 1.40672C26.7774 1.99594 28.2905 12.919 28.6603 13.2748C29.0302 13.6305 39.3598 16.725 39.7922 18.9145C40.2246 21.1041 30.596 26.464 30.2944 26.9168C29.9934 27.3696 29.9442 38.3482 28.0247 39.3551C26.1059 40.3626 17.9271 32.9158 17.3583 32.7921C16.7895 32.6683 6.66728 36.2859 4.94814 34.4803C3.229 32.6754 8.07775 23.0046 8.05033 22.4147C8.02291 21.8248 0.983222 13.4948 2.45205 11.0269C3.92228 8.55891 14.6731 10.6085 15.102 10.4109C15.5309 10.2134 21.1974 0.817501 23.9867 1.40672H23.9881Z" fill="url(#paint0_linear_19_992)"/>
<path d="M4.79043 12.0344C4.99574 10.1022 11.435 10.2991 11.2416 12.5702C11.0482 14.8406 4.51129 14.6669 4.79043 12.0344Z" fill="white"/>
<path d="M12.9622 12.2848C13.1725 11.0585 15.0428 11.3763 14.9289 12.3951C14.8009 13.5349 12.7646 13.4323 12.9622 12.2848Z" fill="white"/>
<g opacity="0.6">
<g opacity="0.6">
<path d="M11.476 19.7991C11.2159 21.0296 9.92496 21.7988 8.59254 21.5176C7.25942 21.2363 6.39035 20.0101 6.64981 18.7803C6.90996 17.5498 8.20089 16.7806 9.53402 17.0619C10.8664 17.3431 11.7362 18.5694 11.4768 19.7991H11.476Z" fill="#FF5F82"/>
</g>
<g opacity="0.6">
<path d="M32.8132 24.307C32.553 25.5367 31.2621 26.306 29.9289 26.0247C28.5965 25.7435 27.7268 24.5172 27.9862 23.2874C28.2464 22.057 29.5373 21.2878 30.8697 21.5697C32.2021 21.851 33.0719 23.0765 32.8125 24.307H32.8132Z" fill="#FF5F82"/>
</g>
</g>
<path d="M10.8581 15.6416C10.3518 14.9891 11.7089 13.104 14.1656 13.6229C16.6216 14.1418 17.0611 16.3708 16.4339 16.8193C15.8911 17.2075 15.6639 15.6058 13.8886 15.2303C12.1139 14.8555 11.287 16.1929 10.8581 15.6416Z" fill="#541300"/>
<path d="M24.4677 18.5161C23.9607 17.8643 25.3185 15.9785 27.7745 16.4974C30.2312 17.0163 30.67 19.2452 30.0428 19.6938C29.5 20.0813 29.2728 18.4795 27.4975 18.1048C25.7228 17.73 24.8959 19.0674 24.4677 18.5154V18.5161Z" fill="#541300"/>
<path d="M27.4666 28.2071C28.7807 27.5771 30.3093 22.921 29.1232 22.1968C27.1825 21.0141 12.291 18.0518 10.9333 18.3549C9.57557 18.6579 9.09534 23.3921 10.0171 24.5213C11.3784 26.1884 24.7989 29.4867 27.4666 28.2071Z" fill="#917971"/>
<path d="M27.1624 27.7072C28.3971 27.2002 29.7485 23.2719 28.6038 22.6292C25.8904 21.1069 13.4986 18.5588 11.2345 18.9603C9.9513 19.1888 9.59833 23.2072 10.499 24.1873C12.2231 26.0647 24.1249 28.9545 27.1624 27.7072Z" fill="white"/>
<path d="M19.9055 20.0188L18.377 27.241L18.9912 27.371L20.5198 20.1489L19.9055 20.0188Z" fill="#917971"/>
<path d="M16.4325 19.2788L14.9077 26.5017L15.5221 26.6314L17.0468 19.4085L16.4325 19.2788Z" fill="#917971"/>
<path d="M12.9648 18.5434L11.5586 25.1877L12.1729 25.3178L13.5791 18.6735L12.9648 18.5434Z" fill="#917971"/>
<path d="M26.0354 28.2795L25.3667 28.404L26.832 21.4705L27.4458 21.6005L26.0354 28.2795Z" fill="#917971"/>
<path d="M9.81371 21.3325L9.68359 21.9468L28.9155 26.0206L29.0456 25.4064L9.81371 21.3325Z" fill="#917971"/>
<path d="M22.4524 28.0911L21.8379 27.961L23.3644 20.7385L23.9782 20.8679L22.4524 28.0911Z" fill="#917971"/>
<defs>
<linearGradient id="paint0_linear_19_992" x1="12.7483" y1="8.48621" x2="29.1757" y2="39.5825" gradientUnits="userSpaceOnUse">
<stop offset="0.04" stop-color="#FFF466"/>
<stop offset="0.08" stop-color="#FFF466"/>
<stop offset="0.32" stop-color="#FFEB5F"/>
<stop offset="0.69" stop-color="#FFD54C"/>
<stop offset="0.86" stop-color="#FFC943"/>
</linearGradient>
</defs>
</symbol>

<symbol id="16" viewBox="0 0 42 40">
<path d="M21.1391 0.730225C24.1977 0.730225 28.4144 11.4501 28.8812 11.7405C29.3481 12.0316 40.6726 13.4012 41.6113 15.6034C42.5507 17.8063 33.8376 25.7741 33.6217 26.3162C33.4059 26.8583 35.582 38.1871 33.7912 39.67C32.0003 41.1522 21.7635 35.3549 21.1391 35.3514C20.5148 35.3479 10.6914 41.1831 8.48711 39.67C6.28282 38.1561 8.81617 26.9286 8.65726 26.3162C8.49836 25.7031 -0.327978 18.52 0.667646 15.6034C1.66327 12.6869 12.9913 12.0421 13.3977 11.7405C13.8041 11.4381 18.0805 0.730225 21.1391 0.730225Z" fill="#FFBD39"/>
<path d="M21.1393 2.06128C23.9905 2.06128 27.7276 12.4366 28.1635 12.708C28.5987 12.9794 39.3453 13.8724 40.2207 15.9255C41.0954 17.9786 32.783 25.2131 32.5819 25.7179C32.3808 26.2227 34.6013 36.9749 32.9321 38.3566C31.2629 39.7389 21.7215 34.1427 21.1393 34.1399C20.5571 34.1364 11.401 39.7677 9.34577 38.3566C7.29124 36.9461 10.0362 26.4815 9.88788 25.9099C9.73952 25.3389 1.12975 18.6438 2.05717 15.9255C2.98529 13.2072 13.9273 12.9899 14.3063 12.708C14.6853 12.4267 18.2881 2.06128 21.1393 2.06128Z" fill="url(#paint0_linear_19_922)"/>
<path d="M4.55192 16.4281C4.35364 14.4952 10.6951 13.3576 10.975 15.6188C11.2541 17.8801 4.82262 19.0613 4.55192 16.4281Z" fill="white"/>
<path d="M12.5985 14.984C12.5507 13.7409 14.4471 13.6649 14.5455 14.6851C14.6559 15.827 12.6428 16.1469 12.5985 14.984Z" fill="white"/>
<g opacity="0.6">
<g opacity="0.6">
<path d="M15.1773 25.6192C15.1773 26.8764 14.0726 27.8967 12.7107 27.8967C11.3487 27.8967 10.2441 26.8771 10.2441 25.6192C10.2441 24.3614 11.3487 23.3425 12.7107 23.3425C14.0726 23.3425 15.1773 24.3621 15.1773 25.6192Z" fill="#FF5F82"/>
</g>
<g opacity="0.6">
<path d="M32.0254 25.6192C32.0254 26.8764 30.9215 27.8967 29.5589 27.8967C28.1962 27.8967 27.0923 26.8771 27.0923 25.6192C27.0923 24.3614 28.1969 23.3425 29.5589 23.3425C30.9208 23.3425 32.0254 24.3621 32.0254 25.6192Z" fill="#FF5F82"/>
</g>
</g>
<path d="M29.9516 19.6787C33.2085 19.8882 32.3253 23.1915 29.7076 23.1036C27.0899 23.0157 26.694 19.4684 29.9516 19.6787Z" fill="#541300"/>
<path d="M29.1176 22.0173C29.3658 22.6234 28.072 23.3666 27.7739 22.7429C27.4561 22.0763 28.8855 21.4484 29.1176 22.0173Z" fill="white"/>
<path d="M31.2693 20.1961C30.0163 19.3306 26.7531 19.4051 24.8533 21.4533C24.2753 22.0566 24.4117 22.4693 25.2104 22.0566C26.0099 21.6438 28.3654 20.9745 29.6865 21.4533" fill="#541300"/>
<path d="M16.0721 19.6787C19.3296 19.8882 18.4458 23.1915 15.8288 23.1036C13.211 23.0157 12.8152 19.4684 16.0721 19.6787Z" fill="#541300"/>
<path d="M15.0289 22.0173C15.2764 22.6234 13.9833 23.3666 13.6852 22.7429C13.3667 22.0763 14.7961 21.4484 15.0289 22.0173Z" fill="white"/>
<path d="M17.3894 20.1961C16.1364 19.3306 12.8732 19.4051 10.9734 21.4533C10.3947 22.0566 10.5311 22.4693 11.3306 22.0566C12.13 21.6438 14.4855 20.9745 15.806 21.4533" fill="#541300"/>
<path d="M15.333 15.0655C15.6044 14.3251 14.0006 13.366 12.0902 13.9637C10.7986 14.368 9.70804 16.1195 10.0652 16.452C10.4224 16.7839 10.7972 15.3692 12.4762 14.9038C13.9176 14.5044 15.2163 15.3854 15.333 15.0662V15.0655Z" fill="#541300"/>
<path d="M26.9383 15.0655C26.6669 14.3251 28.2707 13.366 30.1811 13.9637C31.4727 14.368 32.5633 16.1195 32.2061 16.452C31.8489 16.7839 31.4748 15.3692 29.7951 14.9038C28.3537 14.5044 27.0557 15.3854 26.9383 15.0662V15.0655Z" fill="#541300"/>
<path d="M24.8048 29.3234C24.6424 29.4956 23.104 28.7538 21.3651 28.7545C19.6087 28.7559 18.0351 29.497 17.8692 29.3234C17.538 28.9767 18.4971 25.7754 21.3356 25.7754C24.1741 25.7754 25.1318 28.9774 24.8048 29.3234Z" fill="#872A2A"/>
<defs>
<linearGradient id="paint0_linear_19_922" x1="11.6056" y1="11.3109" x2="34.1063" y2="38.3397" gradientUnits="userSpaceOnUse">
<stop offset="0.04" stop-color="#FFF466"/>
<stop offset="0.08" stop-color="#FFF466"/>
<stop offset="0.32" stop-color="#FFEB5F"/>
<stop offset="0.69" stop-color="#FFD54C"/>
<stop offset="0.86" stop-color="#FFC943"/>
</linearGradient>
</defs>
</symbol>

<symbol id="17" viewBox="0 0 42 40"  xmlns="http://www.w3.org/2000/svg">
<path d="M20.9733 0.730225C24.0319 0.730225 28.2486 11.4501 28.7147 11.7412C29.1816 12.0322 40.5061 13.4019 41.4448 15.6041C42.3842 17.8063 33.6711 25.7741 33.4552 26.3162C33.2394 26.8583 35.4162 38.1871 33.6254 39.67C31.8345 41.1522 21.5977 35.3549 20.9733 35.3514C20.349 35.3486 10.5256 41.1838 8.32061 39.67C6.11631 38.1561 8.64967 26.9286 8.49076 26.3162C8.33185 25.7031 -0.494482 18.52 0.501142 15.6041C1.49677 12.6876 12.8248 12.0428 13.2312 11.7412C13.6376 11.4388 17.9147 0.730225 20.9726 0.730225H20.9733Z" fill="#FFBD39"/>
<path d="M20.9733 2.06201C23.8237 2.06201 27.5622 12.4373 27.9975 12.708C28.4327 12.9794 39.1793 13.8724 40.0547 15.9248C40.93 17.9779 32.617 25.2124 32.4159 25.7179C32.2148 26.2228 34.4353 36.9743 32.7661 38.3566C31.0969 39.7389 21.5547 34.1428 20.9733 34.14C20.3911 34.1364 11.235 39.7678 9.17975 38.3566C7.12452 36.9461 9.87022 26.4815 9.72186 25.9099C9.5742 25.3389 0.963727 18.6438 1.89115 15.9255C2.81927 13.2072 13.7613 12.99 14.1403 12.7087C14.5193 12.4268 18.1221 2.06272 20.9733 2.06272V2.06201Z" fill="url(#paint0_linear_19_1074)"/>
<path d="M4.38639 16.4275C4.18811 14.4946 10.5296 13.3569 10.8094 15.6189C11.0886 17.8801 4.65709 19.0614 4.38639 16.4275Z" fill="white"/>
<path d="M12.433 14.984C12.3852 13.7409 14.2815 13.6649 14.38 14.6851C14.4904 15.827 12.4773 16.1469 12.433 14.984Z" fill="white"/>
<g opacity="0.6">
<g opacity="0.6">
<path d="M14.8499 25.6195C14.8499 26.8767 13.746 27.8969 12.3833 27.8969C11.0207 27.8969 9.91748 26.8774 9.91748 25.6195C9.91748 24.3616 11.0214 23.3428 12.3833 23.3428C13.7453 23.3428 14.8499 24.3623 14.8499 25.6195Z" fill="#FF5F82"/>
</g>
<g opacity="0.6">
<path d="M31.6983 25.6195C31.6983 26.8767 30.5937 27.8969 29.2317 27.8969C27.8698 27.8969 26.7651 26.8774 26.7651 25.6195C26.7651 24.3616 27.869 23.3428 29.2317 23.3428C30.5944 23.3428 31.6983 24.3623 31.6983 25.6195Z" fill="#FF5F82"/>
</g>
</g>
<path opacity="0.5" d="M0.502684 15.6041C1.17206 12.5962 12.8264 12.0428 13.2328 11.7412C13.6392 11.4388 17.9163 0.730225 20.9742 0.730225C24.0321 0.730225 28.2494 11.4501 28.7156 11.7412C29.1824 12.0322 40.507 13.4019 41.4456 15.6041C41.781 17.1299 39.6914 19.4699 39.0944 20.1773C38.4974 20.8846 33.4792 20.8994 29.4524 18.8294C25.4256 16.7587 17.8375 16.3874 13.6708 18.6177C9.50409 20.848 4.99496 21.5519 2.60293 20.1773C1.2016 18.25 0.234793 16.8037 0.501981 15.6041H0.502684Z" fill="#FF7543"/>
<path opacity="0.8" d="M2.35758 15.5564C2.26125 13.6495 12.9248 12.9619 13.2328 12.7334C13.6392 12.4317 17.9163 1.72314 20.9742 1.72314C24.0321 1.72314 28.0012 11.6984 28.4681 11.9895C28.8358 12.2187 40.8558 14.07 40.3833 16.5457C39.8152 19.5206 30.3483 16.332 21.0459 16.0732C11.4096 15.8053 2.60368 20.4256 2.35758 15.5564Z" fill="#FF6845"/>
<path d="M14.6212 19.096C11.0332 19.3709 12.0063 25.1667 14.8898 25.0514C17.7733 24.9361 18.2093 18.8203 14.6212 19.096Z" fill="#541300"/>
<path d="M15.4868 22.3311C14.669 22.2587 14.4089 23.8048 15.3356 23.9483C16.2623 24.0917 16.6497 22.433 15.4868 22.3311Z" fill="white"/>
<path d="M27.6219 19.096C31.2099 19.3709 30.2368 25.1667 27.3533 25.0514C24.4698 24.9361 24.0331 18.8203 27.6219 19.096Z" fill="#541300"/>
<path d="M26.7556 22.3311C27.574 22.2587 27.8342 23.8048 26.9074 23.9483C25.9807 24.0917 25.594 22.433 26.7556 22.3311Z" fill="white"/>
<path d="M12.9167 15.2758C13.9503 14.5755 17.397 16.5013 17.603 19.1514C17.5524 19.6605 16.6187 18.461 15.3446 17.3381C14.2871 16.4071 12.6467 15.4593 12.9174 15.2758H12.9167Z" fill="#541300"/>
<path d="M28.9925 15.2758C27.9589 14.5755 24.5122 16.5013 24.3062 19.1514C24.3575 19.6605 25.2905 18.461 26.566 17.3381C27.6228 16.4071 29.2625 15.4593 28.9925 15.2758Z" fill="#541300"/>
<path d="M24.922 30.045C24.7442 30.2173 23.0581 29.2273 21.1526 29.2287C19.2281 29.2301 17.5041 30.2194 17.322 30.045C16.9591 29.6991 18.0096 25.7524 21.1202 25.7524C24.2309 25.7524 25.2799 29.6984 24.922 30.045Z" fill="#872A2A"/>
<defs>
<linearGradient id="paint0_linear_19_1074" x1="11.4396" y1="11.3109" x2="33.941" y2="38.3397" gradientUnits="userSpaceOnUse">
<stop offset="0.04" stop-color="#FFF466"/>
<stop offset="0.08" stop-color="#FFF466"/>
<stop offset="0.32" stop-color="#FFEB5F"/>
<stop offset="0.69" stop-color="#FFD54C"/>
<stop offset="0.86" stop-color="#FFC943"/>
</linearGradient>
</defs>
</symbol>

<symbol id="18" viewBox="0 0 42 40">
<path d="M21.0165 0.730225C24.0751 0.730225 28.2917 11.4501 28.7586 11.7405C29.2254 12.0316 40.5493 13.4012 41.4886 15.6034C42.428 17.8056 33.7149 25.7734 33.499 26.3155C33.2832 26.8576 35.4601 38.1864 33.6692 39.67C31.8783 41.1522 21.6415 35.3549 21.0172 35.3514C20.3928 35.3479 10.5694 41.1838 8.36515 39.67C6.16085 38.1561 8.69421 26.9286 8.5353 26.3155C8.3764 25.7031 -0.449941 18.5193 0.544981 15.6034C1.54061 12.6869 12.8687 12.0421 13.2751 11.7405C13.6815 11.4381 17.9586 0.730225 21.0165 0.730225Z" fill="#FFBD39"/>
<path d="M21.0162 2.06128C23.8667 2.06128 27.6052 12.4366 28.0404 12.7073C28.4757 12.9787 39.2222 13.8717 40.0976 15.9241C40.973 17.9772 32.66 25.2117 32.4589 25.7172C32.2578 26.222 34.4783 36.9735 32.809 38.3559C31.1405 39.7382 21.5984 34.1427 21.0162 34.1392C20.434 34.1357 11.278 39.767 9.22273 38.3559C7.16749 36.9454 9.91389 26.4808 9.76483 25.9092C9.61647 25.3382 1.0067 18.6424 1.93412 15.9248C2.86154 13.2065 13.8043 12.9892 14.1833 12.708C14.5623 12.426 18.1651 2.06198 21.0155 2.06198L21.0162 2.06128Z" fill="url(#paint0_linear_19_1051)"/>
<path d="M4.42985 16.4275C4.23157 14.4946 10.5731 13.3569 10.8529 15.6189C11.132 17.8801 4.70055 19.0614 4.42985 16.4275Z" fill="white"/>
<path d="M12.4764 14.9832C12.4293 13.7401 14.325 13.6642 14.4234 14.6844C14.5331 15.8263 12.52 16.1462 12.4764 14.9832Z" fill="white"/>
<g opacity="0.6">
<g opacity="0.6">
<path d="M15.0557 26.0819C15.0557 27.3391 13.9511 28.3593 12.5891 28.3593C11.2272 28.3593 10.1226 27.3398 10.1226 26.0819C10.1226 24.824 11.2272 23.8052 12.5891 23.8052C13.9511 23.8052 15.0557 24.8247 15.0557 26.0819Z" fill="#FF5F82"/>
</g>
<g opacity="0.6">
<path d="M31.9041 26.0819C31.9041 27.3391 30.8002 28.3593 29.4382 28.3593C28.0763 28.3593 26.9717 27.3398 26.9717 26.0819C26.9717 24.824 28.0756 23.8052 29.4382 23.8052C30.8009 23.8052 31.9041 24.8247 31.9041 26.0819Z" fill="#FF5F82"/>
</g>
</g>
<path opacity="0.5" d="M0.54593 15.6042C1.21531 12.5962 12.8696 12.0428 13.276 11.7412C13.6824 11.4388 17.9595 0.730957 21.0174 0.730957C24.0753 0.730957 28.2926 11.4508 28.7588 11.7412C29.2257 12.0323 40.5502 13.402 41.4889 15.6042C41.8243 17.1306 39.7346 19.4699 39.1384 20.1773C38.5414 20.8839 33.5225 20.8994 29.4957 18.8287C25.4689 16.7587 17.8815 16.3867 13.7141 18.617C9.54804 20.8474 5.03891 21.5512 2.64688 20.1766C1.24555 18.2493 0.278742 16.803 0.545226 15.6035L0.54593 15.6042Z" fill="#00FF00"/>
<path d="M14.5127 17.8577C10.9239 18.1326 11.8978 23.9285 14.7806 23.8131C17.6648 23.6971 18.1007 17.5821 14.5127 17.8577Z" fill="#541300"/>
<path d="M15.3787 21.0928C14.5609 21.0204 14.3001 22.5665 15.2275 22.71C16.1542 22.8534 16.5416 21.1948 15.3787 21.0928Z" fill="white"/>
<path d="M27.5134 17.8577C31.1015 18.1326 30.1283 23.9285 27.2448 23.8131C24.362 23.6971 23.9254 17.5821 27.5134 17.8577Z" fill="#541300"/>
<path d="M26.6477 21.0928C27.4661 21.0204 27.7263 22.5665 26.7995 22.71C25.8728 22.8534 25.4861 21.1948 26.6477 21.0928Z" fill="white"/>
<path d="M17.2177 13.2357C17.5545 14.2637 15.4128 17.1978 12.8681 16.2156C12.4568 16.0517 13.894 15.5638 15.1336 14.7699C16.1623 14.1111 17.1291 12.9678 17.217 13.2364L17.2177 13.2357Z" fill="#541300"/>
<path d="M24.7912 13.2357C24.4544 14.2637 26.6833 17.1978 29.1407 16.2156C29.552 16.0517 28.1149 15.5638 26.8752 14.7699C25.8466 14.1111 24.8798 12.9678 24.7912 13.2364V13.2357Z" fill="#541300"/>
<path d="M25.3171 30.2978C25.116 30.4497 23.2064 29.5743 21.0492 29.575C18.8695 29.5764 16.9183 30.4518 16.7123 30.2978C16.3017 29.9912 17.4914 26.4995 21.0133 26.4995C24.5353 26.4995 25.7228 29.9912 25.3178 30.2978H25.3171Z" fill="#872A2A"/>
<defs>
<linearGradient id="paint0_linear_19_1051" x1="11.4826" y1="11.3109" x2="33.9839" y2="38.3397" gradientUnits="userSpaceOnUse">
<stop offset="0.04" stop-color="#FFF466"/>
<stop offset="0.08" stop-color="#FFF466"/>
<stop offset="0.32" stop-color="#FFEB5F"/>
<stop offset="0.69" stop-color="#FFD54C"/>
<stop offset="0.86" stop-color="#FFC943"/>
</linearGradient>
</defs>
</symbol>

<symbol id="19" viewBox="0 0 42 41" >
<path d="M20.7233 0.841797C23.7819 0.841797 27.9986 11.5616 28.4647 11.8527C28.9316 12.1438 40.2561 13.5135 41.1948 15.7157C42.1342 17.9179 33.4211 25.8857 33.2052 26.4278C32.9893 26.9699 35.1662 38.2987 33.3754 39.7815C31.5845 41.2637 21.3477 35.4665 20.7226 35.4629C20.0982 35.4594 10.2749 41.2947 8.07059 39.7815C5.86559 38.2677 8.39966 27.0402 8.24075 26.4278C8.08184 25.8147 -0.744482 18.6316 0.251142 15.7157C1.24677 12.7991 12.5748 12.1544 12.9812 11.8527C13.3876 11.5504 17.6647 0.841797 20.7233 0.841797Z" fill="#FFBD39"/>
<path d="M20.7233 2.17285C23.5744 2.17285 27.3122 12.5482 27.7475 12.8189C28.1827 13.0903 38.9293 13.9832 39.8047 16.0357C40.6801 18.0888 32.367 25.3232 32.1659 25.8281C31.9648 26.3329 34.1853 37.0851 32.5161 38.4668C30.8468 39.8491 21.3047 34.2529 20.7226 34.2501C20.1404 34.2466 10.9843 39.8779 8.92975 38.4668C6.87451 37.0563 9.62021 26.5917 9.47186 26.02C9.3235 25.4491 0.713732 18.7539 1.64115 16.0357C2.56928 13.3174 13.5113 13.1001 13.8903 12.8189C14.2693 12.5369 17.8721 2.17285 20.7226 2.17285H20.7233Z" fill="url(#paint0_linear_19_1016)"/>
<path d="M4.37847 16.7218C4.2055 14.7868 10.561 13.7314 10.8121 15.9969C11.0617 18.2623 4.61542 19.3585 4.37847 16.7218Z" fill="white"/>
<path d="M12.4433 15.3832C12.4116 14.1394 14.3087 14.0888 14.3937 15.1097C14.4887 16.253 12.4721 16.5469 12.4433 15.3832Z" fill="white"/>
<g opacity="0.6">
<g opacity="0.6">
<path d="M14.8135 24.9862C14.8135 26.2434 13.7089 27.2636 12.3469 27.2636C10.985 27.2636 9.88037 26.2441 9.88037 24.9862C9.88037 23.7283 10.9843 22.7095 12.3469 22.7095C13.7096 22.7095 14.8135 23.729 14.8135 24.9862Z" fill="#FF5F82"/>
</g>
<g opacity="0.6">
<path d="M31.1663 24.9864C31.1663 26.2436 30.0617 27.2639 28.6997 27.2639C27.3378 27.2639 26.2339 26.2443 26.2339 24.9864C26.2339 23.7285 27.3378 22.7097 28.6997 22.7097C30.0617 22.7097 31.1663 23.7292 31.1663 24.9864Z" fill="#FF5F82"/>
</g>
</g>
<path d="M20.8691 25.9388C19.2378 24.1346 17.236 26.1055 16.8184 27.8422C20.1448 28.6719 24.3031 28.1811 24.8171 27.909C24.2328 25.7708 22.572 24.3856 20.8691 25.9388Z" fill="#F4374E"/>
<path d="M17.5249 27.728C18.8503 32.4671 23.5422 31.5319 24.1104 27.8251Z" fill="#F4374E"/>
<path d="M15.9695 15.0375C16.416 14.3315 14.969 12.9808 12.8582 13.1728C11.4316 13.3029 9.9107 14.8736 10.2067 15.2969C10.502 15.7202 11.2059 14.3386 13.048 14.2317C14.6294 14.1403 15.7769 15.3419 15.9695 15.0368V15.0375Z" fill="#541300"/>
<path d="M25.2183 15.0375C24.7719 14.3315 26.2182 12.9808 28.329 13.1728C29.7563 13.3029 31.2765 14.8736 30.9804 15.2969C30.6851 15.7202 29.9813 14.3386 28.1391 14.2317C26.5585 14.1403 25.4103 15.3419 25.2176 15.0368L25.2183 15.0375Z" fill="#541300"/>
<path d="M13.445 18.6422C17.3186 18.8912 16.2681 22.8195 13.1553 22.7155C10.0426 22.6114 9.57222 18.3926 13.445 18.6422Z" fill="#541300"/>
<path d="M14.8043 18.9487C12.6745 17.9678 9.53717 19.3621 9.12162 20.7564C9.04006 21.4617 11.4848 20.3479 12.7969 20.1862" fill="#541300"/>
<path d="M14.7279 20.7578C15.5477 21.115 15.1434 22.9881 14.2568 22.6612C13.3111 22.3131 13.9586 20.4231 14.7279 20.7578Z" fill="white"/>
<path d="M27.7434 18.642C23.8699 18.8909 24.9204 22.8193 28.0331 22.7152C31.1458 22.6112 31.6162 18.3924 27.7434 18.642Z" fill="#541300"/>
<path d="M26.3838 18.9487C28.4123 17.9678 31.6509 19.3621 32.0664 20.7564C32.148 21.4617 29.7032 20.3479 28.3912 20.1862" fill="#541300"/>
<path d="M26.46 20.7578C25.6401 21.115 26.0451 22.9881 26.9311 22.6612C27.8768 22.3131 27.2292 20.4231 26.46 20.7578Z" fill="white"/>
<path d="M9.89672 9.63227C9.89672 9.63227 4.24219 6.10257 1.78758 8.14937C-0.667731 10.1969 2.79938 13.536 3.31899 13.96C3.8386 14.384 2.55188 16.9272 4.4025 18.1584C6.25313 19.3874 10.1027 14.4529 10.763 12.3787" fill="#FF7676"/>
<path d="M12.8555 8.56554C12.8555 8.56554 14.9592 2.24023 18.1563 2.25148C21.3527 2.26273 20.812 7.04539 20.682 7.70492C20.5526 8.36304 23.1647 9.50139 22.5234 11.6297C21.8836 13.7567 15.7699 12.4102 13.939 11.2346" fill="#FF7676"/>
<path d="M9.47605 9.38673C8.54652 10.5588 9.83887 13.3242 12.6612 12.3068C15.3696 11.3309 14.4134 8.31095 12.9931 8.11829C11.5728 7.92704 10.0983 8.59994 9.47605 9.38673Z" fill="#FF7676"/>
<path d="M9.05018 9.75249C8.82378 8.8321 4.23659 6.77687 2.84862 8.19296C1.46206 9.61187 3.09401 11.5448 3.90471 11.9849C4.35893 12.2324 4.69081 12.5355 4.53964 13.4277C4.31534 14.7461 5.03464 16.6452 6.07526 16.6065C7.5905 16.5503 10.3573 13.3511 9.66471 11.4287C9.40948 11.0617 7.67417 13.3757 6.8712 11.6101C5.903 9.48037 9.22948 10.4837 9.05018 9.75319V9.75249Z" fill="#FFA1A1"/>
<path d="M13.4258 8.14383C13.0081 7.30008 15.4923 2.72836 17.5862 2.88375C19.6808 3.03914 19.588 5.57321 19.1999 6.43805C18.9819 6.92391 18.9052 7.3725 19.6196 7.94555C20.675 8.79211 21.3233 10.6983 20.4275 11.3543C19.1232 12.3091 14.702 11.7178 14.015 9.81164C13.9869 9.36727 16.9625 9.96914 16.4703 8.10797C15.879 5.8643 13.7563 8.81321 13.4258 8.14383Z" fill="#FFA1A1"/>
<path d="M10.4541 9.00634C9.46976 9.70946 10.0055 11.835 12.3631 10.9793C14.72 10.1243 13.3988 6.9047 10.4541 9.00634Z" fill="#FFA1A1"/>
<defs>
<linearGradient id="paint0_linear_19_1016" x1="11.1896" y1="11.4225" x2="33.691" y2="38.4513" gradientUnits="userSpaceOnUse">
<stop offset="0.05" stop-color="#FFF466"/>
<stop offset="0.28" stop-color="#FFED60"/>
<stop offset="0.62" stop-color="#FFDA51"/>
<stop offset="0.86" stop-color="#FFC943"/>
</linearGradient>
</defs>
</symbol>

<symbol id="20" viewBox="0 0 51 41" >
<path d="M20.7955 0.841797C23.8541 0.841797 28.07 11.5616 28.5369 11.8527C29.0038 12.1438 40.3276 13.5135 41.267 15.7157C42.2063 17.9179 33.4932 25.8857 33.2774 26.4278C33.0615 26.9699 35.2384 38.2987 33.4475 39.7815C31.6567 41.2637 21.4199 35.4665 20.7948 35.4629C20.1704 35.4594 10.3471 41.2947 8.14276 39.7815C5.93776 38.2677 8.47182 27.0402 8.31292 26.4278C8.15401 25.8147 -0.671614 18.6316 0.323307 15.7157C1.31823 12.7991 12.6463 12.1544 13.0527 11.8527C13.4591 11.5504 17.7362 0.841797 20.7948 0.841797H20.7955Z" fill="#FFBD39"/>
<path d="M20.7956 2.17285C23.6468 2.17285 27.3853 12.5482 27.8198 12.8189C28.2551 13.0903 39.0009 13.9832 39.877 16.0357C40.7524 18.0888 32.4394 25.3232 32.2383 25.8281C32.0372 26.3329 34.2576 37.0851 32.5884 38.4668C30.9192 39.8491 21.3771 34.2529 20.7949 34.2501C20.2134 34.2466 11.0566 39.8779 9.00211 38.4668C6.94687 37.0563 9.69187 26.5917 9.54422 26.02C9.39586 25.4491 0.785392 18.7539 1.71352 16.0357C2.64164 13.3174 13.5837 13.1001 13.9627 12.8189C14.3416 12.5369 17.9437 2.17285 20.7949 2.17285H20.7956Z" fill="url(#paint0_linear_19_839)"/>
<path d="M4.20866 16.5397C4.01037 14.6068 10.3519 13.4692 10.6317 15.7304C10.9115 17.9924 4.47936 19.1729 4.20866 16.5397Z" fill="white"/>
<path d="M12.2553 15.0955C12.2075 13.8517 14.1031 13.7765 14.2015 14.7967C14.3119 15.9386 12.2989 16.2585 12.2553 15.0955Z" fill="white"/>
<g opacity="0.6">
<g opacity="0.6">
<path d="M14.8345 25.2347C14.8345 26.4926 13.7299 27.5121 12.3679 27.5121C11.006 27.5121 9.90137 26.4926 9.90137 25.2347C9.90137 23.9768 11.006 22.958 12.3679 22.958C13.7299 22.958 14.8345 23.9775 14.8345 25.2347Z" fill="#FF5F82"/>
</g>
<g opacity="0.6">
<path d="M31.6824 25.2342C31.6824 26.4921 30.5785 27.5117 29.2166 27.5117C27.8546 27.5117 26.75 26.4921 26.75 25.2342C26.75 23.9763 27.8539 22.9575 29.2166 22.9575C30.5792 22.9575 31.6824 23.977 31.6824 25.2342Z" fill="#FF5F82"/>
</g>
</g>
<path d="M10.6811 21.3131C10.0743 20.8005 10.9764 18.521 13.3881 18.521C15.7998 18.521 16.6548 20.7668 16.1542 21.3131C15.7211 21.7856 15.1895 19.8485 13.4464 19.8485C11.7034 19.8485 11.1922 21.7462 10.6811 21.3131Z" fill="#541300"/>
<path d="M25.5289 21.3131C24.9228 20.8005 25.8242 18.521 28.236 18.521C30.6477 18.521 31.5027 20.7668 31.0021 21.3131C30.5689 21.7856 30.0374 19.8485 28.295 19.8485C26.5527 19.8485 26.0408 21.7462 25.5289 21.3131Z" fill="#541300"/>
<path d="M30.0625 19.6755C31.0539 19.549 31.4709 19.0744 31.873 18.7087C32.2759 18.3431 32.4883 19.9715 30.8929 20.4876C32.0404 20.7625 32.7091 20.051 32.8813 20.1797C33.2266 20.437 31.7774 21.7786 30.7698 21.3679" fill="#541300"/>
<path d="M11.6176 19.6755C10.6262 19.549 10.2093 19.0744 9.80639 18.7087C9.4042 18.3431 9.19115 19.9715 10.7865 20.4876C9.63975 20.7625 8.97037 20.051 8.79811 20.1797C8.45287 20.437 9.90201 21.7786 10.9089 21.3679" fill="#541300"/>
<path d="M10.5767 10.3515C10.5767 10.3515 5.23792 7.01874 2.91972 8.95093C0.601513 10.8838 3.87456 14.0373 4.36604 14.4374C4.85683 14.8382 3.64183 17.2394 5.38909 18.4016C7.13565 19.5625 10.7715 14.9022 11.3952 12.9447" fill="#FF7676"/>
<path d="M13.3711 9.34462C13.3711 9.34462 15.3574 3.37298 18.3759 3.38282C21.3945 3.39337 20.8833 7.90885 20.7609 8.53112C20.6386 9.15268 23.1059 10.2278 22.4998 12.2373C21.8951 14.2454 16.1224 12.9742 14.3934 11.8639" fill="#FF7676"/>
<path d="M10.1796 10.1189C9.30207 11.2256 10.522 13.837 13.1868 12.8765C15.7441 11.9547 14.8413 9.10356 13.4997 8.92215C12.1589 8.74145 10.7667 9.37708 10.1789 10.1189H10.1796Z" fill="#FF7676"/>
<path d="M9.77758 10.4654C9.56383 9.59631 5.23258 7.65569 3.92195 8.99303C2.61203 10.3325 4.15328 12.1578 4.91898 12.5734C5.34789 12.8068 5.66078 13.0937 5.51805 13.936C5.3057 15.1812 5.98562 16.9742 6.96789 16.9369C8.39875 16.8835 11.0109 13.8636 10.357 12.0474C10.1165 11.7015 8.4775 13.8861 7.71953 12.219C6.80547 10.208 9.94633 11.1558 9.77687 10.4661L9.77758 10.4654Z" fill="#FFA1A1"/>
<path d="M13.9088 8.94585C13.5157 8.14921 15.8607 3.83272 17.8378 3.97897C19.815 4.12593 19.7278 6.51797 19.3608 7.33571C19.1548 7.79414 19.0831 8.21742 19.7574 8.75813C20.7537 9.55828 21.3668 11.3576 20.5203 11.977C19.2884 12.8791 15.1139 12.3208 14.4664 10.5208C14.4389 10.1011 17.2486 10.6699 16.7846 8.91211C16.2263 6.79359 14.2217 9.57726 13.9088 8.94585Z" fill="#FFA1A1"/>
<path d="M11.1034 9.76016C10.1739 10.4232 10.6794 12.4313 12.9062 11.6234C15.1316 10.8155 13.8843 7.77664 11.1034 9.76016Z" fill="#FFA1A1"/>
<path d="M19.8756 23.573C20.0803 22.9887 24.1949 23.8802 24.0515 24.9869C23.9074 26.0929 22.2677 26.2069 22.3401 26.6386C22.4118 27.0703 24.1197 27.0766 24.0515 28.1805C23.9861 29.2416 20.2356 30.1964 20.0198 29.7942C19.728 29.2507 22.2276 28.8527 22.2515 28.3486C22.2782 27.7889 20.5274 27.2658 20.4536 26.5233C20.3805 25.7808 22.3478 25.3005 22.2993 24.9173C22.2515 24.5334 19.7076 24.0532 19.8756 23.5737V23.573Z" fill="#872A2A"/>
<path d="M31.1675 25.4897C27.4571 18.4015 22.7433 25.3301 28.2544 31.5893C36.2166 31.7658 39.2583 24.9251 31.1675 25.4897Z" fill="#F94661"/>
<path d="M39.6552 22.9319C33.8263 21.4265 35.3148 27.5535 41.5895 27.6358C45.7063 23.2799 43.4233 18.1309 39.6552 22.9319Z" fill="#F94661"/>
<path d="M48.0736 27.9058C46.1745 24.2144 43.7649 28.0591 46.5837 31.2555C50.6569 31.124 52.2129 27.3749 48.0736 27.9058Z" fill="#F94661"/>
<defs>
<linearGradient id="paint0_linear_19_839" x1="11.2627" y1="11.4225" x2="33.7634" y2="38.4513" gradientUnits="userSpaceOnUse">
<stop offset="0.04" stop-color="#FFF466"/>
<stop offset="0.08" stop-color="#FFF466"/>
<stop offset="0.32" stop-color="#FFEB5F"/>
<stop offset="0.69" stop-color="#FFD54C"/>
<stop offset="0.86" stop-color="#FFC943"/>
</linearGradient>
</defs>
</symbol>

<symbol id="21" viewBox="0 0 42 41" >
<path d="M21.0407 0.841797C24.0986 0.841797 28.3152 11.5616 28.7821 11.8527C29.249 12.1438 40.5728 13.5135 41.5122 15.7157C42.4509 17.9179 33.7377 25.8857 33.5226 26.4278C33.3067 26.9699 35.4836 38.2987 33.6927 39.7815C31.9019 41.2637 21.6651 35.4665 21.0407 35.4629C20.4163 35.4594 10.593 41.2947 8.38797 39.7815C6.18297 38.2677 8.71704 27.0402 8.55813 26.4278C8.39923 25.8147 -0.427099 18.6316 0.568525 15.7157C1.56345 12.7991 12.8915 12.1544 13.2979 11.8527C13.7043 11.5504 17.9821 0.841797 21.04 0.841797H21.0407Z" fill="#FFBD39"/>
<path d="M21.04 2.17358C23.8912 2.17358 27.6297 12.5489 28.0643 12.8196C28.4995 13.091 39.246 13.984 40.1214 16.0371C40.9968 18.0895 32.6838 25.3247 32.4827 25.8295C32.2816 26.3343 34.5021 37.0858 32.8335 38.4682C31.1643 39.8505 21.6229 34.2543 21.04 34.2515C20.4586 34.248 11.3018 39.8793 9.24723 38.4682C7.19199 37.0577 9.93769 26.5931 9.78933 26.0215C9.64098 25.4505 1.03051 18.7554 1.95863 16.0371C2.88676 13.3188 13.8288 13.1016 14.2078 12.8196C14.5868 12.5377 18.1896 2.17358 21.04 2.17358Z" fill="url(#paint0_linear_19_812)"/>
<path d="M4.45377 16.5397C4.25549 14.6068 10.597 13.4692 10.8768 15.7304C11.1567 17.9916 4.72448 19.1729 4.45377 16.5397Z" fill="white"/>
<path d="M12.5004 15.0955C12.4526 13.8517 14.3482 13.7765 14.4467 14.7967C14.557 15.9386 12.544 16.2585 12.5004 15.0955Z" fill="white"/>
<g opacity="0.6">
<g opacity="0.6">
<path d="M15.0796 25.2362C15.0796 26.4934 13.975 27.5136 12.6131 27.5136C11.2511 27.5136 10.1465 26.4941 10.1465 25.2362C10.1465 23.9783 11.2511 22.9595 12.6131 22.9595C13.975 22.9595 15.0796 23.979 15.0796 25.2362Z" fill="#FF5F82"/>
</g>
<g opacity="0.6">
<path d="M31.9285 25.2359C31.9285 26.4931 30.8246 27.5134 29.4627 27.5134C28.1007 27.5134 26.9961 26.4938 26.9961 25.2359C26.9961 23.978 28.1 22.9592 29.4627 22.9592C30.8253 22.9592 31.9285 23.9788 31.9285 25.2359Z" fill="#FF5F82"/>
</g>
</g>
<path d="M10.9307 21.8539C10.3246 21.3413 11.2267 19.061 13.6384 19.061C16.0502 19.061 16.9059 21.3075 16.4045 21.8539C15.9714 22.3264 15.4391 20.3892 13.6968 20.3892C11.9545 20.3892 11.4426 22.287 10.9307 21.8539Z" fill="#541300"/>
<path d="M25.7794 21.8539C25.1733 21.3413 26.0747 19.061 28.4871 19.061C30.8996 19.061 31.7546 21.3075 31.2532 21.8539C30.8201 22.3264 30.2885 20.3892 28.5455 20.3892C26.8025 20.3892 26.292 22.287 25.7794 21.8539Z" fill="#541300"/>
<path d="M18.5673 25.1459C18.997 24.8 23.7951 24.8 24.2303 25.1459C24.6663 25.4919 23.9308 29.6895 21.4642 29.6895C18.9977 29.6895 18.1377 25.4926 18.5673 25.1459Z" fill="#872A2A"/>
<path d="M21.4712 27.5669C21.2596 27.5852 20.3778 26.7485 19.8076 27.1457C19.2374 27.543 20.3082 29.286 21.5028 29.2544C22.6982 29.2234 23.5068 27.5085 23.0054 27.1457C22.5048 26.7829 21.8734 27.5324 21.4712 27.5669Z" fill="#F982B3"/>
<path d="M30.313 20.2156C31.3044 20.089 31.7206 19.6144 32.1235 19.2488C32.5264 18.8831 32.7388 20.5116 31.1434 21.0277C32.2902 21.3026 32.9595 20.591 33.1318 20.7197C33.477 20.977 32.0272 22.3186 31.0203 21.9073" fill="#541300"/>
<path d="M11.8679 20.2156C10.8765 20.089 10.4603 19.6144 10.0574 19.2488C9.65447 18.8831 9.44213 20.5116 11.0375 21.0277C9.89002 21.3026 9.22064 20.591 9.04908 20.7197C8.70385 20.977 10.153 22.3186 11.1606 21.9073" fill="#541300"/>
<path d="M10.0981 10.852C10.0981 10.852 4.7593 7.51923 2.4411 9.45142C0.122895 11.3843 3.39664 14.5378 3.88742 14.9379C4.3782 15.3387 3.16391 17.7399 4.91047 18.9021C6.65703 20.063 10.2929 15.4034 10.9166 13.4452" fill="#FF7676"/>
<path d="M12.8931 9.84511C12.8931 9.84511 14.8794 3.87277 17.8972 3.88331C20.9157 3.89386 20.4045 8.40933 20.2829 9.03159C20.1606 9.65315 22.6271 10.7282 22.0217 12.7378C21.417 14.7459 15.6444 13.4746 13.9154 12.3644" fill="#FF7676"/>
<path d="M9.70134 10.62C8.82314 11.7268 10.0438 14.3382 12.7086 13.377C15.2659 12.4552 14.3624 9.60402 13.0208 9.42262C11.6799 9.24191 10.2884 9.87824 9.70063 10.6193L9.70134 10.62Z" fill="#FF7676"/>
<path d="M9.29908 10.9659C9.08533 10.0968 4.75408 8.15618 3.44345 9.49352C2.13353 10.833 3.67478 12.6583 4.43978 13.0738C4.86869 13.3073 5.18228 13.5941 5.03954 14.4365C4.8272 15.6817 5.50712 17.4747 6.48938 17.4374C7.91954 17.3847 10.5324 14.3641 9.87845 12.5479C9.63798 12.202 7.9997 14.3866 7.24103 12.7194C6.32697 10.7085 9.46853 11.6556 9.29908 10.9659Z" fill="#FFA1A1"/>
<path d="M13.4309 9.44633C13.0371 8.64969 15.3821 4.33321 17.36 4.47946C19.3378 4.62641 19.2507 7.01844 18.8836 7.83618C18.6776 8.29461 18.6059 8.71789 19.2795 9.2586C20.2758 10.0588 20.8889 11.8581 20.0431 12.4775C18.8112 13.3789 14.636 12.8213 13.9885 11.0206C13.961 10.6009 16.7714 11.1697 16.3067 9.41187C15.7477 7.29336 13.7445 10.077 13.4316 9.44562L13.4309 9.44633Z" fill="#FFA1A1"/>
<path d="M10.6253 10.2614C9.69573 10.9252 10.202 12.9326 12.4274 12.1247C14.6535 11.3168 13.4054 8.27721 10.6253 10.2614Z" fill="#FFA1A1"/>
<defs>
<linearGradient id="paint0_linear_19_812" x1="11.5071" y1="11.4225" x2="34.0085" y2="38.4513" gradientUnits="userSpaceOnUse">
<stop offset="0.04" stop-color="#FFF466"/>
<stop offset="0.08" stop-color="#FFF466"/>
<stop offset="0.32" stop-color="#FFEB5F"/>
<stop offset="0.69" stop-color="#FFD54C"/>
<stop offset="0.86" stop-color="#FFC943"/>
</linearGradient>
</defs>
</symbol>

<symbol id="22" viewBox="0 0 42 41" >
<path d="M20.6994 0.841797C23.758 0.841797 27.9739 11.5616 28.4408 11.8527C28.9077 12.1438 40.2315 13.5135 41.1709 15.7157C42.1103 17.9179 33.3971 25.8857 33.1813 26.4278C32.9654 26.9699 35.1423 38.2987 33.3514 39.7815C31.5606 41.2637 21.3231 35.4665 20.6987 35.4629C20.0743 35.4594 10.2517 41.2947 8.04668 39.7815C5.84168 38.2677 8.37574 27.0402 8.21683 26.4278C8.05793 25.8147 -0.768408 18.6316 0.227217 15.7157C1.22214 12.7991 12.5502 12.1544 12.9573 11.8527C13.3637 11.5504 17.6408 0.841797 20.6994 0.841797Z" fill="#FFBD39"/>
<path d="M20.6989 2.17285C23.5494 2.17285 27.2879 12.5482 27.7231 12.8189C28.1584 13.0903 38.9042 13.9832 39.7803 16.0357C40.6557 18.0888 32.3427 25.3232 32.1416 25.8281C31.9405 26.3329 34.1609 37.0851 32.4924 38.4668C30.8232 39.8491 21.2811 34.2529 20.6996 34.2501C20.1174 34.2466 10.9613 39.8779 8.90681 38.4668C6.85157 37.0563 9.59657 26.5917 9.44891 26.02C9.30055 25.4491 0.690783 18.7539 1.6182 16.0357C2.54633 13.3174 13.4884 13.1001 13.8673 12.8189C14.2463 12.5369 17.8484 2.17285 20.6996 2.17285H20.6989Z" fill="url(#paint0_linear_19_869)"/>
<path d="M4.11295 16.5397C3.91467 14.6068 10.2562 13.4692 10.5353 15.7304C10.8151 17.9924 4.38366 19.1729 4.11295 16.5397Z" fill="white"/>
<path d="M12.1591 15.0955C12.1113 13.8517 14.0076 13.7765 14.1053 14.7967C14.2157 15.9386 12.2027 16.2585 12.1591 15.0955Z" fill="white"/>
<g opacity="0.6">
<g opacity="0.6">
<path d="M15.2339 25.2345C15.2339 26.4924 14.1293 27.5119 12.7673 27.5119C11.4054 27.5119 10.3008 26.4924 10.3008 25.2345C10.3008 23.9766 11.4054 22.9578 12.7673 22.9578C14.1293 22.9578 15.2339 23.9773 15.2339 25.2345Z" fill="#FF5F82"/>
</g>
<g opacity="0.6">
<path d="M31.586 25.2345C31.586 26.4924 30.4821 27.5119 29.1202 27.5119C27.7582 27.5119 26.6543 26.4924 26.6543 25.2345C26.6543 23.9766 27.7582 22.9578 29.1202 22.9578C30.4821 22.9578 31.586 23.9773 31.586 25.2345Z" fill="#FF5F82"/>
</g>
</g>
<path d="M25.2419 22.564C24.574 21.9994 25.5675 20.3091 28.2218 20.3091C30.8761 20.3091 31.8183 21.9621 31.267 22.564C30.7896 23.0836 30.2053 21.7709 28.2865 21.7709C26.3676 21.7709 25.8051 23.0407 25.2419 22.564Z" fill="#541300"/>
<path d="M24.4909 26.3449C25.1722 25.4997 24.1872 24.8472 23.5403 25.6319C22.5601 26.8195 18.6747 26.7253 17.6762 25.6319C16.9907 24.881 16.109 25.4519 16.7256 26.3449C17.949 28.1146 22.8252 28.4107 24.4902 26.3449H24.4909Z" fill="#872A2A"/>
<path d="M9.78379 10.8445C9.78379 10.8445 4.44425 7.511 2.12675 9.44389C-0.191456 11.3768 3.0816 14.5303 3.57308 14.9304C4.06386 15.3311 2.84886 17.7323 4.59613 18.8946C6.34269 20.0554 9.97854 15.3958 10.6022 13.4376" fill="#FF7676"/>
<path d="M12.5781 9.83754C12.5781 9.83754 14.5644 3.8652 17.583 3.87575C20.6008 3.88629 20.0903 8.40176 19.968 9.02473C19.8456 9.64629 22.3122 10.7214 21.7068 12.7309C21.1021 14.739 15.3295 13.4678 13.6005 12.3575" fill="#FF7676"/>
<path d="M9.38652 10.6125C8.50902 11.7192 9.72965 14.3306 12.3945 13.3702C14.9518 12.4484 14.0482 9.59719 12.7074 9.41578C11.3665 9.23508 9.97433 9.87141 9.38652 10.6125Z" fill="#FF7676"/>
<path d="M8.98461 10.9583C8.77086 10.0892 4.43961 8.14861 3.12898 9.48595C1.81906 10.8254 3.36032 12.6507 4.12602 13.0663C4.55493 13.2997 4.86782 13.5866 4.72509 14.4289C4.51274 15.6742 5.19266 17.4671 6.17492 17.4299C7.60578 17.3771 10.2179 14.3565 9.56469 12.5403C9.32351 12.1944 7.68523 14.379 6.92726 12.7119C6.0132 10.701 9.15406 11.6481 8.98461 10.9583Z" fill="#FFA1A1"/>
<path d="M13.1158 9.43877C12.7228 8.64213 15.0677 4.32564 17.0456 4.47189C19.0228 4.61885 18.9356 7.01087 18.5685 7.82861C18.3625 8.28705 18.2908 8.71034 18.9651 9.25105C19.9607 10.0512 20.5739 11.8505 19.728 12.4699C18.4961 13.3713 14.3217 12.8138 13.6734 11.0138C13.6467 10.594 16.4564 11.1628 15.9916 9.40503C15.4333 7.28651 13.4287 10.0702 13.1158 9.43877Z" fill="#FFA1A1"/>
<path d="M10.3103 10.2531C9.38077 10.9169 9.88701 12.9243 12.1131 12.1164C14.3385 11.3085 13.0905 8.26891 10.3103 10.2531Z" fill="#FFA1A1"/>
<path d="M29.9531 21.0805C30.9171 20.8154 31.2623 20.2867 31.6097 19.8676C31.9563 19.4485 32.3965 21.0313 30.8897 21.7667C32.0646 21.8771 32.6264 21.0784 32.8149 21.181C33.1931 21.387 31.9472 22.9198 30.8925 22.6548" fill="#541300"/>
<path d="M14.1029 17.7892C10.3904 18.0283 11.3973 23.4894 14.3806 23.3896C17.3633 23.289 17.8147 17.5508 14.1029 17.7892Z" fill="#541300"/>
<path d="M15.3907 20.3591C14.6011 20.2888 14.3508 21.7815 15.2445 21.9193C16.1389 22.0578 16.5122 20.4575 15.3907 20.3591Z" fill="white"/>
<path d="M12.6902 19.2412C11.6531 19.109 11.2172 18.6119 10.7953 18.2294C10.3748 17.8462 10.1519 19.5506 11.8211 20.0906C10.6216 20.3782 9.9213 19.6335 9.7413 19.7678C9.38059 20.0371 10.8965 21.4406 11.9505 21.011" fill="#541300"/>
<defs>
<linearGradient id="paint0_linear_19_869" x1="11.1652" y1="11.4225" x2="33.6666" y2="38.4513" gradientUnits="userSpaceOnUse">
<stop offset="0.04" stop-color="#FFF466"/>
<stop offset="0.08" stop-color="#FFF466"/>
<stop offset="0.32" stop-color="#FFEB5F"/>
<stop offset="0.69" stop-color="#FFD54C"/>
<stop offset="0.86" stop-color="#FFC943"/>
</linearGradient>
</defs>
</symbol>

<symbol id="23" viewBox="0 0 42 41">
<path d="M21.3584 0.841797C24.417 0.841797 28.6329 11.5616 29.1005 11.8527C29.5681 12.1438 40.8912 13.5135 41.8306 15.7157C42.7699 17.9179 34.0568 25.8857 33.841 26.4278C33.6251 26.9699 35.8013 38.2987 34.0111 39.7815C32.2202 41.2637 21.9835 35.4665 21.3591 35.4629C20.7347 35.4594 10.9114 41.2947 8.70635 39.7815C6.50135 38.2677 9.03541 27.0402 8.8765 26.4278C8.7176 25.8147 -0.10874 18.6316 0.886885 15.7157C1.88251 12.7991 13.2106 12.1544 13.617 11.8527C14.0234 11.5504 18.2998 0.841797 21.3584 0.841797Z" fill="#FFBD39"/>
<path d="M21.3586 2.17358C24.2091 2.17358 27.9476 12.5489 28.3828 12.8196C28.8181 13.091 39.5639 13.984 40.44 16.0371C41.3154 18.0895 33.0024 25.3247 32.8013 25.8295C32.5995 26.3343 34.8206 37.0858 33.1514 38.4682C31.4822 39.8505 21.9408 34.2543 21.3586 34.2515C20.7764 34.248 11.6203 39.8793 9.56511 38.4682C7.50987 37.0577 10.2556 26.5931 10.1072 26.0215C9.95885 25.4505 1.34838 18.7554 2.2765 16.0371C3.20463 13.3188 14.1467 13.1016 14.5257 12.8196C14.9046 12.5377 18.5074 2.17358 21.3586 2.17358Z" fill="url(#paint0_linear_19_896)"/>
<path d="M4.77161 16.5397C4.57403 14.6068 10.9148 13.4692 11.1947 15.7304C11.4738 17.9916 5.04232 19.1729 4.77161 16.5397Z" fill="white"/>
<path d="M12.8182 15.0955C12.7711 13.8517 14.6668 13.7765 14.7652 14.7967C14.8749 15.9386 12.8618 16.2585 12.8182 15.0955Z" fill="white"/>
<g opacity="0.6">
<g opacity="0.6">
<path d="M15.8931 25.2347C15.8931 26.4919 14.7885 27.5121 13.4265 27.5121C12.0646 27.5121 10.96 26.4926 10.96 25.2347C10.96 23.9768 12.0646 22.958 13.4265 22.958C14.7885 22.958 15.8931 23.9775 15.8931 25.2347Z" fill="#FF5F82"/>
</g>
<g opacity="0.6">
<path d="M32.2456 25.2347C32.2456 26.4919 31.141 27.5121 29.7791 27.5121C28.4171 27.5121 27.3125 26.4926 27.3125 25.2347C27.3125 23.9768 28.4171 22.958 29.7791 22.958C31.141 22.958 32.2456 23.9775 32.2456 25.2347Z" fill="#FF5F82"/>
</g>
</g>
<path d="M23.5816 25.2282C24.0752 24.383 23.3622 23.7305 22.8947 24.5152C22.1866 25.7028 19.3762 25.6086 18.6548 24.5152C18.1584 23.7643 17.5214 24.3352 17.9672 25.2282C18.8524 26.998 22.3772 27.294 23.5816 25.2282Z" fill="#872A2A"/>
<path d="M10.4416 11.2156C10.4416 11.2156 5.10207 7.88275 2.78387 9.81494C0.465667 11.7471 3.73942 14.9013 4.2302 15.3014C4.72098 15.7022 3.50669 18.1034 5.25325 19.2656C7.00052 20.4258 10.6357 15.7669 11.2593 13.8087" fill="#FF7676"/>
<path d="M13.2358 10.2086C13.2358 10.2086 15.2222 4.23629 18.2407 4.24684C21.2592 4.25739 20.748 8.77285 20.6257 9.39512C20.5033 10.0167 22.9699 11.0918 22.3645 13.1013C21.7598 15.1094 15.9879 13.8382 14.2589 12.7279" fill="#FF7676"/>
<path d="M10.0447 10.9836C9.16723 12.0903 10.3879 14.7017 13.052 13.7405C15.6093 12.8194 14.7065 9.96757 13.3656 9.78617C12.0247 9.60546 10.6325 10.2411 10.0447 10.9829V10.9836Z" fill="#FF7676"/>
<path d="M9.64239 11.3294C9.42864 10.4604 5.09738 8.51905 3.78676 9.85709C2.47754 11.1972 4.0188 13.0219 4.7838 13.4374C5.21271 13.6708 5.5256 13.9577 5.38287 14.8001C5.17123 16.0453 5.85114 17.8383 6.8327 17.801C8.26356 17.7476 10.8757 14.7276 10.2225 12.9115C9.98129 12.5655 8.34301 14.7501 7.58434 13.0823C6.67098 11.0714 9.81114 12.0185 9.64239 11.3294Z" fill="#FFA1A1"/>
<path d="M13.7737 9.80987C13.3799 9.01323 15.7248 4.69674 17.702 4.84299C19.6799 4.98994 19.592 7.38197 19.2257 8.1997C19.0197 8.65814 18.9473 9.08142 19.6216 9.62212C20.6179 10.4223 21.2303 12.2216 20.3852 12.841C19.1533 13.7424 14.9781 13.1849 14.3306 11.3849C14.3031 10.9651 17.1135 11.5339 16.6488 9.77612C16.0905 7.65761 14.0859 10.4413 13.7737 9.80987Z" fill="#FFA1A1"/>
<path d="M10.9684 10.6241C10.0381 11.2878 10.5451 13.2953 12.7705 12.4874C14.9958 11.6802 13.7485 8.64057 10.9684 10.6241Z" fill="#FFA1A1"/>
<path d="M25.4052 20.9519C24.738 20.3873 25.7308 18.4487 28.3858 18.4487C31.0408 18.4487 31.9823 20.35 31.4303 20.9519C30.9536 21.4722 30.3686 19.9105 28.4505 19.9105C26.5323 19.9105 25.9691 21.4286 25.4052 20.9519Z" fill="#541300"/>
<path d="M30.1167 19.4682C31.0807 19.2031 31.4259 18.6743 31.7725 18.2553C32.1199 17.8362 32.56 19.419 31.0532 20.1544C32.2282 20.2648 32.7907 19.4661 32.9784 19.5687C33.3567 19.7747 32.1108 21.3076 31.0554 21.0425" fill="#541300"/>
<path d="M16.7232 20.9519C17.3905 20.3873 16.3977 18.4487 13.7434 18.4487C11.0891 18.4487 10.1469 20.35 10.6981 20.9519C11.1756 21.4722 11.7599 19.9105 13.6787 19.9105C15.5975 19.9105 16.16 21.4286 16.7239 20.9519H16.7232Z" fill="#541300"/>
<path d="M12.0113 19.4682C11.0474 19.2031 10.7021 18.6743 10.3555 18.2553C10.0088 17.8362 9.56869 19.419 11.0748 20.1544C9.90056 20.2648 9.33805 19.4661 9.15032 19.5687C8.77204 19.7747 10.018 21.3076 11.0727 21.0425" fill="#541300"/>
<defs>
<linearGradient id="paint0_linear_19_896" x1="11.8249" y1="11.4225" x2="34.3256" y2="38.4513" gradientUnits="userSpaceOnUse">
<stop offset="0.04" stop-color="#FFF466"/>
<stop offset="0.08" stop-color="#FFF466"/>
<stop offset="0.32" stop-color="#FFEB5F"/>
<stop offset="0.69" stop-color="#FFD54C"/>
<stop offset="0.86" stop-color="#FFC943"/>
</linearGradient>
</defs>
</symbol>

<symbol id="24" viewBox="0 0 42 41">
<path d="M21.0173 0.841797C24.0752 0.841797 28.2918 11.5616 28.7587 11.8527C29.2256 12.1438 40.5494 13.5135 41.4888 15.7157C42.4274 17.9179 33.715 25.8857 33.4992 26.4278C33.2833 26.9699 35.4609 38.2987 33.6693 39.7815C31.8784 41.2637 21.6417 35.4665 21.0173 35.4629C20.3929 35.4594 10.5696 41.2947 8.36455 39.7815C6.15955 38.2677 8.69361 27.0402 8.5347 26.4278C8.3758 25.8147 -0.450537 18.6316 0.545088 15.7157C1.54001 12.7991 12.8681 12.1544 13.2745 11.8527C13.6809 11.5504 17.958 0.841797 21.0166 0.841797H21.0173Z" fill="#FFBD39"/>
<path d="M21.0166 2.17285C23.8671 2.17285 27.6056 12.5482 28.0408 12.8189C28.4761 13.0903 39.2226 13.9832 40.098 16.0357C40.9734 18.0888 32.6604 25.3232 32.4593 25.8281C32.2582 26.3329 34.4786 37.0851 32.8101 38.4668C31.1409 39.8491 21.5995 34.2529 21.0166 34.2501C20.4351 34.2466 11.2783 39.8779 9.2238 38.4668C7.16857 37.0563 9.91427 26.5917 9.76591 26.02C9.61685 25.4491 1.00708 18.7539 1.9352 16.0357C2.86333 13.3174 13.8054 13.1001 14.1843 12.8189C14.5633 12.5369 18.1661 2.17285 21.0166 2.17285Z" fill="url(#paint0_linear_19_1097)"/>
<path d="M4.42985 16.5397C4.23157 14.6068 10.5731 13.4692 10.8522 15.7304C11.132 17.9924 4.69985 19.1729 4.42985 16.5397Z" fill="white"/>
<path d="M12.4765 15.0955C12.4287 13.8517 14.3243 13.7765 14.4234 14.7967C14.5338 15.9386 12.5208 16.2585 12.4765 15.0955Z" fill="white"/>
<g opacity="0.6">
<g opacity="0.6">
<path d="M15.3037 25.2352C15.3037 26.4924 14.1991 27.5126 12.8372 27.5126C11.4752 27.5126 10.3706 26.4931 10.3706 25.2352C10.3706 23.9773 11.4752 22.9585 12.8372 22.9585C14.1991 22.9585 15.3037 23.978 15.3037 25.2352Z" fill="#FF5F82"/>
</g>
<g opacity="0.6">
<path d="M31.407 25.235C31.407 26.4921 30.3031 27.5124 28.9412 27.5124C27.5792 27.5124 26.4746 26.4929 26.4746 25.235C26.4746 23.9771 27.5785 22.9583 28.9412 22.9583C30.3038 22.9583 31.407 23.9778 31.407 25.235Z" fill="#FF5F82"/>
</g>
</g>
<path d="M10.9068 21.8531C10.3007 21.3405 11.2028 19.0603 13.6145 19.0603C16.0262 19.0603 16.8812 21.3061 16.3806 21.8531C15.9475 22.3256 15.4152 20.3885 13.6729 20.3885C11.9305 20.3885 11.4187 22.2862 10.9068 21.8531Z" fill="#541300"/>
<path d="M25.7554 21.8531C25.1493 21.3405 26.0514 19.0603 28.4625 19.0603C30.8735 19.0603 31.7299 21.3061 31.2286 21.8531C30.7954 22.3256 30.2639 20.3885 28.5208 20.3885C26.7778 20.3885 26.2666 22.2862 25.7547 21.8531H25.7554Z" fill="#541300"/>
<path d="M30.2891 20.2156C31.2805 20.089 31.6974 19.6144 32.0996 19.2488C32.5025 18.8831 32.7148 20.5116 31.1195 21.0277C32.267 21.3026 32.9356 20.591 33.1079 20.7197C33.4531 20.977 32.0033 22.3186 30.9964 21.9073" fill="#541300"/>
<path d="M11.844 20.2156C10.8526 20.089 10.4363 19.6144 10.0334 19.2488C9.63055 18.8831 9.41821 20.5116 11.0136 21.0277C9.8661 21.3026 9.19672 20.591 9.02516 20.7197C8.67992 20.977 10.1291 22.3186 11.1359 21.9073" fill="#541300"/>
<path d="M10.0739 10.852C10.0739 10.852 4.7351 7.51923 2.41619 9.45142C0.0979916 11.3843 3.37175 14.5378 3.86253 14.9379C4.35401 15.3387 3.139 17.7399 4.88626 18.9021C6.63283 20.063 10.2687 15.4034 10.8924 13.4452" fill="#FF7676"/>
<path d="M12.8691 9.84511C12.8691 9.84511 14.8555 3.87277 17.8733 3.88331C20.8911 3.89386 20.3806 8.40933 20.259 9.03159C20.1366 9.65315 22.6032 10.7282 21.9978 12.7378C21.3931 14.7459 15.6205 13.4746 13.8915 12.3644" fill="#FF7676"/>
<path d="M9.67741 10.6201C8.79921 11.7268 10.0198 14.3382 12.6847 13.377C15.2419 12.4552 14.3384 9.60405 12.9976 9.42264C11.6567 9.24194 10.2645 9.87756 9.67741 10.6194V10.6201Z" fill="#FF7676"/>
<path d="M9.27515 10.9659C9.0614 10.0968 4.73015 8.15618 3.41953 9.49352C2.10961 10.833 3.65085 12.6583 4.41585 13.0738C4.84476 13.3073 5.15835 13.5941 5.01562 14.4365C4.80327 15.6817 5.4832 17.4747 6.46547 17.4374C7.89562 17.3847 10.5084 14.3641 9.85453 12.5479C9.61406 12.202 7.97578 14.3866 7.21711 12.7194C6.30304 10.7085 9.44461 11.6556 9.27515 10.9659Z" fill="#FFA1A1"/>
<path d="M13.407 9.44657C13.0132 8.64993 15.3581 4.33345 17.3353 4.4797C19.3132 4.62666 19.226 7.01869 18.859 7.83642C18.653 8.29486 18.5813 8.71814 19.2549 9.25884C20.2512 10.059 20.8636 11.8583 20.0185 12.4777C18.7866 13.3792 14.6114 12.8216 13.9638 11.0216C13.9364 10.6018 16.7461 11.1706 16.282 9.41282C15.7231 7.29431 13.7192 10.078 13.407 9.44657Z" fill="#FFA1A1"/>
<path d="M10.6013 10.2608C9.67181 10.9245 10.1781 12.932 12.4035 12.1241C14.6295 11.3169 13.3815 8.27728 10.6013 10.2608Z" fill="#FFA1A1"/>
<path d="M15.1827 25.5693C15.6896 25.1868 26.015 25.1868 26.5276 25.5693C27.0409 25.9518 25.2571 30.314 20.8576 30.314C16.4582 30.314 14.6764 25.9518 15.1827 25.5693Z" fill="#872A2A"/>
<path d="M18.3904 28.0824C17.7836 28.4944 17.9032 31.2225 18.382 32.8721C18.9691 34.8964 22.9361 34.9751 23.3425 32.8721C23.7496 30.769 23.9641 28.4543 23.3474 28.0824C22.7308 27.7104 19.0211 27.6549 18.3904 28.0824Z" fill="#F982B3"/>
<defs>
<linearGradient id="paint0_linear_19_1097" x1="11.4829" y1="11.4225" x2="33.9843" y2="38.4513" gradientUnits="userSpaceOnUse">
<stop offset="0.04" stop-color="#FFF466"/>
<stop offset="0.08" stop-color="#FFF466"/>
<stop offset="0.32" stop-color="#FFEB5F"/>
<stop offset="0.69" stop-color="#FFD54C"/>
<stop offset="0.86" stop-color="#FFC943"/>
</linearGradient>
</defs>
</symbol>


</svg>