<svg   viewBox="0 0 1000 40" fill="none" xmlns="http://www.w3.org/2000/svg">

<symbol id="01" viewBox="0 0 42 40" >
<path d="M21.0414 0.10083C24.1 0.10083 28.3159 10.8207 28.7835 11.1118C29.2504 11.4029 40.5742 12.7725 41.5135 14.9747C42.4529 17.1769 33.7398 25.1447 33.5239 25.6868C33.3081 26.2289 35.485 37.5584 33.6941 39.0406C31.9032 40.5228 21.6664 34.7255 21.0421 34.722C20.4177 34.7192 10.5943 40.5544 8.38934 39.0406C6.18434 37.5268 8.7184 26.2993 8.5595 25.6868C8.40059 25.0737 -0.425032 17.8906 0.569889 14.9747C1.56551 12.0582 12.8936 11.4134 13.3 11.1118C13.7057 10.8101 17.9821 0.10083 21.0414 0.10083Z" fill="#FFBD39"/>
<path d="M21.0411 1.43262C23.8916 1.43262 27.6301 11.8079 28.0653 12.0793C28.5006 12.3507 39.2464 13.2437 40.1225 15.2961C40.9979 17.3492 32.6849 24.5844 32.4838 25.0892C32.2827 25.5941 34.5032 36.3463 32.8339 37.7279C31.1647 39.1103 21.6226 33.5141 21.0411 33.5113C20.4589 33.5078 11.3029 39.1391 9.24762 37.7279C7.19309 36.3174 9.93809 25.8521 9.78973 25.2812C9.64137 24.7103 1.0316 18.0151 1.95902 15.2968C2.88715 12.5785 13.8292 12.3613 14.2082 12.08C14.5864 11.7981 18.1893 1.43332 21.0404 1.43332L21.0411 1.43262Z" fill="url(#paint0_linear_19_724)"/>
<path d="M4.45426 15.7981C4.25598 13.8652 10.5975 12.7275 10.8773 14.9895C11.1571 17.2507 4.72496 18.432 4.45426 15.7981Z" fill="white"/>
<path d="M12.5004 14.3546C12.4526 13.1115 14.3489 13.0355 14.4474 14.0558C14.5577 15.1976 12.5447 15.5176 12.5004 14.3546Z" fill="white"/>
<g opacity="0.6">
<g opacity="0.6">
<path d="M15.3286 24.7418C15.3286 25.9997 14.2247 27.0192 12.8621 27.0192C11.4994 27.0192 10.3955 25.9997 10.3955 24.7418C10.3955 23.4839 11.4994 22.4651 12.8621 22.4651C14.2247 22.4651 15.3286 23.4846 15.3286 24.7418Z" fill="#FF5F82"/>
</g>
<g opacity="0.6">
<path d="M32.1773 24.7418C32.1773 25.9997 31.0727 27.0192 29.7107 27.0192C28.3487 27.0192 27.2441 25.9997 27.2441 24.7418C27.2441 23.4839 28.3487 22.4651 29.7107 22.4651C31.0727 22.4651 32.1773 23.4846 32.1773 24.7418Z" fill="#FF5F82"/>
</g>
</g>
<path d="M24.2081 27.024C24.7306 26.1444 23.9754 25.4652 23.4797 26.2822C22.5178 27.8664 19.962 27.7342 18.986 26.2822C18.4608 25.5004 17.7851 26.0945 18.2583 27.024C19.377 29.2234 22.7506 29.4794 24.2081 27.024Z" fill="#872A2A"/>
<path d="M15.2357 15.3775C15.5071 14.6371 13.9033 13.678 11.9929 14.2757C10.7012 14.68 9.61139 16.4315 9.96858 16.7634C10.3258 17.0959 10.6998 15.6805 12.3789 15.2158C13.8203 14.8164 15.119 15.6974 15.2357 15.3775Z" fill="#541300"/>
<path d="M26.8411 15.3775C26.5697 14.6371 28.1735 13.678 30.0839 14.2757C31.3756 14.68 32.4661 16.4315 32.1089 16.7634C31.7517 17.0959 31.3777 15.6805 29.6979 15.2158C28.2572 14.8164 26.9578 15.6974 26.8411 15.3775Z" fill="#541300"/>
<path d="M11.3293 22.4825C10.6986 21.9488 11.6366 19.824 14.1481 19.824C16.6597 19.824 17.5491 21.9144 17.0274 22.4825C16.5767 22.974 16.0234 21.4538 14.2093 21.4538C12.3952 21.4538 11.863 22.9332 11.3293 22.4825Z" fill="#541300"/>
<path d="M25.2384 22.4825C24.6077 21.9488 25.5464 19.824 28.0572 19.824C30.5681 19.824 31.4583 21.9144 30.9372 22.4825C30.4858 22.974 29.9332 21.4538 28.1191 21.4538C26.3051 21.4538 25.7728 22.9332 25.2391 22.4825H25.2384Z" fill="#541300"/>
<defs>
<linearGradient id="paint0_linear_19_724" x1="11.5082" y1="10.6815" x2="34.0089" y2="37.7103" gradientUnits="userSpaceOnUse">
<stop offset="0.04" stop-color="#FFF466"/>
<stop offset="0.08" stop-color="#FFF466"/>
<stop offset="0.32" stop-color="#FFEB5F"/>
<stop offset="0.69" stop-color="#FFD54C"/>
<stop offset="0.86" stop-color="#FFC943"/>
</linearGradient>
</defs>
</symbol>

<symbol id="02" viewBox="0 0 42 40">
<path d="M21.0963 0.730225C24.1549 0.730225 28.3708 11.4501 28.8377 11.7405C29.3046 12.0316 40.6284 13.4012 41.5678 15.6034C42.5071 17.8063 33.794 25.7741 33.5781 26.3162C33.3623 26.8583 35.5392 38.1871 33.7483 39.67C31.9574 41.1522 21.7206 35.3549 21.0963 35.3514C20.4719 35.3479 10.6485 41.1831 8.44425 39.67C6.23925 38.1561 8.77331 26.9286 8.6144 26.3162C8.45479 25.7031 -0.370833 18.52 0.624088 15.6034C1.61971 12.6869 12.9478 12.0421 13.3542 11.7405C13.7606 11.4381 18.037 0.730225 21.0963 0.730225Z" fill="#FFBD39"/>
<path d="M21.096 2.06128C23.9464 2.06128 27.685 12.4366 28.1202 12.708C28.5554 12.9794 39.3013 13.8724 40.1774 15.9255C41.0528 17.9786 32.7397 25.2131 32.5386 25.7179C32.3368 26.2227 34.558 36.9749 32.8888 38.3566C31.2203 39.7389 21.6782 34.1427 21.096 34.1399C20.5138 34.1364 11.3577 39.7677 9.30317 38.3566C7.24793 36.9461 9.99364 26.4815 9.84528 25.9099C9.69692 25.3389 1.08715 18.6438 2.01528 15.9255C2.9434 13.2072 13.8854 12.9899 14.2644 12.708C14.6434 12.4267 18.2462 2.06128 21.0967 2.06128H21.096Z" fill="url(#paint0_linear_19_972)"/>
<path d="M4.50941 16.4281C4.31183 14.4952 10.6526 13.3576 10.9324 15.6188C11.2116 17.8801 4.78011 19.0613 4.50941 16.4281Z" fill="white"/>
<path d="M12.5561 14.984C12.5083 13.7409 14.4046 13.6649 14.503 14.6851C14.6134 15.827 12.6004 16.1469 12.5561 14.984Z" fill="white"/>
<g opacity="0.6">
<g opacity="0.6">
<path d="M15.3833 25.3712C15.3833 26.6291 14.2787 27.6486 12.9168 27.6486C11.5548 27.6486 10.4502 26.6291 10.4502 25.3712C10.4502 24.1133 11.5541 23.0945 12.9168 23.0945C14.2794 23.0945 15.3833 24.114 15.3833 25.3712Z" fill="#FF5F82"/>
</g>
<g opacity="0.6">
<path d="M32.2319 25.3712C32.2319 26.6291 31.128 27.6486 29.7654 27.6486C28.4027 27.6486 27.2988 26.6291 27.2988 25.3712C27.2988 24.1133 28.4034 23.0945 29.7654 23.0945C31.1273 23.0945 32.2319 24.114 32.2319 25.3712Z" fill="#FF5F82"/>
</g>
</g>
<path d="M25.2025 26.8251C25.8838 25.98 24.8987 25.3275 24.2519 26.1121C23.2724 27.2997 19.3863 27.2055 18.3885 26.1121C17.7023 25.3612 16.8205 25.9321 17.4379 26.8251C18.6613 28.5949 23.5375 28.8909 25.2025 26.8251Z" fill="#872A2A"/>
<path d="M7.34531 15.8346C5.99601 16.9139 7.14562 22.1171 8.34234 22.8652C9.53906 23.6126 17.4169 23.6632 18.4139 22.9643C19.4116 22.2661 20.0599 17.1312 18.9131 16.2579C17.7663 15.3853 8.84085 14.6379 7.34531 15.8339V15.8346Z" fill="#0F4E82"/>
<path d="M35.7145 15.8346C37.0631 16.9139 35.9135 22.1171 34.7168 22.8652C33.5201 23.6126 25.643 23.6632 24.6452 22.9643C23.6482 22.2661 22.9999 17.1312 24.1467 16.2579C25.2935 15.3853 34.2183 14.6379 35.7145 15.8339V15.8346Z" fill="#0F4E82"/>
<path d="M24.3987 17.2529H18.6162V18.7112H24.3987V17.2529Z" fill="#0F4E82"/>
<path d="M8.77697 16.6699C7.64283 16.8759 7.68924 18.5655 9.05541 18.5655C10.8364 18.5655 10.6663 16.3275 8.77697 16.6699Z" fill="#4BD0EF"/>
<path d="M25.6305 16.9174C24.4963 17.1234 24.5428 18.8123 25.9089 18.8123C27.6899 18.8123 27.5198 16.5742 25.6305 16.9174Z" fill="#4BD0EF"/>
<defs>
<linearGradient id="paint0_linear_19_972" x1="11.563" y1="11.3109" x2="34.0637" y2="38.3397" gradientUnits="userSpaceOnUse">
<stop offset="0.04" stop-color="#FFF466"/>
<stop offset="0.08" stop-color="#FFF466"/>
<stop offset="0.32" stop-color="#FFEB5F"/>
<stop offset="0.69" stop-color="#FFD54C"/>
<stop offset="0.86" stop-color="#FFC943"/>
</linearGradient>
</defs>
</symbol>


<symbol id="03" viewBox="0 0 42 40" >
<path d="M21.0165 0.10083C24.0751 0.10083 28.291 10.8207 28.7579 11.1111C29.2248 11.4022 40.5486 12.7718 41.488 14.974C42.4274 17.1762 33.7143 25.144 33.4984 25.6861C33.2825 26.2282 35.4594 37.5577 33.6685 39.0406C31.8777 40.5228 21.6402 34.7255 21.0158 34.722C20.3914 34.7185 10.5681 40.5544 8.36309 39.0406C6.15809 37.5268 8.69215 26.2993 8.53324 25.6861C8.37433 25.073 -0.452002 17.8899 0.543623 14.974C1.53854 12.0575 12.8666 11.4127 13.273 11.1111C13.6815 10.8094 17.9586 0.10083 21.0165 0.10083Z" fill="#FFBD39"/>
<path d="M21.0166 1.43188C23.8671 1.43188 27.6063 11.8072 28.0408 12.0786C28.4761 12.35 39.2226 13.243 40.098 15.2954C40.9734 17.3485 32.6604 24.583 32.4593 25.0885C32.2582 25.5934 34.4786 36.3448 32.8101 37.7272C31.1409 39.1095 21.5988 33.5134 21.0166 33.5105C20.4351 33.507 11.2783 39.1383 9.2238 37.7272C7.16857 36.3167 9.91427 25.8521 9.76591 25.2805C9.61685 24.7095 1.00708 18.0144 1.9352 15.2961C2.86333 12.5778 13.8054 12.3606 14.1843 12.0793C14.5633 11.7973 18.1654 1.43259 21.0166 1.43259V1.43188Z" fill="url(#paint0_linear_19_621)"/>
<path d="M4.42985 15.7981C4.23157 13.8652 10.5731 12.7275 10.8522 14.9895C11.132 17.2507 4.69985 18.432 4.42985 15.7981Z" fill="white"/>
<path d="M12.4765 14.3546C12.4287 13.1115 14.3243 13.0355 14.4227 14.0558C14.5331 15.1976 12.5201 15.5176 12.4765 14.3546Z" fill="white"/>
<g opacity="0.6">
<g opacity="0.6">
<path d="M15.0557 24.4938C15.0557 25.7509 13.9511 26.7712 12.5891 26.7712C11.2272 26.7712 10.1226 25.7516 10.1226 24.4938C10.1226 23.2359 11.2272 22.217 12.5891 22.217C13.9511 22.217 15.0557 23.2366 15.0557 24.4938Z" fill="#FF5F82"/>
</g>
<g opacity="0.6">
<path d="M31.9043 24.4938C31.9043 25.7509 30.7997 26.7712 29.4378 26.7712C28.0758 26.7712 26.9712 25.7516 26.9712 24.4938C26.9712 23.2359 28.0758 22.217 29.4378 22.217C30.7997 22.217 31.9043 23.2366 31.9043 24.4938Z" fill="#FF5F82"/>
</g>
</g>
<path d="M15.878 13.8421C12.7174 14.1388 13.5738 20.6659 16.1142 20.5415C18.6546 20.417 19.0385 13.5454 15.878 13.8421Z" fill="#541300"/>
<path d="M16.9751 16.782C16.3029 16.6948 16.0899 18.2986 16.8507 18.4702C17.6121 18.6418 17.9299 16.905 16.9751 16.782Z" fill="white"/>
<path d="M25.6992 13.8421C28.8604 14.1388 28.0026 20.6659 25.463 20.5415C22.9226 20.417 22.5387 13.5454 25.6992 13.8421Z" fill="#541300"/>
<path d="M24.6026 16.7817C25.2748 16.6946 25.4885 18.2984 24.7271 18.4699C23.9656 18.6415 23.6478 16.9048 24.6026 16.7817Z" fill="white"/>
<path d="M13.9227 23.3315C14.2489 23.0854 27.7222 23.0713 28.0703 23.3315C28.7488 23.8377 28.355 29.609 21.1431 29.609C13.9311 29.609 13.2526 23.8377 13.922 23.3315H13.9227Z" fill="#872A2A"/>
<defs>
<linearGradient id="paint0_linear_19_621" x1="11.4829" y1="10.6815" x2="33.9843" y2="37.7103" gradientUnits="userSpaceOnUse">
<stop offset="0.04" stop-color="#FFF466"/>
<stop offset="0.08" stop-color="#FFF466"/>
<stop offset="0.32" stop-color="#FFEB5F"/>
<stop offset="0.69" stop-color="#FFD54C"/>
<stop offset="0.86" stop-color="#FFC943"/>
</linearGradient>
</defs>
</symbol>

<symbol id="04" viewBox="0 0 42 40" >
<path d="M20.7231 0.72998C23.7816 0.72998 27.9983 11.4498 28.4645 11.7402C28.9313 12.0313 40.2552 13.401 41.1945 15.6032C42.1339 17.8061 33.4208 25.7739 33.2042 26.316C32.9891 26.8581 35.1652 38.1868 33.3744 39.6697C31.5835 41.1519 21.346 35.3547 20.7216 35.3511C20.0973 35.3476 10.2739 41.1829 8.06962 39.6697C5.86462 38.1559 8.39868 26.9284 8.23977 26.316C8.08087 25.7029 -0.745459 18.5197 0.250166 15.6032C1.24509 12.6866 12.5731 12.0419 12.9802 11.7402C13.3866 11.4379 17.6638 0.72998 20.7223 0.72998H20.7231Z" fill="#FFBD39"/>
<path d="M20.7224 2.06104C23.5728 2.06104 27.3114 12.4363 27.7466 12.7077C28.1818 12.9791 38.9284 13.8721 39.8038 15.9252C40.6792 17.9784 32.3668 25.2128 32.165 25.7177C31.9639 26.2225 34.1844 36.9747 32.5152 38.3563C30.846 39.7387 21.3039 34.1425 20.7217 34.1397C20.1402 34.1362 10.9834 39.7675 8.92887 38.3563C6.87363 36.9459 9.61934 26.4813 9.47098 25.9096C9.32262 25.3387 0.712149 18.6435 1.64027 15.9252C2.5677 13.207 13.5104 12.9897 13.8894 12.7077C14.2684 12.4265 17.8705 2.06104 20.7217 2.06104H20.7224Z" fill="url(#paint0_linear_19_947)"/>
<path d="M4.13639 16.4279C3.93811 14.495 10.2796 13.3573 10.5587 15.6186C10.8386 17.8798 4.40709 19.0611 4.13639 16.4279Z" fill="white"/>
<path d="M12.183 14.9837C12.1352 13.7406 14.0315 13.6647 14.13 14.6849C14.2404 15.8268 12.2273 16.1467 12.183 14.9837Z" fill="white"/>
<g opacity="0.6">
<g opacity="0.6">
<path d="M14.7617 26.3624C14.7617 27.6196 13.6578 28.6398 12.2952 28.6398C10.9325 28.6398 9.82861 27.6203 9.82861 26.3624C9.82861 25.1045 10.9325 24.0857 12.2952 24.0857C13.6578 24.0857 14.7617 25.1052 14.7617 26.3624Z" fill="#FF5F82"/>
</g>
<g opacity="0.6">
<path d="M31.6097 26.3624C31.6097 27.6196 30.5051 28.6398 29.1431 28.6398C27.7812 28.6398 26.6772 27.6203 26.6772 26.3624C26.6772 25.1045 27.7812 24.0857 29.1431 24.0857C30.5051 24.0857 31.6097 25.1052 31.6097 26.3624Z" fill="#FF5F82"/>
</g>
</g>
<path d="M29.3345 20.4702C32.5914 20.6797 31.7082 23.983 29.0912 23.8951C26.4742 23.8072 26.0776 20.2599 29.3345 20.4702Z" fill="#541300"/>
<path d="M28.5011 22.8089C28.7493 23.415 27.4555 24.1582 27.1574 23.5345C26.8389 22.8687 28.2683 22.2401 28.5011 22.8089Z" fill="white"/>
<path d="M30.6528 20.9876C29.3998 20.1221 26.1366 20.1966 24.2368 22.2448C23.6588 22.8481 23.7945 23.2608 24.594 22.8481C25.3934 22.4346 27.7489 21.766 29.07 22.2448" fill="#541300"/>
<path d="M15.4554 20.4702C18.7129 20.6797 17.8291 23.983 15.2121 23.8951C12.5943 23.8072 12.1985 20.2599 15.4554 20.4702Z" fill="#541300"/>
<path d="M14.4122 22.8087C14.6597 23.4148 13.3666 24.158 13.0685 23.5343C12.75 22.8684 14.1795 22.2398 14.4122 22.8087Z" fill="white"/>
<path d="M16.772 20.9876C15.519 20.1221 12.2558 20.1966 10.3567 22.2448C9.77802 22.8481 9.91443 23.2608 10.7139 22.8481C11.5133 22.4346 13.8695 21.766 15.19 22.2448" fill="#541300"/>
<path d="M26.7387 25.7417C27.4474 25.651 27.5944 27.7111 27.1296 28.6505C26.6642 29.5899 20.6524 30.8822 18.1198 30.5011C17.4511 30.4013 17.4722 29.7903 18.1549 29.8057C20.8388 29.8669 25.0132 28.3967 25.6671 27.8215C26.5003 27.0889 26.2092 25.8085 26.7387 25.741V25.7417Z" fill="#872A2A"/>
<path d="M14.9168 16.0118C15.1882 15.2714 13.5844 14.3123 11.674 14.91C10.3824 15.3143 9.29254 17.0658 9.64973 17.3983C10.0069 17.7302 10.381 16.3155 12.06 15.8501C13.5014 15.4507 14.8001 16.3317 14.9168 16.0118Z" fill="#541300"/>
<path d="M26.5218 16.0118C26.2504 15.2714 27.8542 14.3123 29.7646 14.91C31.0562 15.3143 32.1461 17.0658 31.7889 17.3983C31.4317 17.7302 31.0576 16.3155 29.3786 15.8501C27.9372 15.4507 26.6385 16.3317 26.5211 16.0118H26.5218Z" fill="#541300"/>
<defs>
<linearGradient id="paint0_linear_19_947" x1="11.1894" y1="11.3106" x2="33.6901" y2="38.3395" gradientUnits="userSpaceOnUse">
<stop offset="0.04" stop-color="#FFF466"/>
<stop offset="0.08" stop-color="#FFF466"/>
<stop offset="0.32" stop-color="#FFEB5F"/>
<stop offset="0.69" stop-color="#FFD54C"/>
<stop offset="0.86" stop-color="#FFC943"/>
</linearGradient>
</defs>
</symbol>

<symbol id="05" viewBox="0 0 42 41">
<path d="M24.2635 0.103824C27.256 0.736636 29.1664 12.0956 29.563 12.4767C29.9596 12.8585 40.756 16.5387 41.2201 18.8878C41.6835 21.2369 31.5121 27.2318 31.1886 27.7176C30.8659 28.2028 30.6535 39.7376 28.5955 40.819C26.5367 41.8997 17.7196 34.1112 17.1085 33.9783C16.4982 33.8461 5.68136 37.5255 3.83706 35.5891C1.99277 33.652 6.79159 23.1909 6.76347 22.5581C6.73394 21.926 -0.416848 13.073 1.16026 10.4257C2.73667 7.77773 13.9536 9.48773 14.4142 9.2768C14.874 9.06515 21.2717 -0.527582 24.2642 0.103824H24.2635Z" fill="#FFBD39"/>
<path d="M23.9881 1.40672C26.7774 1.99594 28.2905 12.919 28.6603 13.2748C29.0302 13.6305 39.3598 16.725 39.7922 18.9145C40.2246 21.1041 30.596 26.464 30.2944 26.9168C29.9934 27.3696 29.9442 38.3482 28.0247 39.3551C26.1059 40.3626 17.9271 32.9158 17.3583 32.7921C16.7895 32.6683 6.66728 36.2859 4.94814 34.4803C3.229 32.6754 8.07775 23.0046 8.05033 22.4147C8.02291 21.8248 0.983222 13.4948 2.45205 11.0269C3.92228 8.55891 14.6731 10.6085 15.102 10.4109C15.5309 10.2134 21.1974 0.817501 23.9867 1.40672H23.9881Z" fill="url(#paint0_linear_19_992)"/>
<path d="M4.79043 12.0344C4.99574 10.1022 11.435 10.2991 11.2416 12.5702C11.0482 14.8406 4.51129 14.6669 4.79043 12.0344Z" fill="white"/>
<path d="M12.9622 12.2848C13.1725 11.0585 15.0428 11.3763 14.9289 12.3951C14.8009 13.5349 12.7646 13.4323 12.9622 12.2848Z" fill="white"/>
<g opacity="0.6">
<g opacity="0.6">
<path d="M11.476 19.7991C11.2159 21.0296 9.92496 21.7988 8.59254 21.5176C7.25942 21.2363 6.39035 20.0101 6.64981 18.7803C6.90996 17.5498 8.20089 16.7806 9.53402 17.0619C10.8664 17.3431 11.7362 18.5694 11.4768 19.7991H11.476Z" fill="#FF5F82"/>
</g>
<g opacity="0.6">
<path d="M32.8132 24.307C32.553 25.5367 31.2621 26.306 29.9289 26.0247C28.5965 25.7435 27.7268 24.5172 27.9862 23.2874C28.2464 22.057 29.5373 21.2878 30.8697 21.5697C32.2021 21.851 33.0719 23.0765 32.8125 24.307H32.8132Z" fill="#FF5F82"/>
</g>
</g>
<path d="M10.8581 15.6416C10.3518 14.9891 11.7089 13.104 14.1656 13.6229C16.6216 14.1418 17.0611 16.3708 16.4339 16.8193C15.8911 17.2075 15.6639 15.6058 13.8886 15.2303C12.1139 14.8555 11.287 16.1929 10.8581 15.6416Z" fill="#541300"/>
<path d="M24.4677 18.5161C23.9607 17.8643 25.3185 15.9785 27.7745 16.4974C30.2312 17.0163 30.67 19.2452 30.0428 19.6938C29.5 20.0813 29.2728 18.4795 27.4975 18.1048C25.7228 17.73 24.8959 19.0674 24.4677 18.5154V18.5161Z" fill="#541300"/>
<path d="M27.4666 28.2071C28.7807 27.5771 30.3093 22.921 29.1232 22.1968C27.1825 21.0141 12.291 18.0518 10.9333 18.3549C9.57557 18.6579 9.09534 23.3921 10.0171 24.5213C11.3784 26.1884 24.7989 29.4867 27.4666 28.2071Z" fill="#917971"/>
<path d="M27.1624 27.7072C28.3971 27.2002 29.7485 23.2719 28.6038 22.6292C25.8904 21.1069 13.4986 18.5588 11.2345 18.9603C9.9513 19.1888 9.59833 23.2072 10.499 24.1873C12.2231 26.0647 24.1249 28.9545 27.1624 27.7072Z" fill="white"/>
<path d="M19.9055 20.0188L18.377 27.241L18.9912 27.371L20.5198 20.1489L19.9055 20.0188Z" fill="#917971"/>
<path d="M16.4325 19.2788L14.9077 26.5017L15.5221 26.6314L17.0468 19.4085L16.4325 19.2788Z" fill="#917971"/>
<path d="M12.9648 18.5434L11.5586 25.1877L12.1729 25.3178L13.5791 18.6735L12.9648 18.5434Z" fill="#917971"/>
<path d="M26.0354 28.2795L25.3667 28.404L26.832 21.4705L27.4458 21.6005L26.0354 28.2795Z" fill="#917971"/>
<path d="M9.81371 21.3325L9.68359 21.9468L28.9155 26.0206L29.0456 25.4064L9.81371 21.3325Z" fill="#917971"/>
<path d="M22.4524 28.0911L21.8379 27.961L23.3644 20.7385L23.9782 20.8679L22.4524 28.0911Z" fill="#917971"/>
<defs>
<linearGradient id="paint0_linear_19_992" x1="12.7483" y1="8.48621" x2="29.1757" y2="39.5825" gradientUnits="userSpaceOnUse">
<stop offset="0.04" stop-color="#FFF466"/>
<stop offset="0.08" stop-color="#FFF466"/>
<stop offset="0.32" stop-color="#FFEB5F"/>
<stop offset="0.69" stop-color="#FFD54C"/>
<stop offset="0.86" stop-color="#FFC943"/>
</linearGradient>
</defs>
</symbol>

<symbol id="06" viewBox="0 0 42 41">
<path d="M21.3584 0.841797C24.417 0.841797 28.6329 11.5616 29.1005 11.8527C29.5681 12.1438 40.8912 13.5135 41.8306 15.7157C42.7699 17.9179 34.0568 25.8857 33.841 26.4278C33.6251 26.9699 35.8013 38.2987 34.0111 39.7815C32.2202 41.2637 21.9835 35.4665 21.3591 35.4629C20.7347 35.4594 10.9114 41.2947 8.70635 39.7815C6.50135 38.2677 9.03541 27.0402 8.8765 26.4278C8.7176 25.8147 -0.10874 18.6316 0.886885 15.7157C1.88251 12.7991 13.2106 12.1544 13.617 11.8527C14.0234 11.5504 18.2998 0.841797 21.3584 0.841797Z" fill="#FFBD39"/>
<path d="M21.3586 2.17358C24.2091 2.17358 27.9476 12.5489 28.3828 12.8196C28.8181 13.091 39.5639 13.984 40.44 16.0371C41.3154 18.0895 33.0024 25.3247 32.8013 25.8295C32.5995 26.3343 34.8206 37.0858 33.1514 38.4682C31.4822 39.8505 21.9408 34.2543 21.3586 34.2515C20.7764 34.248 11.6203 39.8793 9.56511 38.4682C7.50987 37.0577 10.2556 26.5931 10.1072 26.0215C9.95885 25.4505 1.34838 18.7554 2.2765 16.0371C3.20463 13.3188 14.1467 13.1016 14.5257 12.8196C14.9046 12.5377 18.5074 2.17358 21.3586 2.17358Z" fill="url(#paint0_linear_19_896)"/>
<path d="M4.77161 16.5397C4.57403 14.6068 10.9148 13.4692 11.1947 15.7304C11.4738 17.9916 5.04232 19.1729 4.77161 16.5397Z" fill="white"/>
<path d="M12.8182 15.0955C12.7711 13.8517 14.6668 13.7765 14.7652 14.7967C14.8749 15.9386 12.8618 16.2585 12.8182 15.0955Z" fill="white"/>
<g opacity="0.6">
<g opacity="0.6">
<path d="M15.8931 25.2347C15.8931 26.4919 14.7885 27.5121 13.4265 27.5121C12.0646 27.5121 10.96 26.4926 10.96 25.2347C10.96 23.9768 12.0646 22.958 13.4265 22.958C14.7885 22.958 15.8931 23.9775 15.8931 25.2347Z" fill="#FF5F82"/>
</g>
<g opacity="0.6">
<path d="M32.2456 25.2347C32.2456 26.4919 31.141 27.5121 29.7791 27.5121C28.4171 27.5121 27.3125 26.4926 27.3125 25.2347C27.3125 23.9768 28.4171 22.958 29.7791 22.958C31.141 22.958 32.2456 23.9775 32.2456 25.2347Z" fill="#FF5F82"/>
</g>
</g>
<path d="M23.5816 25.2282C24.0752 24.383 23.3622 23.7305 22.8947 24.5152C22.1866 25.7028 19.3762 25.6086 18.6548 24.5152C18.1584 23.7643 17.5214 24.3352 17.9672 25.2282C18.8524 26.998 22.3772 27.294 23.5816 25.2282Z" fill="#872A2A"/>
<path d="M10.4416 11.2156C10.4416 11.2156 5.10207 7.88275 2.78387 9.81494C0.465667 11.7471 3.73942 14.9013 4.2302 15.3014C4.72098 15.7022 3.50669 18.1034 5.25325 19.2656C7.00052 20.4258 10.6357 15.7669 11.2593 13.8087" fill="#FF7676"/>
<path d="M13.2358 10.2086C13.2358 10.2086 15.2222 4.23629 18.2407 4.24684C21.2592 4.25739 20.748 8.77285 20.6257 9.39512C20.5033 10.0167 22.9699 11.0918 22.3645 13.1013C21.7598 15.1094 15.9879 13.8382 14.2589 12.7279" fill="#FF7676"/>
<path d="M10.0447 10.9836C9.16723 12.0903 10.3879 14.7017 13.052 13.7405C15.6093 12.8194 14.7065 9.96757 13.3656 9.78617C12.0247 9.60546 10.6325 10.2411 10.0447 10.9829V10.9836Z" fill="#FF7676"/>
<path d="M9.64239 11.3294C9.42864 10.4604 5.09738 8.51905 3.78676 9.85709C2.47754 11.1972 4.0188 13.0219 4.7838 13.4374C5.21271 13.6708 5.5256 13.9577 5.38287 14.8001C5.17123 16.0453 5.85114 17.8383 6.8327 17.801C8.26356 17.7476 10.8757 14.7276 10.2225 12.9115C9.98129 12.5655 8.34301 14.7501 7.58434 13.0823C6.67098 11.0714 9.81114 12.0185 9.64239 11.3294Z" fill="#FFA1A1"/>
<path d="M13.7737 9.80987C13.3799 9.01323 15.7248 4.69674 17.702 4.84299C19.6799 4.98994 19.592 7.38197 19.2257 8.1997C19.0197 8.65814 18.9473 9.08142 19.6216 9.62212C20.6179 10.4223 21.2303 12.2216 20.3852 12.841C19.1533 13.7424 14.9781 13.1849 14.3306 11.3849C14.3031 10.9651 17.1135 11.5339 16.6488 9.77612C16.0905 7.65761 14.0859 10.4413 13.7737 9.80987Z" fill="#FFA1A1"/>
<path d="M10.9684 10.6241C10.0381 11.2878 10.5451 13.2953 12.7705 12.4874C14.9958 11.6802 13.7485 8.64057 10.9684 10.6241Z" fill="#FFA1A1"/>
<path d="M25.4052 20.9519C24.738 20.3873 25.7308 18.4487 28.3858 18.4487C31.0408 18.4487 31.9823 20.35 31.4303 20.9519C30.9536 21.4722 30.3686 19.9105 28.4505 19.9105C26.5323 19.9105 25.9691 21.4286 25.4052 20.9519Z" fill="#541300"/>
<path d="M30.1167 19.4682C31.0807 19.2031 31.4259 18.6743 31.7725 18.2553C32.1199 17.8362 32.56 19.419 31.0532 20.1544C32.2282 20.2648 32.7907 19.4661 32.9784 19.5687C33.3567 19.7747 32.1108 21.3076 31.0554 21.0425" fill="#541300"/>
<path d="M16.7232 20.9519C17.3905 20.3873 16.3977 18.4487 13.7434 18.4487C11.0891 18.4487 10.1469 20.35 10.6981 20.9519C11.1756 21.4722 11.7599 19.9105 13.6787 19.9105C15.5975 19.9105 16.16 21.4286 16.7239 20.9519H16.7232Z" fill="#541300"/>
<path d="M12.0113 19.4682C11.0474 19.2031 10.7021 18.6743 10.3555 18.2553C10.0088 17.8362 9.56869 19.419 11.0748 20.1544C9.90056 20.2648 9.33805 19.4661 9.15032 19.5687C8.77204 19.7747 10.018 21.3076 11.0727 21.0425" fill="#541300"/>
<defs>
<linearGradient id="paint0_linear_19_896" x1="11.8249" y1="11.4225" x2="34.3256" y2="38.4513" gradientUnits="userSpaceOnUse">
<stop offset="0.04" stop-color="#FFF466"/>
<stop offset="0.08" stop-color="#FFF466"/>
<stop offset="0.32" stop-color="#FFEB5F"/>
<stop offset="0.69" stop-color="#FFD54C"/>
<stop offset="0.86" stop-color="#FFC943"/>
</linearGradient>
</defs>
</symbol>

<symbol id="07" viewBox="0 0 42 41" >
<path d="M20.6994 0.841797C23.758 0.841797 27.9739 11.5616 28.4408 11.8527C28.9077 12.1438 40.2315 13.5135 41.1709 15.7157C42.1103 17.9179 33.3971 25.8857 33.1813 26.4278C32.9654 26.9699 35.1423 38.2987 33.3514 39.7815C31.5606 41.2637 21.3231 35.4665 20.6987 35.4629C20.0743 35.4594 10.2517 41.2947 8.04668 39.7815C5.84168 38.2677 8.37574 27.0402 8.21683 26.4278C8.05793 25.8147 -0.768408 18.6316 0.227217 15.7157C1.22214 12.7991 12.5502 12.1544 12.9573 11.8527C13.3637 11.5504 17.6408 0.841797 20.6994 0.841797Z" fill="#FFBD39"/>
<path d="M20.6989 2.17285C23.5494 2.17285 27.2879 12.5482 27.7231 12.8189C28.1584 13.0903 38.9042 13.9832 39.7803 16.0357C40.6557 18.0888 32.3427 25.3232 32.1416 25.8281C31.9405 26.3329 34.1609 37.0851 32.4924 38.4668C30.8232 39.8491 21.2811 34.2529 20.6996 34.2501C20.1174 34.2466 10.9613 39.8779 8.90681 38.4668C6.85157 37.0563 9.59657 26.5917 9.44891 26.02C9.30055 25.4491 0.690783 18.7539 1.6182 16.0357C2.54633 13.3174 13.4884 13.1001 13.8673 12.8189C14.2463 12.5369 17.8484 2.17285 20.6996 2.17285H20.6989Z" fill="url(#paint0_linear_19_869)"/>
<path d="M4.11295 16.5397C3.91467 14.6068 10.2562 13.4692 10.5353 15.7304C10.8151 17.9924 4.38366 19.1729 4.11295 16.5397Z" fill="white"/>
<path d="M12.1591 15.0955C12.1113 13.8517 14.0076 13.7765 14.1053 14.7967C14.2157 15.9386 12.2027 16.2585 12.1591 15.0955Z" fill="white"/>
<g opacity="0.6">
<g opacity="0.6">
<path d="M15.2339 25.2345C15.2339 26.4924 14.1293 27.5119 12.7673 27.5119C11.4054 27.5119 10.3008 26.4924 10.3008 25.2345C10.3008 23.9766 11.4054 22.9578 12.7673 22.9578C14.1293 22.9578 15.2339 23.9773 15.2339 25.2345Z" fill="#FF5F82"/>
</g>
<g opacity="0.6">
<path d="M31.586 25.2345C31.586 26.4924 30.4821 27.5119 29.1202 27.5119C27.7582 27.5119 26.6543 26.4924 26.6543 25.2345C26.6543 23.9766 27.7582 22.9578 29.1202 22.9578C30.4821 22.9578 31.586 23.9773 31.586 25.2345Z" fill="#FF5F82"/>
</g>
</g>
<path d="M25.2419 22.564C24.574 21.9994 25.5675 20.3091 28.2218 20.3091C30.8761 20.3091 31.8183 21.9621 31.267 22.564C30.7896 23.0836 30.2053 21.7709 28.2865 21.7709C26.3676 21.7709 25.8051 23.0407 25.2419 22.564Z" fill="#541300"/>
<path d="M24.4909 26.3449C25.1722 25.4997 24.1872 24.8472 23.5403 25.6319C22.5601 26.8195 18.6747 26.7253 17.6762 25.6319C16.9907 24.881 16.109 25.4519 16.7256 26.3449C17.949 28.1146 22.8252 28.4107 24.4902 26.3449H24.4909Z" fill="#872A2A"/>
<path d="M9.78379 10.8445C9.78379 10.8445 4.44425 7.511 2.12675 9.44389C-0.191456 11.3768 3.0816 14.5303 3.57308 14.9304C4.06386 15.3311 2.84886 17.7323 4.59613 18.8946C6.34269 20.0554 9.97854 15.3958 10.6022 13.4376" fill="#FF7676"/>
<path d="M12.5781 9.83754C12.5781 9.83754 14.5644 3.8652 17.583 3.87575C20.6008 3.88629 20.0903 8.40176 19.968 9.02473C19.8456 9.64629 22.3122 10.7214 21.7068 12.7309C21.1021 14.739 15.3295 13.4678 13.6005 12.3575" fill="#FF7676"/>
<path d="M9.38652 10.6125C8.50902 11.7192 9.72965 14.3306 12.3945 13.3702C14.9518 12.4484 14.0482 9.59719 12.7074 9.41578C11.3665 9.23508 9.97433 9.87141 9.38652 10.6125Z" fill="#FF7676"/>
<path d="M8.98461 10.9583C8.77086 10.0892 4.43961 8.14861 3.12898 9.48595C1.81906 10.8254 3.36032 12.6507 4.12602 13.0663C4.55493 13.2997 4.86782 13.5866 4.72509 14.4289C4.51274 15.6742 5.19266 17.4671 6.17492 17.4299C7.60578 17.3771 10.2179 14.3565 9.56469 12.5403C9.32351 12.1944 7.68523 14.379 6.92726 12.7119C6.0132 10.701 9.15406 11.6481 8.98461 10.9583Z" fill="#FFA1A1"/>
<path d="M13.1158 9.43877C12.7228 8.64213 15.0677 4.32564 17.0456 4.47189C19.0228 4.61885 18.9356 7.01087 18.5685 7.82861C18.3625 8.28705 18.2908 8.71034 18.9651 9.25105C19.9607 10.0512 20.5739 11.8505 19.728 12.4699C18.4961 13.3713 14.3217 12.8138 13.6734 11.0138C13.6467 10.594 16.4564 11.1628 15.9916 9.40503C15.4333 7.28651 13.4287 10.0702 13.1158 9.43877Z" fill="#FFA1A1"/>
<path d="M10.3103 10.2531C9.38077 10.9169 9.88701 12.9243 12.1131 12.1164C14.3385 11.3085 13.0905 8.26891 10.3103 10.2531Z" fill="#FFA1A1"/>
<path d="M29.9531 21.0805C30.9171 20.8154 31.2623 20.2867 31.6097 19.8676C31.9563 19.4485 32.3965 21.0313 30.8897 21.7667C32.0646 21.8771 32.6264 21.0784 32.8149 21.181C33.1931 21.387 31.9472 22.9198 30.8925 22.6548" fill="#541300"/>
<path d="M14.1029 17.7892C10.3904 18.0283 11.3973 23.4894 14.3806 23.3896C17.3633 23.289 17.8147 17.5508 14.1029 17.7892Z" fill="#541300"/>
<path d="M15.3907 20.3591C14.6011 20.2888 14.3508 21.7815 15.2445 21.9193C16.1389 22.0578 16.5122 20.4575 15.3907 20.3591Z" fill="white"/>
<path d="M12.6902 19.2412C11.6531 19.109 11.2172 18.6119 10.7953 18.2294C10.3748 17.8462 10.1519 19.5506 11.8211 20.0906C10.6216 20.3782 9.9213 19.6335 9.7413 19.7678C9.38059 20.0371 10.8965 21.4406 11.9505 21.011" fill="#541300"/>
<defs>
<linearGradient id="paint0_linear_19_869" x1="11.1652" y1="11.4225" x2="33.6666" y2="38.4513" gradientUnits="userSpaceOnUse">
<stop offset="0.04" stop-color="#FFF466"/>
<stop offset="0.08" stop-color="#FFF466"/>
<stop offset="0.32" stop-color="#FFEB5F"/>
<stop offset="0.69" stop-color="#FFD54C"/>
<stop offset="0.86" stop-color="#FFC943"/>
</linearGradient>
</defs>
</symbol>


<symbol id="08" viewBox="0 0 42 40" >

<path d="M21.0406 0.212402C24.0992 0.212402 28.3158 10.9322 28.7827 11.2226C29.2503 11.5137 40.5734 12.8834 41.5128 15.0856C42.4522 17.2885 33.739 25.2563 33.5232 25.7984C33.3073 26.3405 35.4842 37.67 33.6933 39.1522C31.9025 40.6343 21.665 34.8371 21.0406 34.8336C20.4162 34.83 10.5929 40.666 8.38857 39.1522C6.18427 37.6383 8.71764 26.4108 8.55873 25.7984C8.39982 25.1853 -0.426503 18.0022 0.568419 15.0856C1.56404 12.169 12.8921 11.525 13.2985 11.2226C13.7049 10.921 17.982 0.212402 21.0399 0.212402H21.0406Z" fill="#FFBD39"/>
<path d="M21.0406 1.54346C23.8911 1.54346 27.6296 11.9188 28.0649 12.1902C28.5001 12.4616 39.2467 13.3545 40.122 15.4077C40.9974 17.4608 32.6844 24.6952 32.4833 25.2008C32.2822 25.7056 34.5027 36.4578 32.8335 37.8395C31.1642 39.2218 21.6228 33.6256 21.0406 33.6228C20.4585 33.6193 11.3024 39.2506 9.24713 37.8395C7.1919 36.429 9.9376 25.9644 9.78924 25.3927C9.64088 24.8218 1.03111 18.1267 1.95854 15.4084C2.88666 12.6901 13.8287 12.4728 14.2077 12.1909C14.5867 11.9089 18.1895 1.54416 21.0399 1.54416L21.0406 1.54346Z" fill="url(#paint0_linear_19_678)"/>
<path d="M4.45377 15.9098C4.25549 13.9769 10.597 12.8393 10.8768 15.1005C11.156 17.3618 4.72448 18.543 4.45377 15.9098Z" fill="white"/>
<path d="M12.5004 14.4662C12.4533 13.2223 14.3489 13.1471 14.448 14.1673C14.5577 15.3092 12.5447 15.6291 12.5004 14.4662Z" fill="white"/>
<g opacity="0.6">
<g opacity="0.6">
<path d="M14.3535 25.3751C14.3535 26.6323 13.2489 27.6525 11.887 27.6525C10.525 27.6525 9.42041 26.633 9.42041 25.3751C9.42041 24.1172 10.525 23.0984 11.887 23.0984C13.2489 23.0984 14.3535 24.1179 14.3535 25.3751Z" fill="#FF5F82"/>
</g>
<g opacity="0.6">
<path d="M30.7061 25.3749C30.7061 26.632 29.6015 27.6523 28.2395 27.6523C26.8776 27.6523 25.7729 26.6328 25.7729 25.3749C25.7729 24.117 26.8776 23.0981 28.2395 23.0981C29.6015 23.0981 30.7061 24.1177 30.7061 25.3749Z" fill="#FF5F82"/>
</g>
</g>
<path d="M15.3826 16.0059C12.222 16.3026 13.0791 22.8297 15.6195 22.7053C18.1592 22.5808 18.5438 15.7092 15.3826 16.0059Z" fill="#541300"/>
<path d="M16.479 18.9463C15.8062 18.8591 15.5931 20.4629 16.3546 20.6345C17.1161 20.8061 17.4332 19.0693 16.479 18.9463Z" fill="white"/>
<path d="M26.6914 16.0059C29.8526 16.3026 28.9948 22.8297 26.4551 22.7053C23.9148 22.5808 23.5308 15.7092 26.6914 16.0059Z" fill="#541300"/>
<path d="M25.5943 18.9463C26.2665 18.8591 26.4802 20.4629 25.7188 20.6345C24.9573 20.8061 24.6395 19.0693 25.5943 18.9463Z" fill="white"/>
<path d="M17.7274 12.4925C18.0157 11.8906 16.7416 10.9526 15.0836 11.3014C13.9629 11.5376 12.9018 12.9263 13.1761 13.235C13.451 13.5437 13.8806 12.5417 15.3332 12.2858C16.5799 12.0657 17.6036 12.7526 17.7281 12.4932L17.7274 12.4925Z" fill="#541300"/>
<path d="M24.3466 12.4925C24.0583 11.8906 25.3316 10.9526 26.9903 11.3014C28.1111 11.5376 29.1721 12.9263 28.8979 13.235C28.6237 13.5437 28.1933 12.5417 26.7414 12.2858C25.494 12.0657 24.471 12.7526 24.3466 12.4932V12.4925Z" fill="#541300"/>
<path d="M24.4134 29.4996C23.7448 30.0044 18.3377 30.003 17.6641 29.4996C17.2001 29.1537 17.0566 27.4395 21.0363 27.4395C25.016 27.4395 24.8705 29.153 24.4127 29.4996H24.4134Z" fill="#872A2A"/>
<defs>
<linearGradient id="paint0_linear_19_678" x1="11.507" y1="10.7924" x2="34.0084" y2="37.8212" gradientUnits="userSpaceOnUse">
<stop offset="0.04" stop-color="#FFF466"/>
<stop offset="0.08" stop-color="#FFF466"/>
<stop offset="0.32" stop-color="#FFEB5F"/>
<stop offset="0.69" stop-color="#FFD54C"/>
<stop offset="0.86" stop-color="#FFC943"/>
</linearGradient>
</defs>
</symbol>

</svg>