<svg width="32" height="32" viewBox="0 0 32 32" fill="none" xmlns="http://www.w3.org/2000/svg">
<g clip-path="url(#clip0_835_4831)">
<path fill-rule="evenodd" clip-rule="evenodd" d="M16 0C24.8365 0 32 7.16347 32 16C32 24.8365 24.8365 32 16 32C7.16347 32 0 24.8365 0 16C0 7.16347 7.16347 0 16 0ZM20.2627 13.9723C20.1849 13.3401 19.9906 12.8437 19.6455 12.4039C19.1974 11.8377 18.6248 11.4987 17.777 11.2976C17.2245 11.1635 17.0013 11.1789 16.8015 11.3615C16.6153 11.5325 16.579 11.8753 16.7212 12.0973C16.8213 12.2585 16.9367 12.3162 17.2576 12.3792C17.685 12.4578 17.9804 12.5599 18.2491 12.7135C18.8193 13.0428 19.0849 13.5581 19.1134 14.3923C19.1267 14.784 19.1605 14.9044 19.2973 15.0433C19.5509 15.2973 20.0021 15.2479 20.1936 14.944C20.2638 14.8295 20.2745 14.7796 20.2819 14.5137C20.2869 14.349 20.2798 14.1039 20.2627 13.9723ZM20.2703 10.0935C21.6262 11.1899 22.3838 12.7482 22.4964 14.6851C22.5438 15.448 22.4809 15.6965 22.2117 15.838C21.9689 15.9691 21.6937 15.9259 21.5049 15.7285C21.3798 15.6001 21.3318 15.4245 21.3337 15.1135C21.3391 14.2537 21.1411 13.2935 20.8189 12.6271C20.4462 11.8517 19.8699 11.1917 19.1451 10.7093C18.5101 10.2855 17.6698 9.99927 16.8551 9.928C16.3265 9.88173 16.1379 9.7922 16.0364 9.53887C15.9735 9.38733 15.9901 9.12533 16.0639 9.008C16.1335 8.89973 16.2898 8.78013 16.4003 8.74847C16.5175 8.71433 17.2001 8.774 17.5709 8.84773C18.583 9.05373 19.5064 9.47733 20.2703 10.0935ZM24.9681 22.1442C24.9303 22.0335 24.8419 21.8627 24.7787 21.7647C24.3808 21.1639 22.243 19.4908 21.1757 18.9437C20.5662 18.6306 20.1147 18.5263 19.7799 18.6243C19.4199 18.7255 19.2305 18.8931 18.6273 19.6426C18.3842 19.9431 18.1347 20.2245 18.0684 20.2688C17.9042 20.3827 17.5821 20.4744 17.3547 20.4744C16.8274 20.4712 15.8706 20.1297 15.1348 19.6805C14.5633 19.3327 13.8307 18.7097 13.2686 18.093C12.6054 17.3687 12.1539 16.7299 11.797 16.0089C11.336 15.0822 11.2192 14.5161 11.4118 14.1018C11.4591 13.9974 11.5223 13.8867 11.5507 13.8519C11.5791 13.8203 11.876 13.5768 12.2043 13.3111C12.8486 12.7988 12.9528 12.6818 13.0727 12.3307C13.2243 11.8848 13.1833 11.4294 12.9496 10.9709C12.7696 10.6229 12.2991 9.86393 11.9581 9.37373C11.5065 8.7286 10.3823 7.34973 10.1581 7.16307C9.75393 6.8342 9.23607 6.77727 8.66447 6.99867C8.0614 7.23273 6.93087 8.14353 6.44771 8.7792C6.01193 9.3548 5.84462 9.76273 5.81933 10.3004C5.79725 10.7431 5.83513 10.9265 6.06881 11.4927C7.8972 15.9329 10.6255 19.4781 14.3738 22.2929C16.3316 23.7635 18.3621 24.883 20.4683 25.6484C21.6967 26.0943 22.2303 26.1164 22.8587 25.7496C23.124 25.5914 23.7808 24.9178 24.1471 24.4276C24.7534 23.6117 24.9777 23.2353 25.0408 22.9349C25.085 22.7293 25.0503 22.3719 24.9681 22.1442ZM24.1607 12.1337C24.5454 13.1357 24.7299 14.0343 24.7703 15.1299C24.7767 15.3464 24.7737 15.7429 24.7597 16.0116C24.7305 16.5265 24.7026 16.6288 24.5543 16.7651C24.3161 16.9887 23.8516 16.9353 23.6755 16.6659C23.5835 16.5213 23.5706 16.4155 23.5883 15.8139C23.6395 14.0342 23.2795 12.6407 22.4125 11.2474C21.3763 9.5758 19.8265 8.44967 17.8112 7.8988C17.2973 7.75853 16.8641 7.67307 16.1905 7.5824C15.7517 7.525 15.6557 7.50067 15.5473 7.434C15.2202 7.22447 15.2159 6.69393 15.542 6.48119C15.7103 6.36889 15.8344 6.36388 16.3829 6.43413C17.9915 6.63514 19.4268 7.11313 20.6062 7.8354C21.4515 8.35373 21.9846 8.81947 22.6708 9.63507C23.3967 10.5049 23.781 11.1481 24.1607 12.1337Z" fill="#26262B"/>
</g>
<defs>
<clipPath id="clip0_835_4831">
<rect width="32" height="32" fill="white"/>
</clipPath>
</defs>
</svg>
