<svg width="28" height="31" viewBox="0 0 28 31" fill="none" xmlns="http://www.w3.org/2000/svg">
<path d="M26.6598 7.41996C26.1598 5.63496 25.1698 4.22496 23.7198 3.22746C21.8898 1.96496 19.7848 1.51996 17.9673 1.24746C15.4523 0.872458 13.1748 0.819958 11.0023 1.08496C8.96734 1.33496 7.43484 1.73246 6.03734 2.37496C3.29734 3.63496 1.65234 5.67246 1.14984 8.42996C0.904844 9.76996 0.739843 10.98 0.644844 12.135C0.424844 14.805 0.624844 17.1675 1.25484 19.3575C1.86984 21.4925 2.94234 23.0175 4.53484 24.02C4.93984 24.275 5.45984 24.46 5.96234 24.6375C6.24734 24.7375 6.52484 24.835 6.75234 24.9425C6.96234 25.04 6.96234 25.0575 6.95984 25.2325C6.94234 26.75 6.95984 29.725 6.95984 29.725L6.96484 30.36H8.10484L8.28984 30.18C8.41234 30.065 11.2373 27.335 12.2448 26.235L12.3823 26.0825C12.5548 25.8825 12.5548 25.8825 12.7323 25.88C14.0923 25.8525 15.4823 25.8 16.8623 25.725C18.5348 25.635 20.4723 25.4725 22.2973 24.7125C23.9673 24.015 25.1873 22.9075 25.9198 21.4225C26.6848 19.8725 27.1373 18.195 27.3073 16.2925C27.6073 12.9475 27.3948 10.045 26.6598 7.41996ZM20.6448 20.4275C20.2248 21.11 19.5998 21.585 18.8623 21.8925C18.3223 22.1175 17.7723 22.07 17.2398 21.845C12.7823 19.9575 9.28484 16.985 6.97484 12.71C6.49734 11.83 6.16734 10.87 5.78734 9.93996C5.70984 9.74996 5.71484 9.52496 5.67984 9.31496C5.71234 7.81246 6.86484 6.96496 8.02984 6.70996C8.47484 6.60996 8.86984 6.76746 9.19984 7.08496C10.1148 7.95496 10.8373 8.96746 11.3823 10.1025C11.6198 10.6 11.5123 11.04 11.1073 11.41C11.0223 11.4875 10.9348 11.5575 10.8423 11.6275C9.91734 12.3225 9.78234 12.85 10.2748 13.8975C11.1148 15.68 12.5098 16.8775 14.3123 17.62C14.7873 17.815 15.2348 17.7175 15.5973 17.3325C15.6473 17.2825 15.7023 17.2325 15.7373 17.1725C16.4473 15.9875 17.4798 16.105 18.4323 16.78C19.0573 17.225 19.6648 17.695 20.2823 18.1475C21.2248 18.84 21.2173 19.49 20.6448 20.4275ZM14.7323 8.59996C14.5223 8.59996 14.3123 8.61746 14.1048 8.65246C13.7548 8.70996 13.4273 8.47496 13.3673 8.12496C13.3098 7.77746 13.5448 7.44746 13.8948 7.38996C14.1698 7.34246 14.4523 7.31996 14.7323 7.31996C17.5048 7.31996 19.7598 9.57496 19.7598 12.3475C19.7598 12.63 19.7373 12.9125 19.6898 13.185C19.6373 13.4975 19.3673 13.72 19.0598 13.72C19.0248 13.72 18.9898 13.7175 18.9523 13.71C18.6048 13.6525 18.3698 13.3225 18.4273 12.975C18.4623 12.77 18.4798 12.56 18.4798 12.3475C18.4798 10.2825 16.7973 8.59996 14.7323 8.59996ZM17.8398 12.44C17.8398 12.7925 17.5523 13.08 17.1998 13.08C16.8473 13.08 16.5598 12.7925 16.5598 12.44C16.5598 11.3825 15.6973 10.52 14.6398 10.52C14.2873 10.52 13.9998 10.2325 13.9998 9.87996C13.9998 9.52746 14.2873 9.23996 14.6398 9.23996C16.4048 9.23996 17.8398 10.675 17.8398 12.44ZM21.4948 13.8625C21.4273 14.16 21.1623 14.36 20.8698 14.36C20.8223 14.36 20.7748 14.355 20.7273 14.345C20.3823 14.265 20.1673 13.9225 20.2448 13.5775C20.3373 13.17 20.3848 12.7475 20.3848 12.3225C20.3848 9.21246 17.8523 6.67996 14.7423 6.67996C14.3173 6.67996 13.8948 6.72746 13.4873 6.81996C13.1423 6.89996 12.7998 6.68246 12.7223 6.33746C12.6423 5.99246 12.8598 5.64996 13.2048 5.57246C13.7048 5.45746 14.2223 5.39996 14.7423 5.39996C18.5598 5.39996 21.6648 8.50496 21.6648 12.3225C21.6648 12.8425 21.6073 13.36 21.4948 13.8625Z" fill="#26262B"/>
</svg>
